<?xml version="1.0" encoding="utf-8"?>
<!-- Generator: Adobe Illustrator 23.0.2, SVG Export Plug-In . SVG Version: 6.00 Build 0)  -->
<svg version="1.1" id="Layer_1" xmlns="http://www.w3.org/2000/svg" xmlns:xlink="http://www.w3.org/1999/xlink" x="0px" y="0px"
	 viewBox="0 0 755.9 166.7" style="enable-background:new 0 0 755.9 166.7;" xml:space="preserve">
<style type="text/css">
	.st0{fill:#212529;}
	.st1{fill-rule:evenodd;clip-rule:evenodd;fill:#212529;}
</style>
<g>
	<g>
		<path class="st0" d="M263,107.5c-12.1,0-23.7-4.3-32.8-12.4c-10-8.8-16-21-16.9-34.3c-0.9-13.3,3.5-26.1,12.3-36.1
			c8.8-10,20.9-16,34.2-16.9c13.3-0.9,26.1,3.5,36.2,12.3h0c10,8.8,16,21,16.9,34.3c0.9,13.3-3.5,26.1-12.3,36.1
			c-8.8,10-21,16-34.3,16.9C265.2,107.4,264.1,107.5,263,107.5z M263.2,8.7c-1.1,0-2.2,0-3.2,0.1c-13,0.8-24.9,6.7-33.6,16.5
			c-8.6,9.8-12.9,22.4-12.1,35.4c0.8,13,6.7,25,16.5,33.6c9.8,8.6,22.4,12.9,35.4,12c13-0.8,25-6.7,33.6-16.5
			c8.6-9.8,12.9-22.4,12-35.4c-0.8-13-6.7-25-16.5-33.6C286.4,12.9,275,8.7,263.2,8.7z"/>
	</g>
	<g>
		<path class="st1" d="M252.2,24.4c-1.1,2.6-1.3,5.3-0.8,8.1c0.8,4.4,1.5,8.9,2.3,13.3c0.1,0.8,0.3,1.6,0.4,2.3
			c0.1,0.8-0.3,1.5-1,1.8c-0.8,0.3-1.6,0-2-0.6c-0.1-0.2-0.2-0.5-0.3-0.8c-0.6-3.2-1.1-6.4-1.6-9.6c-0.3-1.9-0.7-3.8-1-5.7
			c-0.5-2.8,0.2-5.4,2.1-8c0.3-0.3,0.8-0.8,1.3-1.3c0.2-0.2,0.3-0.2,0.5-0.1C252.3,24,252.3,24.2,252.2,24.4L252.2,24.4z
			 M283.7,83.5v-1.3c0-0.7-0.1-1.4-0.2-2.1c-0.4-2.5-0.9-5.1-1.4-7.6c-0.5-2.8-1-5.6-1.5-8.4c-1.1-6.1-2.2-12.3-3.3-18.5
			c-0.9-5.1-1.9-10.3-2.8-15.4c-0.3-1.6-0.7-3.1-1.3-4.5c-1.2-2.5-2.8-4.5-4.5-5.8c-2.9-2.1-5.5-3.2-8.4-3.5c-0.5,0-1-0.1-1.4-0.1
			h-0.6c-5.8,0.1-10.3,2.7-13.5,7.8c-1.7,2.7-2.5,5.7-2.3,8.9c0.1,1.7,0.4,3.3,0.7,5c0.7,4.2,1.5,8.4,2.2,12.6
			c0.1,0.7,0.3,1.5,0.4,2.2c0.1,0.7,0.3,1.4,0.4,2.1c0.7,3.9,1.4,7.7,2.1,11.6c0,0.1,0,0.2,0,0.3c0.2,1.3,0.5,2.5,0.7,3.8
			c0.9,5.1,1.8,10.1,2.7,15.2c0.2,1,0.5,2,0.8,2.9c0,0,0,0.1,0,0.1c0.9,2.3,2.3,4.3,4.3,6l0,0c1.2,1.1,2.5,1.9,3.9,2.5
			c0.1,0.1,0.3,0.1,0.4,0.2c1.4,0.6,2.8,1,4.4,1.1c0.4,0.1,0.8,0.1,1.2,0.1c6.3,0.3,12.1-3.1,15-8.7C283,88,283.6,85.8,283.7,83.5
			L283.7,83.5z M276,59.3c0.5,3.2,1.1,6.4,1.7,9.6c0.1,0.6,0.2,1.1,0.3,1.7c0.2,1,0.3,2,0.5,2.9c0,0.2,0.1,0.4,0.1,0.6
			c0.4,2.1,0.7,4.2,1.1,6.3c0.6,3.6-0.1,6.8-2,9.3c-2.6,3.5-6.5,5.3-10.3,5.3c-1.6,0-3.3-0.4-4.8-1.1c-0.2-0.1-0.4-0.2-0.5-0.3
			c-1.2-0.6-2.2-1.3-3-2.1c-1.9-1.8-3-4.1-3.6-6.8c-0.9-5-1.8-10.1-2.7-15.1c-0.3-1.8-0.6-3.5-0.9-5.2c0-0.3-0.1-0.6-0.2-0.9
			c-0.2-1.4,0.5-2.5,1.9-2.8c1.4-0.2,2.8-0.5,4.1-0.7c3.7-0.7,7.4-1.3,11.1-2c1.4-0.2,2.8-0.5,4.2-0.7
			C274.6,56.9,275.7,57.7,276,59.3z"/>
	</g>
	<g>
		<path class="st0" d="M52.2,107C24.7,107,2.4,84.6,2.4,57.1c0-27.5,22.4-49.9,49.9-49.9c27.5,0,49.9,22.4,49.9,49.9
			C102.1,84.6,79.8,107,52.2,107z M52.2,8.2c-27,0-48.9,21.9-48.9,48.9c0,27,21.9,48.9,48.9,48.9c27,0,48.9-21.9,48.9-48.9
			C101.1,30.2,79.2,8.2,52.2,8.2z"/>
	</g>
	<g>
		<path class="st1" d="M79.8,35.2c-3.3,1.1-5.9,3.1-8,5.8c-3.4,4.3-6.9,8.5-10.3,12.7c-0.6,0.7-1.2,1.5-1.8,2.2
			c-0.6,0.7-1.6,0.9-2.4,0.5c-0.9-0.5-1.3-1.4-1-2.4c0.1-0.3,0.3-0.6,0.5-0.8c2.5-3.1,4.9-6.1,7.4-9.2c1.5-1.8,2.9-3.7,4.4-5.4
			c2.2-2.7,5.1-4.1,9-4.5c0.5,0,1.4,0.1,2.2,0.1c0.3,0,0.5,0.1,0.5,0.4C80.3,35,80.1,35.1,79.8,35.2L79.8,35.2z M69.3,75.9
			c-2,2.5-4.1,5.1-6.1,7.6c-0.4,0.4-0.7,0.9-1.1,1.4c-0.6,0.8-1.3,1.6-1.9,2.4l-0.4,0.5c-1.3,1.7-2.7,3.3-4,5
			c-2.3,2.8-5.2,4.4-8.3,4.7c-4.3,0.3-8.2-1.4-10.8-4.3c-1.1-1.2-1.9-2.7-2.4-4.3c-0.1-0.2-0.1-0.4-0.2-0.6
			c-0.3-1.3-0.4-2.5-0.4-3.7c0.1-2.6,1-5,2.8-7.2c3.2-4,6.4-8,9.6-12c1.1-1.4,2.2-2.8,3.3-4.2c0.2-0.2,0.4-0.5,0.6-0.7
			c0.9-1.1,2.2-1.3,3.4-0.4c1.1,0.9,2.2,1.7,3.3,2.6c3,2.3,5.9,4.7,8.9,7.1c1.1,0.9,2.2,1.8,3.3,2.6C70.2,73.4,70.3,74.6,69.3,75.9
			L69.3,75.9z M94.2,44.4c-0.3-3.6-1.2-6.2-2.9-8.6c-3.4-4.6-7.8-6.8-13-6.8c-1,0-2,0.1-3,0.2c-3.1,0.5-5.9,1.9-8.2,4.2
			c-1.2,1.2-2.2,2.5-3.3,3.8c-2.7,3.3-5.3,6.7-8,10c-0.5,0.6-0.9,1.2-1.4,1.8c-0.5,0.5-0.9,1.1-1.3,1.6c-2.4,3.1-4.9,6.1-7.3,9.2
			c-0.1,0.1-0.1,0.1-0.2,0.2c-0.8,1-1.6,2-2.4,3c-3.2,4-6.4,8.1-9.6,12.1c-0.7,0.8-1.2,1.7-1.7,2.6c0,0,0,0,0,0.1
			c-1.1,2.2-1.7,4.6-1.7,7.2v0c0,1.6,0.2,3.2,0.7,4.6c0.1,0.1,0.1,0.3,0.2,0.4c0.5,1.4,1.1,2.8,2,4c0.2,0.3,0.5,0.7,0.7,1
			c3.9,4.9,10.4,7,16.4,5.5c3.4-0.9,6.3-2.7,8.5-5.4c1.6-2,3.2-4,4.9-6.1c1.8-2.2,3.5-4.4,5.3-6.6c3.9-4.9,7.8-9.8,11.7-14.7
			c3.2-4.1,6.5-8.2,9.8-12.3c1-1.2,1.9-2.5,2.5-4c0.9-2.1,1.4-4.4,1.4-6.3V45v-0.1L94.2,44.4z"/>
	</g>
	<g>
		<path class="st1" d="M66.1,76.5l-3.6,4.4c-1,1.2-1.9,2.4-2.9,3.6c-0.5,0.6-1,1.2-1.5,1.9c-1,1.3-2.1,2.6-3.1,3.9
			c-2.3,2.8-5.2,4.3-9,4.7c-0.5,0-1.2,0-2-0.1c-0.3,0-0.6-0.1-0.6-0.5c0-0.3,0.1-0.5,0.4-0.6c3.4-1.2,5.9-3.3,8.1-6.1
			c2.1-2.6,4.2-5.2,6.3-7.9c0.3-0.3,0.5-0.7,0.8-1c0.7-0.8,1.4-1.7,2-2.5c0.6-0.8,1.2-1.5,1.9-2.3c0.7-0.9,2-1,2.9-0.3
			C66.7,74.4,66.8,75.6,66.1,76.5z"/>
	</g>
	<g>
		<path class="st1" d="M60.3,87.2l-0.4,0.5c-1.3,1.7-2.7,3.3-4,5c-2.3,2.8-5.2,4.4-8.3,4.7c-4.3,0.3-8.2-1.3-10.8-4.3
			c-1.1-1.2-1.9-2.7-2.4-4.3c-0.1-0.5-0.3-1-0.4-1.4c-0.5-2.1-0.9-4.1-1.4-6.2l-0.8-3.3c-0.2-1.1-0.5-2.3-0.8-3.4
			c-0.1-0.7-0.3-1.3-0.5-2c-0.5-2-0.9-4.1-1.4-6.1c-0.3-1.4,0.4-2.6,1.8-2.9c4.1-1,8.3-1.9,12.5-2.8c0.7-0.1,1.4-0.3,2.1-0.5
			c0.2,0,0.4-0.1,0.6-0.1c1.3-0.3,2.6-0.6,3.9-0.9c0.2-0.2,0.4-0.4,0.6-0.7c1-1.1,2.3-1.1,3.4-0.1c1,0.9,2,1.9,3.1,2.9
			c-0.9-4-1.9-8.1-2.8-12.1c0,0,0-0.1,0-0.1c-0.1-0.5-0.3-1.1-0.4-1.6c-1.2-5.1-2.3-10.2-3.5-15.3c-0.3-1.5-0.8-3-1.5-4.4
			c-1.3-2.4-3-4.4-4.7-5.6c-3-2-5.6-3-8.5-3.1c-6.7-0.2-11.8,2.6-15.1,8.4c-1.6,2.8-2.2,5.8-1.9,9c0.2,1.7,0.6,3.3,0.9,4.9
			c0.9,4.2,1.9,8.4,2.8,12.5c1.2,5.2,2.4,10.5,3.6,15.7c0.9,4.1,1.9,8.1,2.8,12.1c0.5,2.3,1.1,4.7,1.6,7c0.1,0.4,0.2,0.8,0.3,1.2
			c0.1,0.1,0.1,0.3,0.2,0.4c0.2,0.5,0.4,1.1,0.6,1.6c1,2.1,2.5,4,4.4,5.5c2.6,2.1,5.6,3.3,8.9,3.5l0.8,0h0.6
			c6.2-0.1,11.8-3.8,14.3-9.4c0.5-1.1,0.9-2.2,1.1-3.4c0.2-0.9,0.3-1.8,0.3-2.7v0v-0.4C61.5,85.7,60.9,86.5,60.3,87.2z"/>
	</g>
	<g>
		<path class="st1" d="M9.1,133.4v-12.5h8.6v2.1h-6v3h5.2v2.1h-5.2v5.3H9.1L9.1,133.4z M19.7,123.1v-2.2h2.4v2.2H19.7L19.7,123.1z
			 M19.7,133.4v-9h2.4v9H19.7L19.7,133.4z M26.8,133.4h-2.4v-9h2.2v1.3c0.4-0.6,0.7-1,1-1.2c0.3-0.2,0.6-0.3,1-0.3
			c0.5,0,1.1,0.2,1.6,0.4l-0.7,2.1c-0.4-0.3-0.8-0.4-1.1-0.4c-0.3,0-0.6,0.1-0.9,0.3c-0.2,0.2-0.4,0.5-0.6,1s-0.2,1.5-0.2,3V133.4
			L26.8,133.4z M30.5,130.8l2.4-0.4c0.1,0.5,0.3,0.8,0.6,1c0.3,0.2,0.8,0.4,1.3,0.4c0.6,0,1.1-0.1,1.4-0.3c0.2-0.2,0.3-0.4,0.3-0.6
			c0-0.2-0.1-0.3-0.2-0.4c-0.1-0.1-0.4-0.2-0.8-0.3c-1.9-0.4-3.2-0.8-3.7-1.2c-0.7-0.5-1.1-1.2-1.1-2c0-0.8,0.3-1.4,0.9-2
			c0.6-0.5,1.6-0.8,2.9-0.8c1.2,0,2.2,0.2,2.8,0.6c0.6,0.4,1,1,1.2,1.8l-2.2,0.4c-0.1-0.4-0.3-0.6-0.6-0.8c-0.3-0.2-0.7-0.3-1.2-0.3
			c-0.6,0-1.1,0.1-1.4,0.3c-0.2,0.1-0.3,0.3-0.3,0.5c0,0.2,0.1,0.3,0.2,0.4c0.2,0.2,1,0.4,2.2,0.7c1.3,0.3,2.2,0.6,2.7,1.1
			c0.5,0.4,0.8,1,0.8,1.8c0,0.8-0.3,1.5-1,2.1c-0.7,0.6-1.7,0.9-3.1,0.9c-1.2,0-2.2-0.2-2.9-0.7C31.2,132.4,30.7,131.7,30.5,130.8
			L30.5,130.8z M45.2,124.3v1.9h-1.6v3.7c0,0.7,0,1.2,0,1.3c0,0.1,0.1,0.2,0.2,0.3c0.1,0.1,0.2,0.1,0.4,0.1c0.2,0,0.5-0.1,1-0.2
			l0.2,1.9c-0.6,0.2-1.2,0.4-1.9,0.4c-0.4,0-0.8-0.1-1.2-0.2c-0.3-0.1-0.6-0.3-0.8-0.6c-0.2-0.2-0.3-0.5-0.3-0.9
			c0-0.3-0.1-0.8-0.1-1.7v-4H40v-1.9h1.1v-1.8l2.4-1.4v3.2H45.2L45.2,124.3z M57.3,133.4h-2.4v-9c-0.9,0.8-1.9,1.4-3.1,1.8V124
			c0.6-0.2,1.3-0.6,2-1.2c0.7-0.6,1.2-1.2,1.5-2h1.9V133.4L57.3,133.4z M60.9,130.2l2.4-0.2c0.1,0.5,0.3,1,0.6,1.3
			c0.3,0.3,0.7,0.5,1.2,0.5c0.5,0,0.9-0.2,1.3-0.6c0.3-0.4,0.5-1,0.5-1.8c0-0.8-0.2-1.4-0.5-1.7c-0.3-0.4-0.8-0.6-1.3-0.6
			c-0.7,0-1.3,0.3-1.9,0.9l-1.9-0.3l1.2-6.5h6.3v2.2h-4.5l-0.4,2.1c0.5-0.3,1.1-0.4,1.6-0.4c1.1,0,2,0.4,2.7,1.2
			c0.7,0.8,1.1,1.8,1.1,3c0,1-0.3,1.9-0.9,2.8c-0.8,1.1-1.9,1.7-3.4,1.7c-1.2,0-2.1-0.3-2.8-0.9C61.4,132.1,61,131.2,60.9,130.2
			L60.9,130.2z M75.9,120.9h4.6c1,0,1.8,0.1,2.4,0.2c0.7,0.2,1.4,0.6,1.9,1.2c0.5,0.5,0.9,1.2,1.2,2c0.3,0.8,0.4,1.8,0.4,2.9
			c0,1-0.1,1.9-0.4,2.7c-0.3,0.9-0.8,1.6-1.3,2.2c-0.4,0.4-1,0.8-1.8,1c-0.6,0.2-1.3,0.3-2.2,0.3h-4.7V120.9L75.9,120.9z M78.4,123
			v8.3h1.9c0.7,0,1.2,0,1.5-0.1c0.4-0.1,0.7-0.3,1-0.5c0.3-0.2,0.5-0.6,0.7-1.2c0.2-0.6,0.3-1.3,0.3-2.3c0-1-0.1-1.7-0.3-2.2
			c-0.2-0.5-0.4-0.9-0.7-1.2c-0.3-0.3-0.7-0.5-1.2-0.6c-0.3-0.1-1-0.1-2.1-0.1H78.4L78.4,123z M90.2,127.1l-2.2-0.4
			c0.2-0.9,0.7-1.5,1.3-2c0.6-0.4,1.5-0.6,2.7-0.6c1.1,0,1.9,0.1,2.4,0.4c0.5,0.3,0.9,0.6,1.1,1c0.2,0.4,0.3,1.1,0.3,2.1l0,2.8
			c0,0.8,0,1.4,0.1,1.8c0.1,0.4,0.2,0.8,0.4,1.2h-2.4c-0.1-0.2-0.1-0.4-0.2-0.7c0-0.1-0.1-0.2-0.1-0.3c-0.4,0.4-0.8,0.7-1.3,0.9
			c-0.5,0.2-1,0.3-1.5,0.3c-0.9,0-1.7-0.3-2.2-0.8c-0.5-0.5-0.8-1.1-0.8-1.9c0-0.5,0.1-1,0.4-1.4c0.2-0.4,0.6-0.7,1-0.9
			c0.4-0.2,1.1-0.4,1.9-0.6c1.1-0.2,1.9-0.4,2.3-0.6v-0.2c0-0.5-0.1-0.8-0.3-1c-0.2-0.2-0.7-0.3-1.3-0.3c-0.4,0-0.8,0.1-1,0.3
			C90.6,126.4,90.4,126.7,90.2,127.1L90.2,127.1z M93.5,129.1c-0.3,0.1-0.8,0.2-1.5,0.4c-0.7,0.1-1.1,0.3-1.3,0.4
			c-0.3,0.2-0.5,0.5-0.5,0.8c0,0.3,0.1,0.6,0.4,0.9c0.2,0.2,0.6,0.4,1,0.4c0.4,0,0.8-0.1,1.2-0.4c0.3-0.2,0.5-0.5,0.6-0.8
			c0.1-0.2,0.1-0.6,0.1-1.2V129.1L93.5,129.1z M97,124.3h2.5l2.2,6.4l2.1-6.4h2.5l-3.2,8.7l-0.6,1.6c-0.2,0.5-0.4,0.9-0.6,1.2
			c-0.2,0.3-0.4,0.5-0.7,0.7c-0.2,0.2-0.6,0.3-0.9,0.4c-0.4,0.1-0.8,0.1-1.2,0.1c-0.5,0-0.9,0-1.4-0.1l-0.2-1.9
			c0.4,0.1,0.7,0.1,1,0.1c0.6,0,1-0.2,1.2-0.5c0.3-0.3,0.5-0.7,0.6-1.3L97,124.3z"/>
	</g>
	<g>
		<path class="st1" d="M230.9,137.1h-2.7l-1.1-2.8h-5l-1,2.8h-2.7l4.8-12.5h2.7L230.9,137.1L230.9,137.1z M226.3,132.1l-1.7-4.6
			l-1.7,4.6H226.3L226.3,132.1z M231.2,128h1.3v-0.7c0-0.8,0.1-1.3,0.2-1.7c0.2-0.4,0.5-0.7,0.9-0.9c0.4-0.2,1-0.4,1.7-0.4
			c0.7,0,1.4,0.1,2,0.3l-0.3,1.7c-0.4-0.1-0.8-0.1-1.1-0.1c-0.4,0-0.6,0.1-0.8,0.2c-0.2,0.2-0.2,0.5-0.2,0.9v0.6h1.8v1.9h-1.8v7.2
			h-2.4v-7.2h-1.3V128L231.2,128z M242.2,128h-1.6v-3.2l-2.4,1.4v1.8h-1.1v1.9h1.1v4c0,0.9,0,1.4,0.1,1.7c0.1,0.4,0.2,0.7,0.3,0.9
			c0.2,0.2,0.4,0.4,0.8,0.6c0.3,0.1,0.7,0.2,1.2,0.2c0.7,0,1.3-0.1,1.9-0.4l-0.2-1.9c-0.4,0.2-0.7,0.2-1,0.2c-0.2,0-0.3,0-0.4-0.1
			c-0.1-0.1-0.2-0.2-0.2-0.3c0-0.1,0-0.6,0-1.3v-3.7h1.6V128L242.2,128z M249.1,134.2l2.4,0.4c-0.3,0.9-0.8,1.5-1.4,2
			c-0.7,0.5-1.5,0.7-2.5,0.7c-1.6,0-2.7-0.5-3.5-1.5c-0.6-0.8-0.9-1.9-0.9-3.1c0-1.5,0.4-2.7,1.2-3.5c0.8-0.8,1.8-1.3,3-1.3
			c1.3,0,2.4,0.4,3.2,1.3c0.8,0.9,1.1,2.3,1.1,4.1h-6c0,0.7,0.2,1.3,0.6,1.7c0.4,0.4,0.8,0.6,1.4,0.6c0.4,0,0.7-0.1,0.9-0.3
			C248.8,135,248.9,134.7,249.1,134.2L249.1,134.2z M249.2,131.8c0-0.7-0.2-1.2-0.5-1.6c-0.3-0.4-0.8-0.5-1.2-0.5
			c-0.5,0-0.9,0.2-1.3,0.6c-0.3,0.4-0.5,0.9-0.5,1.6H249.2L249.2,131.8z M255.8,137.1h-2.4v-9h2.2v1.3c0.4-0.6,0.7-1,1-1.2
			c0.3-0.2,0.6-0.3,1-0.3c0.5,0,1.1,0.1,1.6,0.4l-0.7,2.1c-0.4-0.3-0.8-0.4-1.1-0.4c-0.3,0-0.6,0.1-0.9,0.3c-0.2,0.2-0.4,0.5-0.6,1
			c-0.1,0.5-0.2,1.5-0.2,3V137.1L255.8,137.1z M270.8,137.1h-2.4v-9c-0.9,0.8-1.9,1.4-3.1,1.8v-2.2c0.6-0.2,1.3-0.6,2-1.2
			c0.7-0.6,1.2-1.2,1.5-2h1.9V137.1L270.8,137.1z M274.4,133.9l2.4-0.2c0.1,0.5,0.3,1,0.6,1.3c0.3,0.3,0.7,0.5,1.2,0.5
			c0.5,0,0.9-0.2,1.3-0.6c0.3-0.4,0.5-1,0.5-1.8c0-0.8-0.2-1.4-0.5-1.7c-0.3-0.4-0.8-0.6-1.3-0.6c-0.7,0-1.3,0.3-1.9,0.9l-1.9-0.3
			l1.2-6.5h6.3v2.2h-4.5l-0.4,2.1c0.5-0.3,1.1-0.4,1.6-0.4c1.1,0,2,0.4,2.7,1.2c0.7,0.8,1.1,1.8,1.1,3c0,1-0.3,1.9-0.9,2.8
			c-0.8,1.1-1.9,1.7-3.4,1.7c-1.2,0-2.1-0.3-2.8-0.9C274.9,135.8,274.5,134.9,274.4,133.9L274.4,133.9z M289.4,124.6h4.6
			c1,0,1.8,0.1,2.4,0.2c0.7,0.2,1.4,0.6,1.9,1.2c0.5,0.5,0.9,1.2,1.2,2c0.3,0.8,0.4,1.8,0.4,2.9c0,1-0.1,1.9-0.4,2.7
			c-0.3,0.9-0.8,1.6-1.3,2.2c-0.4,0.4-1,0.8-1.8,1c-0.6,0.2-1.3,0.3-2.2,0.3h-4.7V124.6L289.4,124.6z M291.9,126.7v8.3h1.9
			c0.7,0,1.2,0,1.5-0.1c0.4-0.1,0.7-0.3,1-0.5c0.3-0.2,0.5-0.6,0.7-1.2c0.2-0.6,0.3-1.3,0.3-2.3c0-1-0.1-1.7-0.3-2.2
			c-0.2-0.5-0.4-0.9-0.7-1.2c-0.3-0.3-0.7-0.5-1.2-0.6c-0.3-0.1-1-0.1-2.1-0.1H291.9L291.9,126.7z M303.7,130.8l-2.2-0.4
			c0.2-0.9,0.7-1.5,1.3-2c0.6-0.4,1.5-0.6,2.7-0.6c1.1,0,1.9,0.1,2.4,0.4c0.5,0.3,0.9,0.6,1.1,1c0.2,0.4,0.3,1.1,0.3,2.1l0,2.8
			c0,0.8,0,1.4,0.1,1.8c0.1,0.4,0.2,0.8,0.4,1.2h-2.4c-0.1-0.2-0.1-0.4-0.2-0.7c0-0.1-0.1-0.2-0.1-0.3c-0.4,0.4-0.8,0.7-1.3,0.9
			c-0.5,0.2-1,0.3-1.5,0.3c-0.9,0-1.7-0.3-2.2-0.8c-0.5-0.5-0.8-1.1-0.8-1.9c0-0.5,0.1-1,0.4-1.4c0.2-0.4,0.6-0.7,1-0.9
			c0.4-0.2,1.1-0.4,1.9-0.6c1.1-0.2,1.9-0.4,2.3-0.6V131c0-0.5-0.1-0.8-0.3-1c-0.2-0.2-0.7-0.3-1.3-0.3c-0.4,0-0.8,0.1-1,0.3
			C304.1,130.1,303.9,130.4,303.7,130.8L303.7,130.8z M306.9,132.8c-0.3,0.1-0.8,0.2-1.5,0.4c-0.7,0.1-1.1,0.3-1.3,0.4
			c-0.3,0.2-0.5,0.5-0.5,0.8c0,0.3,0.1,0.6,0.4,0.9c0.3,0.2,0.6,0.4,1,0.4c0.4,0,0.8-0.1,1.2-0.4c0.3-0.2,0.5-0.5,0.6-0.8
			c0.1-0.2,0.1-0.6,0.1-1.2V132.8L306.9,132.8z M310.5,128h2.5l2.2,6.4l2.1-6.4h2.5l-3.2,8.7l-0.6,1.6c-0.2,0.5-0.4,0.9-0.6,1.2
			c-0.2,0.3-0.4,0.5-0.7,0.7c-0.2,0.2-0.6,0.3-0.9,0.4c-0.4,0.1-0.8,0.1-1.2,0.1c-0.5,0-0.9,0-1.4-0.1l-0.2-1.9
			c0.4,0.1,0.7,0.1,1,0.1c0.6,0,1-0.2,1.2-0.5c0.3-0.3,0.5-0.7,0.6-1.3L310.5,128z"/>
	</g>
	<g>
		<path class="st1" d="M432.8,137.1v-12.4h2.5V135h6.3v2.1H432.8L432.8,137.1z M449.3,137.1v-1.4c-0.3,0.5-0.8,0.9-1.3,1.2
			c-0.5,0.3-1.1,0.4-1.7,0.4c-0.6,0-1.2-0.1-1.6-0.4c-0.5-0.3-0.8-0.6-1-1.1c-0.2-0.5-0.3-1.2-0.3-2v-5.7h2.4v4.2
			c0,1.3,0,2.1,0.1,2.3c0.1,0.3,0.2,0.5,0.5,0.7c0.2,0.2,0.5,0.3,0.9,0.3c0.4,0,0.8-0.1,1.1-0.3c0.3-0.2,0.5-0.5,0.7-0.8
			c0.1-0.3,0.2-1.1,0.2-2.4v-3.8h2.4v9H449.3L449.3,137.1z M453.9,137.1v-12.5h2.4v6.6l2.8-3.2h2.9l-3.1,3.3l3.3,5.7h-2.6l-2.3-4.1
			l-1.1,1.2v2.9H453.9L453.9,137.1z M468.9,134.2l2.4,0.4c-0.3,0.9-0.8,1.5-1.4,2c-0.7,0.5-1.5,0.7-2.5,0.7c-1.6,0-2.7-0.5-3.5-1.5
			c-0.6-0.8-0.9-1.9-0.9-3.1c0-1.5,0.4-2.7,1.2-3.5c0.8-0.8,1.8-1.3,3-1.3c1.3,0,2.4,0.4,3.2,1.3c0.8,0.9,1.1,2.3,1.1,4.1h-6
			c0,0.7,0.2,1.3,0.6,1.7c0.4,0.4,0.8,0.6,1.4,0.6c0.4,0,0.7-0.1,0.9-0.3C468.6,135,468.8,134.7,468.9,134.2L468.9,134.2z
			 M469.1,131.8c0-0.7-0.2-1.2-0.5-1.6c-0.3-0.4-0.8-0.5-1.2-0.5c-0.5,0-0.9,0.2-1.3,0.6c-0.3,0.4-0.5,0.9-0.5,1.6H469.1
			L469.1,131.8z M479.9,137.1l-2.9-12.5h2.6l1.9,8.6l2.3-8.6h3l2.2,8.7l1.9-8.7h2.5l-3,12.5h-2.7l-2.5-9.3l-2.5,9.3H479.9
			L479.9,137.1z M495.8,130.8l-2.2-0.4c0.2-0.9,0.7-1.5,1.3-2c0.6-0.4,1.5-0.6,2.7-0.6c1.1,0,1.9,0.1,2.4,0.4c0.5,0.3,0.9,0.6,1.1,1
			c0.2,0.4,0.3,1.1,0.3,2.1l0,2.8c0,0.8,0,1.4,0.1,1.8c0.1,0.4,0.2,0.8,0.4,1.2h-2.4c-0.1-0.2-0.1-0.4-0.2-0.7
			c0-0.1-0.1-0.2-0.1-0.3c-0.4,0.4-0.8,0.7-1.3,0.9c-0.5,0.2-1,0.3-1.5,0.3c-0.9,0-1.7-0.3-2.2-0.8c-0.5-0.5-0.8-1.1-0.8-1.9
			c0-0.5,0.1-1,0.4-1.4c0.2-0.4,0.6-0.7,1-0.9c0.4-0.2,1.1-0.4,1.9-0.6c1.1-0.2,1.9-0.4,2.3-0.6V131c0-0.5-0.1-0.8-0.3-1
			c-0.2-0.2-0.7-0.3-1.3-0.3c-0.4,0-0.8,0.1-1,0.3C496.1,130.1,495.9,130.4,495.8,130.8L495.8,130.8z M499,132.8
			c-0.3,0.1-0.8,0.2-1.5,0.4c-0.7,0.1-1.1,0.3-1.3,0.4c-0.3,0.2-0.5,0.5-0.5,0.8c0,0.3,0.1,0.6,0.4,0.9c0.2,0.2,0.6,0.4,1,0.4
			c0.4,0,0.8-0.1,1.2-0.4c0.3-0.2,0.5-0.5,0.6-0.8c0.1-0.2,0.1-0.6,0.1-1.2V132.8L499,132.8z M506,137.1h-2.4v-9h2.2v1.3
			c0.4-0.6,0.7-1,1-1.2c0.3-0.2,0.6-0.3,1-0.3c0.5,0,1.1,0.1,1.6,0.4l-0.7,2.1c-0.4-0.3-0.8-0.4-1.1-0.4c-0.3,0-0.6,0.1-0.9,0.3
			c-0.2,0.2-0.4,0.5-0.6,1c-0.1,0.5-0.2,1.5-0.2,3V137.1L506,137.1z M510.3,128.1h2.2v1.2c0.8-0.9,1.7-1.4,2.8-1.4
			c0.6,0,1.1,0.1,1.5,0.4c0.4,0.2,0.8,0.6,1,1.1c0.4-0.5,0.8-0.8,1.3-1.1c0.5-0.2,0.9-0.4,1.5-0.4c0.7,0,1.2,0.1,1.7,0.4
			c0.5,0.3,0.8,0.7,1,1.2c0.2,0.4,0.2,1,0.2,1.9v5.8h-2.4v-5.2c0-0.9-0.1-1.5-0.2-1.7c-0.2-0.3-0.6-0.5-1-0.5
			c-0.3,0-0.6,0.1-0.9,0.3c-0.3,0.2-0.5,0.5-0.6,0.9c-0.1,0.4-0.2,1-0.2,1.9v4.3h-2.4v-4.9c0-0.9,0-1.4-0.1-1.7
			c-0.1-0.3-0.2-0.4-0.4-0.6c-0.2-0.1-0.4-0.2-0.7-0.2c-0.4,0-0.7,0.1-1,0.3c-0.3,0.2-0.5,0.5-0.6,0.9c-0.1,0.4-0.2,1-0.2,1.9v4.4
			h-2.4V128.1z"/>
	</g>
	<g>
		<path class="st1" d="M429.3,157.6l-2.9-12.5h2.6l1.9,8.6l2.3-8.6h3l2.2,8.7l1.9-8.7h2.5l-3,12.5H437l-2.5-9.3l-2.5,9.3H429.3
			L429.3,157.6z M445.2,151.4L443,151c0.2-0.9,0.7-1.5,1.3-2c0.6-0.4,1.5-0.6,2.7-0.6c1.1,0,1.9,0.1,2.4,0.4c0.5,0.3,0.9,0.6,1.1,1
			c0.2,0.4,0.3,1.1,0.3,2.1l0,2.8c0,0.8,0,1.4,0.1,1.8c0.1,0.4,0.2,0.8,0.4,1.2h-2.4c-0.1-0.2-0.1-0.4-0.2-0.7
			c0-0.1-0.1-0.2-0.1-0.3c-0.4,0.4-0.8,0.7-1.3,0.9c-0.5,0.2-1,0.3-1.5,0.3c-0.9,0-1.7-0.3-2.2-0.8c-0.5-0.5-0.8-1.1-0.8-1.9
			c0-0.5,0.1-1,0.4-1.4c0.2-0.4,0.6-0.7,1-0.9c0.4-0.2,1.1-0.4,1.9-0.6c1.1-0.2,1.9-0.4,2.3-0.6v-0.2c0-0.5-0.1-0.8-0.3-1
			c-0.2-0.2-0.7-0.3-1.3-0.3c-0.4,0-0.8,0.1-1,0.3C445.5,150.7,445.3,151,445.2,151.4L445.2,151.4z M448.4,153.3
			c-0.3,0.1-0.8,0.2-1.5,0.4c-0.7,0.1-1.1,0.3-1.3,0.4c-0.3,0.2-0.5,0.5-0.5,0.8c0,0.3,0.1,0.6,0.4,0.9c0.2,0.2,0.6,0.4,1,0.4
			c0.4,0,0.8-0.1,1.2-0.4c0.3-0.2,0.5-0.5,0.6-0.8c0.1-0.2,0.1-0.6,0.1-1.2V153.3L448.4,153.3z M457.2,148.6v1.9h-1.6v3.7
			c0,0.7,0,1.2,0,1.3c0,0.1,0.1,0.2,0.2,0.3c0.1,0.1,0.2,0.1,0.4,0.1c0.2,0,0.5-0.1,1-0.2l0.2,1.9c-0.6,0.2-1.2,0.4-1.9,0.4
			c-0.4,0-0.8-0.1-1.2-0.2c-0.3-0.1-0.6-0.3-0.8-0.6c-0.2-0.2-0.3-0.5-0.3-0.9c0-0.3-0.1-0.8-0.1-1.7v-4h-1.1v-1.9h1.1v-1.8l2.4-1.4
			v3.2H457.2L457.2,148.6z M464.1,154.8l2.4,0.4c-0.3,0.9-0.8,1.5-1.4,2c-0.7,0.5-1.5,0.7-2.5,0.7c-1.6,0-2.7-0.5-3.5-1.5
			c-0.6-0.8-0.9-1.9-0.9-3.1c0-1.5,0.4-2.7,1.2-3.5c0.8-0.8,1.8-1.3,3-1.3c1.3,0,2.4,0.4,3.2,1.3c0.8,0.9,1.1,2.2,1.1,4.1h-6
			c0,0.7,0.2,1.3,0.6,1.7c0.4,0.4,0.8,0.6,1.4,0.6c0.4,0,0.7-0.1,0.9-0.3C463.8,155.6,464,155.2,464.1,154.8L464.1,154.8z
			 M464.3,152.4c0-0.7-0.2-1.2-0.5-1.6c-0.3-0.4-0.8-0.5-1.2-0.5c-0.5,0-0.9,0.2-1.3,0.6c-0.3,0.4-0.5,0.9-0.5,1.6H464.3
			L464.3,152.4z M470.9,157.6h-2.4v-9h2.2v1.3c0.4-0.6,0.7-1,1-1.2c0.3-0.2,0.6-0.3,1-0.3c0.5,0,1.1,0.2,1.6,0.4l-0.7,2.1
			c-0.4-0.3-0.8-0.4-1.1-0.4c-0.3,0-0.6,0.1-0.9,0.3c-0.2,0.2-0.4,0.5-0.6,1c-0.1,0.5-0.2,1.5-0.2,3V157.6L470.9,157.6z M479.6,153
			c0-0.8,0.2-1.6,0.6-2.3c0.4-0.7,0.9-1.3,1.7-1.7c0.7-0.4,1.5-0.6,2.4-0.6c1.4,0,2.5,0.4,3.4,1.3c0.9,0.9,1.3,2,1.3,3.4
			c0,1.4-0.4,2.5-1.3,3.4c-0.9,0.9-2,1.4-3.3,1.4c-0.8,0-1.6-0.2-2.4-0.6c-0.7-0.4-1.3-0.9-1.7-1.6
			C479.8,154.9,479.6,154.1,479.6,153L479.6,153z M482.1,153.1c0,0.9,0.2,1.6,0.6,2.1c0.4,0.5,1,0.7,1.6,0.7c0.6,0,1.1-0.2,1.6-0.7
			c0.4-0.5,0.6-1.2,0.6-2.1c0-0.9-0.2-1.6-0.6-2c-0.4-0.5-0.9-0.7-1.6-0.7c-0.6,0-1.1,0.2-1.6,0.7
			C482.3,151.6,482.1,152.2,482.1,153.1L482.1,153.1z M493.1,157.6h-2.4v-9h2.2v1.3c0.4-0.6,0.7-1,1-1.2c0.3-0.2,0.6-0.3,1-0.3
			c0.5,0,1.1,0.2,1.6,0.4l-0.7,2.1c-0.4-0.3-0.8-0.4-1.1-0.4c-0.3,0-0.6,0.1-0.9,0.3c-0.2,0.2-0.4,0.5-0.6,1c-0.1,0.5-0.2,1.5-0.2,3
			V157.6L493.1,157.6z M502.4,157.6v-12.5h3.8l2.2,8.5l2.2-8.5h3.8v12.5h-2.3l0-9.8l-2.5,9.8h-2.4l-2.4-9.8l0,9.8H502.4L502.4,157.6
			z M517,147.4v-2.2h2.4v2.2H517L517,147.4z M517,157.6v-9h2.4v9H517L517,157.6z M521.8,157.6v-12.5h2.4v12.5H521.8L521.8,157.6z
			 M526.6,157.6v-12.5h2.4v6.6l2.8-3.2h2.9l-3.1,3.3l3.3,5.7h-2.6l-2.3-4.1l-1.1,1.2v2.9H526.6z"/>
	</g>
	<g>
		<path class="st0" d="M473.9,107.1c-27.5,0-49.9-22.4-49.9-49.9c0-27.5,22.4-49.9,49.9-49.9c27.5,0,49.9,22.4,49.9,49.9
			C523.7,84.7,501.4,107.1,473.9,107.1z M473.9,8.3c-27,0-48.9,21.9-48.9,48.9c0,27,21.9,48.9,48.9,48.9c27,0,48.9-21.9,48.9-48.9
			C522.7,30.3,500.8,8.3,473.9,8.3z"/>
	</g>
	<g>
		<path class="st0" d="M486.7,85.8H461c-0.7,0-1.3-0.4-1.4-1.1l-14.4-54.3c-0.1-0.4,0-0.9,0.2-1.2c0.3-0.4,0.7-0.6,1.2-0.6h54.4
			c0.5,0,0.9,0.2,1.2,0.6c0.3,0.3,0.4,0.8,0.2,1.2l-14.4,54.3C488,85.3,487.4,85.8,486.7,85.8z M446.6,29.7c-0.2,0-0.3,0.1-0.4,0.2
			c0,0.1-0.1,0.2-0.1,0.3l14.4,54.3c0.1,0.2,0.2,0.3,0.5,0.3h25.7c0.2,0,0.4-0.1,0.5-0.3l14.4-54.3c0-0.2,0-0.3-0.1-0.3
			c-0.1-0.1-0.2-0.2-0.4-0.2H446.6z"/>
	</g>
	<g>
		<path class="st1" d="M498.6,45.1c0,0-19.8-2.3-27.1,1.8c-10.5,5.7-21.5,2-21.5,2l10.2,38.5h27.2L498.6,45.1z"/>
	</g>
	<g>
		<path class="st0" d="M684.6,107.5c-27.5,0-49.9-22.4-49.9-49.9c0-27.5,22.4-49.9,49.9-49.9c27.5,0,49.9,22.4,49.9,49.9
			C734.5,85.2,712.1,107.5,684.6,107.5z M684.6,8.8c-27,0-48.9,21.9-48.9,48.9c0,27,21.9,48.9,48.9,48.9c27,0,48.9-21.9,48.9-48.9
			C733.5,30.7,711.6,8.8,684.6,8.8z"/>
	</g>
	<g>
		<path class="st1" d="M615.6,145.8h1.3v-0.7c0-0.8,0.1-1.3,0.2-1.7c0.2-0.4,0.5-0.7,0.9-0.9c0.4-0.2,1-0.4,1.7-0.4
			c0.7,0,1.4,0.1,2,0.3l-0.3,1.7c-0.4-0.1-0.8-0.1-1.1-0.1c-0.4,0-0.6,0.1-0.8,0.2c-0.2,0.2-0.2,0.5-0.2,0.9v0.6h1.8v1.9h-1.8v7.2
			H617v-7.2h-1.3V145.8L615.6,145.8z M621.9,150.2c0-0.8,0.2-1.6,0.6-2.3c0.4-0.7,0.9-1.3,1.7-1.7c0.7-0.4,1.5-0.6,2.4-0.6
			c1.4,0,2.5,0.4,3.4,1.3c0.9,0.9,1.3,2,1.3,3.4c0,1.4-0.4,2.5-1.3,3.4c-0.9,0.9-2,1.4-3.3,1.4c-0.8,0-1.6-0.2-2.4-0.6
			c-0.7-0.4-1.3-0.9-1.7-1.6C622.1,152.1,621.9,151.2,621.9,150.2L621.9,150.2z M624.4,150.3c0,0.9,0.2,1.6,0.6,2.1
			c0.4,0.5,1,0.7,1.6,0.7c0.6,0,1.1-0.2,1.6-0.7c0.4-0.5,0.6-1.2,0.6-2.1c0-0.9-0.2-1.6-0.6-2c-0.4-0.5-0.9-0.7-1.6-0.7
			c-0.6,0-1.1,0.2-1.6,0.7C624.6,148.7,624.4,149.4,624.4,150.3L624.4,150.3z M635.4,154.8H633v-9h2.2v1.3c0.4-0.6,0.7-1,1-1.2
			c0.3-0.2,0.6-0.3,1-0.3c0.5,0,1.1,0.2,1.6,0.4l-0.7,2.1c-0.4-0.3-0.8-0.4-1.1-0.4c-0.3,0-0.6,0.1-0.9,0.3c-0.2,0.2-0.4,0.5-0.6,1
			c-0.1,0.5-0.2,1.5-0.2,3V154.8L635.4,154.8z M644.7,154.8v-12.5h2.4v4.5c0.7-0.8,1.6-1.3,2.6-1.3c1.1,0,2,0.4,2.7,1.2
			c0.7,0.8,1.1,1.9,1.1,3.4c0,1.5-0.4,2.7-1.1,3.6c-0.7,0.8-1.6,1.3-2.7,1.3c-0.5,0-1-0.1-1.5-0.4c-0.5-0.3-0.9-0.7-1.3-1.2v1.3
			H644.7L644.7,154.8z M647,150.1c0,0.9,0.1,1.6,0.4,2.1c0.4,0.6,1,1,1.7,1c0.5,0,1-0.2,1.4-0.7c0.4-0.5,0.6-1.2,0.6-2.1
			c0-1-0.2-1.8-0.6-2.2c-0.4-0.5-0.9-0.7-1.4-0.7c-0.6,0-1,0.2-1.4,0.7C647.2,148.5,647,149.2,647,150.1L647,150.1z M660.6,152
			l2.4,0.4c-0.3,0.9-0.8,1.5-1.4,2c-0.7,0.5-1.5,0.7-2.5,0.7c-1.6,0-2.7-0.5-3.5-1.5c-0.6-0.8-0.9-1.9-0.9-3.1
			c0-1.5,0.4-2.7,1.2-3.5c0.8-0.8,1.8-1.3,3-1.3c1.3,0,2.4,0.4,3.2,1.3c0.8,0.9,1.1,2.2,1.1,4.1h-6c0,0.7,0.2,1.3,0.6,1.7
			c0.4,0.4,0.8,0.6,1.4,0.6c0.4,0,0.7-0.1,0.9-0.3C660.3,152.8,660.5,152.4,660.6,152L660.6,152z M660.8,149.6
			c0-0.7-0.2-1.2-0.5-1.6c-0.3-0.4-0.8-0.5-1.2-0.5c-0.5,0-0.9,0.2-1.3,0.6c-0.3,0.4-0.5,0.9-0.5,1.6H660.8L660.8,149.6z
			 M669.2,145.8v1.9h-1.6v3.7c0,0.7,0,1.2,0,1.3c0,0.1,0.1,0.2,0.2,0.3c0.1,0.1,0.2,0.1,0.4,0.1c0.2,0,0.5-0.1,1-0.2l0.2,1.9
			c-0.6,0.2-1.2,0.4-1.9,0.4c-0.4,0-0.8-0.1-1.2-0.2c-0.3-0.1-0.6-0.3-0.8-0.6c-0.2-0.2-0.3-0.5-0.3-0.9c0-0.3-0.1-0.8-0.1-1.7v-4
			h-1.1v-1.9h1.1V144l2.4-1.4v3.2H669.2L669.2,145.8z M675,145.8v1.9h-1.6v3.7c0,0.7,0,1.2,0,1.3c0,0.1,0.1,0.2,0.2,0.3
			c0.1,0.1,0.2,0.1,0.4,0.1c0.2,0,0.5-0.1,1-0.2l0.2,1.9c-0.6,0.2-1.2,0.4-1.9,0.4c-0.4,0-0.8-0.1-1.2-0.2c-0.3-0.1-0.6-0.3-0.8-0.6
			c-0.2-0.2-0.3-0.5-0.3-0.9c0-0.3-0.1-0.8-0.1-1.7v-4h-1.1v-1.9h1.1V144l2.4-1.4v3.2H675L675,145.8z M681.9,152l2.4,0.4
			c-0.3,0.9-0.8,1.5-1.4,2c-0.7,0.5-1.5,0.7-2.5,0.7c-1.6,0-2.7-0.5-3.5-1.5c-0.6-0.8-0.9-1.9-0.9-3.1c0-1.5,0.4-2.7,1.2-3.5
			c0.8-0.8,1.8-1.3,3-1.3c1.3,0,2.4,0.4,3.2,1.3c0.8,0.9,1.1,2.2,1.1,4.1h-6c0,0.7,0.2,1.3,0.6,1.7c0.4,0.4,0.8,0.6,1.4,0.6
			c0.4,0,0.7-0.1,0.9-0.3C681.6,152.8,681.8,152.4,681.9,152L681.9,152z M682.1,149.6c0-0.7-0.2-1.2-0.5-1.6
			c-0.3-0.4-0.8-0.5-1.2-0.5c-0.5,0-0.9,0.2-1.3,0.6c-0.3,0.4-0.5,0.9-0.5,1.6H682.1L682.1,149.6z M688.7,154.8h-2.4v-9h2.2v1.3
			c0.4-0.6,0.7-1,1-1.2c0.3-0.2,0.6-0.3,1-0.3c0.5,0,1.1,0.2,1.6,0.4l-0.7,2.1c-0.4-0.3-0.8-0.4-1.1-0.4c-0.3,0-0.6,0.1-0.9,0.3
			c-0.2,0.2-0.4,0.5-0.6,1c-0.1,0.5-0.2,1.5-0.2,3V154.8L688.7,154.8z M700.3,154.8h-2.4v-9h2.2v1.3c0.4-0.6,0.7-1,1-1.2
			c0.3-0.2,0.6-0.3,1-0.3c0.5,0,1.1,0.2,1.6,0.4l-0.7,2.1c-0.4-0.3-0.8-0.4-1.1-0.4c-0.3,0-0.6,0.1-0.9,0.3c-0.2,0.2-0.4,0.5-0.6,1
			c-0.1,0.5-0.2,1.5-0.2,3V154.8L700.3,154.8z M710,152l2.4,0.4c-0.3,0.9-0.8,1.5-1.4,2c-0.7,0.5-1.5,0.7-2.5,0.7
			c-1.6,0-2.7-0.5-3.5-1.5c-0.6-0.8-0.9-1.9-0.9-3.1c0-1.5,0.4-2.7,1.2-3.5c0.8-0.8,1.8-1.3,3-1.3c1.3,0,2.4,0.4,3.2,1.3
			c0.8,0.9,1.1,2.2,1.1,4.1h-6c0,0.7,0.2,1.3,0.6,1.7c0.4,0.4,0.8,0.6,1.4,0.6c0.4,0,0.7-0.1,0.9-0.3
			C709.7,152.8,709.9,152.4,710,152L710,152z M710.1,149.6c0-0.7-0.2-1.2-0.5-1.6c-0.3-0.4-0.8-0.5-1.2-0.5c-0.5,0-0.9,0.2-1.3,0.6
			c-0.3,0.4-0.5,0.9-0.5,1.6H710.1L710.1,149.6z M713.6,152.3l2.4-0.4c0.1,0.5,0.3,0.8,0.6,1c0.3,0.2,0.8,0.4,1.3,0.4
			c0.6,0,1.1-0.1,1.4-0.3c0.2-0.2,0.3-0.4,0.3-0.6c0-0.2-0.1-0.3-0.2-0.4c-0.1-0.1-0.4-0.2-0.8-0.3c-1.9-0.4-3.2-0.8-3.7-1.2
			c-0.7-0.5-1.1-1.2-1.1-2c0-0.8,0.3-1.4,0.9-2c0.6-0.5,1.6-0.8,2.9-0.8c1.2,0,2.2,0.2,2.8,0.6c0.6,0.4,1,1,1.2,1.8l-2.2,0.4
			c-0.1-0.4-0.3-0.6-0.6-0.8c-0.3-0.2-0.7-0.3-1.2-0.3c-0.6,0-1.1,0.1-1.4,0.3c-0.2,0.1-0.3,0.3-0.3,0.5c0,0.2,0.1,0.3,0.2,0.4
			c0.2,0.2,1,0.4,2.2,0.7c1.3,0.3,2.2,0.6,2.7,1.1c0.5,0.4,0.8,1,0.8,1.8c0,0.8-0.3,1.5-1,2.1c-0.7,0.6-1.7,0.9-3.1,0.9
			c-1.2,0-2.2-0.3-2.9-0.7C714.3,153.8,713.8,153.1,713.6,152.3L713.6,152.3z M730.1,154.8v-1.4c-0.3,0.5-0.8,0.9-1.3,1.2
			c-0.5,0.3-1.1,0.4-1.7,0.4c-0.6,0-1.2-0.1-1.6-0.4c-0.5-0.3-0.8-0.6-1-1.1c-0.2-0.5-0.3-1.2-0.3-2v-5.7h2.4v4.2
			c0,1.3,0,2.1,0.1,2.3c0.1,0.3,0.2,0.5,0.5,0.7c0.2,0.2,0.5,0.3,0.9,0.3c0.4,0,0.8-0.1,1.1-0.3c0.3-0.2,0.5-0.5,0.7-0.8
			c0.1-0.3,0.2-1.1,0.2-2.4v-3.8h2.4v9H730.1L730.1,154.8z M734.8,154.8v-12.5h2.4v12.5H734.8L734.8,154.8z M743.8,145.8v1.9h-1.6
			v3.7c0,0.7,0,1.2,0,1.3c0,0.1,0.1,0.2,0.2,0.3c0.1,0.1,0.2,0.1,0.4,0.1c0.2,0,0.5-0.1,1-0.2l0.2,1.9c-0.6,0.2-1.2,0.4-1.9,0.4
			c-0.4,0-0.8-0.1-1.2-0.2c-0.3-0.1-0.6-0.3-0.8-0.6c-0.2-0.2-0.3-0.5-0.3-0.9c0-0.3-0.1-0.8-0.1-1.7v-4h-1.1v-1.9h1.1V144l2.4-1.4
			v3.2H743.8L743.8,145.8z M744.6,152.3l2.4-0.4c0.1,0.5,0.3,0.8,0.6,1c0.3,0.2,0.8,0.4,1.3,0.4c0.6,0,1.1-0.1,1.4-0.3
			c0.2-0.2,0.3-0.4,0.3-0.6c0-0.2-0.1-0.3-0.2-0.4c-0.1-0.1-0.4-0.2-0.8-0.3c-1.9-0.4-3.2-0.8-3.7-1.2c-0.7-0.5-1.1-1.2-1.1-2
			c0-0.8,0.3-1.4,0.9-2c0.6-0.5,1.6-0.8,2.9-0.8c1.2,0,2.2,0.2,2.8,0.6c0.6,0.4,1,1,1.2,1.8l-2.2,0.4c-0.1-0.4-0.3-0.6-0.6-0.8
			c-0.3-0.2-0.7-0.3-1.2-0.3c-0.6,0-1.1,0.1-1.4,0.3c-0.2,0.1-0.3,0.3-0.3,0.5c0,0.2,0.1,0.3,0.2,0.4c0.2,0.2,1,0.4,2.2,0.7
			c1.3,0.3,2.2,0.6,2.7,1.1c0.5,0.4,0.8,1,0.8,1.8c0,0.8-0.3,1.5-1,2.1c-0.7,0.6-1.7,0.9-3.1,0.9c-1.2,0-2.2-0.3-2.9-0.7
			C745.3,153.8,744.8,153.1,744.6,152.3z"/>
	</g>
	<g>
		<polygon class="st1" points="133.8,59.8 167.8,59.8 167.8,64.7 181.2,57 167.8,49.4 167.8,54.2 133.8,54.2 		"/>
	</g>
	<g>
		<polygon class="st1" points="344.3,59.9 378.3,59.9 378.3,64.8 391.6,57.1 378.3,49.4 378.3,54.3 344.3,54.3 		"/>
	</g>
	<g>
		<polygon class="st1" points="555.4,64.4 589.4,64.4 589.4,69.3 602.7,61.7 589.4,54 589.4,58.9 555.4,58.9 		"/>
	</g>
	<g>
		<path class="st1" d="M684.5,82.1c-6.8,0-13.6,0-20.3,0c-3.3,0-5.4-2.1-5.4-5.3c0-11.9,0-23.8,0-35.6c0-2.8,1.9-5,4.6-5.3
			c0.8-0.1,1.6-0.1,2.3-0.1c1.3,0,2.6,0.1,3.9,0.1c0.5,5.5,1.3,7.1,4,7.1c0,0,0.1,0,0.1,0c1.7,0,3.1-0.8,3.6-2.4
			c0.5-1.4,0.5-3,0.7-4.6c5.1,0,10.4,0,15.8,0c0,1,0,2.1,0,3.1c0.1,2.1,1.6,3.7,3.6,4c0.2,0,0.3,0,0.5,0c1.9,0,3.5-1.3,3.9-3.2
			c0.2-1.2,0.2-2.5,0.3-3.9c1.3,0,2.6-0.1,3.9-0.1c0.8,0,1.6,0,2.4,0.1c2.6,0.3,4.4,2.4,4.4,5.1c0,11.9,0,23.9,0,35.8
			c0,3.1-2.2,5.2-5.3,5.2C699.8,82.1,692.2,82.1,684.5,82.1L684.5,82.1z M663.1,46.2c0,10.4,0,20.7,0,31.1c15.2,0,30.3,0,45.4,0
			c0-10.4,0-20.8,0-31.1C693.3,46.2,678.3,46.2,663.1,46.2z"/>
	</g>
	<g>
		<path class="st1" d="M673.8,41.2c-1.4,0-2.6-0.2-2.7-2c0-1.6,0-3.2,0-4.8h0c0-1.5,0-3.1,0-4.6c0-1.7,0.7-2.2,2.6-2.2
			c0,0,0,0,0.1,0c1.9,0,2.6,0.6,2.6,2.2c0,3.1,0,6.3,0,9.4C676.4,40.8,675.3,41.2,673.8,41.2C673.8,41.2,673.8,41.2,673.8,41.2z"/>
	</g>
	<g>
		<path class="st1" d="M697.7,41.2c-1.4,0-2.5-0.3-2.5-2c0-1.6,0-3.2,0-4.8c0-1.6,0-3.2,0-4.8c0-1.7,1.1-2,2.5-2c0,0,0,0,0.1,0
			c1.4,0,2.7,0.2,2.7,2c0,3.2,0,6.4,0,9.6C700.5,40.7,699.7,41.2,697.7,41.2C697.8,41.2,697.8,41.2,697.7,41.2z"/>
	</g>
	<g>
		<path class="st1" d="M671.2,67l2.4-0.3c0.3,1.4,0.7,2.4,1.4,3c0.7,0.6,1.5,0.9,2.4,0.9c1.1,0,2.1-0.4,2.9-1.2
			c0.8-0.8,1.2-1.8,1.2-2.9c0-1.1-0.4-2-1.1-2.7c-0.7-0.7-1.6-1.1-2.8-1.1c-0.5,0-1,0.1-1.7,0.3l0.3-2.1c0.2,0,0.3,0,0.4,0
			c1,0,2-0.3,2.8-0.8c0.8-0.5,1.2-1.4,1.2-2.5c0-0.9-0.3-1.6-0.9-2.2c-0.6-0.6-1.4-0.9-2.3-0.9c-0.9,0-1.7,0.3-2.3,0.9
			c-0.6,0.6-1,1.5-1.2,2.7l-2.4-0.4c0.3-1.6,1-2.9,2-3.8c1-0.9,2.3-1.3,3.9-1.3c1.1,0,2.1,0.2,3,0.7c0.9,0.5,1.6,1.1,2.1,1.9
			c0.5,0.8,0.7,1.6,0.7,2.5c0,0.8-0.2,1.6-0.7,2.3c-0.5,0.7-1.1,1.2-2,1.7c1.2,0.3,2.1,0.8,2.7,1.7c0.6,0.8,1,1.9,1,3.2
			c0,1.7-0.6,3.2-1.9,4.4c-1.3,1.2-2.8,1.8-4.7,1.8c-1.7,0-3.2-0.5-4.3-1.5C672.1,70,671.4,68.6,671.2,67L671.2,67z M686.5,62.5
			c0-2.3,0.2-4.2,0.7-5.6c0.5-1.4,1.2-2.5,2.1-3.3c0.9-0.8,2.1-1.1,3.6-1.1c1.1,0,2,0.2,2.8,0.6c0.8,0.4,1.5,1,2,1.8
			c0.5,0.8,0.9,1.8,1.2,2.9c0.3,1.1,0.4,2.7,0.4,4.6c0,2.3-0.2,4.2-0.7,5.6c-0.5,1.4-1.2,2.5-2.1,3.3c-0.9,0.8-2.1,1.2-3.6,1.2
			c-1.9,0-3.4-0.7-4.5-2C687.2,68.9,686.5,66.2,686.5,62.5L686.5,62.5z M689,62.5c0,3.2,0.4,5.4,1.1,6.4c0.8,1.1,1.7,1.6,2.8,1.6
			s2-0.5,2.8-1.6c0.8-1.1,1.1-3.2,1.1-6.4c0-3.2-0.4-5.4-1.1-6.4c-0.8-1.1-1.7-1.6-2.8-1.6c-1.1,0-2,0.5-2.7,1.4
			C689.4,57.1,689,59.3,689,62.5L689,62.5z M631.5,133.6l2.4,0.7c-0.4,1.4-1,2.4-1.9,3.1c-0.9,0.7-2,1-3.3,1c-1.7,0-3-0.6-4.1-1.7
			c-1.1-1.1-1.6-2.7-1.6-4.6c0-2.1,0.5-3.7,1.6-4.8c1.1-1.1,2.5-1.7,4.2-1.7c1.5,0,2.8,0.5,3.7,1.4c0.6,0.5,1,1.3,1.3,2.3l-2.5,0.6
			c-0.1-0.6-0.5-1.2-0.9-1.5c-0.5-0.4-1-0.6-1.7-0.6c-0.9,0-1.7,0.3-2.3,1c-0.6,0.7-0.9,1.7-0.9,3.2c0,1.6,0.3,2.7,0.8,3.4
			c0.6,0.7,1.3,1,2.2,1c0.7,0,1.2-0.2,1.7-0.6C630.9,135.2,631.3,134.5,631.5,133.6L631.5,133.6z M635.5,133.6
			c0-0.8,0.2-1.6,0.6-2.3c0.4-0.7,0.9-1.3,1.7-1.7c0.7-0.4,1.5-0.6,2.4-0.6c1.4,0,2.5,0.4,3.4,1.3c0.9,0.9,1.3,2,1.3,3.4
			c0,1.4-0.4,2.5-1.3,3.4c-0.9,0.9-2,1.4-3.3,1.4c-0.8,0-1.6-0.2-2.4-0.6c-0.7-0.4-1.3-0.9-1.7-1.7
			C635.7,135.5,635.5,134.6,635.5,133.6L635.5,133.6z M638,133.7c0,0.9,0.2,1.6,0.6,2.1c0.4,0.5,0.9,0.7,1.6,0.7
			c0.6,0,1.1-0.2,1.6-0.7c0.4-0.5,0.6-1.2,0.6-2.1c0-0.9-0.2-1.6-0.6-2c-0.4-0.5-0.9-0.7-1.6-0.7c-0.6,0-1.1,0.2-1.6,0.7
			C638.2,132.1,638,132.8,638,133.7L638,133.7z M654.9,138.2h-2.4v-4.6c0-1-0.1-1.6-0.2-1.9c-0.1-0.3-0.3-0.5-0.5-0.7
			c-0.2-0.2-0.5-0.2-0.8-0.2c-0.4,0-0.8,0.1-1.1,0.3c-0.3,0.2-0.6,0.5-0.7,0.9c-0.1,0.4-0.2,1.1-0.2,2.1v4.1h-2.4v-9h2.2v1.3
			c0.8-1,1.8-1.5,3-1.5c0.5,0,1,0.1,1.4,0.3c0.4,0.2,0.8,0.4,1,0.7c0.2,0.3,0.4,0.6,0.5,1c0.1,0.4,0.1,0.9,0.1,1.6V138.2
			L654.9,138.2z M656.5,135.7l2.4-0.4c0.1,0.5,0.3,0.8,0.6,1.1c0.3,0.2,0.7,0.4,1.3,0.4c0.6,0,1.1-0.1,1.4-0.3
			c0.2-0.2,0.3-0.4,0.3-0.6c0-0.2-0.1-0.3-0.2-0.4c-0.1-0.1-0.4-0.2-0.8-0.3c-1.9-0.4-3.2-0.8-3.7-1.2c-0.7-0.5-1.1-1.2-1.1-2
			c0-0.8,0.3-1.4,0.9-2c0.6-0.5,1.6-0.8,2.9-0.8c1.2,0,2.2,0.2,2.8,0.6c0.6,0.4,1,1,1.2,1.8l-2.2,0.4c-0.1-0.4-0.3-0.6-0.6-0.8
			c-0.3-0.2-0.7-0.3-1.2-0.3c-0.6,0-1.1,0.1-1.4,0.3c-0.2,0.1-0.3,0.3-0.3,0.5c0,0.2,0.1,0.3,0.2,0.4c0.2,0.2,1,0.4,2.2,0.7
			c1.3,0.3,2.2,0.6,2.7,1.1c0.5,0.4,0.8,1,0.8,1.8c0,0.8-0.3,1.5-1,2.1c-0.7,0.6-1.7,0.9-3.1,0.9c-1.2,0-2.2-0.2-2.9-0.7
			C657.2,137.2,656.7,136.5,656.5,135.7L656.5,135.7z M673,138.2v-1.4c-0.3,0.5-0.8,0.9-1.3,1.2c-0.5,0.3-1.1,0.4-1.7,0.4
			c-0.6,0-1.2-0.1-1.6-0.4c-0.5-0.3-0.8-0.6-1-1.1c-0.2-0.5-0.3-1.2-0.3-2v-5.7h2.4v4.2c0,1.3,0,2.1,0.1,2.3
			c0.1,0.3,0.2,0.5,0.5,0.7c0.2,0.2,0.5,0.3,0.9,0.3c0.4,0,0.8-0.1,1.1-0.3c0.3-0.2,0.5-0.5,0.7-0.8c0.1-0.3,0.2-1.1,0.2-2.4v-3.8
			h2.4v9H673L673,138.2z M677.5,129.2h2.2v1.2c0.8-0.9,1.7-1.4,2.8-1.4c0.6,0,1.1,0.1,1.5,0.4c0.4,0.2,0.8,0.6,1,1.1
			c0.4-0.5,0.8-0.8,1.3-1.1c0.5-0.2,0.9-0.4,1.5-0.4c0.7,0,1.2,0.1,1.7,0.4c0.5,0.3,0.8,0.7,1,1.2c0.2,0.4,0.2,1,0.2,1.9v5.8h-2.4
			v-5.2c0-0.9-0.1-1.5-0.2-1.7c-0.2-0.3-0.6-0.5-1-0.5c-0.3,0-0.6,0.1-0.9,0.3c-0.3,0.2-0.5,0.5-0.6,0.9c-0.1,0.4-0.2,1-0.2,1.9v4.3
			h-2.4v-4.9c0-0.9,0-1.4-0.1-1.7c-0.1-0.3-0.2-0.4-0.4-0.6c-0.2-0.1-0.4-0.2-0.7-0.2c-0.4,0-0.7,0.1-1,0.3
			c-0.3,0.2-0.5,0.5-0.6,0.9c-0.1,0.4-0.2,1-0.2,1.9v4.4h-2.4V129.2L677.5,129.2z M698.4,135.4l2.4,0.4c-0.3,0.9-0.8,1.5-1.4,2
			c-0.7,0.5-1.5,0.7-2.5,0.7c-1.6,0-2.7-0.5-3.5-1.5c-0.6-0.8-0.9-1.9-0.9-3.1c0-1.5,0.4-2.7,1.2-3.5c0.8-0.8,1.8-1.3,3-1.3
			c1.3,0,2.4,0.4,3.2,1.3c0.8,0.9,1.1,2.2,1.1,4.1h-6c0,0.7,0.2,1.3,0.6,1.7c0.4,0.4,0.8,0.6,1.4,0.6c0.4,0,0.7-0.1,0.9-0.3
			C698.1,136.1,698.3,135.8,698.4,135.4L698.4,135.4z M698.5,132.9c0-0.7-0.2-1.2-0.5-1.6c-0.3-0.4-0.8-0.5-1.2-0.5
			c-0.5,0-0.9,0.2-1.3,0.6c-0.3,0.4-0.5,0.9-0.5,1.6H698.5L698.5,132.9z M716,138.2h-2.2v-1.3c-0.4,0.5-0.8,0.9-1.3,1.2
			c-0.5,0.3-1,0.4-1.5,0.4c-1,0-1.9-0.4-2.7-1.3c-0.7-0.8-1.1-2-1.1-3.5c0-1.5,0.4-2.7,1.1-3.5c0.7-0.8,1.6-1.2,2.7-1.2
			c1,0,1.9,0.4,2.6,1.3v-4.5h2.4V138.2L716,138.2z M709.6,133.5c0,1,0.1,1.7,0.4,2.1c0.4,0.6,0.9,0.9,1.6,0.9c0.5,0,1-0.2,1.4-0.7
			c0.4-0.5,0.6-1.2,0.6-2.1c0-1-0.2-1.8-0.6-2.3c-0.4-0.5-0.9-0.7-1.4-0.7c-0.6,0-1,0.2-1.4,0.7
			C709.8,131.9,709.6,132.6,709.6,133.5L709.6,133.5z M720.1,132l-2.2-0.4c0.2-0.9,0.7-1.5,1.3-2c0.6-0.4,1.5-0.6,2.7-0.6
			c1.1,0,1.9,0.1,2.4,0.4c0.5,0.3,0.9,0.6,1.1,1c0.2,0.4,0.3,1.1,0.3,2.1l0,2.8c0,0.8,0,1.4,0.1,1.8c0.1,0.4,0.2,0.8,0.4,1.2h-2.4
			c-0.1-0.2-0.1-0.4-0.2-0.7c0-0.1-0.1-0.2-0.1-0.3c-0.4,0.4-0.8,0.7-1.3,0.9c-0.5,0.2-1,0.3-1.5,0.3c-0.9,0-1.7-0.3-2.2-0.8
			c-0.5-0.5-0.8-1.1-0.8-1.9c0-0.5,0.1-1,0.4-1.4c0.2-0.4,0.6-0.7,1-0.9c0.4-0.2,1.1-0.4,1.9-0.6c1.1-0.2,1.9-0.4,2.3-0.6v-0.2
			c0-0.5-0.1-0.8-0.3-1c-0.2-0.2-0.7-0.3-1.3-0.3c-0.4,0-0.8,0.1-1,0.3C720.4,131.2,720.3,131.5,720.1,132L720.1,132z M723.3,133.9
			c-0.3,0.1-0.8,0.2-1.5,0.4c-0.7,0.1-1.1,0.3-1.3,0.4c-0.3,0.2-0.5,0.5-0.5,0.8c0,0.3,0.1,0.6,0.4,0.9c0.3,0.2,0.6,0.4,1,0.4
			c0.4,0,0.8-0.1,1.2-0.4c0.3-0.2,0.5-0.5,0.6-0.8c0.1-0.2,0.1-0.6,0.1-1.2V133.9L723.3,133.9z M728,128v-2.2h2.4v2.2H728L728,128z
			 M728,138.2v-9h2.4v9H728L728,138.2z M732.9,138.2v-12.5h2.4v12.5H732.9L732.9,138.2z M736.6,129.2h2.5l2.2,6.4l2.1-6.4h2.5
			l-3.2,8.7l-0.6,1.6c-0.2,0.5-0.4,0.9-0.6,1.2c-0.2,0.3-0.4,0.5-0.7,0.7c-0.2,0.2-0.6,0.3-0.9,0.4c-0.4,0.1-0.8,0.1-1.2,0.1
			s-0.9,0-1.4-0.1l-0.2-1.9c0.4,0.1,0.7,0.1,1,0.1c0.6,0,1-0.2,1.2-0.5c0.3-0.3,0.5-0.7,0.6-1.3L736.6,129.2z"/>
	</g>
</g>
</svg>
