<?xml version="1.0" encoding="utf-8"?>
<!-- Generator: Adobe Illustrator 23.0.2, SVG Export Plug-In . SVG Version: 6.00 Build 0)  -->
<svg version="1.1" id="Layer_1" xmlns="http://www.w3.org/2000/svg" xmlns:xlink="http://www.w3.org/1999/xlink" x="0px" y="0px"
	 viewBox="0 0 393.2 375" style="enable-background:new 0 0 393.2 375;" xml:space="preserve">
<style type="text/css">
	.st0{fill:#212529;}
</style>
<g>
	<g>
		<path class="st0" d="M109.6,82.9c-0.8,1.9-2.8,5.3-5.9,8.4c-3.5,3.5-7.3,5.5-11.7,5.6c-3.9,0.1-8.2-1.8-11.8-5.4
			c-6.9-6.9-7.2-16.7,0.6-24.5c2.7-2.7,5.4-4.2,6.9-4.8l1.7,3.2c-1.8,0.7-3.8,1.8-6.1,4.1c-5.7,5.6-5.8,12.8,0,18.6
			C89,94.1,96,94,101.4,88.6c2-2,3-3.6,3.4-4.6l-6.9-6.9l-4.7,4.7l-2.4-2.4l7.7-7.6L109.6,82.9z"/>
		<path class="st0" d="M96.5,54l3.6-2.4l16.3,24.2L128,68l2,2.9l-15.2,10.2L96.5,54z"/>
		<path class="st0" d="M121.9,38.4l7.8,17.8c2.9,6.7,7.1,8.2,11.2,6.5c4.4-1.9,6-6.1,3.1-12.7l-7.8-17.8l3.9-1.7l7.7,17.6
			c4,9.2,0.8,15.1-5.7,17.9c-6.1,2.7-12.3,1.3-16.4-8.1L118,40.1L121.9,38.4z"/>
		<path class="st0" d="M158.8,29.2l-9.8,2.1l-0.8-3.5l23.8-5.1l0.8,3.5l-9.8,2.1l6.1,28.5l-4.2,0.9L158.8,29.2z"/>
		<path class="st0" d="M197.8,38.7l-12.7,0.5l0.5,11.8l14.2-0.5l0.1,3.5l-18.5,0.7L180.2,22l17.7-0.7l0.1,3.5l-13.5,0.5l0.4,10.3
			l12.7-0.5L197.8,38.7z"/>
		<path class="st0" d="M203.9,54l5.1-32.3l4.6,0.7l7.8,18c1.8,4.2,3.1,7.9,4.1,11.4l0.1,0c0.3-4.4,0.8-8.3,1.6-13.4l2.1-13.5
			l3.9,0.6l-5.1,32.3l-4.2-0.7l-7.7-18c-1.7-4-3.3-8-4.3-11.8l-0.2,0c-0.4,4.1-1,8-1.8,13.4l-2.2,13.8L203.9,54z"/>
		<path class="st0" d="M256.5,33l16,7.3l-1.5,3.2L258.9,38l-4.5,9.9l11.2,5.1l-1.5,3.2l-11.2-5.1l-6.2,13.5l-3.9-1.8L256.5,33z"/>
		<path class="st0" d="M281.3,45.8c2,0.9,4.7,2.4,7.1,4.1c3.7,2.6,5.7,5,6.3,7.6c0.5,2.1,0,4.5-1.5,6.6c-2.4,3.5-6.3,4.3-9.8,3.4
			l-0.1,0.1c1.5,2.1,1.5,4.9,0.2,8.1c-1.7,4.4-2.9,7.4-3,8.8l-3.6-2.5c0.1-1.1,1.1-3.8,2.7-7.7c1.8-4.3,1.3-6.7-1.8-9l-3.3-2.3
			l-8.1,11.7l-3.5-2.4L281.3,45.8z M276.3,60.5l3.6,2.5c3.7,2.6,7.5,2.2,9.6-0.9c2.4-3.5,0.9-6.7-2.7-9.3c-1.7-1.2-2.9-1.8-3.6-2.1
			L276.3,60.5z"/>
		<path class="st0" d="M305.8,88.1l-9-8.9l-8.3,8.4l10.1,10L296,100l-13.1-13L306,63.8l12.6,12.5l-2.5,2.5l-9.6-9.5l-7.3,7.3l9,8.9
			L305.8,88.1z"/>
		<path class="st0" d="M321,108.3L313.7,98l-9.6,6.9l8.2,11.6l-2.9,2.1l-10.7-15l26.7-19l10.3,14.5l-2.9,2.1l-7.8-11l-8.4,6
			l7.4,10.3L321,108.3z"/>
	</g>
	<g>
		<path class="st0" d="M196.6,375C89.7,375,9.1,294.2,9.1,187.1C9.1,83.9,92.5,0,194.9,0c104.3,0,189.2,83.9,189.2,187.1
			C384.1,289,298.2,375,196.6,375z M194.9,8.1c-99.7,0-177.8,78.6-177.8,179c0,102.5,77.1,179.8,179.4,179.8
			c97.3,0,179.4-82.4,179.4-179.8C376,88.4,294.8,8.1,194.9,8.1z"/>
	</g>
	<g>
		<g>
			<g>
				<path class="st0" d="M312.8,193.5c-0.1,0.1-0.2,0.1-0.2,0.2c0,0.3,0,0.6,0,0.9c-0.1,1.7-0.1,3.4-0.3,5.2c0,0.5-0.2,0.9-0.3,1.4
					c0,0.5,0.1,0.9-0.2,1.5c-0.2,0.4,0.1,1-0.1,1.5c-0.4,1.3-0.1,2.7-0.7,3.9c-0.1,0.3,0,0.7,0,1c0,0.3-0.2,0.5-0.2,0.8
					c-0.3,1.9-0.8,3.7-1.2,5.5c-0.4,1.8-0.9,3.6-1.4,5.3c-0.6,2.2-1.2,4.4-2.2,6.5c-0.5,1.1-0.9,2.2-1.3,3.3
					c-0.4,1.1-0.9,2.2-1.3,3.3c-1,2.7-2.5,5.2-3.7,7.8c-0.9,1.9-2.1,3.7-3.1,5.5c-1.4,2.4-2.9,4.7-4.5,7c-0.8,1.1-1.6,2.3-2.4,3.4
					c-1.1,1.5-2.3,2.9-3.4,4.4c-0.6,0.8-1.2,1.5-1.9,2.2c-1,1.2-2.2,2.2-3.2,3.5c-1.7,2.2-3.8,4-5.8,5.9c-0.9,0.9-1.8,1.8-2.8,2.6
					c-1.4,1-2.7,2.2-4,3.3c-1.4,1.1-2.8,2.1-4.2,3.3c-1.3,1.1-2.8,2-4.3,3c-1.1,0.7-2.2,1.5-3.3,2.2c-0.8,0.5-1.6,0.9-2.4,1.4
					c-1.5,1-3.2,1.8-4.7,2.8c-1,0.7-2.3,0.9-3.3,1.5c-1.1,0.6-2.2,1.1-3.3,1.6c-1.4,0.6-2.8,1.3-4.2,1.8c-1.4,0.5-2.7,1-4.1,1.6
					c-1.3,0.6-2.8,1-4.2,1.4c-1.6,0.5-3.3,0.8-4.8,1.3c-1.7,0.6-3.5,0.8-5.2,1.4c-0.5,0.2-1.1-0.1-1.5,0.3c-1.6,0.1-3,0.7-4.6,0.8
					c-0.5,0.4-1.1,0.2-1.7,0.3c-0.4,0-0.8,0.2-1.2,0.2c-0.4,0.1-0.8-0.2-1.1,0.2c-0.1,0.1-0.2,0-0.4,0.1c-1.3,0.1-2.6,0-3.9,0.3
					c-1.2,0.2-2.4,0-3.5,0.3c-1.4,0.3-2.8,0.2-4.3,0.2c-3.3,0-6.7,0-10,0c-0.7,0-1.4-0.3-2.1-0.3c-0.7,0-1.5,0.1-2.2,0
					c-0.7-0.2-1.5-0.1-2.2-0.3c-0.9-0.2-1.7-0.1-2.6-0.2c-1.3-0.2-2.5-0.5-3.8-0.5c-0.6-0.5-1.4-0.1-2.1-0.5c-0.6-0.3-1.4-0.1-2-0.3
					c-1.1-0.4-2.2-0.5-3.3-0.8c-1-0.3-2.1-0.5-3.1-0.8c-1.3-0.4-2.6-0.8-3.9-1.1c-2.3-0.6-4.4-1.5-6.7-2.2c-1-0.3-1.9-0.7-2.9-1.1
					c-1.3-0.5-2.7-1-4-1.6c-1.6-0.8-3.3-1.6-4.9-2.4c-1.3-0.6-2.6-1.2-3.8-1.9c-1-0.5-1.9-1.1-2.8-1.6c-0.7-0.4-1.4-0.8-2.1-1.2
					c-1.8-1-3.4-2.2-5.2-3.3c-1.3-0.8-2.6-1.8-3.9-2.7c-0.9-0.7-1.8-1.4-2.7-2.1c-1.6-1.2-3.1-2.5-4.6-3.8c-0.8-0.7-1.5-1.5-2.3-2.1
					c-2.5-2-4.6-4.5-7-6.7c-0.6-0.6-1.1-1.3-1.6-1.9c-0.5-0.6-1.1-1.1-1.6-1.8c-0.5-0.8-1.3-1.4-1.9-2.2c-0.8-0.9-1.6-1.9-2.3-2.9
					c-0.6-0.8-1.1-1.7-1.8-2.5c-1.3-1.5-2.3-3.1-3.3-4.8c-1.1-1.7-2.2-3.4-3.1-5.2c-0.7-1.3-1.5-2.6-2.3-4c-0.6-1.1-1.2-2.3-1.8-3.5
					c-0.6-1.1-1.1-2.3-1.6-3.4c-1-2.3-1.9-4.7-2.8-7.1c-0.7-1.9-1.5-3.8-2.1-5.8c-0.4-1.4-0.8-2.8-1.2-4.2c-0.3-1.1-0.6-2.1-0.9-3.2
					c-0.3-1.2-0.6-2.4-0.9-3.6c-0.3-1.4-0.6-2.8-0.8-4.2c-0.2-1-0.4-1.9-0.5-2.9c-0.1-0.7,0-1.5-0.3-2.1c-0.3-0.7,0-1.4-0.2-2
					c-0.3-0.7-0.2-1.5-0.2-2.2c-0.5-6.2-0.2-12.3-0.3-18.5c0-1.9,0.3-3.7,0.3-5.5c0-1.3,0.3-2.7,0.5-4c0.1-0.6,0.1-1.2,0.2-1.7
					c0.1-0.5,0.1-1.1,0.3-1.6c0.3-1,0.4-2,0.7-3.1c0.2-0.9,0.4-1.8,0.6-2.7c0.3-1.2,0.6-2.4,0.9-3.6c0.3-1.4,0.8-2.8,1.2-4.3
					c0.5-1.9,1.2-3.8,1.8-5.7c0.4-1.3,1-2.5,1.5-3.8c0.5-1.2,1-2.4,1.5-3.6c0.8-2.1,2-4,2.9-6.1c0.4-0.9,0.7-1.9,1.3-2.7
					c0.6-0.8,0.9-1.8,1.5-2.6c0.9-1.4,1.5-2.9,2.4-4.3c0.7-1.1,1.5-2.2,2.2-3.3c1.5-2.3,3.1-4.5,4.8-6.6c0.7-0.9,1.4-1.8,2.2-2.7
					c1.1-1.4,2.3-2.6,3.4-4c1.9-2.2,4-4.2,6-6.2c1.4-1.5,2.9-3,4.5-4.3c1.7-1.3,3.2-2.8,5-4.1c1.3-0.9,2.5-2,3.8-2.9
					c1.4-1.1,2.9-2,4.4-2.9c0.9-0.5,1.6-1.1,2.6-1.6c0.8-0.4,1.6-0.9,2.4-1.4c1-0.6,2.1-1.2,3.1-1.8c2.6-1.4,5.3-2.6,7.9-3.9
					c1.7-0.8,3.4-1.5,5.2-2.1c0.9-0.3,1.8-0.7,2.7-1.1c0.8-0.4,1.7-0.7,2.6-0.9c0.9-0.3,1.7-0.6,2.6-0.8c0.9-0.2,1.8-0.4,2.6-0.8
					c0.7-0.3,1.5-0.4,2.3-0.7c0.7-0.3,1.6-0.3,2.3-0.6c1.3-0.4,2.7-0.4,3.9-1c1.2,0.1,2.3-0.6,3.5-0.5c0.4,0,0.8-0.2,1.2-0.2
					c0.4-0.1,0.9-0.2,1.3-0.2c0.4,0,0.9,0.1,1.3,0c0.6-0.3,1.3,0,1.8-0.3c0.6-0.2,1.1-0.1,1.7-0.2c1.4-0.3,2.8-0.4,4.3-0.5
					c1.5-0.1,3,0,4.5,0c1.5,0,2.9,0,4.4,0c1.5,0,3,0,4.5,0c0.9,0,1.9,0.2,2.8,0.2c0.9,0,1.9-0.2,2.8,0.1c1.1,0.3,2.2,0.2,3.4,0.2
					c0.6,0,1.2,0.4,1.8,0.3c0.6-0.1,1.2-0.1,1.7,0.2c0.8-0.2,1.6,0.2,2.5,0.3c1,0.1,2.1,0.3,3.1,0.6c0.9,0.2,1.9,0.5,2.8,0.6
					c1.2,0.2,2.4,0.5,3.5,0.8c1.1,0.3,2.2,0.6,3.3,1c1.6,0.5,3.2,0.9,4.8,1.5c2.3,0.8,4.5,1.7,6.7,2.6c4.5,1.7,8.8,4,13.1,6.2
					c2.4,1.3,4.8,2.7,7.1,4.2c1.3,0.8,2.6,1.7,3.8,2.5c0.8,0.5,1.6,1.1,2.4,1.7c1.1,0.8,2.2,1.7,3.3,2.5c0.8,0.6,1.4,1.4,2.3,2
					c1.2,0.8,1.9,2,3.1,2.7c0.2,0.1,0.4,0.4,0.5,0.5c1.5,1.5,2.9,2.9,4.3,4.4c1.8,1.8,3.6,3.6,5.2,5.5c1.7,2,3.3,4,4.9,6.1
					c2,2.7,4,5.5,5.8,8.3c0.7,1.1,1.3,2.3,2,3.4c0.9,1.5,1.8,3,2.6,4.6c0.5,0.8,0.9,1.7,1.2,2.6c0.4,1.1,1.1,2.2,1.6,3.3
					c0.8,1.5,1.4,3.1,2,4.7c0.5,1.4,1.1,2.8,1.7,4.2c0.6,1.6,1.3,3.3,1.6,5c0.1,0.5,0.4,1,0.5,1.5c0.6,2.3,1.3,4.5,1.8,6.8
					c0.2,0.8,0.3,1.7,0.5,2.5c0.2,0.8,0.3,1.6,0.5,2.4c0.2,0.5,0,1.1,0.3,1.5c0.3,0.5,0.1,1,0.2,1.5c0.1,0.4,0.2,0.7,0.2,1.1
					c0.1,0.3-0.1,0.7,0.2,0.9c-0.4,0.3,0.1,0.6,0.1,0.9c-0.1,0.3-0.1,0.7,0,1c0.4,0.7,0.1,1.4,0.2,2.1c0.1,0.6,0.3,1.1,0.3,1.7
					c0,0.6-0.1,1.2,0.2,1.7c0.1,0.2,0,0.4,0,0.6c0,0.9,0,1.7,0,2.6c0,0.1,0.2,0.2,0.2,0.3C312.8,185.3,312.8,189.4,312.8,193.5z
					 M123.3,266.9c1.5,1.3,3,2.6,4.4,3.8c0.1,0.1,0.1,0.1,0.2,0.1c0.9,0.6,1.7,1.3,2.5,1.9c1.2,0.9,2.4,1.8,3.6,2.7
					c0.9,0.6,1.8,1.3,2.7,1.8c1.1,0.6,2,1.3,3.1,1.9c0.8,0.4,1.6,0.8,2.3,1.2c1.2,0.8,2.5,1.4,3.7,2.1c1.1,0.6,2.2,1,3.3,1.6
					c1.7,0.8,3.4,1.6,5.2,2.4c1.6,0.7,3.3,1.3,5,1.9c1,0.3,2,0.7,3,1c1,0.4,2,0.7,3,1c1.3,0.4,2.7,0.7,4.1,1.1
					c0.3,0.1,0.6,0.2,0.9,0.2c0.3,0.1,0.7,0,1,0.1c1,0.4,2,0.5,3,0.7c0.6,0.1,1.3,0.4,1.9,0.3c1.1,0.6,2.5,0.4,3.7,0.7
					c0.6,0.2,1.3,0.1,1.9,0.3c0.6,0.1,1.3,0.1,1.9,0.3c0.8,0.2,1.7-0.1,2.6,0.3c1.8-0.1,3.6,0.3,5.4,0.2c2.8-0.1,5.6,0.3,8.4-0.2
					c1.8,0.2,3.5-0.3,5.3-0.3c0.1,0,0.3,0.1,0.4,0c0.4-0.5,1-0.2,1.4-0.2c0.5-0.1,1-0.2,1.6-0.3c0.9-0.1,1.8,0,2.6-0.3
					c0.6-0.3,1.3,0,1.9-0.4c0.5-0.3,1.4-0.2,2-0.3c0.5-0.2,1.1-0.1,1.6-0.3c1.4-0.5,2.8-0.5,4.2-1c1.1-0.4,2.3-0.6,3.4-1
					c1.4-0.5,2.8-0.9,4.2-1.3c1.8-0.6,3.5-1.2,5.2-1.9c1.2-0.5,2.5-1,3.7-1.6c0.8-0.3,1.5-0.7,2.3-1c0.8-0.3,1.5-0.7,2.3-1
					c1.8-0.8,3.4-1.9,5.1-2.8c2-1,3.8-2.3,5.7-3.5c1.6-1,3.1-2.1,4.6-3.2c1.4-1.1,3-2.2,4.4-3.4c0.6-0.5,1.1-1,1.7-1.4
					c1.1-0.8,2.2-1.7,3.2-2.7c0.6-0.6,1.2-1.1,1.7-1.7c2.6-2.6,5.3-5.2,7.6-8.1c1.3-1.7,2.7-3.3,4-5c1-1.4,2.1-2.8,3-4.3
					c1.3-2,2.7-4,3.8-6.1c0.6-1.1,1.3-2.1,1.9-3.2c0.6-1.1,1.2-2.1,1.7-3.3c0.5-1.3,1.2-2.5,1.8-3.8c0.6-1.3,1.1-2.6,1.7-3.9
					c0.7-1.8,1.2-3.6,1.9-5.4c0.5-1.2,0.8-2.4,1.2-3.6c0.3-1,0.6-2.1,0.9-3.1c0.3-1,0.6-2.1,0.7-3.2c0.2-1.5,0.8-2.9,0.8-4.4
					c0.5-0.4,0-1,0.3-1.4c0.3-0.4,0-1,0.2-1.3c0.3-0.5,0.2-1,0.2-1.4c0-0.4,0.2-0.7,0.2-1.1c0-0.4-0.1-0.9,0-1.1
					c0.3-0.5,0.2-1.1,0.2-1.6c0.1-0.5,0.2-1,0.2-1.6c0.1-0.9,0-1.7,0.2-2.6c0.2-0.9,0.1-1.8,0-2.7c-0.1-0.9,0.3-1.8,0.3-2.7
					c-0.1-2,0.1-4-0.2-6.1c-0.3-1.5,0.1-3.1-0.3-4.6c-0.2-0.8,0.1-1.6-0.2-2.4c-0.3-0.7,0.1-1.6-0.3-2.3c0.1-1.5-0.5-2.8-0.5-4.3
					c0-0.3-0.2-0.6-0.2-0.9c0-0.3,0.1-0.7-0.1-1c-0.4-0.9-0.4-1.9-0.7-2.8c-0.2-0.6-0.2-1.3-0.4-1.9c-0.2-0.6,0.1-1.4-0.4-1.9
					c-0.3-1.5-0.8-2.9-1.2-4.4c-0.6-2.1-1.4-4.1-2.1-6.2c-1-3.1-2.4-6.1-3.7-9.1c-1.3-2.7-2.7-5.4-4.2-8c-1.2-2.1-2.6-4.1-3.9-6.2
					c-0.7-1.1-1.5-2.2-2.3-3.2c-0.5-0.6-1-1.3-1.5-2c-0.5-0.7-1-1.4-1.6-2c-0.5-0.6-1.1-1.1-1.5-1.8c-0.3-0.5-0.8-0.9-1.1-1.3
					c-0.4-0.5-0.8-1-1.2-1.5c-9.1,9.1-18.1,18.2-27.1,27.2c-1.4-0.3-2.7-0.8-4-1.1c-1.4-0.3-2.7-0.7-4.1-1c-1.4-0.3-2.7-0.6-4.4-1
					c10.7-10.7,21.2-21.3,31.8-31.9c0,0-0.1-0.1-0.2-0.2c-1.3-1-2.5-2.1-3.8-3.1c-1.1-0.8-2.1-1.8-3.2-2.6c-1.4-1-2.8-2-4.2-2.9
					c-1.8-1.2-3.5-2.3-5.4-3.4c-0.8-0.5-1.6-0.8-2.4-1.3c-1.2-0.8-2.5-1.4-3.7-2.1c-0.7-0.4-1.6-0.7-2.4-1.1c-2-0.9-3.9-1.9-6-2.6
					c-1-0.4-1.9-0.9-3-1.2c-3.1-0.9-6.1-2.2-9.2-3c-1.2-0.3-2.3-0.7-3.5-0.9c-1.1-0.1-2-0.7-3.1-0.6c-1.5-0.6-3.1-0.7-4.7-1
					c-0.3-0.1-0.6-0.2-0.9-0.2c-0.4,0-0.8,0.1-1.1,0c-0.6-0.3-1.1-0.3-1.7-0.2c-0.6,0.1-1.1-0.2-1.7-0.3c-1.2-0.1-2.3,0-3.5-0.2
					c-1-0.2-2.1-0.1-3.2,0c-1.1,0.1-2.1-0.3-3.2-0.3c-2,0-4,0-6,0c-2,0-3.9,0.2-5.9,0.3c-0.4,0-0.8,0.2-1.2,0.2c-0.4,0-0.9,0-1.3,0
					c0,0-0.1,0-0.1,0c-0.3,0.4-0.7,0.2-1.1,0.2c-0.4,0.1-0.7,0.2-1,0.2c-1,0-1.9,0.3-2.9,0.5c-1.3,0.2-2.7,0.4-4,0.8
					c-0.7,0.2-1.5,0.2-2.2,0.5c-0.7,0.3-1.5,0.4-2.2,0.5c-0.8,0.1-1.5,0.4-2.2,0.6c-0.8,0.2-1.5,0.5-2.3,0.7
					c-1.3,0.4-2.6,0.9-3.9,1.3c-2.2,0.7-4.3,1.5-6.4,2.4c-1,0.4-1.9,1-2.9,1.3c-0.9,0.3-1.7,0.7-2.5,1.1c-0.8,0.4-1.7,0.8-2.6,1.2
					c-1.9,1-3.7,2-5.5,3.1c-0.6,0.3-1.2,0.6-1.8,1c-2.1,1.4-4.2,2.8-6.2,4.3c-1.6,1.2-3.3,2.4-4.9,3.7c-1.1,0.9-2.2,1.8-3.3,2.8
					c-1.3,1.2-2.5,2.4-3.8,3.5c-1,0.8-1.8,1.8-2.6,2.8c-1,1.2-2.3,2.3-3.2,3.5c-0.7,0.9-1.6,1.8-2.3,2.6c-0.1,0.1-0.2,0.2-0.3,0.3
					c-0.5,0.9-1.1,1.7-1.8,2.5c-1.1,1.3-2.1,2.8-3.1,4.2c-0.9,1.2-1.6,2.5-2.5,3.7c-1.1,1.7-2.1,3.4-3,5.2c-0.9,1.7-1.9,3.3-2.6,5.1
					c-0.9,2.2-2,4.3-2.9,6.5c-0.2,0.6-0.6,1.1-0.8,1.7c-0.6,2-1.4,4-2,6c-0.5,1.6-1.1,3.2-1.4,4.8c-0.2,1.1-0.6,2.2-0.8,3.4
					c-0.1,0.7-0.3,1.5-0.5,2.2c-0.2,0.8-0.3,1.6-0.5,2.4c-0.2,0.6-0.1,1.3-0.3,1.8c-0.2,0.5,0,1-0.2,1.4c-0.3,0.5-0.2,1-0.2,1.4
					c0,0.2,0.1,0.4,0,0.5c-0.4,0.4-0.2,0.8-0.2,1.2c-0.1,0.4-0.2,0.9-0.2,1.3c-0.1,0.8,0.1,1.6-0.3,2.3c0.1,1.3-0.3,2.7-0.2,4
					c0.1,4.6-0.3,9.2,0.2,13.8c0.1,1.3,0.1,2.6,0.3,3.9c0.1,0.7,0.1,1.3,0.2,1.9c0.4,1.3,0.3,2.7,0.7,3.9c0.2,0.7,0.1,1.4,0.3,2.1
					c0.2,0.5,0.1,1.1,0.3,1.6c0.6,1.7,0.7,3.5,1.2,5.3c0.3,1.1,0.6,2.2,0.9,3.3c0.4,1.2,0.7,2.3,1.1,3.5c0.7,2.3,1.5,4.5,2.4,6.7
					c0.5,1.4,1.2,2.8,1.9,4.1c0.8,1.6,1.4,3.4,2.4,4.9c1.1,1.8,2.1,3.8,3.1,5.6c0.3,0.6,0.7,1.2,1.1,1.7c1.6,2.3,3,4.7,4.8,6.9
					c1,1.3,2,2.6,2.9,3.9c0.7,1,1.7,1.8,2.4,2.9c0.3,0.4,0.7,0.8,1.2,1.1c0.1-0.1,0.2-0.1,0.2-0.2c3.9-3.9,7.7-7.8,11.6-11.6
					c3.9-3.8,7.6-7.9,11.7-11.5c1.5-1.3,2.8-2.7,4.3-4c0.3-0.3,0.7-0.4,1.1-0.6c0.1,0.9,0.4,1.7,0.3,2.5c0,0.9,0.3,1.7,0.3,2.6
					c0,0.8,0,1.7,0.3,2.4c0.3,0.8,0.4,1.6,0.7,2.4c0.2,0.7,0.4,1.6,0.6,2.3C138.8,251.3,131.1,259.1,123.3,266.9z"/>
			</g>
			<g>
				<path class="st0" d="M194.9,160.4c-0.4-0.3-0.8-0.7-1.2-1c-0.3-0.3-0.6-0.6-1.1-0.9c-0.4-0.2-0.5-0.7-0.8-1
					c-2-2-3.7-4.3-5.3-6.7c-0.6-0.9-1.1-1.9-1.6-2.9c-0.4-0.8-0.8-1.6-1.2-2.5c-0.7-1.6-1.3-3.2-1.7-4.8c-0.3-1.3-0.6-2.6-1-3.8
					c-0.2-0.9-0.3-1.8-0.3-2.7c0-1.7-0.5-3.4-0.3-5.2c0.1-0.7,0.2-1.4,0.2-2.1c0-0.7-0.1-1.4,0-2c0.2-0.6,0.2-1.2,0.2-1.8
					c0-0.6,0.2-1.1,0.3-1.7c0.1-0.7,0.2-1.4,0.4-2c0.3-0.6,0.4-1.2,0.6-1.8c0.7-2,1.5-3.9,2.5-5.8c1.1-2,2.2-4.1,3.7-5.9
					c1-1.2,1.9-2.4,3-3.5c1.1-1.1,2.2-2.2,3.4-3.4c0.9,0.9,1.9,1.8,2.8,2.8c1.1,1.4,2.3,2.7,3.4,4.1c2,2.6,3.6,5.5,5,8.5
					c0.7,1.4,1.3,2.9,1.5,4.5c0.7,1,0.5,2.3,1,3.4c0.3,0.8,0.2,1.7,0.3,2.6c0.5,2.7,0.1,5.5,0.2,8.2c0,0.6,0,1.2-0.2,1.8
					c-0.2,0.6,0.1,1.2-0.3,1.8c-0.2,0.4-0.1,0.9-0.2,1.3c-0.2,0.4-0.1,1-0.3,1.4c-0.2,0.4-0.1,0.9-0.3,1.3c-0.3,1.1-0.7,2.3-1.1,3.4
					c-0.4,1-0.8,1.9-1.3,2.8c-0.7,1.3-1.6,2.6-2.3,3.9c-1,1.8-2.3,3.2-3.5,4.8c-1.1,1.4-2.4,2.5-3.6,3.8
					C195.8,159.8,195.3,160.1,194.9,160.4z"/>
			</g>
			<g>
				<path class="st0" d="M196.1,266.8c0.1-0.9,0.2-1.9,0.3-2.8c0-0.9-0.1-1.9,0-2.8c0.2-0.9,0-1.9,0.3-2.7c0.3-1.3,0.2-2.7,0.7-3.9
					c-0.1-1.6,0.7-3,0.8-4.6c0.1-0.9,0.5-1.7,0.8-2.6c0.7-1.8,1.3-3.6,2.2-5.2c0.7-1.4,1.6-2.7,2.5-4c1-1.3,1.9-2.5,3.1-3.6
					c1.7-1.5,3.5-2.8,5.4-4c1.6-1,3.2-1.7,4.9-2.4c1.4-0.6,2.9-1.1,4.4-1.4c0.6-0.2,1.3-0.1,1.9-0.3c0.7-0.3,1.3,0,2-0.2
					c2.5-0.5,5-0.2,7.5-0.2c1.1,0,2.2,0.3,3.4,0.3c0.8,0,1.4,0.6,1.5,1.4c0.2,1.1,0.6,2.2,0.2,3.3c-0.1,0.2,0.1,0.4,0.1,0.6
					c0,0.2-0.2,0.4-0.2,0.5c0.1,0.9-0.1,1.7-0.3,2.6c-0.1,0.8-0.3,1.6-0.5,2.4c-0.5,2.6-1,4.2-2,6.8c-0.4,1-0.9,1.9-1.3,2.8
					c-0.4,0.9-1,1.7-1.5,2.6c-1.4,2.6-3.5,4.7-5.7,6.6c-1.5,1.4-3.2,2.6-4.8,3.7c-1.4,0.9-2.8,1.9-4.3,2.7c-1.4,0.7-2.8,1.4-4.1,2.1
					c-0.9,0.5-1.9,0.9-2.9,1.2c-2.2,0.8-4.5,1.5-6.8,2.2c-1.4,0.5-2.9,0.8-4.4,1.1c-0.4,0.1-0.7,0.4-1.2,0.3
					c-0.4-0.1-0.7,0.1-1.1,0.2c-0.4,0.1-0.6-0.1-0.7-0.5c-0.1-0.3-0.2-0.5-0.2-0.8C196.1,267.6,196.1,267.2,196.1,266.8
					C196.1,266.8,196.1,266.8,196.1,266.8z"/>
			</g>
			<g>
				<path class="st0" d="M229.2,147c0.8,0,1.4,0,1.9,0c1.3,0.1,2.6,0.1,3.9,0.3c0.7,0.1,1.3,0.4,2,0.5c0.4,0,0.6,0.2,0.7,0.5
					c0.4,0.9,0.7,1.8,0.5,2.8c-0.5,0.1,0.3,0.5-0.1,0.7c-0.1,0.1-0.1,0.6-0.1,0.8c0.2,1.2-0.1,2.4-0.3,3.6c-0.3,1.7-0.4,3.5-1.2,5.1
					c-0.1,1.4-0.8,2.5-1.3,3.7c-0.2,0.5-0.4,1-0.6,1.5c-1,2.1-2.2,3.9-3.6,5.7c-1.2,1.5-2.3,3.1-3.8,4.3c-1.2,1-2.3,2.1-3.6,3
					c-1.2,0.8-2.5,1.7-3.7,2.6c-1.1,0.8-2.2,1.4-3.4,1.9c-2.2,1-4.3,2.2-6.6,2.8c-1.5,1-3.3,1-4.9,1.8c-0.9-0.1-1.6,0.4-2.3,0.6
					c-0.8,0.2-1.5,0.4-2.3,0.6c-1,0.3-2,0.5-3.1,0.4c-0.3,0-0.6-0.2-0.6-0.5c-0.1-0.4-0.2-0.9-0.3-1.3c-0.1-2.1,0.4-4.2,0.2-6.3
					c0.4-0.8,0.1-1.7,0.3-2.5c0.3-1.3,0.2-2.8,0.7-4.1c-0.2-1.2,0.6-2.2,0.5-3.4c0.4-0.6,0.2-1.3,0.5-2c0.3-0.6,0.4-1.2,0.6-1.8
					c0.8-2.3,1.9-4.4,3.1-6.6c0.9-1.6,2.1-3,3.3-4.4c0.9-1.1,2-2,3-2.9c1.2-1.2,2.6-2.2,4.1-3c1-0.5,1.8-1.1,2.8-1.5
					c0.9-0.4,1.9-0.8,2.8-1.2c0.5-0.2,1.1-0.3,1.6-0.5c0.5-0.2,1.1-0.3,1.6-0.4c0.5-0.1,1.1-0.2,1.7-0.3c0.8-0.1,1.7-0.1,2.4-0.3
					C226.8,146.9,228.1,147.2,229.2,147z"/>
			</g>
			<g>
				<path class="st0" d="M193.1,269.4c-0.7-0.2-1.5-0.4-2.2-0.5c-1-0.1-1.8-0.5-2.8-0.6c-0.9-0.1-1.8-0.5-2.6-0.7
					c-1.3-0.4-2.6-0.8-3.8-1.2c-2.4-0.8-4.8-1.8-7.1-3c-2.3-1.2-4.7-2.5-6.8-4c-0.8-0.6-1.6-1.2-2.5-1.8c-1.7-1.3-3.2-2.6-4.7-4.1
					c-1.1-1.1-2-2.4-2.9-3.7c-1.1-1.5-1.9-3.2-2.7-4.9c-0.8-1.9-1.6-3.8-2.1-5.8c-0.3-1.3-0.4-2.6-0.8-3.9c-0.3-1,0.1-2.1-0.5-3
					c0-1.4,0-2.8,0-4.2c0-0.9,0.4-1.2,1.3-1.4c1.5-0.3,3.1-0.6,4.7-0.5c0.5,0,1-0.2,1.4-0.2c0.5,0,1-0.1,1.5,0
					c0.6,0.1,1.2,0.3,1.8,0.3c0.6,0,1.3-0.2,1.8,0.2c0.1,0.1,0.3,0,0.4,0c1.6,0,3,0.5,4.5,0.9c1.7,0.4,3.3,1.1,4.9,1.7
					c1.4,0.5,2.7,1.3,4,2.1c2,1.3,4,2.7,5.6,4.5c1.5,1.7,2.9,3.4,4,5.4c0.9,1.6,1.7,3.2,2.4,4.9c0.6,1.5,1.1,3,1.4,4.5
					c0.3,1.3,0.5,2.5,0.8,3.8c0.2,1.1,0.4,2.3,0.5,3.4c0.1,0.7,0.1,1.4,0.2,2.1c0.3,1.2,0,2.4,0.3,3.5c0.4,1.6,0.1,3.3,0.2,4.9
					C193.6,268.5,193.4,268.9,193.1,269.4z"/>
			</g>
			<g>
				<path class="st0" d="M193,190.2c-1.6,0.2-3-0.3-4.4-0.6c-1.2-0.3-2.4-0.6-3.6-0.9c-1.3-0.3-2.6-0.8-3.9-1.3
					c-3.2-1.2-6.3-2.8-9.4-4.3c-1-0.5-1.9-1.1-2.9-1.7c-0.9-0.6-1.8-1.3-2.8-1.8c-0.6-0.3-1-0.8-1.5-1.3c-1-0.9-2.1-1.8-3-2.8
					c-1.1-1.2-2.3-2.3-3-3.7c-1.7-1.7-2.5-3.9-3.5-6c-0.8-1.6-1.4-3.3-1.8-5c-0.3-1.2-0.6-2.3-0.8-3.5c-0.1-0.5-0.4-0.9-0.3-1.4
					c0.1-0.4,0-0.9-0.2-1.3c-0.2-0.4,0-1,0-1.5c0-0.5,0-0.9,0-1.4c0-0.2-0.2-0.4-0.2-0.6c0-0.1,0.2-0.3,0.1-0.4
					c-0.5-0.7,0-1.3,0.2-1.8c0.3-0.6,1-1,1.8-1.1c1-0.1,1.9-0.1,2.9-0.5c0.3-0.1,0.6,0,0.9,0c0.8,0,1.6,0.1,2.4,0
					c1.6-0.2,3.2,0.1,4.8,0.3c1.4,0.2,2.9,0.3,4.3,0.7c2.5,0.7,4.9,1.5,7.1,2.9c1.2,0.7,2.4,1.4,3.6,2.2c0.4,0.3,0.9,0.5,1.3,0.9
					c1.2,1.1,2.4,2.1,3.5,3.3c1,1.1,1.9,2.2,2.7,3.5c1,1.5,1.7,3.1,2.5,4.8c0.4,1,0.9,2,1.2,3.1c0.2,1,0.6,2,1,3.1
					c0.1,0.5,0.1,1,0.3,1.6c0.2,0.7,0,1.5,0.3,2c0.4,0.6,0,1.3,0.4,1.9c0.3,0.5,0.1,1.3,0.3,1.9c0.2,1.2,0.3,2.5,0.3,3.7
					c0,0.9,0.4,1.8,0.3,2.7c-0.1,0.9,0,1.9,0,2.8C193.6,189.2,193.4,189.6,193,190.2z"/>
			</g>
			<g>
				<path class="st0" d="M196.5,229.8c-0.5-1.6-0.4-3-0.4-4.4c0-0.7,0.2-1.5,0.2-2.2c0-0.8-0.1-1.6,0-2.3c0.2-0.7,0.1-1.5,0.2-2.2
					c0.3-1.2,0.2-2.5,0.7-3.7c0.1-0.3,0-0.7,0-1c0-0.3,0.2-0.6,0.2-0.9c0.2-0.7,0.4-1.5,0.5-2.2c0.1-0.8,0.6-1.4,0.5-2.2
					c0.7-0.8,0.7-1.9,1.2-2.8c0.6-1.1,1-2.3,1.6-3.4c0.8-1.5,2.2-3.4,2.9-4.4c0.9-1.1,1.8-2.1,2.8-3.1c1.9-1.9,4.2-3.4,6.6-4.7
					c2.2-1.1,4.4-2,6.7-2.7c1.1-0.4,2.4-0.7,3.6-0.6c1.4,0.1,2.7-0.4,4.1-0.3c1.4,0.1,2.8,0,4.2,0c1.3,0,2.5,0.4,3.7,0.3
					c0.4,0,1.1,0.1,1.3,0.6c0.2,0.4,0.2,0.9,0.3,1.4c0,1.1,0,2.1,0,3.2c0,1.2,0,2.4-0.3,3.6c-0.2,1-0.3,2-0.7,3.1
					c-0.3,0.9-0.5,1.9-0.8,2.9c-0.7,2-1.5,3.8-2.4,5.7c-0.8,1.6-1.9,3.1-3,4.6c-1.2,1.6-2.7,3-4.2,4.4c-1.6,1.5-3.4,2.8-5.3,4
					c-0.9,0.6-1.7,1.2-2.6,1.7c-1.4,0.8-3.7,1.9-5.7,2.9c-1.4,0.7-2.7,1.3-4.2,1.7c-1.4,0.5-2.9,0.9-4.3,1.4
					c-1.3,0.4-2.6,0.6-3.9,1.2c-0.4,0.2-0.9,0.1-1.4,0.3C198.3,229.7,197.4,229.7,196.5,229.8z"/>
			</g>
			<g>
				<path class="st0" d="M151.7,188c0.2-0.2,0.4-0.4,0.7-0.6c0.3-0.2,0.6-0.5,0.8-0.4c0.9,0.1,1.8-0.3,2.7-0.3
					c1.3,0.1,2.6,0.1,3.8,0c2-0.1,4,0.3,6,0.3c0.9,0,1.8,0.3,2.7,0.6c1.5,0.4,3.1,0.9,4.5,1.5c2.6,1.1,5.2,2.3,7.4,4.2
					c0.9,0.8,2,1.5,2.9,2.4c2.1,2.1,3.8,4.6,5.1,7.3c1.2,2.4,2.1,5,3,7.5c0.2,0.5,0.1,1.1,0.3,1.7c0.5,1.4,0.6,3,1.1,4.4
					c-0.2,0.9,0.3,1.7,0.3,2.6c0,0.7,0.2,1.3,0.2,1.9c0,0.6-0.2,1.4,0,1.9c0.4,1,0.1,2,0.2,3c0.1,1,0,2.1,0,3.1
					c0,0.3-0.2,0.5-0.3,0.9c-0.4-0.1-0.8,0.1-1.4-0.2c-0.5-0.3-1.2-0.1-1.8-0.3c-1.5-0.4-3-0.8-4.5-1.2c-1.4-0.3-2.6-1-4-1.2
					c-0.5-0.1-1-0.4-1.5-0.6c-1.3-0.5-2.6-1.1-3.9-1.7c-1.3-0.6-2.5-1.1-3.7-1.8c-1.5-0.8-2.9-1.8-4.3-2.7c-1.1-0.7-2.1-1.4-3.2-2.2
					c-0.1,0-0.1-0.1-0.2-0.2c-0.8-0.7-1.6-1.4-2.3-2.1c-0.8-0.7-1.6-1.5-2.3-2.3c-2.1-2.4-3.9-5-5.2-8c-0.6-1.4-1.2-2.8-1.6-4.2
					c-0.3-1.2-0.7-2.5-0.9-3.8c-0.1-1-0.3-2.1-0.5-3.1c-0.2-1.1-0.1-2.2-0.2-3.2c0-0.3-0.3-0.7-0.2-0.9c0.2-0.4,0.2-0.7,0.2-1.1
					C151.8,188.7,151.7,188.4,151.7,188z"/>
			</g>
		</g>
	</g>
</g>
</svg>
