<?xml version="1.0" encoding="utf-8"?>
<!-- Generator: Adobe Illustrator 23.0.2, SVG Export Plug-In . SVG Version: 6.00 Build 0)  -->
<svg version="1.1" id="Layer_1" xmlns="http://www.w3.org/2000/svg" xmlns:xlink="http://www.w3.org/1999/xlink" x="0px" y="0px"
	 viewBox="0 0 393.2 375" style="enable-background:new 0 0 393.2 375;" xml:space="preserve">
<style type="text/css">
	.st0{fill:#212529;}
</style>
<g>
	<g>
		<path class="st0" d="M196.6,375c-21.4,0-42.4-3.6-62.3-10.6C59.4,338,9.1,266.9,9.1,187.5C9.1,84.1,93.2,0,196.6,0
			s187.5,84.1,187.5,187.5C384.1,290.9,300,375,196.6,375z M196.6,8.1C97.6,8.1,17.2,88.6,17.2,187.5c0,76,48.1,144,119.8,169.3
			c19.1,6.7,39.2,10.2,59.6,10.2c98.9,0,179.4-80.5,179.4-179.4S295.5,8.1,196.6,8.1z"/>
	</g>
	<g>
		<path class="st0" d="M57.1,246.2l2.5-1.2l4.5,9.7l-2.5,1.2L57.1,246.2z"/>
		<path class="st0" d="M58,206.5c1,1.5,2.6,4.6,3.5,8.4c0.9,4.3,0.6,8.1-1.4,11.5c-1.8,3-5.3,5.3-9.7,6.3c-8.5,1.9-16-2.6-18.1-12.1
			c-0.7-3.3-0.6-6.1-0.3-7.4l3.2,0.3c-0.4,1.7-0.5,3.7,0.2,6.6c1.5,6.9,6.8,10.5,13.9,8.9c7.2-1.6,10.5-6.8,9-13.5
			c-0.5-2.4-1.2-4-1.8-4.7l-8.5,1.9l1.3,5.7l-3,0.7l-2.1-9.4L58,206.5z"/>
		<path class="st0" d="M43.2,180.9c10-0.4,15.6,5.4,15.9,12.9c0.3,7.7-5.4,13.3-14.2,13.7c-9.2,0.4-15.5-5.1-15.8-12.8
			C28.7,186.7,34.5,181.3,43.2,180.9z M44.6,203.5c6.3-0.3,11.7-3.9,11.4-9.8c-0.3-6-5.9-9.1-12.5-8.8c-5.8,0.2-11.7,3.5-11.5,9.8
			C32.3,200.9,38.2,203.8,44.6,203.5z"/>
		<path class="st0" d="M46.9,153.4c9.9,1.4,14.3,8.1,13.3,15.5c-1.1,7.6-7.7,12.1-16.4,10.9c-9.1-1.3-14.3-7.7-13.3-15.4
			C31.6,156.5,38.3,152.2,46.9,153.4z M44.2,175.8c6.2,0.9,12.2-1.7,13-7.6c0.8-5.9-4.1-10-10.7-10.9c-5.8-0.8-12.2,1.4-13,7.6
			C32.7,171.1,37.9,175,44.2,175.8z"/>
		<path class="st0" d="M34.6,146.1c0.3-2.3,0.9-5,1.9-7.8c1.7-5.1,4.1-8.4,7.1-10.1c3.1-1.8,6.7-2.2,11.2-0.7
			c4.5,1.5,7.7,4.1,9.4,7.5c1.7,3.5,1.7,8.2,0,13.6c-0.9,2.6-1.7,4.6-2.5,6.4L34.6,146.1z M60.2,150.5c0.4-0.9,0.9-2.2,1.3-3.6
			c2.5-7.7-0.4-13.2-7.9-15.6c-6.5-2.2-11.9,0.2-14.3,7.7c-0.6,1.9-0.9,3.3-1,4.3L60.2,150.5z"/>
		<path class="st0" d="M74,98.9c-3.6-2-7.9-4.3-10.9-6.2l0,0.1c2.3,2.6,4.8,5.6,7.4,8.9l9.3,11.8l-1.5,2.4l-14.3-3.3
			c-4.3-1-8-2-11.4-3.2l0,0.1c3,2,7,4.7,10.6,7.3l10.2,7.3l-1.9,3L47.8,110l2.5-4.1l14.6,3.2c3.7,0.9,6.9,1.7,9.9,2.7l0-0.1
			c-2.1-2.2-4.3-4.8-6.7-7.8l-9.2-11.8l2.5-4.1l25.7,13.9l-2,3.1L74,98.9z"/>
		<path class="st0" d="M88,101.3L66.8,81.5l2.8-3l17.1,3.3c3.9,0.8,7.3,1.6,10.4,2.7l0.1-0.1c-3.1-2.4-5.7-4.8-9-7.8l-8.9-8.3
			l2.4-2.6L103,85.4l-2.6,2.8l-17.1-3.3c-3.7-0.7-7.5-1.6-10.8-2.7l-0.1,0.1c2.8,2.4,5.4,4.7,8.9,8l9.1,8.5L88,101.3z"/>
		<path class="st0" d="M90,58.5l10.4,13.7c3.9,5.2,7.9,5.6,11,3.3c3.4-2.6,3.9-6.6,0-11.6L101,50.1l3-2.3l10.3,13.5
			c5.4,7.1,3.9,12.8-1.2,16.7c-4.7,3.6-10.3,3.6-15.8-3.6L87,60.8L90,58.5z"/>
		<path class="st0" d="M109.6,44.5l13.7-7.6l1.5,2.7l-10.4,5.7l4.7,8.5l9.6-5.3l1.5,2.7l-9.6,5.3l6.4,11.5l-3.3,1.8L109.6,44.5z"/>
		<path class="st0" d="M136.7,52.8l0.6,9.6l-3.6,1.5l-1.7-30.7l4.2-1.7l20,23.2l-3.7,1.5l-6.3-7.3L136.7,52.8z M144.5,46.5l-5.8-6.7
			c-1.3-1.5-2.4-3-3.4-4.3l-0.1,0c0.2,1.7,0.5,3.6,0.6,5.4l0.5,8.9L144.5,46.5z"/>
		<path class="st0" d="M175.3,49.7c-1.1,1-3.7,2.3-7.2,3.1c-8,1.9-15.1-1.8-17.3-11.1c-2.1-8.9,2.5-16.3,11.3-18.3
			c3.5-0.8,5.9-0.6,7-0.3l-0.2,3.2c-1.5-0.4-3.6-0.4-5.9,0.1c-6.6,1.6-10.1,6.8-8.3,14.3c1.6,7,6.7,10.4,13.5,8.8
			c2.3-0.5,4.4-1.5,5.7-2.6L175.3,49.7z"/>
		<path class="st0" d="M180.8,24.2L172,25l-0.3-3.2l21.4-1.8l0.3,3.2l-8.8,0.8l2.2,25.8L183,50L180.8,24.2z"/>
		<path class="st0" d="M200.4,20.2l-1.1,17.2c-0.4,6.5,2.3,9.4,6.2,9.7c4.3,0.3,7.3-2.4,7.7-8.8l1.1-17.2l3.8,0.2l-1.1,17
			c-0.6,8.9-5.5,12.2-11.8,11.8c-5.9-0.4-10.2-4-9.6-13.1l1.1-17.1L200.4,20.2z"/>
		<path class="st0" d="M224.3,22.8c1.9,0.1,4.7,0.4,7.2,0.9c3.9,0.9,6.3,2.2,7.7,4.1c1.1,1.6,1.5,3.7,1,5.9c-0.8,3.7-3.7,5.7-6.9,6
			l0,0.1c2,1.2,2.8,3.5,2.9,6.6c0.1,4.2,0.1,7,0.5,8.3l-3.8-0.8c-0.3-0.9-0.4-3.5-0.4-7.2c0-4.1-1.2-5.9-4.5-6.8l-3.4-0.8l-2.7,12.3
			l-3.7-0.8L224.3,22.8z M225.2,36.5l3.7,0.8c3.9,0.9,6.9-0.7,7.6-4c0.8-3.7-1.5-5.8-5.4-6.7c-1.8-0.4-3-0.5-3.7-0.5L225.2,36.5z"/>
		<path class="st0" d="M249.9,29L241,56.7l-3.6-1.2l8.9-27.7L249.9,29z"/>
		<path class="st0" d="M244.1,57.3l12.1-26.5l3.8,1.7l2.3,17.2c0.5,4,0.8,7.5,0.8,10.8l0.1,0c1.3-3.7,2.7-6.9,4.6-11l5.1-11.1
			l3.2,1.5l-12.1,26.5l-3.5-1.6l-2.3-17.3c-0.5-3.8-0.9-7.6-0.9-11.1l-0.1,0c-1.3,3.4-2.7,6.6-4.8,11l-5.2,11.3L244.1,57.3z"/>
		<path class="st0" d="M284.7,78.8c-1.8-0.4-5.1-1.5-8.3-3.7c-3.6-2.5-6-5.4-6.8-9.3c-0.7-3.4,0.2-7.5,2.8-11.2
			c4.9-7.2,13.4-9,21.5-3.5c2.8,1.9,4.6,4,5.3,5.2l-2.5,2c-0.9-1.5-2.2-3-4.6-4.7c-5.8-4-12.2-3-16.3,3.1c-4.2,6.1-3,12.2,2.7,16
			c2,1.4,3.6,2,4.6,2.2l4.9-7.2l-4.9-3.3l1.7-2.5l7.9,5.4L284.7,78.8z"/>
		<path class="st0" d="M310.3,65.1c1.5,1.1,3.3,2.6,5.4,4.8c2.6,2.7,3.9,5.2,4,7.5c0.1,2.1-0.7,4.3-2.6,6.1c-1.9,1.8-3.9,2.7-6,2.7
			c-2.9,0-5.9-1.5-8.5-4.1c-0.8-0.8-1.5-1.6-1.9-2.3l-8.3,8.1l-2.6-2.7L310.3,65.1z M302.9,77.6c0.4,0.7,1.1,1.5,1.9,2.4
			c3.2,3.3,6.7,3.7,9.5,0.9c2.8-2.7,2.2-6-0.7-8.9c-1.1-1.2-2.1-2-2.7-2.3L302.9,77.6z"/>
		<path class="st0" d="M326,81.8c1.4,1.3,3.3,3.4,4.8,5.5c2.4,3.2,3.3,5.8,3.1,8.2c-0.2,1.9-1.3,3.8-3.1,5.2c-3.1,2.3-6.6,1.8-9.2,0
			l-0.1,0.1c0.7,2.2-0.2,4.5-2.2,6.9c-2.7,3.2-4.5,5.4-5.1,6.5l-2.3-3.1c0.4-0.9,2-2.9,4.5-5.7c2.7-3.1,3-5.3,1.1-8.1l-2.1-2.8
			l-10.1,7.5l-2.2-3L326,81.8z M317.5,92.7l2.3,3.1c2.4,3.2,5.7,4,8.3,2c3-2.2,2.7-5.4,0.4-8.6c-1.1-1.5-1.9-2.4-2.4-2.8L317.5,92.7
			z"/>
		<path class="st0" d="M324.5,114.3l-9.5,1.6l-1.8-3.4l30.3-4.8l2.1,4L324.5,134l-1.9-3.6l6.6-7L324.5,114.3z M331.6,121.4l6.1-6.5
			c1.4-1.5,2.7-2.6,4-3.8l0-0.1c-1.7,0.4-3.5,0.9-5.3,1.2l-8.8,1.4L331.6,121.4z"/>
		<path class="st0" d="M331.6,152.3c-1.1-1-2.7-3.5-3.8-6.8c-2.7-7.7,0.2-15.2,9.2-18.3c8.6-3,16.4,0.8,19.4,9.3
			c1.2,3.4,1.2,5.8,1,6.9l-3.2,0.1c0.2-1.5,0-3.6-0.8-5.9c-2.2-6.4-7.8-9.3-15-6.8c-6.8,2.3-9.7,7.7-7.4,14.3c0.8,2.2,2,4.2,3.2,5.4
			L331.6,152.3z"/>
		<path class="st0" d="M357.4,155.2l-1.6-8.7l3.1-0.6l3.9,21.2l-3.1,0.6l-1.6-8.7l-25.4,4.7l-0.7-3.7L357.4,155.2z"/>
		<path class="st0" d="M363.2,173.5l-28.9,2.8l-0.4-3.8l28.9-2.8L363.2,173.5z"/>
		<path class="st0" d="M335.6,199.5c-0.7-1.3-1.4-4.1-1.3-7.7c0-8.2,5.3-14.3,14.8-14.2c9.2,0.1,15.2,6.3,15.2,15.3
			c0,3.6-0.8,5.9-1.3,6.9l-3.1-1c0.7-1.4,1.2-3.4,1.2-5.8c0-6.8-4.3-11.4-11.9-11.4c-7.2,0-11.7,4-11.8,11.1c0,2.3,0.4,4.7,1.2,6.2
			L335.6,199.5z"/>
		<path class="st0" d="M345.7,217.1l1.6-11.2l-10.4-1.5l-1.8,12.5l-3.1-0.4l2.4-16.3l28.8,4.2l-2.3,15.6l-3.1-0.5l1.7-11.8l-9.1-1.3
			l-1.6,11.2L345.7,217.1z"/>
		<path class="st0" d="M337.5,242.6l-2.6-0.9l3.5-10.1l2.6,0.9L337.5,242.6z"/>
	</g>
	<g>
		<path class="st0" d="M64.4,285.6c-1.1-0.6-2.9-2.3-4.6-4.8c-3.8-5.8-3-12.6,3.8-17.1c6.5-4.3,13.8-2.8,18,3.6
			c1.7,2.6,2.2,4.6,2.3,5.5l-2.6,0.7c-0.2-1.3-0.7-3-1.9-4.7c-3.2-4.9-8.4-6.1-13.9-2.5c-5.1,3.4-6.4,8.4-3.1,13.4
			c1.1,1.6,2.5,3.1,3.8,3.8L64.4,285.6z"/>
		<path class="st0" d="M90.4,297.5c-6.4,5.7-13.2,4.8-17.5,0.1c-4.4-4.9-3.6-11.8,2-16.8c5.9-5.2,13-5,17.4-0.1
			C96.9,285.8,95.9,292.6,90.4,297.5z M77.3,283.3c-4,3.6-5.6,8.9-2.3,12.7c3.4,3.8,8.8,2.8,13-0.9c3.7-3.3,5.9-8.7,2.3-12.7
			C86.8,278.4,81.3,279.7,77.3,283.3z"/>
		<path class="st0" d="M85.5,310.1l15.7-19.3l2.7,2.2l-1.8,14.8c-0.4,3.4-0.9,6.4-1.7,9l0.1,0c1.9-2.8,3.7-5.2,6.2-8.2l6.6-8.1
			l2.3,1.9L100,321.8l-2.5-2l1.8-14.8c0.4-3.2,0.9-6.5,1.7-9.3l-0.1,0c-1.8,2.5-3.7,4.9-6.3,8.1l-6.7,8.2L85.5,310.1z"/>
		<path class="st0" d="M107.9,322.3c0.8,1.5,2.2,3.2,4.1,4.3c2.8,1.7,5.4,1.2,6.6-1c1.2-2,0.7-3.8-1.5-6.6c-2.7-3.4-3.8-6.5-2-9.5
			c2-3.3,6.2-4.1,10.4-1.6c2.2,1.3,3.5,2.8,4.1,3.9l-2.1,1.8c-0.4-0.8-1.5-2.3-3.4-3.4c-2.9-1.7-5.1-0.7-5.9,0.8
			c-1.2,2-0.5,3.8,1.8,6.7c2.8,3.6,3.5,6.4,1.7,9.5c-2,3.3-6.1,4.7-11.1,1.7c-2.1-1.2-3.9-3.2-4.6-4.6L107.9,322.3z"/>
		<path class="st0" d="M136.7,314.4l-10.9,22.3l-2.9-1.4l10.9-22.3L136.7,314.4z"/>
		<path class="st0" d="M132.9,335.8c1,1.4,2.7,2.8,4.8,3.5c3.1,1.2,5.5,0.2,6.4-2.1c0.8-2.1,0.1-3.9-2.6-6.3c-3.3-2.8-4.9-5.7-3.6-9
			c1.4-3.6,5.4-5.2,9.9-3.5c2.3,0.9,3.9,2.1,4.7,3.1l-1.8,2.1c-0.6-0.7-1.9-2-4-2.8c-3.2-1.2-5.1,0.2-5.7,1.8
			c-0.8,2.2,0.2,3.8,2.9,6.2c3.4,3,4.6,5.7,3.3,9.1c-1.4,3.6-5.2,5.7-10.7,3.6c-2.2-0.9-4.4-2.5-5.4-3.8L132.9,335.8z"/>
		<path class="st0" d="M160.2,325.8l-7.3-1.8l0.7-2.6l17.9,4.4l-0.7,2.6l-7.4-1.8L158,348l-3.1-0.8L160.2,325.8z"/>
		<path class="st0" d="M183.9,340.6l-9.5-1.2l-1.1,8.9l10.7,1.4l-0.3,2.7l-13.9-1.8l3.1-24.7l13.4,1.7l-0.3,2.7l-10.1-1.3l-1,7.8
			l9.5,1.2L183.9,340.6z"/>
		<path class="st0" d="M189.3,352.7l-0.3-24.8l3.5,0l8.1,12.5c1.8,2.9,3.4,5.5,4.5,8l0.1,0c-0.3-3.3-0.5-6.3-0.5-10.2l-0.1-10.4l3,0
			l0.3,24.8l-3.2,0l-8.1-12.5c-1.8-2.7-3.5-5.5-4.7-8.2l-0.1,0c0.2,3.1,0.3,6.1,0.4,10.2l0.1,10.6L189.3,352.7z"/>
		<path class="st0" d="M216.5,329.2l-7.5,1.1l-0.4-2.7l18.2-2.7l0.4,2.7l-7.5,1.1l3.3,21.9l-3.2,0.5L216.5,329.2z"/>
		<path class="st0" d="M263.6,342.8c-3.4,0.3-6.9,0.5-9.9,0.5c-0.6,0-1.1,0-1.5,0.2c-5.7,1.8-11.8-0.6-14.6-8.2
			c-2.7-7.5,0.1-13.9,6.4-16.2c6.4-2.3,12.3,1.1,14.7,8c2.2,6,0.8,10.8-2.6,13.6l0,0.1c2.5-0.2,5.3-0.6,7.4-1L263.6,342.8z
			 M255.7,328.5c-1.7-4.7-5.8-8.6-10.8-6.9c-5.1,1.8-5.9,7.5-4.1,12.5c1.8,5,6.1,8.5,10.9,6.8C256.5,339.1,257.6,333.8,255.7,328.5z
			"/>
		<path class="st0" d="M259.3,313.1l7.2,12.9c2.7,4.8,6,5.7,8.9,4.1c3.2-1.8,4.1-5.1,1.4-9.8l-7.2-12.9l2.8-1.6l7.1,12.7
			c3.7,6.7,1.7,11.3-3,13.9c-4.4,2.5-9.2,1.8-13-4.9l-7.1-12.8L259.3,313.1z"/>
		<path class="st0" d="M288.2,315.5l2.7,7.8l-2.6,2l-8.3-24.9l3.1-2.3l21.8,14.7l-2.7,2.1l-6.9-4.6L288.2,315.5z M293.2,308.5
			l-6.3-4.2c-1.4-1-2.6-1.9-3.8-2.8l-0.1,0c0.6,1.4,1.2,2.8,1.7,4.3l2.4,7.2L293.2,308.5z"/>
		<path class="st0" d="M291,291.4l2.3-2.3l15.5,15.8l7.6-7.5l1.9,1.9l-9.9,9.7L291,291.4z"/>
		<path class="st0" d="M304.5,277.2l18.9,16.1l-2.1,2.5l-18.9-16.1L304.5,277.2z"/>
		<path class="st0" d="M312.4,271.4l-4.4,6.2l-2.2-1.6l10.7-15l2.2,1.6l-4.4,6.2l18.1,12.8l-1.9,2.7L312.4,271.4z"/>
		<path class="st0" d="M342,265.8l-9.4-4.9l-16.3,0.3l1.7-3.3l7.7,0.1c2.1,0.1,3.8,0.1,5.7,0.2l0-0.1c-1.1-1.3-2.2-2.9-3.4-4.6
			l-4.4-6.4l1.7-3.2l8.8,14l9.4,4.9L342,265.8z"/>
	</g>
	<g>
		<path class="st0" d="M196.6,300.1c-20.3,0-40.1-5.4-57.5-15.8C105.1,264.1,84,227,84,187.5c0-62.1,50.5-112.6,112.6-112.6
			s112.6,50.5,112.6,112.6S258.7,300.1,196.6,300.1z M196.6,83C139,83,92.1,129.9,92.1,187.5c0,36.7,19.6,71.1,51.2,89.9
			c16.1,9.6,34.5,14.6,53.4,14.6c57.6,0,104.5-46.9,104.5-104.5C301.1,129.9,254.2,83,196.6,83z"/>
	</g>
	<g>
		<path class="st0" d="M154.6,209.8c-3.3,1.3-9.9,3.1-17.6,3.1c-8.6,0-15.7-2.2-21.3-7.5c-4.9-4.7-7.9-12.4-7.9-21.2
			c0-17,11.8-29.4,30.9-29.4c6.6,0,11.8,1.4,14.3,2.6l-1.9,6c-3-1.4-6.9-2.5-12.6-2.5c-13.9,0-22.9,8.6-22.9,22.9
			c0,14.5,8.6,23,22,23c4.8,0,8.1-0.7,9.8-1.5v-17h-11.5v-5.9h18.8V209.8z"/>
		<path class="st0" d="M213.8,187.3c-0.4-7.9-0.9-17.6-0.9-24.6h-0.2c-2,6.6-4.3,13.8-7.2,21.7L195.4,212h-5.6l-9.3-27.2
			c-2.7-8.1-4.9-15.4-6.5-22.2h-0.2c-0.2,7.1-0.6,16.6-1.1,25.2l-1.5,24.4h-7l4-57h9.4l9.7,27.6c2.4,7,4.2,13.3,5.8,19.2h0.2
			c1.5-5.8,3.6-12,6.1-19.2l10.1-27.6h9.4l3.6,57h-7.3L213.8,187.3z"/>
		<path class="st0" d="M233.8,156c3.6-0.6,8.2-1.1,14.1-1.1c7.3,0,12.6,1.7,16,4.7c3,2.7,5,6.9,5,11.9c0,5.2-1.5,9.2-4.4,12.2
			c-4,4.1-10.2,6.3-17.4,6.3c-2.2,0-4.2-0.1-5.9-0.5v22.8h-7.4V156z M241.1,183.5c1.6,0.4,3.6,0.6,6.1,0.6c8.9,0,14.3-4.4,14.3-12.1
			c0-7.6-5.4-11.2-13.5-11.2c-3.2,0-5.7,0.3-6.9,0.6V183.5z"/>
	</g>
</g>
</svg>
