<?xml version="1.0" encoding="utf-8"?>
<!-- Generator: Adobe Illustrator 23.0.2, SVG Export Plug-In . SVG Version: 6.00 Build 0)  -->
<svg version="1.1" id="Layer_1" xmlns="http://www.w3.org/2000/svg" xmlns:xlink="http://www.w3.org/1999/xlink" x="0px" y="0px"
	 viewBox="0 0 393.2 375" style="enable-background:new 0 0 393.2 375;" xml:space="preserve">
<style type="text/css">
	.st0{fill:#212529;}
</style>
<g>
	<path class="st0" d="M62.9,100.9L62.9,100.9l-0.6,6.1l-3.1-1.1l0.7-7.6l2-3l25.7,17l-2.2,3.4L62.9,100.9z"/>
	<path class="st0" d="M96.2,78.2c7.6,7.2,9.1,14.1,4.4,19c-4.2,4.4-11.1,3.5-18.5-3.5c-7.5-7.2-8.5-14.3-4.2-18.8
		C82.3,70.2,89.1,71.4,96.2,78.2z M85,90.7c5.8,5.5,10.8,6.9,13.4,4.1c2.9-3.1,0.7-8-5-13.4C88,76.2,83,74.1,80,77.3
		C77.6,79.9,79,84.9,85,90.7z"/>
	<path class="st0" d="M117.2,62.3c6.2,8.4,6.4,15.4,1,19.4c-4.8,3.6-11.5,1.5-17.6-6.7c-6.1-8.4-5.8-15.6-0.8-19.2
		C105,51.9,111.4,54.4,117.2,62.3z M104,72.5c4.7,6.4,9.4,8.7,12.5,6.4c3.4-2.5,2.1-7.7-2.5-14c-4.5-6.1-8.9-9-12.5-6.4
		C98.5,60.6,99,65.8,104,72.5z"/>
	<path class="st0" d="M132.1,47.3c2.6,6,0.8,10.2-2.9,11.8c-3.6,1.5-7.8,0-10.3-5.6c-2.5-5.7-0.8-10.1,3-11.8
		C125.8,40,129.7,42,132.1,47.3z M121.8,52c1.5,3.6,4.1,5.8,6.5,4.7c2.5-1.1,2.5-4.3,0.9-8c-1.5-3.5-3.7-5.9-6.4-4.7
		C120.3,45.1,120.3,48.5,121.8,52z M134.1,71.2l3.9-36.5l2.4-1.1l-3.9,36.5L134.1,71.2z M155.6,51.1c2.6,6,0.8,10.2-2.8,11.8
		c-3.6,1.5-7.8,0-10.3-5.7c-2.5-5.7-0.8-10.1,3-11.8C149.4,43.7,153.2,45.7,155.6,51.1z M145.4,55.8c1.5,3.6,4.1,5.8,6.5,4.7
		c2.5-1.1,2.5-4.3,0.8-8c-1.5-3.4-3.7-5.9-6.4-4.7C143.9,48.8,143.8,52.2,145.4,55.8z"/>
	<path class="st0" d="M173.1,57.1l-2.6-31.8l4.5-0.4l11.5,15.3c2.6,3.5,4.8,6.8,6.5,9.9l0.1-0.1c-0.7-4.2-1.1-8.1-1.5-13.1
		l-1.1-13.3l3.9-0.3l2.6,31.8l-4.2,0.3l-11.4-15.3c-2.5-3.4-4.9-6.8-6.8-10.2l-0.1,0.1c0.6,4,0.9,7.8,1.3,13.1l1.1,13.6L173.1,57.1z
		"/>
	<path class="st0" d="M209.3,46.1l-4.6,9.5l-4.2-0.6l15-30.2l4.9,0.7l6.6,33.1l-4.4-0.6l-2-10.4L209.3,46.1z M220.1,44.3l-1.9-9.5
		c-0.4-2.2-0.6-4.1-0.9-6l-0.1,0c-0.7,1.8-1.4,3.7-2.4,5.5l-4.3,8.7L220.1,44.3z"/>
	<path class="st0" d="M241.4,33.7l-9.3-2.9l1-3.4l22.6,7l-1,3.4l-9.3-2.9L237,62.2l-4-1.2L241.4,33.7z"/>
	<path class="st0" d="M267.5,39.9l-9.1,16.7c-3.4,6.2-2.1,10.4,1.7,12.5c4.1,2.2,8.3,1,11.7-5.2l9.1-16.7l3.7,2l-8.9,16.4
		c-4.7,8.6-11.1,9.6-17.2,6.3c-5.7-3.1-8.3-8.7-3.6-17.5l9-16.5L267.5,39.9z"/>
	<path class="st0" d="M294.4,56.8c1.8,1.1,4.3,2.8,6.5,4.6c3.4,2.8,5,5.4,5.4,7.9c0.3,2.1-0.4,4.4-2,6.3c-2.7,3.2-6.5,3.6-9.8,2.3
		l-0.1,0.1c1.3,2.2,1,4.9-0.6,7.9c-2.1,4.1-3.5,6.9-3.8,8.3l-3.3-2.8c0.2-1.1,1.4-3.6,3.3-7.2c2.1-4,1.9-6.4-0.9-8.9l-3-2.5
		l-8.9,10.6l-3.1-2.7L294.4,56.8z M288.1,70.6l3.2,2.7c3.4,2.8,7.1,2.8,9.4,0c2.7-3.1,1.5-6.4-1.8-9.3c-1.5-1.3-2.7-2.1-3.3-2.4
		L288.1,70.6z"/>
	<path class="st0" d="M303.6,94.9l-9.9,3.6l-2.6-3.3l31.8-11.3l3.1,3.9l-18.3,28.4l-2.7-3.5l5.8-8.9L303.6,94.9z M312.7,101.2
		l5.2-8.2c1.2-1.9,2.4-3.4,3.5-4.9l-0.1-0.1c-1.7,0.8-3.6,1.6-5.5,2.3l-9.2,3.3L312.7,101.2z"/>
	<path class="st0" d="M337.4,104.6l1.9,3.7l-25.2,13.3l6.4,12.1l-3.1,1.6l-8.3-15.8L337.4,104.6z"/>
</g>
<g>
	<path class="st0" d="M93.8,270.9l-25.1,19.8l-2.6-3.3l25.1-19.8L93.8,270.9z"/>
	<path class="st0" d="M76,299.7l21.7-23.5l3.3,3.1l-3.5,18.8c-0.8,4.3-1.7,8.1-2.9,11.5l0.1,0.1c2.6-3.4,5.2-6.3,8.6-10l9.1-9.8
		l2.9,2.6L93.7,316l-3.1-2.8l3.5-18.8c0.8-4.1,1.7-8.3,2.9-11.9l-0.1-0.1c-2.6,3.1-5.1,6-8.7,9.9l-9.3,10L76,299.7z"/>
	<path class="st0" d="M125.8,334.4c-2-0.3-5.7-1.3-9.4-3.4c-4.2-2.4-7-5.5-8.2-9.6c-1-3.7-0.4-8.2,2.1-12.5
		c4.8-8.2,13.9-11,23.2-5.6c3.2,1.9,5.3,4,6.2,5.3l-2.6,2.4c-1.1-1.5-2.6-3.1-5.4-4.7c-6.7-3.9-13.5-2.2-17.5,4.7
		c-4.1,7-2.3,13.6,4.2,17.3c2.3,1.3,4.1,1.9,5.2,2l4.8-8.2l-5.6-3.2l1.7-2.9l9.1,5.3L125.8,334.4z"/>
	<path class="st0" d="M145.6,310.2c2.1,0.3,5.1,1,7.7,1.9c4.2,1.4,6.7,3.1,7.9,5.4c1,1.8,1.3,4.2,0.5,6.6c-1.3,4-4.7,5.8-8.2,5.8
		l0,0.1c2,1.6,2.7,4.2,2.4,7.6c-0.4,4.6-0.7,7.7-0.4,9.1l-4-1.3c-0.2-1.1,0-3.9,0.4-7.9c0.5-4.5-0.7-6.6-4.2-7.9l-3.7-1.2l-4.4,13.1
		l-3.9-1.3L145.6,310.2z M145,325.3l4,1.3c4.2,1.4,7.6,0,8.7-3.5c1.3-3.9-1-6.6-5.1-7.9c-1.9-0.6-3.2-0.9-4-1L145,325.3z"/>
	<path class="st0" d="M183.4,336.1l-12.3-1.8l-1.6,11.4l13.7,2l-0.5,3.4l-17.8-2.5l4.5-31.6l17.1,2.4l-0.5,3.4l-13-1.9l-1.4,10
		l12.2,1.7L183.4,336.1z"/>
	<path class="st0" d="M193.4,351.7l-1.8-31.9l4.5-0.3l11.1,15.5c2.5,3.6,4.6,6.9,6.3,10l0.1-0.1c-0.6-4.2-0.9-8.1-1.2-13.1
		l-0.8-13.3l3.9-0.2l1.8,31.9l-4.2,0.2l-11-15.6c-2.4-3.4-4.8-6.9-6.5-10.3l-0.1,0.1c0.5,4,0.7,7.8,1,13.1l0.8,13.6L193.4,351.7z"/>
	<path class="st0" d="M221.2,318c2.3-1.1,5.1-2.2,8.2-3.1c5.7-1.7,10.1-1.5,13.5,0.2c3.5,1.7,6.1,4.8,7.6,9.7c1.4,5,1,9.6-1,13.2
		c-2.1,3.7-6.4,6.6-12.3,8.4c-2.9,0.8-5.2,1.4-7.3,1.7L221.2,318z M233,344c1-0.2,2.5-0.5,4-1c8.5-2.5,11.7-8.5,9.3-16.8
		c-2-7.2-7.5-10.6-15.8-8.2c-2,0.6-3.5,1.2-4.5,1.8L233,344z"/>
	<path class="st0" d="M254,305.9l13.6,28.9l-3.8,1.8l-13.6-28.9L254,305.9z"/>
	<path class="st0" d="M283.5,308.1l-10.4,6.7l6.2,9.7L291,317l1.9,2.9l-15.1,9.7l-17.3-26.9l14.6-9.4l1.9,2.9l-11,7.1l5.5,8.5
		l10.4-6.7L283.5,308.1z"/>
	<path class="st0" d="M301.3,313.5l-22.2-23l3.3-3.2l18.6,4.5c4.3,1.1,8,2.2,11.3,3.5l0.1-0.1c-3.2-2.8-6-5.5-9.5-9.1l-9.3-9.6
		l2.8-2.7l22.2,23l-3,2.9l-18.6-4.6c-4.1-1-8.1-2.1-11.7-3.5l-0.1,0.1c3,2.7,5.7,5.5,9.4,9.3l9.5,9.8L301.3,313.5z"/>
	<path class="st0" d="M306.2,266l-5.5,8l-2.9-2l13.4-19.5l2.9,2l-5.5,8.1l23.4,16.1l-2.4,3.4L306.2,266z"/>
	<path class="st0" d="M336.4,262c1.9-1.2,3.8-3.2,5-5.8c1.8-3.8,0.8-7-2.1-8.3c-2.7-1.2-5-0.4-8.2,2.8c-3.9,3.9-7.8,5.7-11.8,3.8
		c-4.5-2.1-6.1-7.4-3.5-13c1.3-2.9,3-4.8,4.4-5.7l2.6,2.4c-1,0.6-2.7,2.2-3.9,4.8c-1.8,4-0.2,6.6,1.8,7.5c2.7,1.3,4.9,0.1,8.2-3.2
		c4.2-4,7.7-5.4,11.9-3.4c4.5,2.1,6.9,7.1,3.7,14c-1.3,2.8-3.6,5.4-5.3,6.5L336.4,262z"/>
</g>
<g>
	<path class="st0" d="M196,375C92.6,375,8.4,290.9,8.4,187.5S92.6,0,196,0s187.5,84.1,187.5,187.5S299.3,375,196,375z M196,8.1
		C97,8.1,16.5,88.6,16.5,187.5S97,366.9,196,366.9s179.4-80.5,179.4-179.4S294.9,8.1,196,8.1z"/>
</g>
<g>
	<path class="st0" d="M187.9,306.5c-65.6,0-119-53.4-119-119s53.4-119,119-119s119,53.4,119,119S253.5,306.5,187.9,306.5z
		 M187.9,76.6c-61.2,0-110.9,49.8-110.9,110.9s49.8,110.9,110.9,110.9s110.9-49.8,110.9-110.9S249,76.6,187.9,76.6z"/>
</g>
<g>
	<g>
		<path class="st0" d="M178.7,176.7c13.5,33.9,5.9,70.1,2.6,82.2l-46.4-104.8l43,107.7c-8.8-5.2-42.1-26.6-56.4-62.4
			c-16.5-41.4-1.4-86.4-1.4-86.4S162.1,135.3,178.7,176.7z"/>
	</g>
	<g>
		<path class="st0" d="M251,201.7c-15.7,32.9-47.6,51.9-58.7,57.7l45.6-105.1l-50.1,104.6c-2.2-9.9-9-49,7.7-83.8
			c19.3-40.3,62.6-59.6,62.6-59.6S270.3,161.4,251,201.7z"/>
	</g>
</g>
</svg>
