<?xml version="1.0" encoding="utf-8"?>
<!-- Generator: Adobe Illustrator 23.0.2, SVG Export Plug-In . SVG Version: 6.00 Build 0)  -->
<svg version="1.1" id="Layer_1" xmlns="http://www.w3.org/2000/svg" xmlns:xlink="http://www.w3.org/1999/xlink" x="0px" y="0px"
	 viewBox="0 0 393.2 375" style="enable-background:new 0 0 393.2 375;" xml:space="preserve">
<style type="text/css">
	.st0{fill:#212529;}
	.st1{fill:#FFFFFF;}
</style>
<g>
	<g>
		<path class="st0" d="M110.1,69.7c-3.1-3.2-6.8-7.1-9.4-10.1l-0.1,0.1c1.5,3.5,3.2,7.4,4.9,11.8l5.8,15.4l-2.4,2l-13.9-8.1
			c-4.1-2.5-7.7-4.8-10.9-7l-0.1,0.1c2.5,3.1,5.8,7.3,8.7,11.1l8.3,10.9l-3,2.6L79.1,72.8l4-3.4l14.2,8.2c3.6,2.1,6.7,4.1,9.5,6
			l0.1-0.1c-1.5-3-2.9-6.4-4.4-10.4l-5.8-15.4l4-3.4L123,77.2l-3.1,2.7L110.1,69.7z"/>
		<path class="st0" d="M126.8,64.1l1.6,10.4l-3.8,2l-4.9-33.4l4.4-2.2l24.3,23.4l-3.9,2l-7.6-7.4L126.8,64.1z M134.7,56.4l-7-6.7
			c-1.6-1.5-2.9-3-4.1-4.4l-0.1,0c0.4,1.9,0.9,3.8,1.2,5.9l1.5,9.6L134.7,56.4z"/>
		<path class="st0" d="M143.4,32.7c2.3-1,5.1-2.1,8.3-2.9c5.7-1.5,10.2-1.2,13.6,0.5c3.5,1.8,6,4.9,7.3,9.9c1.3,5,0.8,9.6-1.3,13.2
			c-2.2,3.7-6.5,6.5-12.5,8.1c-2.9,0.8-5.3,1.2-7.3,1.6L143.4,32.7z M154.7,59c1.1-0.1,2.5-0.5,4.1-0.9c8.6-2.3,11.9-8.2,9.7-16.6
			c-1.9-7.3-7.2-10.9-15.7-8.6c-2.1,0.5-3.6,1.1-4.6,1.6L154.7,59z"/>
		<path class="st0" d="M196.6,40.6l-12.3,0.7l0.7,11.5l13.8-0.8l0.2,3.4l-18,1l-1.8-31.9l17.3-1l0.2,3.4l-13.1,0.8l0.6,10.1
			l12.3-0.7L196.6,40.6z"/>
		<path class="st0" d="M217.2,56.9L217,24l4.2,1L221,41.6c0,4.1-0.1,8.2-0.3,11.3l0.1,0c1.3-3,3.1-6.4,5.2-10.1l8-14.6l4.2,1
			L238,45.8c0,3.9-0.1,7.8-0.4,11.2l0.1,0c1.5-3.2,3.2-6.5,5.1-10.1l7.9-14.6l4.1,1l-16.4,28.9l-4.2-1l0.1-17.1
			c0-4.2,0.1-7.4,0.5-10.6l-0.1,0c-1.3,3-2.7,5.8-4.9,9.5l-8.4,15.1L217.2,56.9z"/>
		<path class="st0" d="M266.5,39.4l-13.2,29.1l-3.8-1.7l13.2-29.1L266.5,39.4z"/>
		<path class="st0" d="M280,50.6l-8.2-5.1l1.9-3l20.1,12.5l-1.9,3l-8.3-5.2L268.5,77l-3.5-2.2L280,50.6z"/>
		<path class="st0" d="M303.6,63.2l-9.2,9.7l11.2,10.6l9.2-9.7l3,2.9l-22,23.2l-3-2.9l10.3-10.9l-11.2-10.6l-10.3,10.9l-3-2.9
			l22-23.2L303.6,63.2z"/>
	</g>
	<g>
		<path class="st0" d="M84,255.9L56.4,272l-2.1-3.6l27.6-16.1L84,255.9z"/>
		<path class="st0" d="M62.4,282l24.8-20.2l2.9,3.5l-6.1,18.1c-1.4,4.2-2.8,7.8-4.4,11l0.1,0.1c3.1-3,6-5.5,9.9-8.7l10.4-8.5l2.5,3
			l-24.8,20.2l-2.6-3.2l6.1-18.1c1.3-4,2.8-7.9,4.5-11.3l-0.1-0.1c-3,2.7-5.9,5.2-10,8.6L64.8,285L62.4,282z"/>
		<path class="st0" d="M106.7,323.4c-1.9-0.6-5.4-2-8.8-4.7c-3.8-3-6.2-6.4-6.8-10.7c-0.5-3.8,0.8-8.2,3.8-12.1
			c5.9-7.5,15.4-8.9,23.8-2.3c2.9,2.3,4.7,4.7,5.4,6.1l-2.9,2c-0.8-1.7-2.2-3.4-4.7-5.4c-6.1-4.8-13.1-4.1-18,2.2
			c-5,6.4-4.2,13.1,1.7,17.7c2.1,1.7,3.8,2.5,4.9,2.7l5.9-7.5l-5.1-4l2-2.6l8.3,6.5L106.7,323.4z"/>
		<path class="st0" d="M129.8,302.2c2,0.6,4.9,1.7,7.4,2.9c3.9,1.9,6.1,4,7.1,6.4c0.8,2,0.6,4.3-0.5,6.6c-1.9,3.7-5.5,5.1-8.9,4.6
			l-0.1,0.1c1.8,1.8,2.1,4.5,1.3,7.8c-1,4.5-1.7,7.5-1.7,8.9l-3.8-1.9c0-1.1,0.5-3.8,1.5-7.8c1.1-4.4,0.3-6.6-3-8.4l-3.5-1.7
			l-6.1,12.4l-3.7-1.8L129.8,302.2z M127.1,317l3.8,1.9c3.9,2,7.5,1,9.1-2.2c1.8-3.7,0-6.6-3.9-8.6c-1.8-0.9-3.1-1.4-3.8-1.5
			L127.1,317z"/>
		<path class="st0" d="M163.6,333l-11.9-3.4l-3.2,11.1l13.3,3.9l-1,3.3l-17.3-5l8.9-30.7l16.6,4.8l-1,3.3l-12.6-3.7l-2.8,9.7
			l11.9,3.4L163.6,333z"/>
		<path class="st0" d="M171.3,350l2.6-31.8l4.5,0.4l8.8,16.9c2,3.9,3.6,7.4,4.8,10.8l0.1,0c0-4.3,0.2-8.2,0.6-13.1l1.1-13.3l3.9,0.3
			l-2.7,31.8l-4.2-0.3l-8.7-17c-1.9-3.7-3.7-7.5-5-11.1l-0.1,0c-0.1,4-0.4,7.9-0.8,13.1l-1.1,13.6L171.3,350z"/>
		<path class="st0" d="M203.5,320.4c2.4-0.8,5.4-1.5,8.6-1.9c5.9-0.8,10.2,0,13.4,2.1c3.2,2.2,5.4,5.6,6.1,10.7
			c0.7,5.2-0.3,9.6-2.8,12.9c-2.6,3.4-7.2,5.7-13.4,6.5c-3,0.4-5.4,0.6-7.5,0.7L203.5,320.4z M211.6,347.8c1,0,2.5-0.2,4.2-0.4
			c8.8-1.2,12.8-6.8,11.5-15.3c-1-7.5-5.9-11.6-14.5-10.4c-2.1,0.3-3.7,0.7-4.7,1.1L211.6,347.8z"/>
		<path class="st0" d="M237.8,313.1l9.4,30.5l-4,1.2l-9.4-30.5L237.8,313.1z"/>
		<path class="st0" d="M266.6,319.4l-11.2,5.2l4.8,10.5l12.6-5.8l1.4,3.1l-16.4,7.5l-13.3-29l15.7-7.2l1.5,3.1l-11.9,5.5l4.2,9.2
			l11.2-5.2L266.6,319.4z"/>
		<path class="st0" d="M283.5,327.2l-18.8-25.8l3.7-2.7l17.7,7.1c4.1,1.7,7.6,3.3,10.7,5.1l0.1-0.1c-2.8-3.2-5.2-6.3-8.1-10.3
			l-7.9-10.8l3.1-2.3l18.8,25.8l-3.4,2.5l-17.7-7.2c-3.9-1.6-7.8-3.3-11-5.1l-0.1,0.1c2.6,3.1,4.9,6.2,8,10.5l8,11L283.5,327.2z"/>
		<path class="st0" d="M295,280.9l-6.6,7.2l-2.6-2.4l16-17.4l2.6,2.4l-6.6,7.2l21,19.3l-2.8,3.1L295,280.9z"/>
		<path class="st0" d="M325.5,281.1c2-0.9,4.2-2.7,5.7-5c2.3-3.5,1.8-6.8-1-8.6c-2.5-1.6-4.9-1.1-8.6,1.6c-4.4,3.4-8.5,4.6-12.2,2.1
			c-4.2-2.7-5-8.2-1.7-13.4c1.8-2.7,3.7-4.3,5.1-5l2.2,2.8c-1.1,0.5-3,1.8-4.5,4.2c-2.4,3.7-1.1,6.5,0.7,7.6c2.5,1.6,4.8,0.8,8.6-2
			c4.7-3.4,8.3-4.3,12.3-1.7c4.1,2.7,5.8,8,1.7,14.4c-1.7,2.6-4.3,4.9-6.2,5.7L325.5,281.1z"/>
	</g>
	<g>
		<path class="st0" d="M196.6,375C93.2,375,9.1,290.9,9.1,187.5S93.2,0,196.6,0s187.5,84.1,187.5,187.5S300,375,196.6,375z
			 M196.6,8.1C97.6,8.1,17.2,88.6,17.2,187.5s80.5,179.4,179.4,179.4S376,286.4,376,187.5S295.5,8.1,196.6,8.1z"/>
	</g>
	<g>
		<path class="st0" d="M196.6,308.3c-66.6,0-120.8-54.2-120.8-120.8S130,66.7,196.6,66.7s120.8,54.2,120.8,120.8
			S263.2,308.3,196.6,308.3z M196.6,74.8c-62.2,0-112.7,50.6-112.7,112.7s50.6,112.7,112.7,112.7s112.7-50.6,112.7-112.7
			S258.7,74.8,196.6,74.8z"/>
	</g>
	<g>
		<path class="st0" d="M375.7,240.2H17.5c-0.7,0-1.2-0.5-1.2-1.2V136c0-0.7,0.5-1.2,1.2-1.2h358.2c0.7,0,1.2,0.5,1.2,1.2V239
			C376.9,239.6,376.4,240.2,375.7,240.2z"/>
	</g>
	<g>
		<path class="st1" d="M30.3,207.7v-46.3h12.2l9.6,17c2.8,4.9,5.5,10.6,7.6,15.9l0.2,0c-0.6-6.1-0.8-12.3-0.8-19.3v-13.5h9.6v46.3
			h-11l-9.9-17.8c-2.8-5-5.8-10.9-8-16.4l-0.2,0c0.3,6.1,0.5,12.7,0.5,20.3v13.9H30.3z"/>
		<path class="st1" d="M123,184.1c0,15.2-9.2,24.4-22.7,24.4c-13.7,0-21.8-10.4-21.8-23.6c0-13.8,8.9-24.2,22.5-24.2
			C115.2,160.6,123,171.2,123,184.1z M89.5,184.6c0,9.1,4.3,15.5,11.3,15.5c7.1,0,11.1-6.7,11.1-15.7c0-8.3-3.9-15.5-11.2-15.5
			C93.7,168.9,89.5,175.6,89.5,184.6z"/>
		<path class="st1" d="M132.8,207.7v-46.3H145l9.6,17c2.8,4.9,5.5,10.6,7.6,15.9l0.2,0c-0.6-6.1-0.8-12.3-0.8-19.3v-13.5h9.6v46.3
			h-11l-9.9-17.8c-2.8-5-5.8-10.9-8-16.4l-0.2,0c0.3,6.1,0.4,12.7,0.4,20.3v13.9H132.8z"/>
		<path class="st1" d="M198.6,186.1v7h-18v-7H198.6z"/>
		<path class="st1" d="M247.6,205.5c-3.2,1.1-9.4,2.6-15.5,2.6c-8.5,0-14.6-2.1-18.8-6.2c-4.2-4-6.6-10.1-6.5-16.9
			c0-15.4,11.3-24.2,26.4-24.2c6,0,10.6,1.1,12.9,2.2l-2.2,8.4c-2.6-1.1-5.7-2-10.8-2c-8.7,0-15.4,4.9-15.4,15
			c0,9.6,6,15.2,14.6,15.2c2.4,0,4.3-0.3,5.1-0.7v-9.7h-7.2v-8.2h17.3V205.5z"/>
		<path class="st1" d="M297.9,190c-0.2-5.6-0.4-12.3-0.4-19.1h-0.2c-1.5,5.9-3.4,12.5-5.2,18l-5.7,18h-8.1l-5-17.9
			c-1.5-5.5-3-12-4.2-18.1H269c-0.2,6.3-0.5,13.4-0.8,19.2l-0.9,17.6h-9.7l3-46.3h14l4.5,15.5c1.5,5.3,2.9,11.1,3.9,16.5h0.2
			c1.3-5.4,2.8-11.5,4.4-16.6l4.9-15.4h13.7l2.5,46.3h-10.2L297.9,190z"/>
		<path class="st1" d="M362.1,184.1c0,15.2-9.2,24.4-22.7,24.4c-13.7,0-21.8-10.4-21.8-23.6c0-13.8,8.9-24.2,22.5-24.2
			C354.4,160.6,362.1,171.2,362.1,184.1z M328.7,184.6c0,9.1,4.3,15.5,11.3,15.5c7.1,0,11.1-6.7,11.1-15.7c0-8.3-3.9-15.5-11.2-15.5
			C332.8,168.9,328.7,175.6,328.7,184.6z"/>
	</g>
</g>
</svg>
