<?xml version="1.0" encoding="utf-8"?>
<!-- Generator: Adobe Illustrator 23.0.2, SVG Export Plug-In . SVG Version: 6.00 Build 0)  -->
<svg version="1.1" id="Layer_1" xmlns="http://www.w3.org/2000/svg" xmlns:xlink="http://www.w3.org/1999/xlink" x="0px" y="0px"
	 viewBox="0 0 393.2 375" style="enable-background:new 0 0 393.2 375;" xml:space="preserve">
<style type="text/css">
	.st0{fill:#212529;}
	.st1{opacity:0.3;}
</style>
<g>
	<g>
		<g>
			<path class="st0" d="M221.1,169.4c-2.5-1-2.5-1-2.5-3.7c0-12.4,0-24.8,0-37.2c0-1.5,0-1.6-1.5-1.6c-4.1,0-8.2,0-12.4,0
				c-2.7,0-5.3,0-8,0c-0.9,0-1.2,0.3-1.2,1.2c0,12.9,0,25.9,0,38.8c0,1.1-0.4,1.5-1.3,2c-2.8,1.5-5.5,3.2-8.2,4.9
				c-0.2,0.1-0.4,0.3-0.8,0.5c0-1.8,0-3.5,0-5.2c0-0.3,0.4-0.7,0.7-0.9c1.4-0.9,2.8-1.6,4.2-2.5c0.4-0.2,0.7-0.8,0.7-1.2
				c0-12.2,0-24.4,0-36.5c0-0.9-0.3-1.1-1.1-1.1c-0.8,0-1.6,0-2.4,0c-1.4-0.1-2.2-0.9-2.2-2.2c0-1.3,0.8-2.2,2.3-2.3
				c3.2-0.1,6.4,0,9.7,0c9.4,0,18.8,0,28.2,0c0.4,0,0.8,0,1.2,0c1.3,0.1,2.2,1,2.1,2.3c0,1.2-0.8,2.1-2.1,2.2
				c-0.9,0.1-1.7,0.2-2.6,0.1c-0.9-0.1-1,0.3-1,1.1c0,11.9,0,23.8,0,35.8c0,1.1,0.3,1.7,1.4,2.3c7.8,4.3,14.1,10.1,18.8,17.8
				c4.6,7.6,6.5,15.9,5.6,24.8c-1,9.4-4.5,17.8-10.8,24.8c-6.6,7.4-14.9,12.1-24.8,13.6c-9.7,1.5-18.8-0.4-27.3-5.3
				c-0.8-0.5-1.2-0.9-0.9-1.9c0.3-1.2,0.3-2.5,0.4-3.9c1.4,0.9,2.7,1.8,4.1,2.5c12.1,6.2,24.1,6.3,35.9-0.6
				c10.9-6.3,16.9-16.1,18.7-28.5c1.5-10.9-1.9-20.3-8.8-28.6c-2.9-3.4-6.2-6.3-9.9-8.7"/>
		</g>
		<g>
			<g>
				<path class="st0" d="M215.2,130.7c-0.4-0.3-0.7-0.6-1.1-0.6c-2-0.1-4-0.1-6,0c-0.1,0-0.2,0-0.3,0.1c-0.3,0.2-0.5,0.5-0.8,0.7
					c0.4,0.3,0.7,0.7,1.1,0.8c1,0.1,2,0,3,0c0,0,0,0,0,0c1,0,2,0.1,3,0c0.4-0.1,0.8-0.5,1.2-0.8
					C215.4,130.8,215.3,130.7,215.2,130.7z M208.3,130.3h2.9c0,0.1,0,0.1,0,0.2h-2.9C208.3,130.4,208.3,130.4,208.3,130.3z"/>
			</g>
		</g>
		<g>
			<path class="st0" d="M208.8,157.5c-0.3,0-0.6-0.4-0.9-0.7c0.3-0.3,0.6-0.7,0.9-0.8c1.9-0.1,3.8-0.1,5.7,0c0.3,0,0.6,0.5,0.9,0.8
				c-0.3,0.3-0.6,0.7-0.9,0.8c-0.9,0.1-1.9,0-2.8,0"/>
		</g>
		<g>
			<path class="st0" d="M213.1,143.1c0.6,0,1.1-0.1,1.7,0c0.3,0.1,0.7,0.5,0.7,0.8c0,0.2-0.4,0.7-0.7,0.7c-1.1,0.1-2.2,0.1-3.3,0
				c-0.3,0-0.7-0.5-0.7-0.8c0-0.3,0.5-0.6,0.8-0.7C212,143,212.5,143,213.1,143.1C213.1,143,213.1,143.1,213.1,143.1z"/>
		</g>
		<g>
			<path class="st0" d="M212.2,137.1c0.8,0,1.6-0.1,2.3,0c0.4,0.1,0.9,0.5,1,0.8c0.1,0.2-0.6,0.7-0.9,0.7c-1.5,0.1-3,0.1-4.5,0
				c-0.4,0-0.9-0.5-0.9-0.8c0-0.3,0.6-0.6,1-0.7C210.7,137,211.5,137.1,212.2,137.1C212.2,137.1,212.2,137.1,212.2,137.1z"/>
		</g>
		<g>
			<path class="st0" d="M214.8,149.6c0.3,0.1,0.6,0.4,0.7,0.7c0,0.2-0.3,0.7-0.6,0.7c-1.2,0.1-2.4,0.1-3.6,0.1
				c-0.2,0-0.6-0.6-0.6-0.8c0.1-0.3,0.5-0.6,0.8-0.7c0.5-0.1,1,0,1.6,0"/>
		</g>
		<g>
			<path class="st0" d="M180.6,205c0,0.6-0.1,1.1-0.1,1.9c-0.3-0.3-0.7-0.6-0.7-0.8c0-0.5,0.1-1,0.2-1.5L180.6,205z"/>
		</g>
		<g class="st1">
			<path class="st0" d="M162.9,245.1c0.2,0.2,0.2,0.4,0.2,0.4s0.4,0,0.9,0L162.9,245.1z M167.4,230.5c0-0.2,0-0.2,0-0.4
				c0,0,0,0-0.2,0c0-0.2,0-0.2-0.2-0.4s-0.4-0.4-0.4-0.4c-0.2,0-0.2,0-0.2,0s0,0,0-0.2c-0.2,0-0.2,0-0.2,0c-0.2,0-0.2,0-0.2,0h-0.4
				c0,0,0,0,0-0.2c-0.2,0-0.2,0-0.4,0c0,0,0,0-0.2,0c0,0,0,0-0.2,0c0,0.2,0,0.2-0.2,0.2h-0.4c0,0-0.2,0-0.2,0.2c0,0,0,0-0.2,0
				l-0.2,0.2c0,0-0.2,0-0.2,0.2l-0.2,0.2c0,0.2-0.2,0.2-0.2,0.4c-0.6,0.4-0.7,0.9-0.7,1.7s0.2,1.3,0.6,1.7c1.1,0,2.2,0,3.3-0.2
				c0.2,0,0.2-0.2,0.4-0.4c0,0,0-0.2,0.2-0.2c0,0,0,0,0-0.2c0.2,0,0.2-0.2,0.4-0.4c0,0,0,0,0-0.2c0.2,0,0.2-0.2,0.2-0.2v-0.7
				c0,0,0,0,0-0.2v-0.2c0-0.2,0-0.2,0-0.2s0,0,0-0.2H167.4z M171.8,233.5c-0.2,0-0.2,0-0.4,0h-5c2.8,0,5.5,0,7.4,0.2
				C173.1,233.6,172.6,233.6,171.8,233.5z M175.3,233.8c0.6,0.2,0.7,0.4,0.7,0.4v-0.6C175.9,233.8,175.7,233.8,175.3,233.8z
				 M175.9,236.2v0.7c0.2,0,0.2-0.4,0.2-0.6v-0.7C176.1,235.9,176.1,236,175.9,236.2z"/>
		</g>
		<g>
			<g>
				<path class="st0" d="M176.1,214.3v-38.9c0-0.9-0.2-1.1-1.3-1.1h-18.1c-0.4,0.2-0.6,0.4-0.6,0.6c-0.2,0.2-0.2,0.4-0.2,0.9v49.1
					c0,1.3,0.4,1.8,0.7,2c0,0.2,0.2,0.2,0.4,0.2v0.2l-0.4,1.3l-0.7,1.8v1.8l0.4,0.2l0.2,0.2l0.6,0.2l1.7-7.6
					c0.4,0.2,0.6,0.4,0.7,0.4l0.2,0.2c0.2,0,0.4,0,0.6-0.2c0.2,0,0.2-0.2,0-0.4c0,0,0-0.2-0.2-0.2c0.2,0,0.2-0.2,0.2-0.2
					s0.2,0,0.2-0.2l0.2-0.2c0,0,0,0,0-0.2c0.2,0,0.2,0,0.2,0c0-0.2,0-0.2,0-0.2l-1.1-0.6c-0.2,0-0.2,0-0.2,0s0,0-0.2,0.2
					c0,0,0,0.2-0.2,0.2c0,0.2,0.2,0.2,0.2,0.4s0.2,0.2,0.2,0.2v0.2c-0.2,0-0.4-0.2-0.6-0.2l0.2-0.6v-8.5L176.1,214.3z M163.5,213.3
					c-1.7,0-2.8-1.1-2.8-2.6c0-1.7,1.1-2.8,2.8-2.8c1.5,0,2.6,1.1,2.6,2.8C166.1,212.2,165,213.3,163.5,213.3z M171.8,207.1
					c-1.8,0-3.5-1.5-3.5-3.5c0-1.8,1.7-3.3,3.5-3.3c1.8,0,3.5,1.5,3.5,3.3C175.3,205.6,173.7,207.1,171.8,207.1z M171.8,184
					c2.2,0,3.9,1.7,3.9,3.9c0,2-1.7,3.7-3.9,3.7c-2,0-3.7-1.7-3.7-3.7C168.1,185.7,169.8,184,171.8,184z M164.2,176.1
					c2.6,0,4.6,2,4.6,4.4c0,2.6-2,4.6-4.6,4.6c-2.4,0-4.4-2-4.4-4.6C159.8,178.1,161.8,176.1,164.2,176.1z M158.7,197.7
					c0-2.8,2.2-5,5-5c2.8,0,5,2.2,5,5c0,2.8-2.2,5-5,5C160.9,202.6,158.7,200.4,158.7,197.7z"/>
			</g>
		</g>
		<g>
			<g>
				<path class="st0" d="M157,232.7l-0.6-0.2l-0.2-0.2l-0.4-0.2v4.4c0.2,3.7,1.8,6.6,5,8.5c3.3,2,7,1.7,10,0.2
					c0.2-0.2,0.7-0.7,1.7-1.3c0.2-0.2,0.4-0.4,0.6-0.6 M174.6,241.6c0-0.2,0.2-0.6,0.4-0.9c0.2-0.4,0.4-0.9,0.4-1.5l0.2-0.4
					c0,0,0.2-0.6,0.2-1.1v-0.2c0-0.2,0-0.4,0.2-0.6v-0.7c0.2-0.2,0.2-0.4,0.2-0.6v-1.3c0-0.2,0-0.2,0-0.2s-0.2-0.2-0.7-0.4
					c-0.4-0.2-0.9-0.2-1.5-0.2c-1.8-0.2-4.6-0.2-7.4-0.2 M164.1,245.5c-0.6,0-0.9,0-0.9,0s0-0.2-0.2-0.4"/>
			</g>
		</g>
		<g>
			<path class="st0" d="M167,232.2c0,0.3-0.1,0.6-0.2,0.9c0,0,0,0,0,0c-0.1,0.2-0.2,0.3-0.3,0.5c-0.4,0.5-1,0.8-1.7,0.8
				c-0.7,0-1.3-0.3-1.7-0.7c-0.4-0.4-0.6-0.9-0.6-1.6c0-0.8,0.3-1.4,0.8-1.7c0,0,0,0,0,0c0.4-0.3,0.9-0.4,1.5-0.4
				C166.2,229.9,167,230.8,167,232.2z"/>
		</g>
		<g>
			<path class="st0" d="M164,219c-0.9,0-1.6,0.7-1.6,1.6c0,0.9,0.6,1.5,1.5,1.5c1,0,1.7-0.7,1.6-1.7C165.6,219.6,164.9,219,164,219z
				 M163.9,221.8c-0.4-0.7-0.7-1-0.7-1.3c0-0.3,0.5-0.8,0.7-0.7c0.3,0.1,0.8,0.5,0.8,0.8C164.8,220.9,164.4,221.2,163.9,221.8z"/>
		</g>
		<g>
			<path class="st0" d="M160,223.2c-0.2,0-0.4,0.1-0.5,0.2c0,0,0,0-0.1,0.1c0,0-0.1,0.1-0.1,0.1c0,0,0,0-0.1,0.1
				c-0.1,0.1-0.1,0.2-0.1,0.2c0,0,0,0,0,0c0,0.1,0,0.2,0.1,0.3c0,0,0,0.1,0.1,0.1c0,0,0.1,0.1,0.1,0.1c0,0,0.1,0.1,0.1,0.1
				c0,0,0,0.1,0.1,0.1c0.1,0.2,0.2,0.3,0.3,0.5c0.1-0.1,0.1-0.1,0.2-0.2c0.1-0.1,0.1-0.1,0.2-0.2c0,0,0.1-0.1,0.1-0.1
				c0,0,0-0.1,0.1-0.1c0-0.1,0.1-0.1,0.1-0.2c0,0,0,0,0.1-0.1c0,0,0,0,0-0.1c0,0,0,0,0-0.1c0,0,0,0,0,0c0,0,0-0.1,0-0.1
				c0,0,0,0,0-0.1c0,0,0,0,0,0c0,0,0,0,0,0c0,0,0,0,0-0.1C160.7,223.7,160.3,223.2,160,223.2z"/>
		</g>
		<g>
			<path class="st0" d="M166.9,220.1c-0.1,0.1-0.5,0-0.7,0c0.1-0.3,0.2-0.6,0.2-0.7c-0.5-0.4-1.1-0.7-1.4-1.1
				c-0.1-0.1,0.2-0.7,0.4-1c0.1-0.1,0.4,0,0.6-0.1c0,0.3-0.1,0.6-0.1,0.6c0.6,0.5,1.1,0.8,1.6,1.3
				C167.5,219.3,167.1,219.9,166.9,220.1z"/>
		</g>
		<g>
			<path class="st0" d="M163.8,223.1c-0.7,0.1-1.2,0.4-1.4,0.3c-0.8-0.6-1.4-1.3-2.1-2.1c-0.1-0.2,0-0.6,0.1-0.9
				c0.4,0.2,1.3,0.3,1.3,0.5c0,1.1,0.5,1.5,1.5,1.7C163.3,222.6,163.4,222.8,163.8,223.1z"/>
		</g>
		<g>
			<path class="st0" d="M163.9,221.8c-0.4-0.7-0.7-1-0.7-1.3c0-0.3,0.5-0.8,0.7-0.7c0.3,0.1,0.8,0.5,0.8,0.8
				C164.8,220.9,164.4,221.2,163.9,221.8z"/>
		</g>
		<g>
			<path class="st0" d="M160.7,224C160.7,224,160.7,224,160.7,224C160.7,224,160.7,224,160.7,224c0,0.1,0,0.1,0,0.1c0,0,0,0,0,0.1
				c0,0,0,0.1,0,0.1c0,0,0,0,0,0c0,0,0,0,0,0.1c0,0,0,0,0,0.1c0,0,0,0-0.1,0.1c0,0-0.1,0.1-0.1,0.2c0,0,0,0.1-0.1,0.1
				c0,0-0.1,0.1-0.1,0.1c-0.1,0.1-0.1,0.1-0.2,0.2c-0.1,0.1-0.1,0.1-0.2,0.2c-0.1-0.2-0.2-0.4-0.3-0.5c-0.1-0.1-0.1-0.2-0.2-0.2
				c0,0-0.1-0.1-0.1-0.1c0,0-0.1-0.1-0.1-0.1c0-0.1-0.1-0.2-0.1-0.3c0,0,0,0,0,0c0.1-0.3,0.6-0.7,0.9-0.7
				C160.3,223.2,160.7,223.7,160.7,224z"/>
		</g>
		<g>
			<g>
				<path class="st0" d="M237.8,208.8h-25.4v0c-8.6,0-17.2,0-25.8,0c-0.2,0-0.4,0-0.6,0c0,0.1,0,0.2,0,0.3c0,2.2,0,4.3,0,6.5v0.2
					c12.5,3.3,24.3,10.3,33,19.3c5.5-2.1,10.2-5.7,14.2-10.6c0,0,0,0,0,0c3.1-4.1,5-8.8,6-13.9C239.5,208.8,239.5,208.8,237.8,208.8
					z"/>
			</g>
		</g>
		<g>
			<path class="st0" d="M186.4,153.3c0,0.8-0.7,1.5-1.6,1.5c-1,0.1-1.1,0.6-1.1,1.5c0,14.8,0,29.6-0.1,44.3v8.7c0,1.8,0,3.8,0.1,5.6
				l-4.5-0.7v-55.2c0-1-0.1-2,0-3c0-0.8-0.3-1.3-1.1-1.3h-22.6c-1,0-1.4,0.3-1.4,1.4c0.1,3.5,0,7,0,10.4v49.5c0,1,0,1.8,0.1,2.8
				l-0.1,11.4v5.5c0.3,4.6,2.4,8.3,6.5,10.6c4.4,2.3,8.7,2.1,12.8-0.6c0.1,0,0.1-0.1,0.3-0.1c0-0.1,0.1-0.1,0.1-0.1
				c0.1-0.1,0.3-0.1,0.3-0.3c0.1,0,0.3-0.1,0.4-0.3c0.1-0.1,0.3-0.1,0.3-0.3c0,0,0,0,0.1,0l0.1-0.1c0.1-0.1,0.3-0.3,0.3-0.3
				c1.6,0.6,3.1,1.1,4.7,1.7c-0.1,0.1-0.3,0.3-0.3,0.4c-0.1,0-0.1,0-0.1,0c0,0.1-0.1,0.1-0.1,0.3c-0.1,0-0.1,0.1-0.3,0.1
				c0,0.1,0,0.1,0,0.1c-0.1,0-0.1,0.1-0.3,0.1c0,0.1-0.1,0.3-0.1,0.3c-0.7,0.7-1.4,1.4-2.3,2c-0.1,0-0.1,0-0.3,0.1
				c-0.3,0.3-0.7,0.4-1,0.7c-0.1,0-0.3,0.1-0.4,0.1c0,0-0.1,0.1-0.3,0.1c-0.1,0.1-0.4,0.3-0.6,0.4c-0.1,0-0.1,0-0.3,0l-0.1,0.1
				c-0.1,0-0.3,0.1-0.4,0.1c-0.1,0-0.1,0.1-0.3,0.1c0,0-0.1,0-0.3,0c0,0.1-0.1,0.1-0.3,0.1c0,0-0.1,0.1-0.3,0.1
				c-0.1,0-0.1,0-0.3,0.1c-0.1,0-0.1,0-0.1,0c-0.1,0-0.3,0.1-0.3,0.1c-0.4,0-0.7,0.1-1,0.1c0,0-0.1,0-0.1,0.1h-0.4
				c-10.6,2-20.3-6.2-20.2-16.7v-78.9c0-1,0-1.7-1.4-1.8c-1-0.1-1.7-1.3-1.6-2.4c0.1-1,1-1.8,2.1-2h35c0.7,0,1.6,0.1,2,0.6
				C186.3,151.7,186.4,152.5,186.4,153.3z"/>
		</g>
		<g>
			<path class="st0" d="M167.6,231.3L167.6,231.3c0,0.1,0,0.2,0,0.3c0,0.1,0,0.1,0,0.2c0,0,0,0.1,0,0.1c0,0.1,0,0.1-0.1,0.2
				c0,0,0,0.1,0,0.1c0,0.1-0.1,0.1-0.1,0.2c-0.1,0.1-0.1,0.2-0.2,0.3c0,0-0.1,0.1-0.1,0.1c0,0,0,0,0,0c0,0-0.1,0.1-0.1,0.1
				c0,0,0,0,0,0c0,0,0,0,0,0c0,0-0.1,0.1-0.1,0.1c0,0-0.1,0.1-0.1,0.1c0,0,0,0,0,0c0,0-0.1,0-0.1,0.1c0,0-0.1,0-0.1,0.1
				c0,0-0.1,0-0.2,0.1c0,0-0.1,0-0.1,0c-0.1,0-0.1,0-0.2,0c0,0-0.1,0-0.1,0c0,0-0.1,0-0.1,0c0,0-0.1,0-0.1,0c0,0-0.1,0-0.1,0h0
				c-0.1,0-0.1,0-0.2,0c-0.1,0-0.2,0-0.3,0c0,0-0.1,0-0.1,0c-0.1,0-0.1,0-0.2,0c0,0,0,0,0,0c0,0-0.1,0-0.1,0c0,0-0.1,0-0.1,0
				c0,0-0.1,0-0.1-0.1c-0.1,0-0.1-0.1-0.2-0.1c0,0-0.1-0.1-0.1-0.1c0,0-0.1-0.1-0.1-0.1c-0.1-0.1-0.2-0.2-0.2-0.2
				c0,0-0.1-0.1-0.1-0.1c0-0.1-0.1-0.1-0.1-0.2c0,0-0.1-0.1-0.1-0.1c0,0,0-0.1-0.1-0.1c0-0.1,0-0.1-0.1-0.2c0,0,0-0.1,0-0.1
				c0,0,0,0,0-0.1c0,0,0,0,0-0.1c0,0,0-0.1,0-0.1c0-0.1,0-0.1,0-0.2c0-0.1,0-0.1,0-0.2c0,0,0,0,0,0c0,0,0-0.1,0-0.1c0,0,0-0.1,0-0.1
				v0c0,0,0-0.1,0-0.1c0,0,0-0.1,0-0.1c0,0,0-0.1,0-0.1c0,0,0-0.1,0-0.1c0,0,0-0.1,0-0.1c0,0,0-0.1,0-0.1c0,0,0-0.1,0-0.1
				c0,0,0,0,0,0c0,0,0,0,0,0c0-0.1,0.1-0.2,0.2-0.3c0.1-0.1,0.1-0.2,0.2-0.3c0,0,0,0,0,0c0,0,0,0,0,0c0,0,0.1-0.1,0.1-0.1
				c0,0,0.1,0,0.1-0.1c0,0,0.1,0,0.1-0.1c0,0,0.1,0,0.1-0.1c0,0,0.1,0,0.1-0.1c0.1,0,0.1-0.1,0.2-0.1c0.1,0,0.1,0,0.2-0.1
				c0,0,0.1,0,0.1,0c0,0,0.1,0,0.1,0c0.1,0,0.1,0,0.2,0c0.1,0,0.1,0,0.2,0s0.1,0,0.2,0c0.1,0,0.2,0,0.2,0c0,0,0.1,0,0.1,0
				c0.2,0,0.3,0.1,0.4,0.1c0,0,0.1,0,0.1,0c0,0,0,0,0.1,0c0,0,0,0,0,0c0,0,0,0,0.1,0c0,0,0.1,0,0.1,0c0.2,0.1,0.3,0.2,0.4,0.3
				c0,0,0.1,0.1,0.1,0.1c0.1,0.1,0.2,0.2,0.2,0.3c0,0,0,0.1,0,0.1c0,0.1,0.1,0.2,0.1,0.3c0,0,0,0.1,0,0.1c0,0,0,0.1,0,0.1
				c0,0,0,0.1,0,0.1c0,0,0,0.1,0,0.1c0,0,0,0.1,0,0.1c0,0,0,0.1,0,0.1C167.6,231.2,167.6,231.3,167.6,231.3z"/>
		</g>
		<g>
			<path class="st0" d="M176.1,234.4c0-0.2,0-0.2,0-0.2s-0.2-0.2-0.7-0.4c0.4,0,0.6,0,0.7-0.2c0.4,0,0.4,0,0.4,0s-0.2,0.6-0.4,1.5
				V234.4z"/>
		</g>
		<g>
			<path class="st0" d="M223.4,244.1v0.1h-0.1c-4.2,2.3-14.7,4.5-25.9,4.5c-5.9,0-12-0.6-17.6-2.1c-0.4-0.1-1-0.3-1.6-0.4
				c-1-0.4-2.1-0.7-3.2-1.1c-0.7-0.4-1.6-0.7-2.3-1.1h-0.1c0,0,0,0-0.1,0c-0.1-0.1-0.4-0.3-0.6-0.4c-2.5-1.1-4.8-2.5-7.1-4.1
				c-1.1-0.7-2.1-1.5-3.1-2.3c-1.7-1.3-3.4-2.7-4.8-3.9c-0.1-0.1-0.1-0.1-0.3-0.3c-0.1-0.1-0.3-0.3-0.4-0.3c0-0.1-0.1-0.1-0.1-0.3
				c-0.7-0.6-1.3-1.1-1.8-1.7c-0.3-0.3-0.6-0.6-0.8-0.8c-1.4-1.4-2.7-2.7-3.7-3.9c-3.2-3.5-5.2-6.2-5.5-6.6c0-0.1-0.1-0.1-0.1-0.1
				c0.1,0,0.1,0,0.1,0s0-0.1,0.1,0c0,0.1,0,0.1,0.1,0.1v-0.1c0-0.1,0-0.1,0-0.1c0.6-0.3,2.1-0.8,4.4-1.4c0.3,0,0.6-0.1,0.8-0.1
				c1-0.3,2.3-0.6,3.5-0.8c0.3-0.1,0.7-0.1,1-0.3c0.6-0.1,1.1-0.3,1.8-0.3c0.1-0.1,0.4-0.1,0.6-0.1c0.6-0.1,1.1-0.3,1.7-0.3
				c0.3-0.1,0.6-0.1,0.8-0.1c5.2-0.8,11.3-1.5,16.9-1.3c0.3,0,0.4,0,0.7,0.1c0.8,0,1.7,0,2.5,0.1c1.4,0.1,3,0.4,4.4,0.7
				c0.3,0,0.4,0,0.6,0.1c0.4,0,0.8,0.1,1.3,0.3c0.1,0,0.3,0,0.6,0.1c12.5,3.2,24.3,10.3,33,19.3c0,0-0.1,0-0.1,0.1
				c-3,1-6.1,1.7-9.4,1.8c-0.8,0-1.7,0.1-2.4,0l-14.2-3.7l-3.4-0.8l-5.8-1.5l-4.4-1.1l-2.5-0.7L176,229l-13.1-3.4l3.1,1l10,3
				l0.7,0.1l2.5,0.7l4.4,1.5l10.6,3.2l0.4,0.1l6.9,2.1l14.5,4.4L223.4,244.1z"/>
		</g>
	</g>
	<g>
		<path class="st0" d="M47.9,118.4c0.6-2,1.8-4.8,3.1-7.3c2.1-3.9,4.2-6,6.7-6.9c2-0.7,4.3-0.5,6.6,0.7c3.7,2,4.9,5.6,4.3,9.1
			l0.1,0.1c1.9-1.7,4.6-1.9,7.9-1.1c4.4,1.2,7.5,2,8.9,2l-2,3.7c-1.1,0-3.8-0.6-7.7-1.8c-4.3-1.2-6.6-0.5-8.5,2.8l-1.8,3.4l12.2,6.5
			l-1.9,3.6L47.9,118.4z M62.6,121.6l2-3.7c2.1-3.9,1.3-7.5-1.9-9.2c-3.6-1.9-6.6-0.1-8.7,3.7c-0.9,1.8-1.5,3-1.6,3.8L62.6,121.6z"
			/>
		<path class="st0" d="M86.2,89.7l-7.6,9.7l9,7.1l8.6-10.9l2.7,2.1L87.7,112L62.6,92.2l10.7-13.6l2.7,2.1l-8.1,10.3l7.9,6.2l7.7-9.7
			L86.2,89.7z"/>
		<path class="st0" d="M98.5,91c2.2-0.3,4.7-1.5,6.9-3.4c3.1-2.8,3.5-6.1,1.3-8.5c-2-2.2-4.4-2.3-8.7-0.7c-5.1,2.1-9.4,2.2-12.4-1.1
			c-3.3-3.7-2.7-9.2,1.9-13.4c2.4-2.2,4.7-3.2,6.3-3.5l1.4,3.3c-1.2,0.2-3.3,1-5.5,2.9c-3.2,2.9-2.7,6-1.3,7.6c2,2.2,4.4,2,8.8,0.3
			c5.4-2.1,9.2-1.9,12.3,1.6c3.3,3.7,3.5,9.3-2.1,14.3c-2.3,2.1-5.4,3.6-7.5,3.9L98.5,91z"/>
		<path class="st0" d="M125.3,58.4L114.9,65l6.1,9.7l11.7-7.4l1.8,2.9l-15.2,9.6l-17-27l14.6-9.2l1.8,2.9l-11.1,7l5.4,8.5l10.5-6.6
			L125.3,58.4z"/>
		<path class="st0" d="M139.7,56.9l0.5,10.6l-4,1.5l-1.4-33.7l4.6-1.8l21.7,25.8l-4.1,1.6l-6.8-8.1L139.7,56.9z M148.3,50.1
			l-6.3-7.4c-1.4-1.7-2.5-3.3-3.7-4.8l-0.1,0c0.2,1.9,0.5,3.9,0.6,6l0.4,9.7L148.3,50.1z"/>
		<path class="st0" d="M159.3,27.8c2-0.7,4.9-1.5,7.7-2c4.3-0.7,7.3-0.4,9.5,1c1.8,1.1,3.1,3.1,3.5,5.6c0.7,4.1-1.4,7.3-4.5,9l0,0.1
			c2.5,0.4,4.4,2.4,5.7,5.6c1.8,4.2,3,7.1,3.9,8.2l-4.2,0.7c-0.7-0.8-1.8-3.4-3.3-7.2c-1.7-4.2-3.7-5.5-7.4-5l-3.8,0.7l2.3,13.6
			l-4.1,0.7L159.3,27.8z M165.9,41.5l4.2-0.7c4.3-0.7,6.7-3.6,6.1-7.2c-0.7-4.1-3.9-5.3-8.2-4.6c-2,0.3-3.3,0.7-4,1L165.9,41.5z"/>
		<path class="st0" d="M211.2,54.7c-1.5,0.7-4.6,1.4-8.5,1.3c-9-0.2-15.6-6-15.4-16.5c0.2-10,7.1-16.6,17-16.4
			c3.9,0.1,6.5,1,7.5,1.6l-1.1,3.4c-1.5-0.8-3.7-1.4-6.4-1.5c-7.5-0.1-12.5,4.5-12.7,12.9c-0.2,7.9,4.2,12.9,11.9,13.1
			c2.6,0.1,5.1-0.4,6.8-1.2L211.2,54.7z"/>
		<path class="st0" d="M226.5,26l-3.1,13l15.1,3.6l3.1-13l4.1,1l-7.3,31.1l-4.1-1l3.4-14.6l-15.1-3.5l-3.4,14.6l-4.1-1l7.3-31.1
			L226.5,26z"/>
		<path class="st0" d="M269.2,40.8c1.8,0.5,4.4,1.7,6.9,3.1c3.6,2,5.5,4,6.4,6.3c0.8,1.9,0.8,4.1-0.4,6.2c-1.5,2.7-4.7,4-8.2,3.4
			l-0.1,0.1c2.3,2.1,4.1,6.1,1.8,10.2c-1.4,2.4-3.4,3.7-5.6,4.2c-2.9,0.7-6.5-0.3-11-2.9c-2.5-1.4-4.3-2.7-5.4-3.5L269.2,40.8z
			 M258.7,67.4c0.7,0.5,1.6,1.1,2.9,1.9c3.7,2.1,7.9,2.7,10.2-1.3c2.1-3.7-0.2-7.2-4.1-9.4l-3-1.7L258.7,67.4z M266.3,54.2l3.3,1.9
			c3.7,2.1,7.1,1.4,8.6-1.3c1.8-3.2,0.1-5.9-3.5-8c-1.6-0.9-2.7-1.4-3.3-1.6L266.3,54.2z"/>
		<path class="st0" d="M285.2,76.5l-9.1,5.4l-3.2-2.8l29.2-16.9l3.7,3.2L293,96.6l-3.3-2.9l4-9.8L285.2,76.5z M295.2,81l3.6-9
			c0.8-2,1.7-3.8,2.6-5.5l-0.1-0.1c-1.6,1.1-3.2,2.3-5,3.3l-8.4,4.9L295.2,81z"/>
		<path class="st0" d="M298.9,96.2c0.2,2.2,1.1,4.8,2.9,7.1c2.6,3.3,5.9,3.9,8.4,1.9c2.3-1.8,2.6-4.2,1.3-8.6
			c-1.7-5.3-1.5-9.5,2-12.2c3.9-3.1,9.4-2.1,13.2,2.8c2,2.5,2.9,4.9,3.1,6.5l-3.4,1.2c-0.1-1.2-0.7-3.4-2.5-5.7
			c-2.7-3.4-5.8-3.1-7.5-1.8c-2.4,1.8-2.3,4.3-0.9,8.8c1.7,5.5,1.3,9.3-2.4,12.2c-3.9,3-9.5,2.9-14.1-3.1c-1.9-2.4-3.2-5.7-3.4-7.7
			L298.9,96.2z"/>
		<path class="st0" d="M329.7,125.2l-5.9-10.9l-10.1,5.5l6.6,12.2l-3,1.6l-8.5-15.9l28.1-15.1l8.2,15.2l-3,1.6l-6.2-11.6l-8.9,4.8
			l5.9,10.9L329.7,125.2z"/>
		<path class="st0" d="M349.1,128.2c1.1,2.3,2.3,5.1,3.2,8.2c1.7,5.7,1.6,10.1-0.1,13.5c-1.6,3.5-4.7,6.2-9.6,7.7
			c-5,1.5-9.5,1.2-13.2-0.8c-3.7-2-6.7-6.3-8.5-12.2c-0.9-2.8-1.4-5.2-1.8-7.3L349.1,128.2z M323.3,140.3c0.2,1,0.6,2.5,1,4
			c2.6,8.5,8.7,11.6,16.9,9.1c7.2-2.1,10.6-7.6,8-15.9c-0.6-2-1.3-3.5-1.8-4.5L323.3,140.3z"/>
	</g>
	<g>
		<path class="st0" d="M123.7,297.6l14.9,8.6l-1.7,3l-11.3-6.5l-5.3,9.2l10.4,6l-1.7,2.9l-10.4-6l-7.2,12.5l-3.6-2.1L123.7,297.6z"
			/>
		<path class="st0" d="M163.6,331.8c-3.4,10.4-11.7,13.9-19.4,11.3c-8.1-2.7-11.5-10.8-8.5-20c3.2-9.6,11.2-13.9,19.3-11.3
			C163.4,314.7,166.6,322.8,163.6,331.8z M139.9,324.5c-2.2,6.5-0.6,13.5,5.6,15.6c6.2,2.1,11.6-2.5,13.9-9.4c2-6.1,1-13.4-5.6-15.6
			C147.4,312.9,142.1,317.8,139.9,324.5z"/>
		<path class="st0" d="M172.7,317.7c2.1-0.1,5.2-0.1,8,0.2c4.4,0.5,7.2,1.7,8.9,3.6c1.4,1.6,2.1,3.9,1.8,6.4
			c-0.5,4.1-3.4,6.6-6.8,7.4l0,0.1c2.3,1.1,3.5,3.5,3.9,6.9c0.5,4.5,0.9,7.7,1.5,9l-4.2-0.5c-0.4-1-0.8-3.8-1.2-7.8
			c-0.5-4.5-2-6.3-5.7-6.9l-3.9-0.4l-1.6,13.8l-4.1-0.5L172.7,317.7z M175.2,332.7l4.2,0.5c4.4,0.5,7.4-1.6,7.9-5.2
			c0.5-4.1-2.3-6.2-6.6-6.7c-2-0.2-3.4-0.2-4.1-0.1L175.2,332.7z"/>
		<path class="st0" d="M225.5,334.8c-0.7-4.4-1.7-9.7-2.1-13.6l-0.1,0c-0.7,3.8-1.5,8-2.6,12.5l-3.8,16l-3.1,0.4l-6.9-14.5
			c-2-4.3-3.7-8.3-5.1-11.9l-0.1,0c0.4,4,0.7,9.3,1,14.1l0.7,13.7l-3.9,0.5l-1.5-32l5.2-0.6l7.2,14.7c1.8,3.8,3.2,7.1,4.4,10.3
			l0.1,0c0.5-3.3,1.2-6.9,2.2-11.1l3.9-16l5.2-0.6l5.7,31.5l-4.1,0.5L225.5,334.8z"/>
		<path class="st0" d="M236.3,313.3l6.8,17.7c2.5,6.6,6.6,8.4,10.6,6.8c4.4-1.7,6.2-5.7,3.6-12.3l-6.8-17.7l3.9-1.5l6.7,17.5
			c3.5,9.2,0.1,14.7-6.4,17.2c-6.1,2.3-12,0.6-15.6-8.7l-6.7-17.6L236.3,313.3z"/>
		<path class="st0" d="M259.6,303.4l3.5-2.2l15.1,24.2l11.6-7.2l1.8,2.9l-15.1,9.4L259.6,303.4z"/>
		<path class="st0" d="M296.4,304.4l4.4,9.6l-3.1,2.9L284,286l3.6-3.3l29.6,16.1l-3.3,3l-9.3-5.1L296.4,304.4z M301.9,294.9
			l-8.6-4.6c-1.9-1.1-3.6-2.1-5.2-3.2l-0.1,0.1c0.9,1.7,1.9,3.5,2.7,5.3l4,8.9L301.9,294.9z"/>
	</g>
	<g>
		<path class="st0" d="M194.9,375C92.5,375,9.1,290.5,9.1,186.7C9.1,83.7,92.5,0,194.9,0c104.3,0,189.2,83.7,189.2,186.7
			C384.1,290.5,299.2,375,194.9,375z M194.9,8.1C95.2,8.1,17.2,86.5,17.2,186.7c0,99.4,79.8,180.3,177.8,180.3
			c99.8,0,181.1-80.9,181.1-180.3C376,88.2,294.8,8.1,194.9,8.1z"/>
	</g>
	<g>
		<path class="st0" d="M196.6,306.5c-65.6,0-119-53.4-119-119s53.4-119,119-119s119,53.4,119,119S262.2,306.5,196.6,306.5z
			 M196.6,76.6c-61.2,0-110.9,49.8-110.9,110.9s49.8,110.9,110.9,110.9s110.9-49.8,110.9-110.9S257.8,76.6,196.6,76.6z"/>
	</g>
</g>
</svg>
