<?xml version="1.0" encoding="utf-8"?>
<!-- Generator: Adobe Illustrator 23.0.2, SVG Export Plug-In . SVG Version: 6.00 Build 0)  -->
<svg version="1.1" id="Layer_1" xmlns="http://www.w3.org/2000/svg" xmlns:xlink="http://www.w3.org/1999/xlink" x="0px" y="0px"
	 viewBox="0 0 1000 616.9" style="enable-background:new 0 0 1000 616.9;" xml:space="preserve">
<style type="text/css">
	.st0{fill:#212529;}
	.st1{opacity:0.3;}
	.st2{fill:#FFFFFF;}
</style>
<g>
	<g>
		<path class="st0" d="M861.5,133.1c-1.9-0.7-1.9-0.8-1.9-2.9c0-9.6,0-19.2,0-28.8c0-1.2,0-1.2-1.2-1.2c-3.2,0-6.4,0-9.6,0
			c-2.1,0-4.1,0-6.2,0c-0.7,0-0.9,0.2-0.9,0.9c0,10,0,20,0,30.1c0,0.8-0.3,1.2-1,1.6c-2.2,1.2-4.2,2.5-6.3,3.8
			c-0.2,0.1-0.3,0.2-0.6,0.4c0-1.4,0-2.7,0-4c0-0.2,0.3-0.5,0.5-0.7c1.1-0.7,2.2-1.3,3.2-2c0.3-0.2,0.5-0.6,0.5-0.9
			c0-9.4,0-18.9,0-28.3c0-0.7-0.2-0.9-0.9-0.8c-0.6,0-1.2,0-1.8,0c-1.1-0.1-1.7-0.7-1.7-1.7c0-1,0.7-1.7,1.7-1.8c2.5,0,5,0,7.5,0
			c7.3,0,14.6,0,21.9,0c0.3,0,0.6,0,1,0c1,0.1,1.7,0.8,1.7,1.8c0,0.9-0.6,1.6-1.6,1.7c-0.7,0.1-1.3,0.1-2,0.1
			c-0.7-0.1-0.8,0.3-0.8,0.9c0,9.2,0,18.5,0,27.7c0,0.9,0.2,1.3,1,1.8c6,3.3,11,7.9,14.5,13.8c3.6,5.9,5.1,12.3,4.3,19.2
			c-0.8,7.3-3.5,13.8-8.4,19.2c-5.1,5.7-11.5,9.4-19.2,10.5c-7.5,1.1-14.6-0.3-21.2-4.1c-0.6-0.4-0.9-0.7-0.7-1.5
			c0.2-0.9,0.2-1.9,0.3-3c1.1,0.7,2.1,1.4,3.2,2c9.3,4.8,18.7,4.8,27.8-0.4c8.4-4.9,13.1-12.5,14.5-22.1c1.2-8.4-1.4-15.8-6.8-22.2
			c-2.2-2.6-4.8-4.8-7.6-6.8"/>
	</g>
	<g>
		<g>
			<path class="st0" d="M857,103.1c-0.3-0.2-0.5-0.5-0.8-0.5c-1.6-0.1-3.1,0-4.7,0c-0.1,0-0.2,0-0.3,0.1c-0.2,0.1-0.4,0.4-0.6,0.5
				c0.3,0.2,0.6,0.6,0.9,0.6c0.8,0.1,1.6,0,2.3,0c0,0,0,0,0,0c0.8,0,1.6,0.1,2.3,0c0.3,0,0.6-0.4,1-0.6
				C857.1,103.2,857,103.1,857,103.1z M851.6,102.8h2.2c0,0.1,0,0.1,0,0.2h-2.2C851.6,102.9,851.6,102.8,851.6,102.8z"/>
		</g>
	</g>
	<g>
		<path class="st0" d="M852,123.9c-0.2,0-0.4-0.3-0.7-0.5c0.2-0.2,0.5-0.6,0.7-0.6c1.5-0.1,2.9-0.1,4.4,0c0.2,0,0.4,0.4,0.7,0.6
			c-0.2,0.2-0.4,0.6-0.7,0.6c-0.7,0.1-1.4,0-2.2,0"/>
	</g>
	<g>
		<path class="st0" d="M855.3,112.7c0.4,0,0.9-0.1,1.3,0c0.2,0.1,0.5,0.4,0.6,0.6c0,0.1-0.3,0.5-0.5,0.5c-0.9,0.1-1.7,0.1-2.6,0
			c-0.2,0-0.5-0.4-0.5-0.6c0-0.2,0.3-0.5,0.6-0.6C854.5,112.6,854.9,112.7,855.3,112.7C855.3,112.7,855.3,112.7,855.3,112.7z"/>
	</g>
	<g>
		<path class="st0" d="M854.6,108.1c0.6,0,1.2-0.1,1.8,0c0.3,0.1,0.7,0.4,0.8,0.6c0,0.1-0.4,0.5-0.7,0.5c-1.2,0.1-2.4,0.1-3.5,0
			c-0.3,0-0.7-0.4-0.7-0.6c0-0.2,0.5-0.5,0.8-0.6C853.5,108,854.1,108.1,854.6,108.1C854.6,108.1,854.6,108.1,854.6,108.1z"/>
	</g>
	<g>
		<path class="st0" d="M856.6,117.7c0.2,0,0.5,0.3,0.5,0.6c0,0.1-0.3,0.5-0.4,0.5c-0.9,0.1-1.8,0.1-2.8,0c-0.2,0-0.5-0.4-0.5-0.6
			c0.1-0.2,0.4-0.5,0.6-0.6c0.4-0.1,0.8,0,1.2,0"/>
	</g>
	<g>
		<path class="st0" d="M830.1,160.7c0,0.4,0,0.9-0.1,1.5c-0.2-0.3-0.5-0.4-0.5-0.7c0-0.4,0.1-0.8,0.2-1.1L830.1,160.7z"/>
	</g>
	<g class="st1">
		<path class="st0" d="M816.4,191.8c0.1,0.1,0.1,0.3,0.1,0.3s0.3,0,0.7,0L816.4,191.8z M819.9,180.5c0-0.1,0-0.1,0-0.3
			c0,0,0,0-0.1,0c0-0.1,0-0.1-0.1-0.3c-0.1-0.1-0.3-0.3-0.3-0.3c-0.1,0-0.1,0-0.1,0s0,0,0-0.1c-0.1,0-0.1,0-0.1,0
			c-0.1,0-0.1,0-0.1,0h-0.3c0,0,0,0,0-0.1c-0.1,0-0.1,0-0.3,0c0,0,0,0-0.1,0c0,0,0,0-0.1,0c0,0.1,0,0.1-0.1,0.1h-0.3
			c0,0-0.1,0-0.1,0.1c0,0,0,0-0.1,0l-0.1,0.1c0,0-0.1,0-0.1,0.1l-0.1,0.1c0,0.1-0.1,0.1-0.1,0.3c-0.4,0.3-0.6,0.7-0.6,1.3
			c0,0.6,0.1,1,0.4,1.3c0.9,0,1.7,0,2.6-0.1c0.1,0,0.1-0.1,0.3-0.3c0,0,0-0.1,0.1-0.1c0,0,0,0,0-0.1c0.1,0,0.1-0.1,0.3-0.3
			c0,0,0,0,0-0.1c0.1,0,0.1-0.1,0.1-0.1V181c0,0,0,0,0-0.1v-0.1c0-0.1,0-0.1,0-0.1s0,0,0-0.1H819.9z M823.3,182.7
			c-0.1,0-0.1,0-0.3,0h-3.9c2.2,0,4.3,0,5.7,0.1C824.3,182.9,823.9,182.9,823.3,182.7z M826,183c0.4,0.1,0.6,0.3,0.6,0.3v-0.4
			C826.5,183,826.3,183,826,183z M826.5,184.9v0.6c0.1,0,0.1-0.3,0.1-0.4v-0.6C826.6,184.6,826.6,184.8,826.5,184.9z"/>
	</g>
	<g>
		<g>
			<path class="st0" d="M826.6,167.9v-30.2c0-0.7-0.1-0.9-1-0.9h-14c-0.3,0.1-0.4,0.3-0.4,0.4c-0.1,0.1-0.1,0.3-0.1,0.7v38
				c0,1,0.3,1.4,0.6,1.6c0,0.1,0.1,0.1,0.3,0.1v0.1l-0.3,1l-0.6,1.4v1.4l0.3,0.1l0.1,0.1l0.4,0.1l1.3-5.9c0.3,0.1,0.4,0.3,0.6,0.3
				l0.1,0.1c0.1,0,0.3,0,0.4-0.1c0.1,0,0.1-0.1,0-0.3c0,0,0-0.1-0.1-0.1c0.1,0,0.1-0.1,0.1-0.1s0.1,0,0.1-0.1l0.1-0.1c0,0,0,0,0-0.1
				c0.1,0,0.1,0,0.1,0c0-0.1,0-0.1,0-0.1l-0.9-0.4c-0.1,0-0.1,0-0.1,0s0,0-0.1,0.1c0,0,0,0.1-0.1,0.1c0,0.1,0.1,0.1,0.1,0.3
				c0,0.1,0.1,0.1,0.1,0.1v0.1c-0.1,0-0.3-0.1-0.4-0.1l0.1-0.4v-6.6L826.6,167.9z M816.9,167.2c-1.3,0-2.2-0.9-2.2-2
				c0-1.3,0.9-2.1,2.2-2.1c1.1,0,2,0.9,2,2.1C818.9,166.3,818,167.2,816.9,167.2z M823.3,162.3c-1.4,0-2.7-1.1-2.7-2.7
				c0-1.4,1.3-2.6,2.7-2.6c1.4,0,2.7,1.1,2.7,2.6C826,161.1,824.7,162.3,823.3,162.3z M823.3,144.4c1.7,0,3,1.3,3,3
				c0,1.6-1.3,2.9-3,2.9c-1.6,0-2.9-1.3-2.9-2.9C820.4,145.7,821.7,144.4,823.3,144.4z M817.4,138.3c2,0,3.6,1.6,3.6,3.4
				c0,2-1.6,3.6-3.6,3.6c-1.9,0-3.4-1.6-3.4-3.6C814,139.8,815.6,138.3,817.4,138.3z M813.1,155c0-2.1,1.7-3.9,3.9-3.9
				c2.1,0,3.9,1.7,3.9,3.9c0,2.1-1.7,3.9-3.9,3.9C814.9,158.9,813.1,157.1,813.1,155z"/>
		</g>
	</g>
	<g>
		<g>
			<path class="st0" d="M811.8,182.2l-0.4-0.1l-0.1-0.1l-0.3-0.1v3.4c0.1,2.9,1.4,5.1,3.9,6.6c2.6,1.6,5.4,1.3,7.7,0.1
				c0.1-0.1,0.6-0.6,1.3-1c0.1-0.1,0.3-0.3,0.4-0.4 M825.5,189c0-0.1,0.1-0.4,0.3-0.7c0.1-0.3,0.3-0.7,0.3-1.1l0.1-0.3
				c0,0,0.1-0.4,0.1-0.9v-0.1c0-0.1,0-0.3,0.1-0.4v-0.6c0.1-0.1,0.1-0.3,0.1-0.4v-1c0-0.1,0-0.1,0-0.1s-0.1-0.1-0.6-0.3
				c-0.3-0.1-0.7-0.1-1.1-0.1c-1.4-0.1-3.6-0.1-5.7-0.1 M817.3,192c-0.4,0-0.7,0-0.7,0s0-0.1-0.1-0.3"/>
		</g>
	</g>
	<g>
		<path class="st0" d="M819.6,181.7c0,0.3-0.1,0.5-0.2,0.7c0,0,0,0,0,0c-0.1,0.1-0.1,0.3-0.2,0.4c-0.3,0.4-0.8,0.6-1.3,0.6
			c-0.5,0-1-0.2-1.3-0.5c-0.3-0.3-0.4-0.7-0.4-1.2c0-0.6,0.2-1.1,0.6-1.4c0,0,0,0,0,0c0.3-0.2,0.7-0.3,1.2-0.3
			C818.9,180,819.6,180.7,819.6,181.7z"/>
	</g>
	<g>
		<path class="st0" d="M817.2,171.5c-0.7,0-1.2,0.5-1.2,1.3c0,0.7,0.5,1.2,1.2,1.2c0.8,0,1.3-0.5,1.3-1.3
			C818.5,172,818,171.5,817.2,171.5z M817.2,173.7c-0.3-0.5-0.6-0.8-0.6-1c0-0.2,0.4-0.6,0.6-0.5c0.3,0.1,0.6,0.4,0.6,0.6
			C817.9,173,817.5,173.3,817.2,173.7z"/>
	</g>
	<g>
		<path class="st0" d="M814.2,174.8c-0.1,0-0.3,0.1-0.4,0.2c0,0,0,0-0.1,0c0,0-0.1,0.1-0.1,0.1c0,0,0,0,0,0
			c-0.1,0.1-0.1,0.1-0.1,0.2c0,0,0,0,0,0c0,0.1,0,0.1,0,0.2c0,0,0,0.1,0.1,0.1c0,0,0,0.1,0.1,0.1c0,0,0,0.1,0.1,0.1c0,0,0,0,0,0.1
			c0.1,0.1,0.2,0.3,0.3,0.4c0-0.1,0.1-0.1,0.1-0.2c0-0.1,0.1-0.1,0.1-0.1c0,0,0.1-0.1,0.1-0.1c0,0,0,0,0.1-0.1c0,0,0.1-0.1,0.1-0.1
			c0,0,0,0,0-0.1c0,0,0,0,0,0c0,0,0,0,0-0.1c0,0,0,0,0,0c0,0,0,0,0-0.1c0,0,0,0,0,0c0,0,0,0,0,0c0,0,0,0,0,0c0,0,0,0,0,0
			C814.7,175.2,814.4,174.8,814.2,174.8z"/>
	</g>
	<g>
		<path class="st0" d="M819.5,172.4c-0.1,0.1-0.4,0-0.5,0c0.1-0.2,0.1-0.5,0.1-0.5c-0.4-0.3-0.8-0.5-1.1-0.9
			c-0.1-0.1,0.2-0.5,0.3-0.8c0.1-0.1,0.3,0,0.5,0c0,0.2-0.1,0.5-0.1,0.5c0.5,0.4,0.9,0.6,1.2,1C820,171.8,819.7,172.2,819.5,172.4z"
			/>
	</g>
	<g>
		<path class="st0" d="M817.1,174.7c-0.5,0.1-0.9,0.3-1.1,0.2c-0.6-0.5-1.1-1-1.6-1.6c-0.1-0.1,0-0.5,0-0.7c0.3,0.1,1,0.3,1,0.4
			c0,0.8,0.4,1.2,1.2,1.3C816.7,174.4,816.8,174.5,817.1,174.7z"/>
	</g>
	<g>
		<path class="st0" d="M817.2,173.7c-0.3-0.5-0.6-0.8-0.6-1c0-0.2,0.4-0.6,0.6-0.5c0.3,0.1,0.6,0.4,0.6,0.6
			C817.9,173,817.5,173.3,817.2,173.7z"/>
	</g>
	<g>
		<path class="st0" d="M814.7,175.4C814.7,175.4,814.7,175.4,814.7,175.4C814.7,175.4,814.7,175.5,814.7,175.4c0,0.1,0,0.1,0,0.1
			c0,0,0,0,0,0c0,0,0,0,0,0.1c0,0,0,0,0,0c0,0,0,0,0,0.1c0,0,0,0,0,0c0,0,0,0,0,0.1c0,0-0.1,0.1-0.1,0.1c0,0,0,0-0.1,0.1
			c0,0-0.1,0.1-0.1,0.1c0,0-0.1,0.1-0.1,0.1c0,0.1-0.1,0.1-0.1,0.2c-0.1-0.2-0.2-0.3-0.3-0.4c0-0.1-0.1-0.1-0.1-0.2
			c0,0-0.1-0.1-0.1-0.1c0,0,0-0.1-0.1-0.1c0-0.1-0.1-0.1,0-0.2c0,0,0,0,0,0c0-0.2,0.4-0.5,0.7-0.5
			C814.4,174.8,814.7,175.2,814.7,175.4z"/>
	</g>
	<g>
		<g>
			<path class="st0" d="M874.4,163.6h-19.7v0c-6.7,0-13.3,0-20,0c-0.2,0-0.3,0-0.4,0c0,0.1,0,0.1,0,0.2c0,1.7,0,3.4,0,5.1v0.1
				c9.7,2.5,18.8,8,25.6,15c4.3-1.6,7.9-4.4,11-8.2c0,0,0,0,0,0c2.4-3.2,3.9-6.8,4.6-10.8C875.8,163.6,875.8,163.6,874.4,163.6z"/>
		</g>
	</g>
	<g>
		<path class="st0" d="M834.6,120.7c0,0.7-0.5,1.2-1.2,1.2c-0.8,0.1-0.9,0.4-0.9,1.2c0,11.5,0,22.9-0.1,34.4v6.8
			c0,1.4,0,2.9,0.1,4.4l-3.5-0.5v-42.8c0-0.8-0.1-1.5,0-2.3c0-0.7-0.2-1-0.9-1h-17.5c-0.8,0-1.1,0.2-1.1,1.1c0.1,2.7,0,5.5,0,8.1
			v38.4c0,0.8,0,1.4,0.1,2.2l-0.1,8.8v4.3c0.2,3.6,1.9,6.4,5,8.2c3.4,1.7,6.8,1.6,9.9-0.4c0.1,0,0.1-0.1,0.2-0.1
			c0-0.1,0.1-0.1,0.1-0.1c0.1-0.1,0.2-0.1,0.2-0.2c0.1,0,0.2-0.1,0.3-0.2c0.1-0.1,0.2-0.1,0.2-0.2c0,0,0,0,0.1,0l0.1-0.1
			c0.1-0.1,0.2-0.2,0.2-0.2c1.2,0.4,2.4,0.9,3.6,1.3c-0.1,0.1-0.2,0.2-0.2,0.3c-0.1,0-0.1,0-0.1,0c0,0.1-0.1,0.1-0.1,0.2
			c-0.1,0-0.1,0.1-0.2,0.1c0,0.1,0,0.1,0,0.1c-0.1,0-0.1,0.1-0.2,0.1c0,0.1-0.1,0.2-0.1,0.2c-0.5,0.5-1.1,1.1-1.7,1.5
			c-0.1,0-0.1,0-0.2,0.1c-0.2,0.2-0.5,0.3-0.8,0.5c-0.1,0-0.2,0.1-0.3,0.1c0,0-0.1,0.1-0.2,0.1c-0.1,0.1-0.3,0.2-0.4,0.3
			c-0.1,0-0.1,0-0.2,0l-0.1,0.1c-0.1,0-0.2,0.1-0.3,0.1c-0.1,0-0.1,0.1-0.2,0.1c0,0-0.1,0-0.2,0c0,0.1-0.1,0.1-0.2,0.1
			c0,0-0.1,0.1-0.2,0.1c-0.1,0-0.1,0-0.2,0.1c-0.1,0-0.1,0-0.1,0c-0.1,0-0.2,0.1-0.2,0.1c-0.3,0-0.5,0.1-0.8,0.1c0,0-0.1,0-0.1,0.1
			h-0.3c-8.2,1.5-15.7-4.8-15.6-13v-61.2c0-0.8,0-1.3-1.1-1.4c-0.8-0.1-1.3-1-1.2-1.9c0.1-0.8,0.8-1.4,1.6-1.5h27.1
			c0.5,0,1.2,0.1,1.5,0.4C834.5,119.3,834.6,120,834.6,120.7z"/>
	</g>
	<g>
		<path class="st0" d="M820,181.1L820,181.1c0,0.1,0,0.2,0,0.2c0,0.1,0,0.1,0,0.2c0,0,0,0.1,0,0.1c0,0.1,0,0.1-0.1,0.2
			c0,0,0,0.1,0,0.1c0,0.1,0,0.1-0.1,0.1c-0.1,0.1-0.1,0.2-0.2,0.3c0,0-0.1,0.1-0.1,0.1c0,0,0,0,0,0c0,0-0.1,0.1-0.1,0.1c0,0,0,0,0,0
			c0,0,0,0,0,0c0,0-0.1,0-0.1,0.1c0,0-0.1,0.1-0.1,0.1c0,0,0,0,0,0c0,0-0.1,0-0.1,0.1c0,0-0.1,0-0.1,0c0,0-0.1,0-0.1,0
			c0,0-0.1,0-0.1,0c0,0-0.1,0-0.1,0c0,0,0,0-0.1,0c0,0-0.1,0-0.1,0c0,0-0.1,0-0.1,0c0,0-0.1,0-0.1,0h0c0,0-0.1,0-0.1,0
			c-0.1,0-0.1,0-0.2,0c0,0,0,0-0.1,0c0,0-0.1,0-0.1,0c0,0,0,0,0,0c0,0-0.1,0-0.1,0c0,0-0.1,0-0.1,0c0,0-0.1,0-0.1,0
			c-0.1,0-0.1-0.1-0.2-0.1c0,0-0.1,0-0.1-0.1c0,0-0.1-0.1-0.1-0.1c-0.1-0.1-0.1-0.1-0.2-0.2c0,0-0.1-0.1-0.1-0.1
			c0,0-0.1-0.1-0.1-0.1c0,0,0-0.1-0.1-0.1c0,0,0-0.1,0-0.1c0,0,0-0.1,0-0.1c0,0,0,0,0-0.1c0,0,0,0,0-0.1c0,0,0,0,0-0.1
			c0,0,0-0.1,0-0.1c0,0,0-0.1,0-0.1c0,0,0-0.1,0-0.1c0,0,0,0,0,0c0,0,0,0,0-0.1c0,0,0,0,0-0.1v0c0,0,0-0.1,0-0.1c0,0,0,0,0-0.1
			c0,0,0-0.1,0-0.1c0,0,0-0.1,0-0.1c0,0,0-0.1,0-0.1c0,0,0-0.1,0-0.1c0,0,0-0.1,0-0.1c0,0,0,0,0,0c0,0,0,0,0,0
			c0-0.1,0.1-0.2,0.1-0.2c0-0.1,0.1-0.1,0.2-0.2c0,0,0,0,0,0c0,0,0,0,0,0c0,0,0.1-0.1,0.1-0.1c0,0,0,0,0.1,0c0,0,0.1,0,0.1-0.1
			c0,0,0.1,0,0.1-0.1c0,0,0.1,0,0.1,0c0,0,0.1,0,0.1-0.1c0.1,0,0.1,0,0.2,0c0,0,0.1,0,0.1,0c0,0,0.1,0,0.1,0c0.1,0,0.1,0,0.2,0
			c0,0,0.1,0,0.1,0s0.1,0,0.1,0c0.1,0,0.1,0,0.2,0c0,0,0.1,0,0.1,0c0.1,0,0.2,0,0.3,0.1c0,0,0.1,0,0.1,0c0,0,0,0,0,0c0,0,0,0,0,0
			c0,0,0,0,0.1,0c0,0,0.1,0,0.1,0c0.1,0.1,0.2,0.1,0.3,0.2c0,0,0,0,0.1,0.1c0.1,0.1,0.1,0.2,0.2,0.3c0,0,0,0,0,0.1
			c0,0.1,0.1,0.1,0.1,0.2c0,0,0,0.1,0,0.1c0,0,0,0.1,0,0.1c0,0,0,0.1,0,0.1c0,0,0,0,0,0.1c0,0,0,0.1,0,0.1c0,0,0,0,0,0.1
			C820,181,820,181,820,181.1z"/>
	</g>
	<g>
		<path class="st0" d="M826.6,183.5c0-0.1,0-0.1,0-0.1s-0.1-0.1-0.6-0.3c0.3,0,0.4,0,0.6-0.1c0.3,0,0.3,0,0.3,0s-0.1,0.4-0.3,1.1
			V183.5z"/>
	</g>
	<g>
		<path class="st0" d="M863.3,191v0.1h-0.1c-3.3,1.7-11.4,3.5-20.1,3.5c-4.6,0-9.3-0.4-13.7-1.6c-0.3-0.1-0.8-0.2-1.2-0.3
			c-0.8-0.3-1.6-0.5-2.5-0.9c-0.5-0.3-1.2-0.5-1.7-0.9h-0.1c0,0,0,0-0.1,0c-0.1-0.1-0.3-0.2-0.4-0.3c-2-0.9-3.7-2-5.5-3.2
			c-0.9-0.5-1.6-1.2-2.4-1.7c-1.3-1-2.6-2.1-3.7-3.1c-0.1-0.1-0.1-0.1-0.2-0.2c-0.1-0.1-0.2-0.2-0.3-0.2c0-0.1-0.1-0.1-0.1-0.2
			c-0.5-0.4-1-0.9-1.4-1.3c-0.2-0.2-0.4-0.4-0.7-0.7c-1.1-1.1-2.1-2.1-2.8-3.1c-2.5-2.7-4-4.8-4.3-5.1c0-0.1-0.1-0.1-0.1-0.1
			c0.1,0,0.1,0,0.1,0s0-0.1,0.1,0c0,0.1,0,0.1,0.1,0.1v-0.1c0-0.1,0-0.1,0-0.1c0.4-0.2,1.6-0.7,3.4-1.1c0.2,0,0.4-0.1,0.7-0.1
			c0.8-0.2,1.7-0.4,2.7-0.7c0.2-0.1,0.5-0.1,0.8-0.2c0.4-0.1,0.9-0.2,1.4-0.2c0.1-0.1,0.3-0.1,0.4-0.1c0.4-0.1,0.9-0.2,1.3-0.2
			c0.2-0.1,0.4-0.1,0.7-0.1c4-0.7,8.7-1.2,13.1-1c0.2,0,0.3,0,0.5,0.1c0.7,0,1.3,0,2,0.1c1.1,0.1,2.3,0.3,3.4,0.5
			c0.2,0,0.3,0,0.4,0.1c0.3,0,0.7,0.1,1,0.2c0.1,0,0.2,0,0.4,0.1c9.7,2.5,18.8,8,25.6,14.9c0,0-0.1,0-0.1,0.1
			c-2.3,0.8-4.7,1.3-7.3,1.4c-0.7,0-1.3,0.1-1.9,0l-11-2.8l-2.6-0.7l-4.5-1.2l-3.4-0.9l-2-0.5l-0.5-0.1l-10.2-2.6l2.4,0.8l7.8,2.3
			l0.5,0.1l2,0.5l3.4,1.2l8.2,2.5l0.3,0.1l5.4,1.6l11.3,3.4L863.3,191z"/>
	</g>
</g>
<g>
	<path class="st0" d="M775,390.3c-0.6,1.4-2.1,4.1-4.6,6.5c-2.7,2.7-5.7,4.3-9.1,4.3c-3,0.1-6.4-1.4-9.2-4.2c-5.3-5.4-5.5-13,0.5-19
		c2.1-2.1,4.2-3.3,5.3-3.7l1.3,2.5c-1.4,0.5-2.9,1.4-4.8,3.2c-4.4,4.4-4.5,9.9,0,14.4c4.5,4.6,10,4.5,14.2,0.3
		c1.5-1.5,2.3-2.8,2.6-3.6l-5.3-5.4l-3.6,3.6l-1.9-1.9l5.9-5.9L775,390.3z"/>
	<path class="st0" d="M764.9,368l2.8-1.9l12.6,18.8l9-6.1l1.5,2.3l-11.8,7.9L764.9,368z"/>
	<path class="st0" d="M784.6,355.9l6,13.8c2.3,5.2,5.5,6.4,8.6,5c3.4-1.5,4.7-4.8,2.4-9.9l-6-13.8l3-1.3l5.9,13.6
		c3.1,7.1,0.6,11.7-4.4,13.9c-4.8,2.1-9.5,1-12.7-6.3l-6-13.7L784.6,355.9z"/>
	<path class="st0" d="M813.2,348.8l-7.6,1.6l-0.6-2.7l18.4-4l0.6,2.7l-7.6,1.6l4.8,22.1l-3.2,0.7L813.2,348.8z"/>
	<path class="st0" d="M843.4,356.1l-9.8,0.4l0.4,9.1l11-0.4l0.1,2.7l-14.3,0.6l-1-25.3l13.8-0.5l0.1,2.7l-10.4,0.4l0.3,8l9.8-0.4
		L843.4,356.1z"/>
	<path class="st0" d="M848.2,368l4-25.1l3.6,0.6l6,14c1.4,3.2,2.4,6.1,3.2,8.9l0.1,0c0.2-3.4,0.6-6.5,1.2-10.4l1.7-10.5l3.1,0.5
		l-4,25.1l-3.3-0.5l-6-14c-1.3-3.1-2.5-6.2-3.3-9.1l-0.1,0c-0.3,3.2-0.8,6.2-1.4,10.4l-1.7,10.7L848.2,368z"/>
	<path class="st0" d="M888.9,351.7l12.4,5.7l-1.1,2.5l-9.4-4.3l-3.5,7.7l8.7,4l-1.1,2.5l-8.7-4l-4.8,10.4l-3-1.4L888.9,351.7z"/>
	<path class="st0" d="M908.1,361.7c1.5,0.7,3.7,1.9,5.5,3.1c2.9,2,4.4,3.9,4.9,5.9c0.4,1.6,0,3.5-1.1,5.1c-1.9,2.7-4.9,3.4-7.6,2.6
		l-0.1,0.1c1.2,1.7,1.1,3.8,0.1,6.3c-1.3,3.4-2.2,5.7-2.3,6.8l-2.8-1.9c0.1-0.9,0.9-2.9,2.1-5.9c1.4-3.3,1-5.2-1.4-7l-2.5-1.8
		l-6.3,9l-2.7-1.9L908.1,361.7z M904.3,373l2.8,1.9c2.9,2,5.8,1.7,7.5-0.7c1.9-2.7,0.7-5.2-2.1-7.2c-1.3-0.9-2.3-1.4-2.8-1.6
		L904.3,373z"/>
	<path class="st0" d="M927.1,394.4l-7-6.9l-6.4,6.5l7.8,7.8l-1.9,1.9l-10.2-10.1l17.9-18l9.8,9.7l-1.9,2l-7.4-7.4l-5.7,5.7l7,6.9
		L927.1,394.4z"/>
	<path class="st0" d="M938.9,410.1l-5.7-8l-7.5,5.3l6.4,9l-2.2,1.6l-8.3-11.7l20.7-14.7l8,11.2l-2.2,1.6l-6.1-8.5l-6.5,4.7l5.7,8
		L938.9,410.1z"/>
</g>
<g>
	<path class="st0" d="M842.5,616.8c-82.8,0-145.3-62.6-145.3-145.7c0-80,64.6-145,144-145c80.8,0,146.6,65,146.6,145
		C987.8,550.1,921.2,616.8,842.5,616.8z M841.2,332.4c-77.3,0-137.8,60.9-137.8,138.7c0,79.5,59.8,139.4,139.1,139.4
		c75.4,0,139.1-63.8,139.1-139.4C981.5,394.6,918.6,332.4,841.2,332.4z"/>
</g>
<g>
	<g>
		<g>
			<path class="st0" d="M932.5,476.1c-0.1,0.1-0.2,0.1-0.2,0.2c0,0.2,0,0.5,0,0.7c-0.1,1.3-0.1,2.7-0.2,4c0,0.4-0.2,0.7-0.2,1.1
				c0,0.4,0.1,0.7-0.2,1.1c-0.2,0.3,0.1,0.8-0.1,1.2c-0.3,1-0.1,2.1-0.6,3.1c-0.1,0.2,0,0.5,0,0.8c0,0.2-0.1,0.4-0.2,0.6
				c-0.3,1.4-0.6,2.9-0.9,4.3c-0.3,1.4-0.7,2.8-1.1,4.1c-0.5,1.7-1,3.4-1.7,5.1c-0.4,0.8-0.7,1.7-1,2.6c-0.3,0.9-0.7,1.7-1,2.6
				c-0.8,2.1-1.9,4.1-2.9,6.1c-0.7,1.5-1.6,2.9-2.4,4.3c-1.1,1.9-2.2,3.7-3.5,5.4c-0.6,0.9-1.2,1.7-1.8,2.6
				c-0.8,1.2-1.8,2.2-2.6,3.4c-0.4,0.6-1,1.1-1.5,1.7c-0.8,0.9-1.7,1.7-2.4,2.7c-1.3,1.7-2.9,3.1-4.5,4.6c-0.7,0.7-1.4,1.4-2.2,2
				c-1.1,0.8-2.1,1.7-3.1,2.6c-1.1,0.9-2.2,1.7-3.2,2.6c-1,0.9-2.2,1.5-3.3,2.3c-0.9,0.6-1.7,1.1-2.6,1.7c-0.6,0.4-1.2,0.7-1.8,1.1
				c-1.2,0.8-2.5,1.4-3.7,2.2c-0.8,0.5-1.7,0.7-2.6,1.2c-0.8,0.5-1.7,0.8-2.6,1.2c-1.1,0.5-2.2,1-3.3,1.4c-1.1,0.4-2.1,0.8-3.2,1.2
				c-1,0.4-2.1,0.8-3.2,1.1c-1.2,0.4-2.5,0.6-3.7,1c-1.3,0.4-2.7,0.6-4,1.1c-0.4,0.1-0.8-0.1-1.2,0.3c-1.2,0-2.3,0.6-3.5,0.6
				c-0.4,0.3-0.9,0.2-1.3,0.2c-0.3,0-0.6,0.1-0.9,0.2c-0.3,0.1-0.6-0.1-0.8,0.2c0,0.1-0.2,0-0.3,0c-1,0.1-2,0-3,0.2
				c-0.9,0.2-1.8,0-2.7,0.2c-1.1,0.3-2.2,0.1-3.3,0.2c-2.6,0-5.2,0-7.7,0c-0.6,0-1.1-0.2-1.6-0.2c-0.6,0-1.2,0.1-1.7,0
				c-0.6-0.2-1.2-0.1-1.7-0.2c-0.7-0.2-1.3-0.1-2-0.2c-1-0.1-1.9-0.4-2.9-0.4c-0.5-0.4-1.1-0.1-1.6-0.4c-0.5-0.2-1.1-0.1-1.6-0.3
				c-0.8-0.3-1.7-0.4-2.5-0.6c-0.8-0.2-1.7-0.4-2.4-0.6c-1-0.3-2-0.6-3-0.9c-1.7-0.5-3.4-1.1-5.2-1.7c-0.8-0.2-1.5-0.6-2.2-0.9
				c-1-0.4-2.1-0.8-3.1-1.2c-1.3-0.6-2.5-1.2-3.8-1.8c-1-0.5-2-1-3-1.5c-0.7-0.4-1.4-0.8-2.2-1.3c-0.5-0.3-1.1-0.6-1.6-0.9
				c-1.4-0.7-2.7-1.7-4-2.5c-1-0.6-2-1.4-3-2.1c-0.7-0.5-1.4-1.1-2.1-1.7c-1.2-1-2.4-1.9-3.6-2.9c-0.6-0.5-1.2-1.1-1.8-1.6
				c-2-1.6-3.6-3.5-5.4-5.2c-0.5-0.4-0.9-1-1.3-1.5c-0.4-0.5-0.9-0.8-1.2-1.4c-0.4-0.6-1-1.1-1.4-1.7c-0.6-0.7-1.2-1.5-1.8-2.2
				c-0.5-0.6-0.9-1.3-1.4-1.9c-1-1.2-1.8-2.4-2.6-3.7c-0.8-1.3-1.7-2.7-2.4-4.1c-0.5-1-1.2-2-1.7-3.1c-0.5-0.9-0.9-1.8-1.4-2.7
				c-0.4-0.9-0.9-1.8-1.3-2.7c-0.8-1.8-1.5-3.6-2.2-5.5c-0.6-1.5-1.2-3-1.6-4.5c-0.3-1.1-0.6-2.2-0.9-3.3c-0.3-0.8-0.5-1.7-0.7-2.5
				c-0.2-0.9-0.5-1.9-0.7-2.8c-0.2-1.1-0.5-2.1-0.6-3.2c-0.1-0.7-0.3-1.5-0.4-2.2c-0.1-0.5,0-1.1-0.2-1.6c-0.2-0.5,0-1.1-0.2-1.5
				c-0.2-0.6-0.1-1.1-0.2-1.7c-0.4-4.8-0.1-9.6-0.2-14.4c0-1.4,0.2-2.9,0.2-4.3c0-1,0.2-2.1,0.4-3.1c0.1-0.4,0.1-0.9,0.2-1.3
				c0.1-0.4,0.1-0.8,0.2-1.2c0.2-0.8,0.3-1.6,0.5-2.4c0.1-0.7,0.3-1.4,0.5-2.1c0.2-0.9,0.5-1.9,0.7-2.8c0.3-1.1,0.6-2.2,0.9-3.3
				c0.4-1.5,0.9-2.9,1.4-4.4c0.3-1,0.8-1.9,1.1-2.9c0.4-0.9,0.8-1.9,1.1-2.8c0.6-1.6,1.5-3.1,2.2-4.7c0.3-0.7,0.5-1.4,1-2.1
				c0.5-0.6,0.7-1.4,1.1-2c0.7-1.1,1.2-2.2,1.8-3.3c0.5-0.9,1.2-1.7,1.7-2.6c1.2-1.8,2.4-3.5,3.7-5.1c0.6-0.7,1.1-1.4,1.7-2.1
				c0.9-1.1,1.8-2,2.7-3.1c1.4-1.7,3.1-3.2,4.7-4.8c1.1-1.1,2.3-2.3,3.5-3.3c1.3-1,2.5-2.2,3.8-3.2c1-0.7,2-1.5,3-2.3
				c1.1-0.8,2.3-1.5,3.4-2.3c0.7-0.4,1.3-0.9,2-1.2c0.6-0.3,1.2-0.7,1.8-1.1c0.8-0.5,1.6-0.9,2.4-1.4c2-1.1,4.1-2,6.1-3
				c1.3-0.6,2.6-1.1,4-1.6c0.7-0.3,1.4-0.6,2.1-0.9c0.6-0.3,1.3-0.5,2-0.7c0.7-0.2,1.3-0.5,2-0.6c0.7-0.1,1.4-0.3,2-0.6
				c0.6-0.2,1.2-0.3,1.8-0.6c0.6-0.2,1.2-0.2,1.8-0.4c1-0.3,2.1-0.3,3.1-0.8c0.9,0.1,1.8-0.4,2.7-0.4c0.3,0,0.6-0.1,0.9-0.2
				c0.3-0.1,0.7-0.2,1-0.2c0.3,0,0.7,0.1,1,0c0.5-0.2,1,0,1.4-0.2c0.5-0.2,0.9-0.1,1.3-0.2c1.1-0.2,2.2-0.3,3.3-0.4
				c1.2-0.1,2.3,0,3.5,0c1.1,0,2.3,0,3.4,0c1.2,0,2.3,0,3.5,0c0.7,0,1.5,0.1,2.2,0.2c0.7,0,1.5-0.1,2.2,0c0.9,0.2,1.7,0.1,2.6,0.2
				c0.5,0,0.9,0.3,1.4,0.2c0.4-0.1,0.9-0.1,1.3,0.2c0.7-0.1,1.3,0.2,1.9,0.2c0.8,0.1,1.6,0.3,2.4,0.4c0.7,0.2,1.4,0.4,2.2,0.5
				c0.9,0.2,1.8,0.4,2.7,0.7c0.9,0.3,1.7,0.5,2.6,0.7c1.2,0.4,2.5,0.7,3.7,1.1c1.8,0.6,3.5,1.4,5.2,2c3.5,1.3,6.8,3.1,10.1,4.8
				c1.9,1,3.7,2.1,5.5,3.3c1,0.7,2,1.3,3,1.9c0.6,0.4,1.2,0.9,1.8,1.3c0.9,0.6,1.7,1.3,2.6,2c0.6,0.5,1.1,1.1,1.8,1.5
				c0.9,0.6,1.5,1.6,2.4,2.1c0.2,0.1,0.3,0.3,0.4,0.4c1.1,1.1,2.3,2.2,3.4,3.4c1.4,1.4,2.8,2.8,4.1,4.3c1.3,1.5,2.6,3.1,3.8,4.7
				c1.6,2.1,3.1,4.2,4.5,6.4c0.6,0.8,1,1.8,1.5,2.6c0.7,1.2,1.4,2.4,2,3.5c0.4,0.6,0.7,1.3,0.9,2c0.3,0.9,0.8,1.7,1.2,2.6
				c0.6,1.2,1.1,2.4,1.5,3.6c0.4,1.1,0.9,2.2,1.3,3.2c0.5,1.3,1,2.5,1.2,3.9c0.1,0.4,0.3,0.7,0.4,1.1c0.5,1.8,1,3.5,1.4,5.3
				c0.1,0.6,0.2,1.3,0.4,1.9c0.2,0.6,0.2,1.3,0.4,1.8c0.1,0.4,0,0.8,0.2,1.2c0.2,0.4,0.1,0.8,0.1,1.1c0.1,0.3,0.1,0.5,0.2,0.8
				c0,0.2-0.1,0.5,0.2,0.7c-0.3,0.3,0.1,0.5,0,0.7c-0.1,0.3-0.1,0.6,0,0.8c0.3,0.5,0.1,1.1,0.2,1.6c0.1,0.4,0.2,0.8,0.2,1.3
				c0,0.4-0.1,0.9,0.2,1.3c0.1,0.1,0,0.3,0,0.5c0,0.7,0,1.3,0,2c0,0.1,0.1,0.2,0.2,0.3C932.5,469.8,932.5,472.9,932.5,476.1z
				 M785.6,533c1.2,1,2.3,2,3.4,3c0,0,0.1,0,0.2,0.1c0.7,0.5,1.3,1,2,1.5c0.9,0.7,1.9,1.4,2.8,2.1c0.7,0.5,1.4,1,2.1,1.4
				c0.8,0.4,1.5,1,2.4,1.5c0.6,0.3,1.2,0.6,1.8,1c0.9,0.6,1.9,1.1,2.9,1.7c0.8,0.5,1.7,0.8,2.6,1.2c1.3,0.6,2.7,1.2,4,1.8
				c1.3,0.6,2.6,1,3.9,1.4c0.8,0.3,1.6,0.5,2.4,0.8c0.8,0.3,1.6,0.5,2.4,0.8c1,0.3,2.1,0.5,3.1,0.8c0.2,0.1,0.5,0.2,0.7,0.2
				c0.3,0,0.5,0,0.8,0.1c0.8,0.3,1.6,0.4,2.4,0.5c0.5,0.1,1,0.3,1.5,0.2c0.9,0.5,1.9,0.3,2.8,0.6c0.5,0.1,1,0.1,1.5,0.2
				c0.5,0.1,1,0.1,1.5,0.2c0.7,0.1,1.4-0.1,2,0.2c1.4-0.1,2.8,0.2,4.2,0.2c2.2,0,4.3,0.2,6.5-0.2c1.4,0.1,2.7-0.2,4.1-0.2
				c0.1,0,0.2,0,0.3,0c0.3-0.4,0.7-0.1,1.1-0.2c0.4-0.1,0.8-0.1,1.2-0.2c0.7-0.1,1.4,0,2-0.2c0.5-0.2,1,0,1.5-0.3
				c0.4-0.3,1.1-0.1,1.6-0.3c0.4-0.1,0.8-0.1,1.2-0.2c1.1-0.4,2.2-0.4,3.3-0.7c0.9-0.3,1.8-0.5,2.7-0.8c1.1-0.4,2.2-0.7,3.2-1
				c1.4-0.5,2.7-0.9,4.1-1.5c1-0.4,1.9-0.8,2.9-1.2c0.6-0.3,1.2-0.5,1.7-0.8c0.6-0.3,1.2-0.5,1.8-0.8c1.4-0.6,2.6-1.5,4-2.2
				c1.6-0.8,3-1.8,4.4-2.7c1.2-0.8,2.4-1.6,3.5-2.5c1.1-0.9,2.3-1.7,3.4-2.6c0.4-0.4,0.9-0.8,1.3-1.1c0.9-0.7,1.7-1.3,2.5-2.1
				c0.4-0.4,0.9-0.9,1.3-1.3c2-2.1,4.1-4,5.9-6.3c1-1.3,2.1-2.6,3.1-3.9c0.8-1.1,1.6-2.2,2.3-3.3c1-1.6,2.1-3.1,3-4.7
				c0.4-0.8,1-1.6,1.4-2.5c0.4-0.8,1-1.6,1.3-2.5c0.4-1,0.9-1.9,1.4-2.9c0.4-1,0.9-2,1.3-3c0.6-1.4,0.9-2.8,1.5-4.2
				c0.4-0.9,0.6-1.9,0.9-2.8c0.2-0.8,0.5-1.6,0.7-2.4c0.2-0.8,0.4-1.6,0.6-2.4c0.2-1.2,0.6-2.2,0.6-3.4c0.4-0.3,0-0.8,0.3-1.1
				c0.3-0.3,0-0.7,0.1-1c0.2-0.4,0.1-0.7,0.2-1.1c0-0.3,0.2-0.5,0.2-0.8c0-0.3-0.1-0.7,0-0.9c0.3-0.4,0.1-0.8,0.2-1.2
				c0.1-0.4,0.2-0.8,0.2-1.2c0.1-0.7,0-1.3,0.2-2c0.2-0.7,0.1-1.4,0-2.1c-0.1-0.7,0.3-1.4,0.2-2.1c-0.1-1.6,0.1-3.1-0.2-4.7
				c-0.2-1.2,0.1-2.4-0.2-3.6c-0.2-0.6,0.1-1.2-0.2-1.8c-0.2-0.5,0.1-1.2-0.3-1.8c0.1-1.1-0.4-2.2-0.4-3.3c0-0.2-0.1-0.5-0.2-0.7
				c0-0.3,0-0.6,0-0.8c-0.3-0.7-0.3-1.4-0.5-2.2c-0.1-0.5-0.2-1-0.3-1.5c-0.2-0.5,0.1-1-0.3-1.5c-0.2-1.2-0.6-2.3-0.9-3.4
				c-0.5-1.6-1.1-3.2-1.6-4.8c-0.8-2.4-1.8-4.8-2.9-7.1c-1-2.1-2.1-4.2-3.3-6.2c-0.9-1.7-2-3.2-3-4.8c-0.5-0.9-1.1-1.7-1.8-2.5
				c-0.4-0.5-0.7-1-1.1-1.5c-0.4-0.5-0.7-1.1-1.2-1.6c-0.4-0.4-0.9-0.9-1.2-1.4c-0.2-0.4-0.6-0.7-0.9-1c-0.3-0.4-0.6-0.7-0.9-1.2
				c-7,7.1-14.1,14.1-21,21.1c-1-0.3-2.1-0.6-3.1-0.9c-1.1-0.2-2.1-0.5-3.2-0.8c-1.1-0.2-2.1-0.5-3.4-0.7
				c8.3-8.3,16.5-16.5,24.6-24.7c0,0-0.1-0.1-0.1-0.2c-1-0.7-1.9-1.7-3-2.4c-0.9-0.6-1.6-1.4-2.5-2c-1.1-0.8-2.2-1.5-3.2-2.3
				c-1.4-0.9-2.7-1.8-4.2-2.7c-0.6-0.4-1.3-0.6-1.9-1c-0.9-0.6-1.9-1.1-2.9-1.7c-0.6-0.3-1.2-0.6-1.8-0.9c-1.5-0.7-3-1.4-4.6-2
				c-0.8-0.3-1.5-0.7-2.3-0.9c-2.4-0.7-4.7-1.7-7.1-2.3c-0.9-0.2-1.8-0.6-2.7-0.7c-0.8-0.1-1.6-0.5-2.4-0.4
				c-1.2-0.5-2.4-0.5-3.7-0.8c-0.2,0-0.5-0.2-0.7-0.2c-0.3,0-0.7,0.1-0.9,0c-0.4-0.2-0.9-0.2-1.3-0.2c-0.5,0-0.9-0.2-1.3-0.2
				c-0.9-0.1-1.8,0-2.7-0.2c-0.8-0.2-1.7-0.1-2.5,0c-0.9,0.1-1.7-0.2-2.5-0.2c-1.6,0-3.1,0-4.7,0c-1.5,0-3.1,0.1-4.6,0.2
				c-0.3,0-0.6,0.2-0.9,0.2c-0.3,0-0.7,0-1,0c0,0-0.1,0-0.1,0c-0.2,0.3-0.5,0.1-0.8,0.2c-0.3,0.1-0.5,0.2-0.8,0.2
				c-0.8,0-1.5,0.2-2.2,0.4c-1,0.2-2.1,0.3-3.1,0.6c-0.6,0.2-1.2,0.2-1.7,0.4c-0.6,0.2-1.2,0.3-1.7,0.4c-0.6,0.1-1.1,0.3-1.7,0.5
				c-0.6,0.1-1.2,0.4-1.8,0.5c-1,0.3-2,0.7-3.1,1c-1.7,0.6-3.3,1.2-5,1.9c-0.8,0.3-1.5,0.8-2.2,1c-0.7,0.2-1.3,0.6-1.9,0.9
				c-0.7,0.3-1.3,0.6-2,1c-1.5,0.7-2.9,1.6-4.3,2.4c-0.5,0.3-0.9,0.5-1.4,0.8c-1.6,1.1-3.2,2.2-4.8,3.3c-1.2,1-2.5,1.9-3.8,2.9
				c-0.9,0.7-1.7,1.4-2.6,2.2c-1,0.9-1.9,1.9-2.9,2.8c-0.7,0.6-1.4,1.4-2,2.1c-0.8,1-1.8,1.7-2.5,2.7c-0.6,0.7-1.2,1.4-1.8,2
				c-0.1,0.1-0.2,0.1-0.2,0.2c-0.3,0.7-0.9,1.3-1.4,1.9c-0.9,1-1.6,2.2-2.4,3.3c-0.7,0.9-1.3,1.9-1.9,2.9c-0.9,1.3-1.6,2.6-2.4,4
				c-0.7,1.3-1.4,2.6-2,3.9c-0.7,1.7-1.5,3.3-2.2,5c-0.2,0.5-0.4,0.9-0.6,1.3c-0.5,1.6-1.1,3.1-1.6,4.6c-0.4,1.2-0.9,2.4-1.1,3.7
				c-0.1,0.9-0.4,1.7-0.6,2.6c-0.1,0.6-0.3,1.1-0.4,1.7c-0.1,0.6-0.2,1.2-0.4,1.8c-0.1,0.5,0,1-0.2,1.4c-0.2,0.4,0,0.8-0.2,1.1
				c-0.2,0.4-0.2,0.7-0.2,1.1c0,0.1,0,0.3,0,0.4c-0.3,0.3-0.1,0.6-0.2,0.9c-0.1,0.3-0.2,0.7-0.2,1c-0.1,0.6,0.1,1.2-0.2,1.8
				c0.1,1-0.2,2.1-0.2,3.1c0.1,3.6-0.2,7.1,0.2,10.7c0.1,1,0.1,2,0.2,3c0.1,0.5,0,1,0.2,1.5c0.3,1,0.2,2.1,0.6,3.1
				c0.2,0.5,0.1,1.1,0.2,1.6c0.1,0.4,0.1,0.8,0.2,1.2c0.5,1.3,0.5,2.7,1,4.1c0.3,0.9,0.5,1.7,0.7,2.6c0.3,0.9,0.6,1.8,0.9,2.7
				c0.6,1.7,1.2,3.5,1.9,5.2c0.4,1.1,0.9,2.1,1.4,3.2c0.6,1.3,1.1,2.6,1.8,3.8c0.9,1.4,1.6,2.9,2.4,4.4c0.3,0.5,0.5,0.9,0.8,1.3
				c1.2,1.8,2.3,3.6,3.7,5.3c0.8,1,1.6,2,2.3,3c0.6,0.8,1.3,1.4,1.8,2.2c0.2,0.3,0.5,0.7,0.9,0.8c0.1-0.1,0.1-0.1,0.2-0.1
				c3-3,6-6,9-9c3-3,5.9-6.1,9-8.9c1.1-1,2.2-2.1,3.3-3.1c0.2-0.2,0.5-0.3,0.8-0.5c0.1,0.7,0.3,1.3,0.3,2c0,0.7,0.2,1.3,0.2,2
				c0,0.6,0,1.3,0.2,1.9c0.2,0.6,0.3,1.3,0.5,1.9c0.2,0.6,0.3,1.2,0.4,1.8C797.7,520.9,791.7,526.9,785.6,533z"/>
		</g>
		<g>
			<path class="st0" d="M841.1,450.4c-0.3-0.2-0.6-0.5-0.9-0.8c-0.3-0.2-0.5-0.5-0.8-0.7c-0.3-0.1-0.4-0.6-0.7-0.8
				c-1.6-1.6-2.9-3.3-4.1-5.2c-0.5-0.7-0.9-1.5-1.3-2.3c-0.3-0.6-0.6-1.3-0.9-1.9c-0.5-1.2-1-2.4-1.3-3.7c-0.3-1-0.5-2-0.7-3
				c-0.2-0.7-0.2-1.4-0.2-2.1c0-1.3-0.4-2.7-0.2-4c0.1-0.5,0.2-1.1,0.2-1.6c0-0.5-0.1-1.1,0-1.6c0.1-0.5,0.2-0.9,0.2-1.4
				c0-0.5,0.2-0.9,0.3-1.3c0.1-0.5,0.1-1,0.3-1.5c0.2-0.4,0.3-0.9,0.5-1.4c0.5-1.6,1.2-3,1.9-4.5c0.9-1.6,1.7-3.2,2.9-4.6
				c0.8-0.9,1.5-1.9,2.3-2.7c0.9-0.8,1.7-1.7,2.6-2.6c0.7,0.7,1.5,1.4,2.1,2.2c0.8,1.1,1.8,2.1,2.6,3.2c1.6,2,2.8,4.2,3.9,6.6
				c0.5,1.1,1,2.2,1.2,3.5c0.5,0.8,0.4,1.8,0.8,2.7c0.3,0.6,0.1,1.3,0.2,2c0.4,2.1,0.1,4.3,0.2,6.4c0,0.5,0,0.9-0.2,1.4
				c-0.1,0.4,0.1,0.9-0.2,1.4c-0.1,0.3-0.1,0.7-0.2,1c-0.1,0.3-0.1,0.7-0.2,1.1c-0.1,0.3-0.1,0.7-0.2,1c-0.3,0.9-0.5,1.8-0.9,2.6
				c-0.3,0.7-0.6,1.5-1,2.2c-0.6,1-1.2,2-1.8,3c-0.7,1.4-1.8,2.5-2.7,3.7c-0.8,1.1-1.9,1.9-2.8,2.9
				C841.8,450,841.5,450.2,841.1,450.4z"/>
		</g>
		<g>
			<path class="st0" d="M842.1,532.9c0.1-0.7,0.2-1.5,0.2-2.2c0-0.7-0.1-1.5,0-2.2c0.1-0.7,0-1.4,0.2-2.1c0.3-1,0.1-2.1,0.6-3
				c0-1.2,0.5-2.3,0.6-3.5c0.1-0.7,0.4-1.4,0.6-2c0.5-1.4,1-2.8,1.7-4.1c0.6-1.1,1.2-2.1,2-3.1c0.7-1,1.5-2,2.4-2.8
				c1.3-1.2,2.7-2.2,4.2-3.1c1.2-0.7,2.5-1.3,3.8-1.9c1.1-0.5,2.2-0.8,3.4-1.1c0.5-0.1,1-0.1,1.5-0.3c0.5-0.2,1,0,1.5-0.1
				c1.9-0.4,3.9-0.1,5.8-0.2c0.9,0,1.7,0.2,2.6,0.2c0.6,0,1.1,0.5,1.2,1.1c0.2,0.8,0.5,1.7,0.1,2.5c-0.1,0.1,0.1,0.3,0.1,0.5
				c0,0.1-0.2,0.3-0.2,0.4c0.1,0.7-0.1,1.3-0.2,2c-0.1,0.6-0.3,1.2-0.4,1.8c-0.4,2-0.8,3.3-1.5,5.2c-0.3,0.8-0.7,1.4-1,2.2
				c-0.3,0.7-0.8,1.3-1.2,2c-1.1,2-2.7,3.6-4.4,5.1c-1.2,1.1-2.4,2-3.8,2.9c-1.1,0.7-2.2,1.4-3.3,2.1c-1.1,0.6-2.1,1.1-3.2,1.6
				c-0.7,0.4-1.5,0.7-2.3,1c-1.7,0.6-3.5,1.1-5.2,1.7c-1.1,0.4-2.3,0.6-3.4,0.9c-0.3,0.1-0.6,0.3-0.9,0.2c-0.3-0.1-0.5,0.1-0.8,0.2
				c-0.3,0.1-0.5-0.1-0.6-0.4c-0.1-0.2-0.2-0.4-0.2-0.6C842.1,533.5,842.1,533.2,842.1,532.9C842.1,532.9,842.1,532.9,842.1,532.9z"
				/>
		</g>
		<g>
			<path class="st0" d="M867.7,440.1c0.6,0,1.1,0,1.5,0c1,0.1,2,0.1,3,0.2c0.5,0.1,1,0.3,1.5,0.4c0.3,0,0.4,0.2,0.5,0.4
				c0.3,0.7,0.6,1.4,0.4,2.2c-0.4,0.1,0.3,0.4-0.1,0.5c-0.1,0.1-0.1,0.4-0.1,0.6c0.1,1-0.1,1.9-0.2,2.8c-0.2,1.3-0.3,2.7-1,4
				c0,1.1-0.6,1.9-1,2.9c-0.2,0.4-0.3,0.8-0.5,1.2c-0.7,1.6-1.7,3-2.8,4.4c-0.9,1.2-1.8,2.4-3,3.3c-0.9,0.8-1.8,1.6-2.8,2.3
				c-1,0.6-1.9,1.3-2.9,2c-0.8,0.6-1.7,1.1-2.7,1.5c-1.7,0.8-3.3,1.7-5.1,2.2c-1.2,0.7-2.6,0.8-3.8,1.4c-0.7-0.1-1.2,0.3-1.8,0.4
				c-0.6,0.1-1.2,0.3-1.8,0.5c-0.8,0.2-1.6,0.4-2.4,0.3c-0.3,0-0.4-0.2-0.5-0.4c-0.1-0.3-0.2-0.7-0.2-1c-0.1-1.6,0.3-3.3,0.2-4.9
				c0.3-0.6,0.1-1.3,0.2-1.9c0.2-1,0.2-2.1,0.6-3.1c-0.1-0.9,0.5-1.7,0.4-2.6c0.3-0.5,0.2-1,0.4-1.5c0.2-0.4,0.3-0.9,0.5-1.4
				c0.6-1.8,1.5-3.4,2.4-5.1c0.7-1.2,1.6-2.4,2.5-3.4c0.7-0.8,1.6-1.5,2.4-2.3c1-0.9,2-1.7,3.2-2.3c0.7-0.4,1.4-0.8,2.2-1.2
				c0.7-0.3,1.5-0.6,2.2-0.9c0.4-0.2,0.8-0.3,1.2-0.4c0.4-0.1,0.8-0.2,1.2-0.3c0.4-0.1,0.9-0.2,1.3-0.2c0.6-0.1,1.3-0.1,1.9-0.2
				C865.9,440,866.9,440.2,867.7,440.1z"/>
		</g>
		<g>
			<path class="st0" d="M839.8,534.9c-0.6-0.1-1.1-0.3-1.7-0.4c-0.7-0.1-1.4-0.4-2.2-0.5c-0.7-0.1-1.4-0.4-2-0.6c-1-0.3-2-0.6-3-1
				c-1.9-0.6-3.7-1.4-5.5-2.3c-1.8-0.9-3.6-1.9-5.3-3.1c-0.6-0.4-1.3-0.9-1.9-1.4c-1.3-1-2.5-2.1-3.6-3.2c-0.9-0.9-1.5-1.9-2.2-2.9
				c-0.8-1.2-1.5-2.5-2.1-3.8c-0.6-1.5-1.2-2.9-1.6-4.5c-0.2-1-0.3-2.1-0.6-3c-0.2-0.8,0.1-1.6-0.4-2.3c0-1.1,0-2.2,0-3.3
				c0-0.7,0.3-0.9,1-1.1c1.2-0.2,2.4-0.4,3.6-0.4c0.4,0,0.7-0.1,1.1-0.2c0.4,0,0.8-0.1,1.2,0c0.5,0.1,0.9,0.2,1.4,0.2
				c0.5,0,1-0.1,1.4,0.2c0.1,0,0.2,0,0.3,0c1.2,0,2.3,0.4,3.5,0.7c1.3,0.3,2.6,0.9,3.8,1.3c1.1,0.4,2.1,1,3.1,1.7
				c1.5,1,3.1,2.1,4.3,3.5c1.1,1.3,2.2,2.7,3.1,4.2c0.7,1.2,1.3,2.5,1.9,3.8c0.5,1.1,0.9,2.3,1.1,3.5c0.2,1,0.4,2,0.6,2.9
				c0.2,0.9,0.3,1.7,0.4,2.6c0.1,0.5,0,1.1,0.2,1.6c0.2,0.9,0,1.8,0.2,2.7c0.3,1.3,0.1,2.5,0.2,3.8
				C840.2,534.2,840,534.5,839.8,534.9z"/>
		</g>
		<g>
			<path class="st0" d="M839.7,473.5c-1.2,0.1-2.3-0.2-3.4-0.5c-0.9-0.2-1.9-0.5-2.8-0.7c-1-0.3-2.1-0.6-3.1-1
				c-2.5-0.9-4.9-2.1-7.2-3.4c-0.8-0.4-1.5-0.9-2.2-1.4c-0.7-0.5-1.4-1-2.2-1.4c-0.4-0.2-0.8-0.6-1.2-1c-0.8-0.7-1.6-1.4-2.4-2.2
				c-0.8-0.9-1.8-1.8-2.3-2.9c-1.3-1.3-2-3-2.7-4.6c-0.6-1.2-1.1-2.5-1.4-3.9c-0.2-0.9-0.5-1.8-0.6-2.7c0-0.4-0.3-0.7-0.2-1.1
				c0-0.3,0-0.7-0.2-1c-0.2-0.3,0-0.8,0-1.2c0-0.4,0-0.7,0-1.1c0-0.1-0.1-0.3-0.2-0.4c0-0.1,0.1-0.2,0.1-0.3c-0.4-0.5,0-1,0.2-1.4
				c0.3-0.5,0.8-0.8,1.4-0.9c0.7-0.1,1.5-0.1,2.2-0.4c0.2-0.1,0.5,0,0.7,0c0.6,0,1.3,0,1.9,0c1.2-0.1,2.5,0.1,3.7,0.3
				c1.1,0.1,2.2,0.2,3.3,0.6c1.9,0.6,3.8,1.2,5.5,2.3c0.9,0.6,1.9,1.1,2.8,1.7c0.3,0.2,0.7,0.4,1,0.7c0.9,0.8,1.9,1.6,2.7,2.5
				c0.8,0.8,1.5,1.7,2.1,2.7c0.7,1.2,1.3,2.4,1.9,3.7c0.3,0.8,0.7,1.6,0.9,2.4c0.2,0.8,0.5,1.6,0.7,2.4c0.1,0.4,0.1,0.8,0.2,1.2
				c0.2,0.5,0,1.2,0.3,1.6c0.3,0.5,0,1,0.3,1.5c0.2,0.4,0.1,1,0.2,1.5c0.2,0.9,0.2,1.9,0.2,2.9c0,0.7,0.3,1.4,0.2,2.1
				c0,0.7,0,1.5,0,2.2C840.1,472.7,840,473.1,839.7,473.5z"/>
		</g>
		<g>
			<path class="st0" d="M842.4,504.3c-0.4-1.2-0.3-2.3-0.3-3.4c0-0.6,0.1-1.1,0.2-1.7c0-0.6-0.1-1.2,0-1.8c0.1-0.6,0.1-1.2,0.2-1.7
				c0.2-0.9,0.2-1.9,0.5-2.9c0.1-0.2,0-0.5,0-0.8c0-0.2,0.1-0.5,0.2-0.7c0.1-0.6,0.3-1.1,0.4-1.7c0.1-0.6,0.5-1.1,0.4-1.7
				c0.5-0.6,0.6-1.5,0.9-2.2c0.4-0.9,0.8-1.8,1.3-2.7c0.6-1.1,1.7-2.7,2.3-3.4c0.7-0.9,1.4-1.6,2.2-2.4c1.5-1.5,3.2-2.7,5.1-3.6
				c1.7-0.8,3.4-1.5,5.2-2.1c0.9-0.3,1.8-0.5,2.8-0.5c1.1,0.1,2.1-0.3,3.2-0.2c1.1,0.1,2.2,0,3.3,0c1,0,1.9,0.3,2.9,0.2
				c0.3,0,0.9,0.1,1,0.5c0.1,0.3,0.2,0.7,0.2,1.1c0,0.8,0,1.7,0,2.5c0,0.9,0,1.9-0.2,2.8c-0.2,0.8-0.2,1.6-0.5,2.4
				c-0.2,0.7-0.4,1.5-0.6,2.2c-0.5,1.5-1.2,3-1.9,4.4c-0.6,1.3-1.4,2.4-2.3,3.5c-1,1.3-2.1,2.4-3.3,3.4c-1.3,1.1-2.6,2.1-4.1,3.1
				c-0.7,0.4-1.3,0.9-2,1.3c-1.1,0.7-2.8,1.5-4.4,2.3c-1.1,0.5-2.1,1-3.2,1.3c-1.1,0.4-2.2,0.7-3.3,1.1c-1,0.3-2,0.5-3,0.9
				c-0.3,0.2-0.7,0.1-1.1,0.2C843.8,504.2,843.1,504.2,842.4,504.3z"/>
		</g>
		<g>
			<path class="st0" d="M807.7,471.8c0.2-0.1,0.3-0.3,0.5-0.5c0.2-0.1,0.4-0.4,0.6-0.3c0.7,0.1,1.4-0.3,2.1-0.2c1,0,2,0.1,3,0
				c1.6-0.1,3.1,0.2,4.7,0.2c0.7,0,1.4,0.2,2.1,0.4c1.2,0.3,2.4,0.7,3.5,1.2c2,0.9,4,1.8,5.7,3.2c0.7,0.6,1.5,1.2,2.2,1.8
				c1.6,1.7,2.9,3.5,4,5.6c0.9,1.9,1.6,3.8,2.3,5.8c0.1,0.4,0.1,0.9,0.3,1.3c0.4,1.1,0.4,2.3,0.8,3.4c-0.1,0.7,0.2,1.3,0.2,2
				c0,0.5,0.1,1,0.2,1.5c0,0.5-0.1,1,0,1.5c0.3,0.8,0.1,1.5,0.2,2.3c0,0.8,0,1.6,0,2.4c0,0.2-0.1,0.4-0.2,0.7
				c-0.3-0.1-0.6,0.1-1.1-0.1c-0.4-0.2-0.9-0.1-1.4-0.2c-1.2-0.3-2.3-0.6-3.5-0.9c-1-0.3-2-0.8-3.1-0.9c-0.4-0.1-0.8-0.3-1.2-0.5
				c-1-0.4-2-0.9-3-1.3c-1-0.5-2-0.9-2.9-1.4c-1.1-0.6-2.2-1.4-3.3-2.1c-0.8-0.5-1.7-1.1-2.5-1.7c-0.1,0-0.1-0.1-0.1-0.1
				c-0.6-0.5-1.2-1.1-1.8-1.6c-0.6-0.6-1.2-1.1-1.8-1.8c-1.6-1.9-3-3.9-4-6.2c-0.5-1.1-1-2.1-1.2-3.3c-0.2-1-0.6-1.9-0.7-2.9
				c-0.1-0.8-0.3-1.6-0.4-2.4c-0.1-0.8-0.1-1.7-0.2-2.5c0-0.2-0.3-0.6-0.2-0.7c0.2-0.3,0.2-0.5,0.2-0.8
				C807.7,472.4,807.7,472.1,807.7,471.8z"/>
		</g>
	</g>
</g>
<g>
	<path class="st0" d="M727.2,93.6c0.5-1.6,1.4-3.7,2.4-5.6c1.6-3,3.2-4.7,5.2-5.4c1.5-0.6,3.4-0.4,5.1,0.5c2.9,1.5,3.8,4.4,3.4,7
		l0.1,0c1.5-1.3,3.6-1.5,6.1-0.8c3.4,0.9,5.8,1.5,6.9,1.5l-1.6,2.9c-0.8,0-2.9-0.5-6-1.4c-3.4-1-5.1-0.4-6.6,2.1l-1.4,2.7l9.4,5.1
		l-1.5,2.8L727.2,93.6z M738.7,96.1l1.5-2.9c1.6-3,1-5.8-1.5-7.1c-2.8-1.5-5.1-0.1-6.7,2.9c-0.7,1.4-1.1,2.3-1.3,2.9L738.7,96.1z"/>
	<path class="st0" d="M756.9,71.4l-5.9,7.5l7,5.5l6.6-8.4l2.1,1.7l-8.6,11l-19.5-15.3l8.3-10.5l2.1,1.7l-6.3,8l6.1,4.8l5.9-7.5
		L756.9,71.4z"/>
	<path class="st0" d="M766.5,72.4c1.7-0.3,3.7-1.1,5.3-2.6c2.4-2.2,2.7-4.7,1-6.6c-1.5-1.7-3.4-1.8-6.7-0.5c-4,1.6-7.3,1.7-9.6-0.9
		c-2.6-2.9-2.1-7.1,1.5-10.3c1.9-1.7,3.6-2.5,4.9-2.7l1.1,2.5c-0.9,0.2-2.6,0.8-4.3,2.3c-2.5,2.3-2.1,4.6-1,5.9
		c1.5,1.7,3.4,1.6,6.8,0.3c4.2-1.6,7.1-1.5,9.5,1.2c2.6,2.8,2.7,7.2-1.6,11.1c-1.8,1.6-4.2,2.8-5.8,3L766.5,72.4z"/>
	<path class="st0" d="M787.3,47.1l-8.1,5.1l4.8,7.5L793,54l1.4,2.3l-11.8,7.4l-13.2-20.9l11.3-7.1l1.4,2.3l-8.6,5.4l4.2,6.6l8.1-5.1
		L787.3,47.1z"/>
	<path class="st0" d="M798.4,45.9l0.4,8.2l-3.1,1.2l-1.1-26.1l3.6-1.4l16.8,20l-3.2,1.2l-5.3-6.3L798.4,45.9z M805.1,40.6l-4.9-5.7
		c-1.1-1.3-2-2.5-2.8-3.7l-0.1,0c0.2,1.5,0.4,3,0.5,4.6l0.3,7.6L805.1,40.6z"/>
	<path class="st0" d="M813.6,23.4c1.5-0.6,3.8-1.2,6-1.5c3.4-0.6,5.7-0.3,7.4,0.8c1.4,0.9,2.4,2.4,2.7,4.3c0.5,3.2-1.1,5.7-3.5,7
		l0,0.1c2,0.3,3.4,1.9,4.4,4.3c1.4,3.3,2.4,5.5,3,6.4l-3.3,0.6c-0.5-0.7-1.4-2.6-2.6-5.5c-1.3-3.2-2.9-4.3-5.7-3.9l-3,0.5l1.8,10.6
		l-3.2,0.5L813.6,23.4z M818.7,33.9l3.2-0.6c3.4-0.6,5.2-2.8,4.7-5.6c-0.5-3.1-3.1-4.1-6.4-3.6c-1.5,0.3-2.6,0.5-3.1,0.8L818.7,33.9
		z"/>
	<path class="st0" d="M853.9,44.2c-1.1,0.6-3.5,1.1-6.6,1c-7-0.1-12.1-4.7-11.9-12.8c0.2-7.8,5.5-12.9,13.2-12.7
		c3,0.1,5,0.8,5.8,1.2l-0.9,2.6c-1.2-0.6-2.9-1.1-4.9-1.1c-5.8-0.1-9.7,3.5-9.9,10c-0.1,6.1,3.3,10,9.3,10.1c2,0,4-0.3,5.3-0.9
		L853.9,44.2z"/>
	<path class="st0" d="M865.7,22L863.3,32l11.7,2.8l2.4-10.1l3.2,0.7l-5.7,24.1l-3.2-0.7l2.7-11.3l-11.7-2.7L860,46.1l-3.2-0.7
		l5.7-24.1L865.7,22z"/>
	<path class="st0" d="M898.8,33.4c1.4,0.4,3.4,1.3,5.3,2.4c2.8,1.6,4.3,3.1,5,4.9c0.6,1.5,0.6,3.1-0.3,4.8c-1.2,2.1-3.6,3.1-6.3,2.6
		l-0.1,0.1c1.8,1.6,3.2,4.7,1.4,7.9c-1.1,1.9-2.6,2.9-4.3,3.3c-2.3,0.5-5-0.2-8.5-2.2c-1.9-1.1-3.3-2.1-4.2-2.7L898.8,33.4z
		 M890.7,54.1c0.5,0.4,1.3,0.9,2.3,1.4c2.9,1.6,6.1,2.1,7.9-1c1.7-2.9-0.2-5.6-3.2-7.3l-2.3-1.3L890.7,54.1z M896.5,43.8l2.5,1.4
		c2.9,1.7,5.5,1.1,6.7-1c1.4-2.5,0.1-4.6-2.7-6.2c-1.3-0.7-2.1-1.1-2.6-1.2L896.5,43.8z"/>
	<path class="st0" d="M911.2,61.1l-7.1,4.2l-2.5-2.2L924.3,50l2.9,2.5l-9.9,24.2l-2.6-2.2l3.1-7.6L911.2,61.1z M919,64.6l2.8-7
		c0.6-1.6,1.3-2.9,2-4.2l-0.1-0.1c-1.2,0.8-2.5,1.8-3.9,2.6l-6.5,3.8L919,64.6z"/>
	<path class="st0" d="M921.8,76.3c0.2,1.7,0.9,3.7,2.2,5.5c2,2.6,4.6,3,6.5,1.5c1.8-1.4,2-3.3,1-6.7c-1.3-4.1-1.2-7.4,1.5-9.5
		c3-2.4,7.3-1.6,10.2,2.2c1.5,2,2.2,3.8,2.4,5l-2.6,0.9c-0.1-0.9-0.6-2.6-1.9-4.4c-2.1-2.7-4.5-2.4-5.8-1.4
		c-1.8,1.4-1.8,3.3-0.7,6.8c1.3,4.3,1,7.2-1.9,9.4c-3,2.4-7.4,2.2-11-2.4c-1.5-1.9-2.5-4.4-2.6-6L921.8,76.3z"/>
	<path class="st0" d="M945.6,98.8l-4.5-8.4l-7.9,4.2l5.1,9.4l-2.4,1.3L929.4,93l21.8-11.7l6.4,11.8l-2.4,1.3l-4.8-9l-6.9,3.7
		l4.5,8.4L945.6,98.8z"/>
	<path class="st0" d="M960.7,101.2c0.9,1.8,1.8,3.9,2.5,6.3c1.3,4.4,1.2,7.8,0,10.5c-1.3,2.7-3.6,4.8-7.5,5.9
		c-3.9,1.2-7.4,0.9-10.2-0.6c-2.9-1.6-5.2-4.9-6.6-9.5c-0.7-2.2-1.1-4-1.4-5.6L960.7,101.2z M940.7,110.6c0.1,0.8,0.4,1.9,0.8,3.1
		c2,6.6,6.7,9,13.1,7c5.6-1.7,8.2-5.9,6.2-12.4c-0.5-1.6-1-2.7-1.4-3.5L940.7,110.6z"/>
</g>
<g>
	<path class="st0" d="M786,232.5l11.5,6.7l-1.3,2.3l-8.7-5l-4.1,7.1l8.1,4.7l-1.3,2.3l-8.1-4.7l-5.6,9.7l-2.8-1.6L786,232.5z"/>
	<path class="st0" d="M817,259c-2.7,8.1-9,10.7-15,8.7c-6.2-2.1-8.9-8.4-6.6-15.5c2.5-7.5,8.7-10.8,15-8.7
		C816.8,245.7,819.3,252,817,259z M798.6,253.3c-1.7,5.1-0.5,10.5,4.4,12.1c4.8,1.6,9-1.9,10.8-7.3c1.6-4.7,0.7-10.4-4.3-12.1
		C804.4,244.3,800.3,248.1,798.6,253.3z"/>
	<path class="st0" d="M824,248.1c1.6-0.1,4-0.1,6.2,0.2c3.4,0.4,5.5,1.3,6.9,2.8c1.1,1.2,1.6,3,1.4,4.9c-0.4,3.2-2.7,5.1-5.3,5.7
		l0,0.1c1.8,0.9,2.7,2.7,3,5.4c0.4,3.5,0.7,6,1.1,7l-3.3-0.4c-0.3-0.8-0.6-2.9-0.9-6.1c-0.4-3.5-1.6-4.9-4.4-5.3l-3-0.3l-1.2,10.7
		l-3.2-0.4L824,248.1z M825.9,259.6l3.2,0.4c3.4,0.4,5.8-1.2,6.1-4.1c0.4-3.2-1.8-4.8-5.2-5.2c-1.5-0.2-2.6-0.2-3.2-0.1L825.9,259.6
		z"/>
	<path class="st0" d="M864.9,261.3c-0.6-3.4-1.3-7.5-1.6-10.6l-0.1,0c-0.5,2.9-1.2,6.2-2,9.7l-3,12.4l-2.4,0.3l-5.4-11.3
		c-1.6-3.4-2.9-6.4-3.9-9.2l-0.1,0c0.3,3.1,0.6,7.2,0.8,10.9l0.6,10.6l-3,0.4l-1.1-24.8l4.1-0.5l5.6,11.4c1.4,2.9,2.5,5.5,3.4,8
		l0.1,0c0.4-2.6,0.9-5.4,1.7-8.6l3-12.4l4-0.5l4.4,24.4l-3.1,0.4L864.9,261.3z"/>
	<path class="st0" d="M873.3,244.6l5.2,13.7c2,5.2,5.1,6.5,8.2,5.3c3.4-1.3,4.8-4.4,2.8-9.5l-5.3-13.7l3-1.2l5.2,13.5
		c2.7,7.1,0.1,11.4-4.9,13.3c-4.7,1.8-9.3,0.5-12.1-6.7l-5.2-13.6L873.3,244.6z"/>
	<path class="st0" d="M891.4,236.9l2.7-1.7l11.7,18.7l9-5.6l1.4,2.3l-11.7,7.3L891.4,236.9z"/>
	<path class="st0" d="M919.8,237.7l3.4,7.5l-2.4,2.2l-10.5-23.9l2.8-2.6l23,12.5l-2.5,2.3l-7.2-3.9L919.8,237.7z M924.1,230.4
		l-6.6-3.6c-1.5-0.8-2.8-1.7-4-2.5l-0.1,0.1c0.7,1.3,1.5,2.7,2.1,4.1l3.1,6.9L924.1,230.4z"/>
</g>
<g>
	<path class="st0" d="M841.2,292.5c-79.4,0-144-65.5-144-146c0-79.8,64.6-144.7,144-144.7c80.8,0,146.6,64.9,146.6,144.7
		C987.8,227,922.1,292.5,841.2,292.5z M841.2,8.1c-77.3,0-137.8,60.8-137.8,138.4c0,77,61.8,139.7,137.8,139.7
		c77.4,0,140.3-62.7,140.3-139.7C981.6,70.2,918.6,8.1,841.2,8.1z"/>
</g>
<g>
	<path class="st0" d="M842.5,239.4c-50.9,0-92.2-41.4-92.2-92.3s41.4-92.3,92.2-92.3s92.2,41.4,92.2,92.3S893.4,239.4,842.5,239.4z
		 M842.5,61.1c-47.4,0-86,38.6-86,86s38.6,86,86,86s86-38.6,86-86S889.9,61.1,842.5,61.1z"/>
</g>
<g>
	<path class="st0" d="M48.2,78.2L48.2,78.2l-0.5,4.8l-2.4-0.8l0.6-5.9l1.5-2.3l19.9,13.2l-1.7,2.6L48.2,78.2z"/>
	<path class="st0" d="M74,60.6c5.9,5.6,7,10.9,3.4,14.7c-3.2,3.4-8.6,2.7-14.4-2.7C57.2,67,56.5,61.5,59.8,58
		C63.3,54.3,68.5,55.3,74,60.6z M65.3,70.2c4.5,4.3,8.4,5.3,10.4,3.2c2.3-2.4,0.6-6.2-3.9-10.4c-4.3-4.1-8.1-5.6-10.4-3.2
		C59.5,61.9,60.6,65.7,65.3,70.2z"/>
	<path class="st0" d="M90.2,48.2c4.8,6.5,5,11.9,0.8,15c-3.7,2.8-8.9,1.1-13.6-5.2c-4.8-6.5-4.5-12.1-0.6-14.9
		C80.8,40.2,85.8,42.1,90.2,48.2z M80,56.2c3.7,5,7.3,6.7,9.7,5c2.6-1.9,1.6-6-2-10.9c-3.5-4.7-6.9-7-9.7-5
		C75.8,46.9,76.2,50.9,80,56.2z"/>
	<path class="st0" d="M101.8,36.6c2,4.6,0.6,7.9-2.2,9.2c-2.8,1.2-6,0-8-4.4c-1.9-4.4-0.6-7.9,2.3-9.1C97,31,100,32.5,101.8,36.6z
		 M93.8,40.3c1.1,2.8,3.2,4.5,5,3.7c2-0.8,1.9-3.3,0.7-6.2c-1.2-2.7-2.9-4.6-5-3.6C92.7,34.9,92.7,37.6,93.8,40.3z M103.4,55.2
		l3-28.3l1.9-0.8l-3,28.3L103.4,55.2z M120,39.5c2,4.6,0.6,7.9-2.2,9.2c-2.8,1.2-6,0-8-4.4c-1.9-4.4-0.6-7.9,2.3-9.1
		C115.2,33.9,118.2,35.3,120,39.5z M112.1,43.2c1.1,2.8,3.2,4.5,5,3.7c2-0.8,1.9-3.3,0.7-6.2c-1.1-2.7-2.9-4.6-5-3.6
		C110.9,37.8,110.9,40.4,112.1,43.2z"/>
	<path class="st0" d="M133.6,44.2l-2-24.7l3.5-0.3l8.9,11.9c2,2.7,3.7,5.2,5,7.7l0.1,0c-0.6-3.3-0.9-6.3-1.2-10.1l-0.8-10.3l3-0.2
		l2,24.7l-3.2,0.3L140,31.1c-1.9-2.6-3.8-5.3-5.2-7.9l-0.1,0c0.4,3.1,0.7,6.1,1,10.2l0.9,10.5L133.6,44.2z"/>
	<path class="st0" d="M161.6,35.7l-3.6,7.4l-3.3-0.4l11.7-23.4l3.8,0.5l5.1,25.7l-3.4-0.5l-1.6-8.1L161.6,35.7z M170.1,34.3
		l-1.5-7.4c-0.3-1.7-0.5-3.2-0.7-4.6l-0.1,0c-0.6,1.4-1.1,2.8-1.8,4.3l-3.4,6.8L170.1,34.3z"/>
	<path class="st0" d="M186.5,26.1l-7.2-2.2l0.8-2.6l17.5,5.4l-0.8,2.6l-7.2-2.2l-6.5,21.1l-3.1-1L186.5,26.1z"/>
	<path class="st0" d="M206.8,30.9l-7,12.9c-2.6,4.8-1.6,8.1,1.3,9.7c3.2,1.7,6.5,0.8,9.1-4l7-12.9l2.8,1.6l-6.9,12.7
		c-3.6,6.7-8.6,7.5-13.4,4.9c-4.5-2.4-6.4-6.8-2.8-13.6l7-12.8L206.8,30.9z"/>
	<path class="st0" d="M227.6,44c1.4,0.8,3.4,2.2,5,3.6c2.6,2.2,3.9,4.1,4.2,6.2c0.2,1.6-0.3,3.4-1.6,4.9c-2.1,2.5-5.1,2.8-7.6,1.8
		l-0.1,0.1c1,1.7,0.7,3.8-0.5,6.1c-1.6,3.2-2.7,5.4-2.9,6.4l-2.5-2.1c0.2-0.8,1.1-2.8,2.6-5.6c1.6-3.1,1.4-4.9-0.7-6.9l-2.3-1.9
		l-6.9,8.2l-2.4-2.1L227.6,44z M222.7,54.6l2.5,2.1c2.6,2.2,5.5,2.2,7.3,0c2.1-2.4,1.2-5-1.4-7.2c-1.2-1-2.1-1.6-2.6-1.8L222.7,54.6
		z"/>
	<path class="st0" d="M234.7,73.5l-7.7,2.8l-2-2.6l24.6-8.8l2.4,3l-14.1,22l-2.1-2.7l4.5-6.9L234.7,73.5z M241.8,78.4l4-6.3
		c0.9-1.4,1.9-2.6,2.7-3.8l0-0.1c-1.3,0.6-2.8,1.3-4.3,1.8l-7.1,2.5L241.8,78.4z"/>
	<path class="st0" d="M261,81l1.5,2.9l-19.5,10.3l4.9,9.4l-2.4,1.2l-6.4-12.2L261,81z"/>
</g>
<g>
	<path class="st0" d="M72.1,209.9l-19.5,15.3l-2-2.5l19.5-15.3L72.1,209.9z"/>
	<path class="st0" d="M58.3,232.3L75.1,214l2.6,2.4L75.1,231c-0.6,3.4-1.3,6.3-2.2,8.9l0.1,0c2-2.6,4-4.9,6.6-7.7l7-7.6l2.2,2
		L72,244.9l-2.4-2.2l2.7-14.6c0.6-3.2,1.3-6.4,2.2-9.2l-0.1,0c-2,2.4-4,4.6-6.8,7.7l-7.2,7.8L58.3,232.3z"/>
	<path class="st0" d="M96.9,259.2c-1.5-0.2-4.4-1-7.3-2.6c-3.2-1.9-5.4-4.2-6.4-7.5c-0.8-2.8-0.3-6.4,1.6-9.7
		c3.7-6.4,10.8-8.5,18-4.3c2.5,1.4,4.1,3.1,4.8,4.1l-2,1.8c-0.8-1.2-2-2.4-4.2-3.7c-5.2-3-10.5-1.7-13.6,3.6
		c-3.1,5.4-1.8,10.5,3.3,13.4c1.8,1,3.2,1.5,4,1.6l3.7-6.4l-4.3-2.5l1.3-2.2l7.1,4.1L96.9,259.2z"/>
	<path class="st0" d="M112.3,240.4c1.6,0.2,3.9,0.8,6,1.4c3.2,1.1,5.2,2.4,6.2,4.2c0.8,1.4,1,3.3,0.4,5.1c-1,3.1-3.6,4.5-6.4,4.5
		l0,0.1c1.6,1.2,2.1,3.2,1.8,5.9c-0.3,3.5-0.5,6-0.3,7l-3.1-1c-0.2-0.8,0-3,0.3-6.1c0.4-3.5-0.5-5.1-3.2-6.1l-2.9-0.9l-3.4,10.2
		l-3-1L112.3,240.4z M111.8,252.1l3.1,1c3.2,1.1,5.9,0,6.8-2.7c1-3-0.7-5.1-4-6.1c-1.5-0.5-2.5-0.7-3.1-0.7L111.8,252.1z"/>
	<path class="st0" d="M141.6,260.4l-9.5-1.4l-1.3,8.8l10.6,1.5l-0.4,2.7l-13.8-2l3.5-24.5l13.3,1.9l-0.4,2.7l-10.1-1.4l-1.1,7.8
		l9.5,1.4L141.6,260.4z"/>
	<path class="st0" d="M149.3,272.6l-1.4-24.7l3.5-0.2l8.6,12c2,2.8,3.6,5.3,4.9,7.8l0.1,0c-0.5-3.3-0.7-6.3-1-10.1l-0.6-10.3l3-0.2
		l1.4,24.7l-3.2,0.2l-8.6-12.1c-1.9-2.7-3.7-5.4-5.1-8l-0.1,0c0.4,3.1,0.6,6.1,0.8,10.2l0.6,10.6L149.3,272.6z"/>
	<path class="st0" d="M170.9,246.4c1.8-0.9,3.9-1.7,6.4-2.4c4.4-1.3,7.8-1.1,10.5,0.2c2.7,1.3,4.7,3.7,5.9,7.5
		c1.1,3.9,0.8,7.4-0.7,10.2c-1.6,2.9-4.9,5.1-9.5,6.5c-2.2,0.6-4,1.1-5.7,1.3L170.9,246.4z M180,266.5c0.8-0.1,1.9-0.4,3.1-0.8
		c6.6-1.9,9.1-6.6,7.2-13c-1.6-5.6-5.8-8.3-12.3-6.4c-1.6,0.5-2.7,0.9-3.5,1.4L180,266.5z"/>
	<path class="st0" d="M196.3,237.1l10.5,22.4l-2.9,1.4l-10.5-22.4L196.3,237.1z"/>
	<path class="st0" d="M219.2,238.8l-8.1,5.2l4.8,7.5l9-5.8l1.4,2.3l-11.7,7.6l-13.4-20.8l11.3-7.3l1.4,2.3l-8.6,5.5l4.2,6.6l8.1-5.2
		L219.2,238.8z"/>
	<path class="st0" d="M233,242.9l-17.2-17.8l2.5-2.5l14.4,3.5c3.3,0.8,6.2,1.7,8.8,2.7l0-0.1c-2.5-2.2-4.6-4.3-7.3-7.1l-7.2-7.4
		l2.2-2.1l17.2,17.8l-2.3,2.3l-14.4-3.6c-3.2-0.8-6.3-1.7-9-2.7l-0.1,0.1c2.3,2.1,4.4,4.2,7.3,7.2l7.4,7.6L233,242.9z"/>
	<path class="st0" d="M236.8,206.1l-4.3,6.2l-2.2-1.5l10.4-15.1l2.2,1.5l-4.3,6.2l18.2,12.5l-1.8,2.7L236.8,206.1z"/>
	<path class="st0" d="M260.2,203c1.4-0.9,2.9-2.5,3.9-4.5c1.4-3,0.6-5.4-1.7-6.5c-2.1-1-3.9-0.3-6.4,2.2c-3,3-6,4.4-9.1,3
		c-3.5-1.6-4.8-5.7-2.7-10.1c1-2.3,2.4-3.7,3.4-4.4l2,1.9c-0.8,0.5-2.1,1.7-3,3.7c-1.4,3.1-0.1,5.1,1.4,5.8c2.1,1,3.8,0.1,6.4-2.5
		c3.2-3.1,5.9-4.2,9.2-2.6c3.5,1.6,5.3,5.5,2.9,10.8c-1,2.2-2.8,4.2-4.1,5L260.2,203z"/>
</g>
<g>
	<path class="st0" d="M151.3,290.6C71.2,290.6,6,225.4,6,145.3S71.2,0,151.3,0s145.3,65.2,145.3,145.3S231.4,290.6,151.3,290.6z
		 M151.3,6.2C74.6,6.2,12.2,68.6,12.2,145.3s62.4,139.1,139.1,139.1S290.4,222,290.4,145.3S228,6.2,151.3,6.2z"/>
</g>
<g>
	<path class="st0" d="M145,237.5c-50.9,0-92.2-41.4-92.2-92.3S94.2,53,145,53s92.2,41.4,92.2,92.3S195.9,237.5,145,237.5z M145,59.3
		c-47.4,0-86,38.6-86,86s38.6,86,86,86s86-38.6,86-86S192.5,59.3,145,59.3z"/>
</g>
<g>
	<g>
		<path class="st0" d="M137.9,136.9c10.5,26.3,4.6,54.4,2,63.7l-36-81.2l33.3,83.5c-6.8-4-32.6-20.6-43.7-48.4
			c-12.8-32.1-1.1-67-1.1-67S125.1,104.8,137.9,136.9z"/>
	</g>
	<g>
		<path class="st0" d="M194,156.3c-12.2,25.5-36.9,40.2-45.5,44.7l35.3-81.5L145,200.6c-1.7-7.7-6.9-37.9,6-64.9
			c14.9-31.2,48.5-46.2,48.5-46.2S208.9,125.1,194,156.3z"/>
	</g>
</g>
<g>
	<path class="st0" d="M151.3,616.9c-16.6,0-32.8-2.8-48.3-8.2C45,588.2,6,533.1,6,471.6c0-80.1,65.2-145.3,145.3-145.3
		s145.3,65.2,145.3,145.3C296.6,551.7,231.4,616.9,151.3,616.9z M151.3,332.5c-76.7,0-139.1,62.4-139.1,139.1
		c0,58.9,37.3,111.6,92.8,131.2c14.8,5.2,30.4,7.9,46.2,7.9c76.7,0,139.1-62.4,139.1-139.1S228,332.5,151.3,332.5z"/>
</g>
<g>
	<path class="st0" d="M43.2,517l1.9-0.9l3.5,7.5l-1.9,0.9L43.2,517z"/>
	<path class="st0" d="M43.9,486.3c0.8,1.2,2,3.6,2.7,6.5c0.7,3.3,0.5,6.3-1.1,8.9c-1.4,2.3-4.1,4.1-7.5,4.9c-6.6,1.5-12.4-2-14-9.4
		c-0.6-2.6-0.5-4.7-0.2-5.7l2.5,0.2c-0.3,1.3-0.4,2.9,0.1,5.1c1.2,5.4,5.3,8.1,10.8,6.9c5.6-1.2,8.1-5.3,7-10.5
		c-0.4-1.9-1-3.1-1.4-3.7l-6.6,1.5l1,4.4l-2.3,0.5l-1.6-7.3L43.9,486.3z"/>
	<path class="st0" d="M32.4,466.5c7.7-0.3,12.1,4.2,12.3,10c0.3,6-4.2,10.3-11,10.6c-7.1,0.3-12-3.9-12.3-9.9
		C21.2,470.9,25.7,466.7,32.4,466.5z M33.5,484c4.9-0.2,9-3,8.9-7.6c-0.2-4.6-4.6-7-9.7-6.8c-4.5,0.2-9.1,2.7-8.9,7.6
		C24,481.9,28.6,484.2,33.5,484z"/>
	<path class="st0" d="M35.3,445.1c7.6,1.1,11.1,6.3,10.3,12c-0.8,5.9-6,9.4-12.7,8.4c-7.1-1-11.1-6-10.3-11.9
		C23.4,447.5,28.6,444.2,35.3,445.1z M33.2,462.5c4.8,0.7,9.4-1.3,10.1-5.9c0.6-4.6-3.2-7.7-8.3-8.4c-4.5-0.6-9.4,1.1-10.1,5.9
		C24.3,458.8,28.3,461.8,33.2,462.5z"/>
	<path class="st0" d="M25.8,439.5c0.3-1.8,0.7-3.8,1.4-6c1.3-4,3.2-6.5,5.5-7.8c2.4-1.4,5.2-1.7,8.7-0.5c3.5,1.1,6,3.2,7.3,5.8
		c1.3,2.7,1.3,6.4,0,10.5c-0.7,2-1.3,3.6-1.9,4.9L25.8,439.5z M45.6,442.9c0.3-0.7,0.7-1.7,1-2.8c1.9-6-0.3-10.2-6.1-12.1
		c-5-1.7-9.2,0.1-11.1,6c-0.5,1.4-0.7,2.6-0.8,3.3L45.6,442.9z"/>
	<path class="st0" d="M56.3,402.8c-2.8-1.5-6.1-3.4-8.5-4.8l0,0.1c1.8,2,3.7,4.3,5.8,6.9l7.2,9.2l-1.2,1.9l-11.1-2.6
		c-3.3-0.8-6.2-1.6-8.8-2.4l0,0.1c2.4,1.5,5.5,3.7,8.2,5.6l7.9,5.6l-1.5,2.4L36,411.5l2-3.2l11.3,2.5c2.9,0.7,5.3,1.4,7.7,2.1l0-0.1
		c-1.6-1.7-3.3-3.7-5.2-6.1l-7.1-9.2l2-3.2l19.9,10.7l-1.5,2.4L56.3,402.8z"/>
	<path class="st0" d="M67.2,404.8l-16.4-15.4l2.2-2.3l13.2,2.5c3,0.6,5.7,1.3,8.1,2.1l0-0.1c-2.4-1.9-4.4-3.7-7-6.1l-6.9-6.4l1.9-2
		l16.4,15.4l-2,2.2L63.5,392c-2.9-0.6-5.8-1.2-8.3-2.1l0,0.1c2.2,1.8,4.2,3.6,6.9,6.2l7,6.6L67.2,404.8z"/>
	<path class="st0" d="M68.7,371.6l8.1,10.6c3,4,6.1,4.3,8.5,2.5c2.6-2,3-5.1,0-9l-8.1-10.6l2.3-1.8l8,10.5c4.2,5.5,3,10-0.9,12.9
		c-3.7,2.8-8,2.8-12.3-2.8l-8-10.6L68.7,371.6z"/>
	<path class="st0" d="M83.9,360.7l10.6-5.9l1.2,2.1l-8,4.5l3.6,6.6l7.4-4.1l1.2,2.1l-7.4,4.1l4.9,8.9l-2.6,1.4L83.9,360.7z"/>
	<path class="st0" d="M104.9,367.1l0.5,7.4l-2.8,1.1l-1.3-23.8l3.2-1.3l15.5,18l-2.9,1.2l-4.9-5.7L104.9,367.1z M110.9,362.3
		l-4.5-5.2c-1-1.2-1.8-2.3-2.6-3.4l-0.1,0c0.2,1.3,0.4,2.8,0.5,4.2l0.4,6.9L110.9,362.3z"/>
	<path class="st0" d="M134.8,364.7c-0.9,0.8-2.9,1.8-5.5,2.4c-6.2,1.5-11.7-1.4-13.4-8.6c-1.6-6.9,2-12.6,8.8-14.2
		c2.7-0.6,4.6-0.5,5.4-0.2l-0.2,2.5c-1.2-0.3-2.8-0.3-4.6,0.1c-5.1,1.2-7.8,5.3-6.4,11.1c1.3,5.4,5.2,8.1,10.5,6.9
		c1.8-0.4,3.4-1.2,4.4-2L134.8,364.7z"/>
	<path class="st0" d="M139.1,345l-6.8,0.6l-0.2-2.5l16.6-1.4l0.2,2.5l-6.9,0.6l1.7,20l-2.9,0.3L139.1,345z"/>
	<path class="st0" d="M154.3,341.9l-0.9,13.4c-0.3,5,1.8,7.3,4.8,7.5c3.3,0.2,5.6-1.8,5.9-6.8l0.9-13.4l2.9,0.2l-0.9,13.2
		c-0.5,6.9-4.3,9.5-9.2,9.2c-4.6-0.3-7.9-3.1-7.5-10.1l0.9-13.2L154.3,341.9z"/>
	<path class="st0" d="M172.8,343.9c1.5,0,3.6,0.3,5.6,0.7c3,0.7,4.9,1.7,6,3.2c0.9,1.2,1.2,2.9,0.8,4.6c-0.6,2.9-2.9,4.4-5.3,4.7
		l0,0.1c1.5,1,2.2,2.7,2.2,5.1c0,3.2,0.1,5.5,0.4,6.4l-2.9-0.6c-0.2-0.7-0.3-2.7-0.3-5.6c0-3.2-0.9-4.6-3.5-5.2l-2.7-0.6l-2.1,9.5
		l-2.8-0.6L172.8,343.9z M173.5,354.6l2.9,0.6c3,0.7,5.3-0.6,5.9-3.1c0.6-2.8-1.2-4.5-4.2-5.2c-1.4-0.3-2.3-0.4-2.9-0.4L173.5,354.6
		z"/>
	<path class="st0" d="M192.6,348.7l-6.9,21.5l-2.8-0.9l6.9-21.5L192.6,348.7z"/>
	<path class="st0" d="M188.1,370.6l9.4-20.5l2.9,1.3l1.8,13.4c0.4,3.1,0.6,5.8,0.6,8.3l0.1,0c1-2.8,2.1-5.4,3.5-8.6l3.9-8.6l2.5,1.1
		l-9.4,20.5l-2.7-1.2l-1.8-13.4c-0.4-2.9-0.7-5.9-0.7-8.6l-0.1,0c-1,2.7-2.1,5.1-3.7,8.5l-4,8.8L188.1,370.6z"/>
	<path class="st0" d="M219.6,387.3c-1.4-0.3-3.9-1.2-6.5-2.9c-2.8-1.9-4.7-4.2-5.3-7.2c-0.5-2.6,0.2-5.8,2.1-8.7
		c3.8-5.6,10.4-7,16.7-2.7c2.2,1.5,3.6,3.1,4.1,4l-1.9,1.5c-0.7-1.1-1.7-2.3-3.6-3.6c-4.5-3.1-9.4-2.3-12.6,2.4
		c-3.2,4.7-2.3,9.4,2.1,12.4c1.6,1.1,2.8,1.6,3.5,1.7l3.8-5.6l-3.8-2.6l1.3-1.9l6.1,4.2L219.6,387.3z"/>
	<path class="st0" d="M239.4,376.7c1.1,0.8,2.6,2,4.2,3.7c2,2.1,3,4,3.1,5.8c0.1,1.6-0.6,3.3-2,4.7c-1.5,1.4-3,2.1-4.6,2.1
		c-2.3,0-4.6-1.2-6.6-3.2c-0.6-0.6-1.1-1.2-1.5-1.8l-6.5,6.3l-2-2.1L239.4,376.7z M233.7,386.4c0.3,0.6,0.8,1.2,1.5,1.9
		c2.4,2.5,5.2,2.8,7.4,0.7c2.2-2.1,1.7-4.6-0.5-6.9c-0.9-0.9-1.6-1.5-2.1-1.8L233.7,386.4z"/>
	<path class="st0" d="M251.6,389.7c1.1,1,2.5,2.6,3.7,4.2c1.9,2.5,2.6,4.5,2.4,6.3c-0.1,1.5-1,2.9-2.4,4c-2.4,1.7-5.1,1.4-7.1,0
		l-0.1,0.1c0.5,1.7-0.2,3.5-1.7,5.3c-2.1,2.5-3.5,4.2-4,5.1l-1.8-2.4c0.3-0.7,1.6-2.2,3.5-4.4c2.1-2.4,2.3-4.1,0.8-6.3l-1.6-2.2
		l-7.9,5.8l-1.7-2.3L251.6,389.7z M245.1,398.1l1.8,2.4c1.8,2.5,4.4,3.1,6.5,1.6c2.3-1.7,2.1-4.2,0.3-6.7c-0.8-1.1-1.5-1.9-1.9-2.2
		L245.1,398.1z"/>
	<path class="st0" d="M250.5,414.8l-7.4,1.2l-1.4-2.7l23.5-3.7l1.6,3.1l-16.3,17.3l-1.4-2.8l5.2-5.4L250.5,414.8z M255.9,420.3
		l4.7-5c1.1-1.1,2.1-2,3.1-2.9l0-0.1c-1.3,0.3-2.7,0.7-4.1,0.9l-6.8,1.1L255.9,420.3z"/>
	<path class="st0" d="M256,444.3c-0.9-0.8-2.1-2.7-3-5.3c-2.1-6,0.2-11.8,7.2-14.2c6.7-2.3,12.7,0.6,15,7.2c0.9,2.6,0.9,4.5,0.8,5.4
		l-2.5,0.1c0.2-1.2,0-2.8-0.6-4.6c-1.7-5-6.1-7.2-11.7-5.3c-5.2,1.8-7.5,6-5.7,11.1c0.6,1.7,1.5,3.3,2.4,4.2L256,444.3z"/>
	<path class="st0" d="M276,446.5l-1.3-6.7l2.4-0.5l3.1,16.4l-2.4,0.5l-1.3-6.8l-19.7,3.7l-0.5-2.9L276,446.5z"/>
	<path class="st0" d="M280.5,460.7l-22.4,2.1l-0.3-2.9l22.4-2.1L280.5,460.7z"/>
	<path class="st0" d="M259,480.9c-0.5-1-1.1-3.2-1-6c0-6.4,4.1-11.1,11.5-11c7.1,0,11.8,4.9,11.8,11.8c0,2.8-0.6,4.6-1,5.3l-2.4-0.8
		c0.5-1.1,1-2.6,1-4.5c0-5.3-3.3-8.8-9.2-8.9c-5.6,0-9.1,3.1-9.1,8.6c0,1.8,0.3,3.6,0.9,4.8L259,480.9z"/>
	<path class="st0" d="M266.9,494.5l1.3-8.7l-8-1.2l-1.4,9.7l-2.4-0.3l1.8-12.6l22.3,3.2l-1.8,12.1l-2.4-0.4l1.3-9.2l-7.1-1l-1.3,8.6
		L266.9,494.5z"/>
	<path class="st0" d="M260.5,514.3l-2-0.7l2.7-7.8l2,0.7L260.5,514.3z"/>
</g>
<g>
	<path class="st0" d="M48.9,547.6c-0.9-0.5-2.3-1.8-3.6-3.7c-3-4.5-2.4-9.8,2.9-13.3c5.1-3.3,10.7-2.2,14,2.8c1.3,2,1.7,3.6,1.8,4.3
		l-2,0.6c-0.1-1-0.6-2.3-1.5-3.7c-2.5-3.8-6.5-4.7-10.8-1.9c-4,2.6-5,6.5-2.4,10.4c0.8,1.3,2,2.4,2.9,3L48.9,547.6z"/>
	<path class="st0" d="M69,556.8c-4.9,4.4-10.3,3.7-13.5,0.1c-3.4-3.8-2.8-9.1,1.6-13c4.6-4.1,10.1-3.9,13.5-0.1
		C74.1,547.8,73.3,553,69,556.8z M58.8,545.8c-3.1,2.8-4.4,6.9-1.7,9.8c2.6,2.9,6.8,2.2,10.1-0.7c2.9-2.6,4.5-6.7,1.8-9.8
		C66.2,542,62,543,58.8,545.8z"/>
	<path class="st0" d="M65.2,566.6l12.1-14.9l2.1,1.7l-1.4,11.4c-0.3,2.6-0.7,4.9-1.3,7l0.1,0c1.4-2.1,2.9-4,4.8-6.3l5.1-6.3l1.8,1.5
		l-12.1,14.9l-1.9-1.6l1.4-11.4c0.3-2.5,0.7-5,1.3-7.2l-0.1,0c-1.4,2-2.9,3.8-4.9,6.3l-5.2,6.4L65.2,566.6z"/>
	<path class="st0" d="M82.5,576c0.6,1.2,1.7,2.5,3.2,3.4c2.2,1.3,4.2,0.9,5.2-0.7c0.9-1.5,0.6-3-1.2-5.1c-2.1-2.6-2.9-5-1.5-7.3
		c1.5-2.6,4.8-3.2,8-1.3c1.7,1,2.7,2.1,3.1,3l-1.6,1.4c-0.3-0.6-1.1-1.8-2.6-2.7c-2.3-1.4-3.9-0.5-4.6,0.6c-0.9,1.6-0.4,2.9,1.4,5.2
		c2.1,2.8,2.7,4.9,1.3,7.4c-1.5,2.5-4.7,3.7-8.6,1.3c-1.6-1-3-2.5-3.6-3.6L82.5,576z"/>
	<path class="st0" d="M104.9,569.9l-8.4,17.3l-2.3-1.1l8.4-17.3L104.9,569.9z"/>
	<path class="st0" d="M101.9,586.5c0.8,1.1,2.1,2.1,3.7,2.7c2.4,0.9,4.2,0.2,4.9-1.6c0.6-1.7,0-3-2-4.8c-2.5-2.2-3.8-4.4-2.8-6.9
		c1.1-2.8,4.2-4,7.7-2.7c1.8,0.7,3,1.6,3.6,2.4l-1.4,1.7c-0.4-0.6-1.4-1.5-3.1-2.1c-2.5-0.9-4,0.2-4.4,1.4c-0.6,1.7,0.1,2.9,2.3,4.8
		c2.6,2.3,3.6,4.4,2.6,7c-1.1,2.8-4,4.4-8.3,2.8c-1.7-0.7-3.4-1.9-4.1-2.9L101.9,586.5z"/>
	<path class="st0" d="M123.1,578.7l-5.7-1.4l0.5-2l13.8,3.4l-0.5,2l-5.7-1.4l-4.1,16.6l-2.4-0.6L123.1,578.7z"/>
	<path class="st0" d="M141.5,590.2l-7.4-0.9l-0.9,6.9l8.3,1.1l-0.3,2.1l-10.8-1.4l2.4-19.1l10.3,1.3l-0.3,2.1l-7.9-1l-0.8,6l7.4,0.9
		L141.5,590.2z"/>
	<path class="st0" d="M145.7,599.6l-0.3-19.2l2.7,0l6.3,9.7c1.4,2.2,2.6,4.3,3.5,6.2l0.1,0c-0.3-2.6-0.4-4.9-0.4-7.9l-0.1-8l2.3,0
		l0.3,19.2l-2.5,0l-6.2-9.7c-1.4-2.1-2.7-4.3-3.7-6.4l-0.1,0c0.2,2.4,0.2,4.7,0.3,7.9l0.1,8.2L145.7,599.6z"/>
	<path class="st0" d="M166.7,581.3l-5.8,0.9l-0.3-2.1l14.1-2.1l0.3,2.1l-5.8,0.9l2.5,16.9l-2.5,0.4L166.7,581.3z"/>
	<path class="st0" d="M203.3,591.9c-2.7,0.2-5.3,0.4-7.7,0.4c-0.4,0-0.9,0-1.2,0.1c-4.4,1.4-9.2-0.5-11.3-6.3
		c-2.1-5.8,0.1-10.8,5-12.6c4.9-1.8,9.5,0.9,11.4,6.2c1.7,4.7,0.6,8.4-2,10.6l0,0.1c2-0.2,4.1-0.5,5.7-0.7L203.3,591.9z
		 M197.1,580.8c-1.3-3.6-4.5-6.7-8.4-5.3c-4,1.4-4.6,5.8-3.2,9.7c1.4,3.9,4.7,6.6,8.4,5.2C197.7,589.1,198.6,584.9,197.1,580.8z"/>
	<path class="st0" d="M199.9,568.9l5.6,10c2.1,3.7,4.6,4.4,6.9,3.2c2.5-1.4,3.2-3.9,1.1-7.6l-5.6-10l2.2-1.2l5.5,9.8
		c2.9,5.2,1.3,8.8-2.3,10.8c-3.4,1.9-7.1,1.4-10-3.8l-5.5-9.9L199.9,568.9z"/>
	<path class="st0" d="M222.3,570.7l2.1,6l-2,1.6l-6.4-19.3l2.4-1.8l16.9,11.4l-2.1,1.6l-5.3-3.6L222.3,570.7z M226.2,565.3l-4.9-3.3
		c-1.1-0.7-2-1.5-2.9-2.2l0,0c0.4,1.1,0.9,2.2,1.3,3.4l1.9,5.6L226.2,565.3z"/>
	<path class="st0" d="M224.5,552.1l1.8-1.8l12.1,12.3l5.9-5.8l1.5,1.5l-7.7,7.5L224.5,552.1z"/>
	<path class="st0" d="M235,541.1l14.6,12.5l-1.6,1.9L233.3,543L235,541.1z"/>
	<path class="st0" d="M241,536.6l-3.4,4.8l-1.7-1.2l8.3-11.6l1.7,1.2l-3.4,4.8l14,9.9l-1.5,2.1L241,536.6z"/>
	<path class="st0" d="M264,532.3l-7.2-3.8l-12.7,0.3l1.3-2.5l6,0.1c1.6,0,2.9,0.1,4.4,0.2l0-0.1c-0.9-1-1.7-2.2-2.6-3.6l-3.4-4.9
		l1.3-2.5l6.8,10.9l7.3,3.8L264,532.3z"/>
</g>
<g>
	<path class="st0" d="M151.3,558.8c-15.7,0-31.1-4.2-44.6-12.2C80.4,530.9,64,502.2,64,471.6c0-48.1,39.1-87.3,87.3-87.3
		s87.3,39.2,87.3,87.3S199.4,558.8,151.3,558.8z M151.3,390.6c-44.7,0-81,36.3-81,81c0,28.4,15.2,55.1,39.7,69.7
		c12.5,7.4,26.8,11.3,41.4,11.3c44.7,0,81-36.3,81-81C232.3,426.9,196,390.6,151.3,390.6z"/>
</g>
<g>
	<path class="st0" d="M118.7,488.8c-2.6,1-7.7,2.4-13.6,2.4c-6.7,0-12.2-1.7-16.5-5.8c-3.8-3.7-6.2-9.6-6.2-16.5
		c0-13.2,9.1-22.8,23.9-22.8c5.1,0,9.2,1.1,11.1,2l-1.4,4.7c-2.4-1.1-5.3-1.9-9.8-1.9c-10.8,0-17.8,6.7-17.8,17.8
		c0,11.2,6.7,17.8,17,17.8c3.7,0,6.3-0.5,7.6-1.2v-13.2h-8.9v-4.6h14.6V488.8z"/>
	<path class="st0" d="M164.6,471.4c-0.3-6.2-0.7-13.6-0.7-19.1h-0.1c-1.6,5.1-3.3,10.7-5.6,16.8l-7.8,21.4h-4.3l-7.2-21
		c-2.1-6.3-3.8-11.9-5-17.2h-0.1c-0.1,5.5-0.5,12.9-0.9,19.5l-1.2,19h-5.4l3.1-44.2h7.3l7.5,21.4c1.8,5.4,3.3,10.3,4.5,14.9h0.1
		c1.2-4.5,2.8-9.3,4.7-14.9l7.9-21.4h7.3l2.8,44.2h-5.6L164.6,471.4z"/>
	<path class="st0" d="M180.1,447.1c2.8-0.5,6.4-0.9,10.9-0.9c5.6,0,9.8,1.3,12.4,3.7c2.4,2.1,3.9,5.3,3.9,9.2c0,4-1.2,7.1-3.4,9.4
		c-3.1,3.2-7.9,4.9-13.5,4.9c-1.7,0-3.3-0.1-4.6-0.4v17.7h-5.7V447.1z M185.8,468.4c1.2,0.3,2.8,0.5,4.7,0.5
		c6.9,0,11.1-3.4,11.1-9.4c0-5.9-4.2-8.7-10.4-8.7c-2.5,0-4.4,0.2-5.4,0.5V468.4z"/>
</g>
<g>
	<path class="st0" d="M596.9,201.4c0.1,1.5,0.2,2.4,0.2,3.2c0.3,4.3,0.3,4.3,4.5,5.4c0.8,0.2,1.6,0.5,2.9,0.9c-2,0.8-3.4,1.5-5,2
		c-1.4,0.4-1.9,1.1-1.8,2.6c0.2,1.6,0,3.2,0,5.3c-0.9-1-1.5-1.8-2.2-2.6c-2.3-2.8-2.3-2.8-5.9-1.5c-1,0.4-1.9,0.7-3.2,1.2
		c1.3-2.3,3.4-4.3,3.3-6.2c-0.1-1.9-2.5-3.6-4.1-5.8c2.2,0.5,3.9,0.9,5.6,1.5c1.2,0.4,1.8,0.1,2.4-0.9
		C594.5,204.9,595.5,203.4,596.9,201.4z"/>
</g>
<g>
	<path class="st0" d="M405.6,217.8c-2.7-0.9-5-2.5-6.9-2c-1.7,0.4-2.9,3-4.8,5.1c0.1-1.9,0-3.2,0.2-4.4c0.6-2.4-0.4-3.5-2.6-4
		c-1.2-0.3-2.4-0.9-4.3-1.6c2.3-0.6,4.1-0.9,5.7-1.6c0.7-0.3,1.5-1.2,1.6-1.9c0.3-1.7,0.3-3.4,0.8-5.4c0.9,1.4,1.9,2.8,2.7,4.2
		c0.7,1.2,1.4,1.6,2.8,1.1c1.5-0.5,3.1-0.8,4.9-0.8c-1,1.3-2,2.7-3.1,3.9c-0.9,1-0.9,1.7-0.1,2.8C403.6,214.5,404.5,216,405.6,217.8
		z"/>
</g>
<g>
	<path class="st0" d="M570.7,234.1c1.6-1.7,2.7-3,3.9-4.1c1-0.9,1.1-1.7,0.4-2.8c-0.8-1.4-1.5-2.9-2-4.7c1.4,0.7,2.8,1.3,4.2,2.1
		c1.3,0.8,2.1,0.7,3.1-0.5c1.1-1.2,2.3-2.3,3.8-3.9c-0.3,2.1-0.3,3.8-0.7,5.4c-0.4,1.5,0.2,2.2,1.5,2.8c1.5,0.6,2.8,1.4,4.9,2.4
		c-2.1,0.4-3.5,0.7-5,0.9c-1.7,0.2-2.6,0.8-2.7,2.6c0,1.4-0.4,2.8-0.8,5c-1.1-2-1.9-3.3-2.6-4.8c-0.6-1.3-1.4-1.6-2.7-1.3
		C574.6,233.5,573,233.7,570.7,234.1z"/>
</g>
<g>
	<path class="st0" d="M419.3,222.2c-0.8,1.5-1.3,2.5-1.8,3.5c-1.8,3.5-2.2,2.5,0.9,5.6c0.7,0.7,1.8,1.1,2.7,1.6
		c-0.3,0.3-0.6,0.7-0.8,1c-1.5-0.3-3.1-0.4-4.6-0.8c-1.4-0.3-2.3,0-2.9,1.4c-0.6,1.5-1.5,2.8-2.5,4.7c-0.4-2.1-0.8-3.8-0.9-5.4
		c-0.1-1.5-0.8-1.9-2.1-2.1c-1.6-0.2-3.2-0.5-5.5-0.9c1.8-0.9,2.9-1.7,4.2-2.1c2-0.7,2.7-1.8,2.1-3.9c-0.4-1.3-0.4-2.7-0.6-4.5
		c1.7,2,3.1,3.7,4.5,5.4C414.6,224.4,416.6,223.5,419.3,222.2z"/>
</g>
<g>
	<path class="st0" d="M555.8,235.6c2.3,1.7,4,3.1,5.8,4.5c1.9-1.3,3.8-2.6,6.1-4.1c-0.8,2.1-1.3,3.8-1.9,5.4c-0.5,1.2-0.3,2,0.8,2.7
		c1.2,0.8,2.4,1.8,3.4,3.3c-1.2,0-2.3,0.1-3.5,0c-2-0.3-3.3,0.3-3.8,2.5c-0.3,1.3-0.9,2.5-1.5,4.3c-0.7-2.2-1-3.9-1.7-5.5
		c-0.3-0.6-1.2-1.3-1.9-1.4c-1.6-0.3-3.2-0.2-5-0.8c1.4-0.9,2.8-1.8,4-2.8c0.5-0.5,0.9-1.5,0.7-2.2
		C557.1,239.6,556.5,238,555.8,235.6z"/>
</g>
<g>
	<path class="st0" d="M386.1,79c5.5,5.3,6.2,15.6,1.5,20.9C382.2,95.2,381.4,85.3,386.1,79z"/>
</g>
<g>
	<path class="st0" d="M595.3,84.1c-5.5-4.6-6.4-15.6-1.8-20.8C598.9,67.9,599.8,77.9,595.3,84.1z"/>
</g>
<g>
	<path class="st0" d="M397.7,63.3c4.5,5.9,3.7,15.9-1.6,20.8C392.1,80.7,391.4,68.7,397.7,63.3z"/>
</g>
<g>
	<path class="st0" d="M406.8,69.6c-3.7-4.7-1.6-16.6,4.7-20.2C415.3,55.2,412.7,66.1,406.8,69.6z"/>
</g>
<g>
	<path class="st0" d="M377.1,96.6c6,3.9,8.3,14.1,4.6,20.3C375.6,113.7,373.2,101.6,377.1,96.6z"/>
</g>
<g>
	<path class="st0" d="M603.5,100c-4.5-6.2-3.9-15.4,1.4-20.9C609.4,82.9,609.5,95.1,603.5,100z"/>
</g>
<g>
	<path class="st0" d="M608.2,169.7c-6.2-3.6-9.2-13.7-5.8-19.8C608.8,152.7,611.7,164.6,608.2,169.7z"/>
</g>
<g>
	<path class="st0" d="M614.1,96.5c3.8,5.9,1.6,16.1-4.5,20.3C606,112.8,607.4,100.6,614.1,96.5z"/>
</g>
<g>
	<path class="st0" d="M609.9,134.7c-6.8-0.7-13.3-11.1-11.5-17.1C605.1,118.6,611.2,127.7,609.9,134.7z"/>
</g>
<g>
	<path class="st0" d="M613.3,152.5c-1.5-7.3,3.3-15.6,10.3-18C626,140.5,620.4,150.5,613.3,152.5z"/>
</g>
<g>
	<path class="st0" d="M392.9,117.5c1,7.6-5,16.4-11.6,17.2C380.2,127.4,385.9,118.9,392.9,117.5z"/>
</g>
<g>
	<path class="st0" d="M549.3,54.7c6-3.8,16.5-1.4,20.3,4.5C563.4,63,552.8,60.7,549.3,54.7z"/>
</g>
<g>
	<path class="st0" d="M556.7,46.5c-7-2.1-12.2-11-10.4-17.7C553.7,30.1,558.9,41.7,556.7,46.5z"/>
</g>
<g>
	<path class="st0" d="M377.8,152.4c-6.9-1.9-12.1-11-10.4-17.8C374.9,136,380,147.5,377.8,152.4z"/>
</g>
<g>
	<path class="st0" d="M370.8,115.1c6.6,3,10.2,12.3,7.7,19.3C372.7,132.9,367.8,121.9,370.8,115.1z"/>
</g>
<g>
	<path class="st0" d="M427,37.7c2.6,7.1-1.3,16.7-7.7,19.3C416.4,50.6,420.1,41.2,427,37.7z"/>
</g>
<g>
	<path class="st0" d="M592.8,85.6c-7,1.9-16.8-4.1-18-10.3C581.6,73.4,590.7,78.6,592.8,85.6z"/>
</g>
<g>
	<path class="st0" d="M606.8,117.6c-7.4-0.8-13.5-7.2-14.3-15.1C598.4,101.3,606.3,109.6,606.8,117.6z"/>
</g>
<g>
	<path class="st0" d="M380,170.3c-7.5-1.4-13.5-8.9-13-16C373.8,154.6,380.7,163.1,380,170.3z"/>
</g>
<g>
	<path class="st0" d="M416.1,75.2c-1.6,6.7-10.2,11.7-17.7,10.5C398.4,79.8,408.5,73.7,416.1,75.2z"/>
</g>
<g>
	<path class="st0" d="M408.5,71.6c3-6.6,13.3-10.6,19.4-7.5C425.1,70.4,415.7,74.1,408.5,71.6z"/>
</g>
<g>
	<path class="st0" d="M398.5,102.2c0.2,7.3-6.6,14.7-14,15.4C384,110.8,391,103,398.5,102.2z"/>
</g>
<g>
	<path class="st0" d="M612.7,134.6c-2.6-7.1,1-16.2,7.5-19.4C623.5,120.8,619.6,131.3,612.7,134.6z"/>
</g>
<g>
	<path class="st0" d="M390.3,101c0.8-6.9,8-12.8,15.9-13.1C406.9,93.4,397.7,102.1,390.3,101z"/>
</g>
<g>
	<path class="st0" d="M380.8,152.4c-2.4-6.8,2-16.3,8.6-18.8C392,139.9,387.8,149.4,380.8,152.4z"/>
</g>
<g>
	<path class="st0" d="M610.5,152.3c-6.5-1.9-11.4-12.4-8.8-18.7C608.3,136,612.5,145.1,610.5,152.3z"/>
</g>
<g>
	<path class="st0" d="M382.8,169.7c-3.1-6.8-0.3-16.2,5.8-19.9C392.4,155,389.2,166.4,382.8,169.7z"/>
</g>
<g>
	<path class="st0" d="M390.5,166c4.1,6.1,2.8,16.1-2.8,20.5C383.4,181.2,384.9,169.7,390.5,166z"/>
</g>
<g>
	<path class="st0" d="M571.6,57c-6.6-3-10.2-12.2-7.8-19.2C570.3,40.2,574.6,50.7,571.6,57z"/>
</g>
<g>
	<path class="st0" d="M562.9,64c6.8-2.8,16.3,0.9,19.4,7.3C578.1,74.3,566.4,71.6,562.9,64z"/>
</g>
<g>
	<path class="st0" d="M600.7,166c5.5,3.9,7,14.3,2.9,20.4C598.6,183.8,596.1,171.6,600.7,166z"/>
</g>
<g>
	<path class="st0" d="M579.7,49.4c6,3.5,8.6,14.2,4.8,20.2C578.5,66.1,575.9,55.3,579.7,49.4z"/>
</g>
<g>
	<path class="st0" d="M584.7,88c7.9,0,15,5.7,16.2,12.9C594.7,102.4,585.8,95.4,584.7,88z"/>
</g>
<g>
	<path class="st0" d="M624.2,154.2c0.6,7.1-5.4,14.6-12.8,16C609.6,165.4,616.5,154.6,624.2,154.2z"/>
</g>
<g>
	<path class="st0" d="M606.3,187.5c0.9-7.5,8.3-14.1,15.2-13.8C621.4,180.4,613.8,187.3,606.3,187.5z"/>
</g>
<g>
	<path class="st0" d="M369.7,173.6c7.4,0.1,15.1,7.1,15.1,13.8C377.7,187.6,370.1,180.8,369.7,173.6z"/>
</g>
<g>
	<path class="st0" d="M434.9,101.3"/>
</g>
<g>
	<path class="st0" d="M502.1,38.5c-1.4-1-2.9-1.9-4.2-3c-1-0.9-1.8-0.8-2.8,0c-1.4,1.1-2.9,2.1-4.9,3.5c0.6-1.9,0.9-3.3,1.5-4.6
		c0.9-2,0.7-3.4-1.4-4.4c-1.2-0.6-2.3-1.6-3.2-2.9c1.8,0,3.6,0.1,5.4-0.1c0.7-0.1,1.7-0.8,2-1.5c0.8-1.6,1.2-3.4,2-5.7
		c0.7,2.2,1.3,3.8,1.7,5.4c0.4,1.4,1,2,2.5,1.9c1.7-0.1,3.4,0,5.3,0.4c-1.2,0.9-2.3,1.9-3.6,2.6c-1.8,1-2.1,2.2-1.2,4.1
		c0.6,1.3,0.8,2.7,1.3,4C502.4,38.3,502.3,38.4,502.1,38.5z"/>
</g>
<g>
	<path class="st0" d="M469,41.6c0.2-1.8,0.5-3.6,0.5-5.4c0-0.8-0.6-1.8-1.3-2.2c-1.5-0.9-3.2-1.6-5.4-2.6c2.2-0.5,3.7-0.9,5.2-1.1
		c1.7-0.2,2.5-0.8,2.6-2.7c0-1.6,0.4-3.1,1-4.8c0.7,1.3,1.6,2.5,2.1,3.8c0.8,1.7,1.8,2.4,3.7,1.8c1.4-0.5,3-0.6,5.2-1.1
		c-1.5,1.7-2.6,3-3.8,4.1c-1.3,1.2-1.2,2.2-0.3,3.5c0.9,1.4,1.6,2.8,2.7,4.8c-2.3-1-4-1.9-5.7-2.5c-0.7-0.2-1.8,0-2.3,0.4
		c-1.4,1.2-2.5,2.6-3.7,3.9C469.3,41.7,469.1,41.7,469,41.6z"/>
</g>
<g>
	<path class="st0" d="M510,27.5c2,0.4,3.6,0.5,5,1c2,0.7,3.1,0,3.9-1.8c0.6-1.3,1.4-2.6,2.4-4.4c0.3,1.9,0.6,3.2,0.5,4.4
		c-0.2,2.7,1.2,3.8,3.7,3.9c1.2,0.1,2.3,0.5,3.6,1.2c-1.5,0.7-3,1.5-4.6,2.1c-1.4,0.5-1.8,1.4-1.5,2.8c0.3,1.7,0.4,3.4,0.6,5.7
		c-1.6-1.7-2.9-2.9-3.9-4.3c-0.9-1.2-1.8-1.3-3.1-0.6c-1.5,0.8-3,1.4-5.2,2.4c1.4-2.5,2.5-4.5,3.7-6.7C513.6,31.4,512,29.6,510,27.5
		z"/>
</g>
<g>
	<path class="st0" d="M440.5,246.8c-1.5,0.1-2.3,0.1-3.1,0.2c-4.1,0.4-4.1,0.4-5.3,4.4c-0.2,0.7-0.5,1.4-0.8,2.5
		c-0.6-1.6-1.2-2.9-1.5-4.2c-0.5-2.2-1.8-2.7-3.8-2.5c-1.2,0.1-2.3,0-4.1,0c1.7-1.4,3.1-2.3,4.1-3.4c0.5-0.6,0.9-1.7,0.7-2.4
		c-0.3-1.6-1-3.1-1.8-5.4c2,1.3,3.4,2.2,4.7,3.2c0.9,0.7,1.7,0.8,2.6,0c1.3-1.1,2.6-2,4.5-3.5c-0.4,1.6-0.6,2.7-1,3.7
		c-1.1,2.4-0.7,4.2,1.8,5.3C438.4,245.1,439.2,245.9,440.5,246.8z"/>
</g>
<g>
	<path class="st0" d="M540.2,263.7c-0.1-1.2-0.2-2.5-0.3-3.7c0-1.8-0.7-2.8-2.6-3.1c-1.4-0.2-2.8-0.6-4.8-1.1c2-0.8,3.4-1.5,4.9-2.1
		c1.3-0.5,1.8-1.2,1.6-2.6c-0.2-1.6-0.3-3.3-0.5-5.5c1.5,1.7,2.7,2.9,3.7,4.3c0.8,1.1,1.6,1.2,2.7,0.6c1.4-0.7,2.9-1.2,4.7-1.5
		c-0.8,1.3-1.5,2.7-2.4,4c-0.8,1.1-0.8,2,0.2,3c1.1,1.1,2,2.3,3.4,4c-2-0.4-3.4-0.6-4.8-1c-1.6-0.6-2.6,0-3.3,1.4
		c-0.6,1.2-1.4,2.3-2.1,3.4C540.5,263.7,540.3,263.7,540.2,263.7z"/>
</g>
<g>
	<path class="st0" d="M453.6,264.4c-1.1-1.7-1.9-3-2.7-4.4c-0.7-1.2-1.4-1.6-2.8-1.1c-1.4,0.5-3,0.7-5,1.1c1.3-1.6,2.2-2.9,3.4-4
		c1-1,1-1.9,0.2-3c-0.9-1.3-1.7-2.7-2.8-4.6c1.4,0.6,2.4,0.9,3.3,1.3c4,1.5,2.8,2.1,5.8-1.3c0.6-0.7,1.3-1.4,2.4-2
		c-0.1,1.5-0.2,3.1-0.4,4.6c-0.2,1.4,0.2,2.1,1.5,2.6c1.5,0.5,2.9,1.2,4.9,2.1c-2.1,0.5-3.8,0.8-5.3,1.4c-0.7,0.3-1.5,1.1-1.7,1.9
		C453.9,260.6,453.8,262.3,453.6,264.4z"/>
</g>
<g>
	<path class="st0" d="M502,271.2c-1.4-0.9-2.2-1.4-2.9-2c-1.7-1.6-3.2-1.7-4.9,0c-0.8,0.8-1.8,1.3-3.2,2.3c0.6-2,1-3.4,1.5-4.7
		c0.6-1.5,0.2-2.4-1.1-3.2c-1.2-0.7-2.3-1.6-3.4-2.9c1.6,0,3.1,0.2,4.6-0.1c0.8-0.1,1.8-0.9,2.2-1.6c0.7-1.5,1.1-3.1,1.8-5.3
		c0.7,2.1,1.2,3.6,1.6,5.1c0.4,1.4,1.1,2,2.6,1.9c1.5-0.1,3,0,5.1,0c-1.2,0.9-1.9,1.4-2.6,1.9c-3.8,2.7-3.1,1.9-2,5.8
		C501.5,269.1,501.6,269.8,502,271.2z"/>
</g>
<g>
	<path class="st0" d="M518.7,252.4c0.8,1.4,1.6,2.7,2.3,4.1c0.6,1.3,1.5,1.5,2.8,1.2c1.5-0.4,2.9-0.6,4.7-0.5
		c-1.1,1.1-2.1,2.3-3.2,3.4c-0.9,0.9-1.1,1.7-0.4,2.8c0.9,1.3,1.5,2.8,2.5,4.6c-1.8-0.8-3.2-1.3-4.5-2c-1.3-0.7-2.2-0.5-3.1,0.6
		c-1,1.2-2,2.2-3.3,3.6c0.1-1.3,0.2-2.3,0.2-3.2c0.2-3.7,0.2-3.7-3.2-5.2c-0.8-0.3-1.5-0.7-2.9-1.4c1.8-0.4,2.9-0.8,4.1-0.8
		c2.3-0.1,3.1-1.4,3.2-3.5c0-1.2,0.2-2.4,0.3-3.6C518.4,252.5,518.6,252.5,518.7,252.4z"/>
</g>
<g>
	<path class="st0" d="M475.3,252.2c0.3,0.4,0.3,0.5,0.3,0.6c0.3,2,0,4.6,1.2,5.9c1.1,1.3,3.7,1.3,6.1,1.9c-1.5,0.8-2.8,1.5-4.2,2
		c-1.5,0.5-2,1.4-1.7,2.9c0.2,1.4,0.3,2.9,0.5,4.7c-1.3-1.3-2.5-2.3-3.4-3.4c-1-1.1-1.9-1.3-3.1-0.6c-1.2,0.6-2.5,1.1-4.4,1.9
		c1-1.9,1.6-3.2,2.4-4.5c0.7-1.1,0.6-1.9-0.3-2.8c-1.1-1-2-2.2-2.8-3.8c1.4,0.3,2.9,0.5,4.3,0.8c1.3,0.3,2.2,0,2.8-1.2
		C473.6,255.1,474.4,253.8,475.3,252.2z"/>
</g>
<g>
	<path class="st0" d="M442.7,54.7c-4,6-14,8.2-20.3,4.6C425.4,53.3,437.3,51,442.7,54.7z"/>
</g>
<g>
	<path class="st0" d="M436.6,48.7c5.5-5.2,15.7-5.7,20.7-1.1C452.4,53,440.3,53.7,436.6,48.7z"/>
</g>
<g>
	<path class="st0" d="M435,46.5c-1.3-7.5,4.1-16.5,10.6-17.8C447.6,35.2,442.1,44.5,435,46.5z"/>
</g>
<g>
	<path class="st0" d="M535.9,47.6c5.3-4.7,16.3-3.9,20.7,1.4C551.2,53.7,540.5,52.9,535.9,47.6z"/>
</g>
<g>
	<path class="st0" d="M496.4,290.7c-80.1,0-145.3-65.2-145.3-145.3S416.3,0,496.4,0s145.3,65.2,145.3,145.3S576.6,290.7,496.4,290.7
		z M496.4,6.3c-76.7,0-139.1,62.4-139.1,139.1s62.4,139.1,139.1,139.1S635.5,222,635.5,145.3S573.1,6.3,496.4,6.3z"/>
</g>
<g>
	<path class="st0" d="M434.4,103c-0.6-1-2.2-1.9-4-1.9c-2.4,0-3.5,1-3.5,2.3c0,1.5,1.7,1.9,3.8,2.1c3.5,0.4,6.8,1.4,6.8,5.4
		c0,3.8-3.4,5.4-7.1,5.4c-3.5,0-6.1-1.1-7.4-4.2l2.7-1.4c0.8,1.9,2.7,2.7,4.8,2.7c2,0,3.9-0.7,3.9-2.5c0-1.6-1.7-2.3-3.9-2.5
		c-3.5-0.4-6.7-1.3-6.7-5.2c0-3.5,3.4-4.9,6.6-4.9c2.6,0,5.4,0.8,6.7,3.4L434.4,103z"/>
	<path class="st0" d="M452.1,112.6h-8.9l-1.5,3.2h-3.5l7.6-17h3.5l7.6,17h-3.5L452.1,112.6z M447.6,102.4l-3.2,7.2h6.3L447.6,102.4z
		"/>
	<path class="st0" d="M460.1,101.8h-5.4v-2.9c4.9,0,9.1,0,14,0v2.9h-5.4v14.1h-3.2V101.8z"/>
	<path class="st0" d="M470.7,115.8v-17h3.2v17H470.7z"/>
	<path class="st0" d="M476.9,115.8v-17h12.2v3.1h-9v4.6h8.5v3h-8.5v6.3H476.9z"/>
	<path class="st0" d="M503.4,112.6h-8.9l-1.5,3.2h-3.5l7.6-17h3.5l7.6,17h-3.5L503.4,112.6z M498.9,102.4l-3.2,7.2h6.3L498.9,102.4z
		"/>
	<path class="st0" d="M523.8,113.7c-1.7,1.7-4,2.5-6.5,2.5c-6.3,0-9-4.3-9-8.8c0-4.4,2.9-9,9-9c2.3,0,4.5,0.9,6.2,2.6l-2.1,2.1
		c-1.1-1.1-2.6-1.6-4.1-1.6c-4.1,0-5.9,3.1-5.8,5.9c0,2.8,1.7,5.8,5.8,5.8c1.5,0,3.2-0.6,4.3-1.7L523.8,113.7z"/>
	<path class="st0" d="M529.7,101.8h-5.4v-2.9c4.9,0,9.1,0,14,0v2.9h-5.4v14.1h-3.2V101.8z"/>
	<path class="st0" d="M540.3,115.8v-17h3.2v17H540.3z"/>
	<path class="st0" d="M563.7,107.4c0,4.4-2.7,8.8-8.7,8.8c-6,0-8.7-4.3-8.7-8.8s2.9-9,8.7-9C560.9,98.5,563.8,103,563.7,107.4z
		 M549.4,107.5c0.1,2.8,1.6,5.8,5.6,5.8c4,0,5.5-3,5.6-5.8c0-2.9-1.6-6.1-5.6-6.1C551,101.4,549.4,104.7,549.4,107.5z"/>
	<path class="st0" d="M577.3,98.8h3.2v17h-2v0l-8.9-11.5v11.5h-3.2v-17h2.6l8.3,10.5V98.8z"/>
</g>
<g>
	<path class="st0" d="M432.4,168.6h9.4v-31.9l-10.3,3.2l-1.4-3.6l13.1-5.9l4.3,0.7v37.4h8.4v4.8h-23.4V168.6z"/>
	<path class="st0" d="M466,168.1c-2.6-3.9-3.9-9.2-3.9-16.1c0-6.9,1.3-12.2,3.9-16.1c2.6-3.8,6.5-5.7,11.8-5.7
		c5.3,0,9.2,1.9,11.8,5.7c2.6,3.8,3.9,9.2,3.9,16.1c0,6.9-1.3,12.3-3.9,16.1c-2.6,3.9-6.5,5.8-11.7,5.8
		C472.5,173.9,468.6,172,466,168.1z M484.8,164.8c1.6-2.9,2.5-7.1,2.5-12.8c0-5.6-0.8-9.8-2.5-12.7c-1.7-2.9-4-4.3-7.1-4.3
		c-3.1,0-5.4,1.4-7.1,4.3c-1.7,2.9-2.5,7.1-2.5,12.7c0,5.6,0.8,9.9,2.5,12.8c1.7,2.9,4,4.3,7.1,4.3
		C480.8,169.1,483.2,167.6,484.8,164.8z"/>
	<path class="st0" d="M504.8,168.1c-2.6-3.9-3.9-9.2-3.9-16.1c0-6.9,1.3-12.2,3.9-16.1c2.6-3.8,6.5-5.7,11.8-5.7
		c5.3,0,9.2,1.9,11.8,5.7c2.6,3.8,3.9,9.2,3.9,16.1c0,6.9-1.3,12.3-3.9,16.1c-2.6,3.9-6.5,5.8-11.7,5.8
		C511.3,173.9,507.4,172,504.8,168.1z M523.7,164.8c1.7-2.9,2.5-7.1,2.5-12.8c0-5.6-0.8-9.8-2.5-12.7c-1.7-2.9-4-4.3-7.1-4.3
		c-3.1,0-5.4,1.4-7.1,4.3c-1.7,2.9-2.5,7.1-2.5,12.7c0,5.6,0.8,9.9,2.5,12.8c1.7,2.9,4,4.3,7.1,4.3
		C519.7,169.1,522,167.6,523.7,164.8z"/>
	<path class="st0" d="M542.7,151.8c-1.6-2.2-2.4-5.3-2.4-9.2s0.8-6.9,2.4-9.1c1.6-2.2,4-3.3,7.1-3.3c3.2,0,5.5,1.1,7.1,3.3
		c1.6,2.2,2.4,5.2,2.4,9.1c0,3.9-0.8,7-2.4,9.2c-1.6,2.2-3.9,3.3-7.1,3.3C546.7,155.1,544.3,154,542.7,151.8z M553.3,148.7
		c0.8-1.4,1.2-3.4,1.2-6.1c0-2.7-0.4-4.7-1.2-6.1c-0.8-1.4-2-2-3.4-2c-1.5,0-2.6,0.7-3.4,2.1c-0.8,1.4-1.2,3.4-1.2,6.1
		c0,2.7,0.4,4.7,1.2,6.1c0.8,1.4,2,2.1,3.4,2.1C551.3,150.8,552.5,150.1,553.3,148.7z M547.9,173.3l25.8-44.6l4.2,2.4l-25.8,44.6
		L547.9,173.3z M569.6,170.6c-1.6-2.2-2.4-5.3-2.4-9.2s0.8-6.9,2.4-9.1c1.6-2.2,4-3.3,7.1-3.3c3.2,0,5.6,1.1,7.1,3.3
		c1.6,2.2,2.4,5.2,2.4,9.1c0,3.9-0.8,7-2.4,9.2c-1.6,2.2-3.9,3.3-7.1,3.3C573.5,174,571.2,172.9,569.6,170.6z M580.1,167.5
		c0.8-1.4,1.2-3.4,1.2-6.1c0-2.7-0.4-4.7-1.2-6.1c-0.8-1.4-2-2-3.4-2s-2.6,0.7-3.4,2.1c-0.8,1.4-1.2,3.4-1.2,6.1
		c0,2.7,0.4,4.7,1.2,6.1c0.8,1.4,2,2.1,3.4,2.1S579.3,168.9,580.1,167.5z"/>
</g>
<g>
	<g>
		<path class="st0" d="M432.6,196.8c-1.3-1.2-3.1-1.9-4.8-1.9c-4,0-6.5,3-6.5,6.9c0,3.1,1.8,6.3,6.5,6.3c1.5,0,2.8-0.3,4.2-1.5v-3.3
			h-4.8v-3.2h8v7.9c-1.8,2.1-4.2,3.4-7.5,3.4c-7,0-9.9-4.6-9.9-9.6c0-5.3,3.3-10.1,9.9-10.1c2.5,0,5,1,7,2.9L432.6,196.8z"/>
		<path class="st0" d="M454.6,192.2V203c0,5.5-3.4,8.4-8.1,8.4c-4.5,0-8.3-2.7-8.3-8.4v-10.7h3.5V203c0,3.4,1.9,5.2,4.8,5.2
			c2.9,0,4.6-2,4.6-5.2v-10.7H454.6z"/>
		<path class="st0" d="M471.3,207.4h-9.8l-1.6,3.5h-3.8l8.4-18.7h3.9l8.4,18.7h-3.9L471.3,207.4z M466.4,196.2l-3.5,8h7L466.4,196.2
			z"/>
		<path class="st0" d="M495,210.9h-4.2l-5.5-6.3h-3.4v6.3h-3.5v-18.8c3,0,5.9,0,8.9,0c4.4,0,6.7,3,6.7,6.2c0,2.6-1.2,5.2-4.7,5.9
			l5.7,6.4V210.9z M481.9,195.5v6h5.4c2.2,0,3.2-1.5,3.2-3c0-1.5-1-3-3.2-3H481.9z"/>
		<path class="st0" d="M509.7,207.4h-9.8l-1.6,3.5h-3.8l8.4-18.7h3.9l8.4,18.7h-3.9L509.7,207.4z M504.8,196.2l-3.5,8h7L504.8,196.2
			z"/>
		<path class="st0" d="M529,192.2h3.5v18.8h-2.2v0l-9.8-12.7v12.6H517v-18.7h2.9l9.2,11.6V192.2z"/>
		<path class="st0" d="M540.6,195.4h-5.9v-3.2c5.4,0,10,0,15.4,0v3.2h-5.9v15.5h-3.5V195.4z"/>
		<path class="st0" d="M566.2,210.9h-14c0-6.2,0-12.5,0-18.7h14v3.4h-10.5v4.3h10.1v3.3h-10.1v4.2h10.5V210.9z"/>
		<path class="st0" d="M585.4,201.4c0.1,4.7-2.8,9.5-9.4,9.5c-2.3,0-5.1,0-7.4,0v-18.7c2.3,0,5.1,0,7.4,0
			C582.5,192.2,585.3,196.8,585.4,201.4z M572.2,207.6h3.9c4.3,0,5.9-3.1,5.9-6.2c-0.1-2.9-1.8-5.8-5.9-5.8h-3.9V207.6z"/>
	</g>
	<g>
		<path class="st0" d="M432.6,196.8c-1.3-1.2-3.1-1.9-4.8-1.9c-4,0-6.5,3-6.5,6.9c0,3.1,1.8,6.3,6.5,6.3c1.5,0,2.8-0.3,4.2-1.5v-3.3
			h-4.8v-3.2h8v7.9c-1.8,2.1-4.2,3.4-7.5,3.4c-7,0-9.9-4.6-9.9-9.6c0-5.3,3.3-10.1,9.9-10.1c2.5,0,5,1,7,2.9L432.6,196.8z"/>
		<path class="st0" d="M454.6,192.2V203c0,5.5-3.4,8.4-8.1,8.4c-4.5,0-8.3-2.7-8.3-8.4v-10.7h3.5V203c0,3.4,1.9,5.2,4.8,5.2
			c2.9,0,4.6-2,4.6-5.2v-10.7H454.6z"/>
		<path class="st0" d="M471.3,207.4h-9.8l-1.6,3.5h-3.8l8.4-18.7h3.9l8.4,18.7h-3.9L471.3,207.4z M466.4,196.2l-3.5,8h7L466.4,196.2
			z"/>
		<path class="st0" d="M495,210.9h-4.2l-5.5-6.3h-3.4v6.3h-3.5v-18.8c3,0,5.9,0,8.9,0c4.4,0,6.7,3,6.7,6.2c0,2.6-1.2,5.2-4.7,5.9
			l5.7,6.4V210.9z M481.9,195.5v6h5.4c2.2,0,3.2-1.5,3.2-3c0-1.5-1-3-3.2-3H481.9z"/>
		<path class="st0" d="M509.7,207.4h-9.8l-1.6,3.5h-3.8l8.4-18.7h3.9l8.4,18.7h-3.9L509.7,207.4z M504.8,196.2l-3.5,8h7L504.8,196.2
			z"/>
		<path class="st0" d="M529,192.2h3.5v18.8h-2.2v0l-9.8-12.7v12.6H517v-18.7h2.9l9.2,11.6V192.2z"/>
		<path class="st0" d="M540.6,195.4h-5.9v-3.2c5.4,0,10,0,15.4,0v3.2h-5.9v15.5h-3.5V195.4z"/>
		<path class="st0" d="M566.2,210.9h-14c0-6.2,0-12.5,0-18.7h14v3.4h-10.5v4.3h10.1v3.3h-10.1v4.2h10.5V210.9z"/>
		<path class="st0" d="M585.4,201.4c0.1,4.7-2.8,9.5-9.4,9.5c-2.3,0-5.1,0-7.4,0v-18.7c2.3,0,5.1,0,7.4,0
			C582.5,192.2,585.3,196.8,585.4,201.4z M572.2,207.6h3.9c4.3,0,5.9-3.1,5.9-6.2c-0.1-2.9-1.8-5.8-5.9-5.8h-3.9V207.6z"/>
	</g>
</g>
<g>
	<path class="st0" d="M429.4,380.3c-2.4-2.5-5.3-5.5-7.3-7.8l-0.1,0c1.2,2.7,2.5,5.8,3.8,9.2l4.5,12l-1.8,1.6l-10.8-6.3
		c-3.2-1.9-6-3.7-8.4-5.5l-0.1,0c2,2.4,4.5,5.6,6.8,8.6l6.4,8.5l-2.3,2l-14.9-19.9l3.1-2.7l11,6.3c2.8,1.6,5.2,3.2,7.3,4.7l0.1,0
		c-1.1-2.3-2.2-5-3.4-8l-4.5-12l3.1-2.7l17.3,17.8l-2.4,2.1L429.4,380.3z"/>
	<path class="st0" d="M442.3,375.9l1.3,8.1l-2.9,1.5l-3.8-25.9l3.4-1.7l18.8,18.1l-3,1.6l-5.9-5.7L442.3,375.9z M448.4,370l-5.4-5.2
		c-1.2-1.2-2.2-2.3-3.2-3.4l-0.1,0c0.3,1.4,0.7,3,0.9,4.6l1.1,7.5L448.4,370z"/>
	<path class="st0" d="M455.3,351.6c1.8-0.8,4-1.6,6.4-2.3c4.5-1.2,7.9-0.9,10.5,0.4c2.7,1.4,4.7,3.8,5.7,7.7c1,3.9,0.6,7.4-1,10.2
		c-1.7,2.8-5.1,5-9.7,6.3c-2.2,0.6-4.1,1-5.7,1.2L455.3,351.6z M463.9,372c0.8-0.1,2-0.4,3.2-0.7c6.7-1.8,9.2-6.4,7.5-12.9
		c-1.4-5.7-5.6-8.4-12.1-6.7c-1.6,0.4-2.8,0.9-3.5,1.3L463.9,372z"/>
	<path class="st0" d="M496.5,357.7l-9.6,0.6l0.5,8.9l10.7-0.6l0.2,2.7l-13.9,0.8l-1.4-24.7l13.4-0.8l0.2,2.7l-10.2,0.6l0.5,7.8
		l9.6-0.6L496.5,357.7z"/>
	<path class="st0" d="M512.4,370.4l-0.2-25.5l3.3,0.8l-0.1,12.9c0,3.2-0.1,6.3-0.3,8.8l0.1,0c1-2.3,2.4-5,4-7.9l6.2-11.3l3.2,0.8
		l-0.1,12.9c0,3-0.1,6-0.3,8.6l0.1,0c1.1-2.5,2.5-5,4-7.8l6.1-11.4l3.2,0.8l-12.7,22.4l-3.2-0.8l0-13.3c0-3.3,0.1-5.7,0.4-8.2
		l-0.1,0c-1,2.3-2.1,4.5-3.8,7.4l-6.5,11.7L512.4,370.4z"/>
	<path class="st0" d="M550.6,356.8l-10.2,22.5l-2.9-1.3l10.2-22.5L550.6,356.8z"/>
	<path class="st0" d="M561.1,365.5l-6.4-4l1.4-2.3l15.6,9.7l-1.4,2.3l-6.4-4l-11.7,18.7l-2.7-1.7L561.1,365.5z"/>
	<path class="st0" d="M579.4,375.3l-7.1,7.5l8.7,8.2l7.1-7.5l2.3,2.2l-17,18l-2.3-2.2l8-8.4l-8.7-8.2l-8,8.4L560,391l17-18
		L579.4,375.3z"/>
</g>
<g>
	<path class="st0" d="M409.2,524.6l-21.4,12.4l-1.6-2.8l21.4-12.4L409.2,524.6z"/>
	<path class="st0" d="M392.4,544.8l19.2-15.7l2.2,2.7l-4.7,14.1c-1.1,3.2-2.2,6-3.4,8.5l0.1,0.1c2.4-2.3,4.7-4.3,7.7-6.7l8-6.6
		l1.9,2.3l-19.2,15.7l-2-2.5l4.8-14.1c1-3.1,2.2-6.2,3.5-8.8l-0.1-0.1c-2.3,2.1-4.6,4-7.8,6.6l-8.2,6.7L392.4,544.8z"/>
	<path class="st0" d="M426.8,576.9c-1.5-0.5-4.2-1.6-6.9-3.6c-2.9-2.3-4.8-5-5.3-8.3c-0.4-2.9,0.6-6.3,3-9.4
		c4.6-5.8,11.9-6.9,18.4-1.8c2.3,1.8,3.7,3.7,4.2,4.7l-2.2,1.6c-0.7-1.3-1.7-2.7-3.6-4.2c-4.7-3.7-10.1-3.2-14,1.7
		c-3.9,4.9-3.2,10.2,1.3,13.7c1.6,1.3,2.9,1.9,3.8,2.1l4.6-5.8l-3.9-3.1l1.6-2l6.4,5L426.8,576.9z"/>
	<path class="st0" d="M444.7,560.5c1.6,0.5,3.8,1.3,5.7,2.3c3.1,1.5,4.8,3.1,5.5,5c0.6,1.5,0.5,3.4-0.4,5.1
		c-1.4,2.9-4.2,3.9-6.9,3.6l-0.1,0.1c1.4,1.4,1.6,3.5,1,6.1c-0.8,3.4-1.3,5.8-1.3,6.9l-3-1.5c0-0.8,0.4-3,1.2-6
		c0.9-3.4,0.2-5.1-2.3-6.5l-2.7-1.3l-4.8,9.6l-2.9-1.4L444.7,560.5z M442.6,572l2.9,1.4c3.1,1.5,5.8,0.8,7.1-1.7
		c1.4-2.9,0-5.1-3.1-6.6c-1.4-0.7-2.4-1.1-2.9-1.2L442.6,572z"/>
	<path class="st0" d="M470.9,584.4l-9.2-2.7l-2.5,8.6l10.3,3l-0.8,2.6l-13.4-3.9l6.9-23.8l12.9,3.7l-0.8,2.6l-9.8-2.8l-2.2,7.5
		l9.2,2.7L470.9,584.4z"/>
	<path class="st0" d="M476.8,597.5l2-24.7l3.5,0.3l6.8,13.1c1.6,3,2.8,5.8,3.7,8.4l0.1,0c0-3.3,0.2-6.3,0.5-10.2l0.9-10.3l3,0.3
		l-2.1,24.7l-3.2-0.3l-6.8-13.2c-1.5-2.9-2.9-5.8-3.9-8.6l-0.1,0c-0.1,3.1-0.3,6.1-0.6,10.2l-0.9,10.5L476.8,597.5z"/>
	<path class="st0" d="M501.8,574.6c1.9-0.6,4.1-1.1,6.6-1.5c4.5-0.6,7.9,0,10.3,1.6c2.5,1.7,4.2,4.3,4.7,8.3c0.6,4-0.2,7.5-2.2,10
		c-2,2.6-5.6,4.4-10.4,5.1c-2.3,0.3-4.2,0.5-5.8,0.5L501.8,574.6z M508.1,595.8c0.8,0,2-0.1,3.2-0.3c6.8-1,9.9-5.3,8.9-11.9
		c-0.8-5.8-4.6-9-11.3-8c-1.6,0.2-2.9,0.6-3.7,0.9L508.1,595.8z"/>
	<path class="st0" d="M528.3,568.9l7.3,23.7l-3.1,0.9l-7.3-23.6L528.3,568.9z"/>
	<path class="st0" d="M550.7,573.8l-8.7,4l3.7,8.1l9.8-4.5l1.1,2.4l-12.7,5.8l-10.3-22.5l12.2-5.6l1.1,2.4l-9.2,4.3l3.3,7.1l8.7-4
		L550.7,573.8z"/>
	<path class="st0" d="M563.8,579.9l-14.6-20l2.9-2.1l13.8,5.5c3.2,1.3,5.9,2.5,8.3,3.9l0.1-0.1c-2.2-2.5-4-4.9-6.3-8l-6.1-8.4
		l2.4-1.8l14.6,20l-2.6,1.9l-13.8-5.5c-3-1.2-6-2.5-8.6-4l-0.1,0.1c2,2.4,3.8,4.8,6.2,8.1l6.2,8.6L563.8,579.9z"/>
	<path class="st0" d="M572.7,544l-5.1,5.5l-2-1.8l12.4-13.5l2,1.8l-5.1,5.6l16.2,14.9l-2.2,2.4L572.7,544z"/>
	<path class="st0" d="M596.3,544.2c1.5-0.7,3.2-2.1,4.4-3.9c1.8-2.7,1.4-5.3-0.7-6.6c-1.9-1.2-3.8-0.9-6.6,1.3
		c-3.4,2.6-6.6,3.5-9.5,1.7c-3.2-2.1-3.9-6.3-1.3-10.4c1.4-2.1,2.9-3.4,4-3.9l1.7,2.2c-0.8,0.4-2.3,1.4-3.5,3.3
		c-1.8,2.8-0.8,5,0.6,5.9c1.9,1.3,3.7,0.6,6.7-1.5c3.6-2.6,6.5-3.3,9.5-1.3c3.2,2.1,4.5,6.2,1.3,11.1c-1.3,2-3.3,3.8-4.8,4.4
		L596.3,544.2z"/>
</g>
<g>
	<path class="st0" d="M496.4,616.9c-80.1,0-145.3-65.2-145.3-145.3s65.2-145.3,145.3-145.3s145.3,65.2,145.3,145.3
		S576.6,616.9,496.4,616.9z M496.4,332.5c-76.7,0-139.1,62.4-139.1,139.1s62.4,139.1,139.1,139.1s139.1-62.4,139.1-139.1
		S573.1,332.5,496.4,332.5z"/>
</g>
<g>
	<path class="st0" d="M496.4,565.2c-51.6,0-93.6-42-93.6-93.6s42-93.6,93.6-93.6s93.6,42,93.6,93.6S548.1,565.2,496.4,565.2z
		 M496.4,384.2c-48.2,0-87.4,39.2-87.4,87.4s39.2,87.4,87.4,87.4s87.4-39.2,87.4-87.4S544.6,384.2,496.4,384.2z"/>
</g>
<g>
	<path class="st0" d="M635,512.4H357.9c-0.7,0-1.2-0.5-1.2-1.2V432c0-0.7,0.5-1.2,1.2-1.2H635c0.7,0,1.2,0.5,1.2,1.2v79.3
		C636.2,511.9,635.7,512.4,635,512.4z"/>
</g>
<g>
	<path class="st2" d="M367.6,487.2v-35.9h9.5l7.4,13.2c2.2,3.8,4.2,8.3,5.9,12.3l0.1,0c-0.5-4.7-0.6-9.6-0.6-15v-10.5h7.4v35.9h-8.5
		l-7.7-13.8c-2.1-3.9-4.5-8.5-6.2-12.7l-0.2,0c0.3,4.8,0.4,9.8,0.4,15.7v10.8H367.6z"/>
	<path class="st2" d="M439.4,468.9c0,11.8-7.1,18.9-17.6,18.9c-10.6,0-16.9-8-16.9-18.3c0-10.7,6.9-18.8,17.5-18.8
		C433.4,450.8,439.4,459,439.4,468.9z M413.5,469.4c0,7,3.3,12,8.7,12c5.5,0,8.6-5.2,8.6-12.2c0-6.5-3.1-12-8.6-12
		C416.7,457.2,413.5,462.4,413.5,469.4z"/>
	<path class="st2" d="M447,487.2v-35.9h9.5l7.5,13.2c2.1,3.8,4.2,8.3,5.9,12.3l0.1,0c-0.5-4.7-0.7-9.6-0.7-15v-10.5h7.5v35.9h-8.5
		l-7.7-13.8c-2.1-3.9-4.5-8.5-6.2-12.7l-0.2,0c0.3,4.8,0.3,9.8,0.3,15.7v10.8H447z"/>
	<path class="st2" d="M498,470.5v5.4h-13.9v-5.4H498z"/>
	<path class="st2" d="M536,485.6c-2.5,0.9-7.2,2-12,2c-6.6,0-11.3-1.6-14.6-4.8c-3.3-3.1-5.1-7.8-5.1-13.1
		c0-11.9,8.7-18.7,20.5-18.7c4.6,0,8.2,0.9,10,1.7l-1.7,6.5c-2-0.9-4.4-1.5-8.3-1.5c-6.8,0-11.9,3.8-11.9,11.6
		c0,7.4,4.7,11.8,11.3,11.8c1.8,0,3.3-0.2,4-0.5V473h-5.5v-6.3H536V485.6z"/>
	<path class="st2" d="M574.9,473.5c-0.2-4.3-0.3-9.5-0.3-14.8h-0.1c-1.1,4.6-2.7,9.7-4,13.9l-4.4,14h-6.3l-3.9-13.9
		c-1.2-4.2-2.3-9.3-3.2-14.1h-0.1c-0.2,4.9-0.4,10.4-0.6,14.9l-0.7,13.6h-7.5l2.3-35.9h10.8l3.5,12c1.1,4.1,2.2,8.6,3,12.8h0.2
		c1-4.2,2.2-8.9,3.4-12.9l3.8-11.9h10.6l1.9,35.9h-7.9L574.9,473.5z"/>
	<path class="st2" d="M624.7,468.9c0,11.8-7.1,18.9-17.6,18.9c-10.6,0-16.9-8-16.9-18.3c0-10.7,6.9-18.8,17.5-18.8
		C618.7,450.8,624.7,459,624.7,468.9z M598.8,469.4c0,7,3.3,12,8.7,12c5.5,0,8.6-5.2,8.6-12.2c0-6.5-3.1-12-8.6-12
		C602,457.2,598.8,462.4,598.8,469.4z"/>
</g>
</svg>
