<?xml version="1.0" encoding="utf-8"?>
<!-- Generator: Adobe Illustrator 23.0.2, SVG Export Plug-In . SVG Version: 6.00 Build 0)  -->
<svg version="1.1" id="Layer_1" xmlns="http://www.w3.org/2000/svg" xmlns:xlink="http://www.w3.org/1999/xlink" x="0px" y="0px"
	 viewBox="0 0 393.2 375" style="enable-background:new 0 0 393.2 375;" xml:space="preserve">
<style type="text/css">
	.st0{fill:#212529;}
</style>
<g>
	<g>
		<path class="st0" d="M326.1,259.8c0.1,2,0.2,3.1,0.3,4.1c0.4,5.6,0.4,5.5,5.8,7c1,0.3,2,0.6,3.7,1.1c-2.5,1-4.4,1.9-6.4,2.5
			c-1.8,0.6-2.5,1.5-2.3,3.4c0.2,2,0,4.1,0,6.8c-1.1-1.3-2-2.3-2.8-3.3c-3-3.7-3-3.7-7.6-1.9c-1.2,0.5-2.5,0.9-4.1,1.5
			c1.7-3,4.4-5.6,4.2-8c-0.2-2.4-3.2-4.7-5.3-7.5c2.8,0.7,5,1.2,7.2,1.9c1.5,0.5,2.4,0.1,3.1-1.2
			C323.2,264.3,324.4,262.5,326.1,259.8z"/>
	</g>
	<g>
		<path class="st0" d="M79.4,281c-3.4-1.1-6.5-3.2-8.9-2.6c-2.2,0.5-3.8,3.9-6.2,6.6c0.1-2.4-0.1-4.1,0.3-5.6
			c0.7-3.1-0.5-4.5-3.4-5.2c-1.6-0.4-3.1-1.2-5.5-2.1c3-0.8,5.3-1.2,7.3-2.1c0.9-0.4,1.9-1.5,2.1-2.5c0.4-2.2,0.4-4.4,1-7
			c1.2,1.8,2.5,3.6,3.5,5.5c0.9,1.5,1.8,2,3.6,1.4c1.9-0.7,3.9-1,6.4-1c-1.3,1.7-2.5,3.5-4,5c-1.2,1.3-1.2,2.2-0.2,3.6
			C76.8,276.8,77.9,278.7,79.4,281z"/>
	</g>
	<g>
		<path class="st0" d="M292.4,302.1c2-2.2,3.4-3.8,5-5.3c1.2-1.1,1.4-2.1,0.6-3.6c-1.1-1.8-2-3.7-2.5-6.1c1.8,0.9,3.7,1.6,5.4,2.6
			c1.6,1,2.8,0.9,4-0.6c1.4-1.6,3-3,5-5c-0.4,2.7-0.4,4.9-0.9,6.9c-0.5,2,0.3,2.9,1.9,3.6c1.9,0.8,3.7,1.8,6.3,3.1
			c-2.7,0.5-4.5,0.9-6.4,1.1c-2.2,0.2-3.4,1-3.4,3.4c0,1.8-0.5,3.6-1,6.4c-1.4-2.6-2.5-4.3-3.3-6.2c-0.7-1.7-1.8-2.1-3.5-1.7
			C297.4,301.3,295.4,301.6,292.4,302.1z"/>
	</g>
	<g>
		<path class="st0" d="M97.1,286.7c-1,2-1.7,3.3-2.4,4.6c-2.3,4.6-2.9,3.2,1.2,7.2c0.9,0.9,2.3,1.4,3.5,2.1
			c-0.4,0.4-0.7,0.9-1.1,1.3c-2-0.3-4-0.6-6-1c-1.8-0.4-2.9,0-3.7,1.8c-0.8,1.9-1.9,3.6-3.2,6.1c-0.5-2.7-1-4.8-1.1-7
			c-0.1-1.9-1.1-2.5-2.7-2.7c-2.1-0.3-4.2-0.7-7.1-1.2c2.3-1.2,3.7-2.1,5.4-2.7c2.6-0.9,3.5-2.3,2.7-5.1c-0.5-1.7-0.5-3.5-0.8-5.8
			c2.2,2.6,4,4.7,5.8,6.9C91,289.6,93.6,288.3,97.1,286.7z"/>
	</g>
	<g>
		<path class="st0" d="M273.2,304c2.9,2.2,5.2,4,7.5,5.8c2.5-1.7,4.9-3.3,7.9-5.3c-1,2.8-1.6,4.9-2.5,6.9c-0.7,1.6-0.3,2.5,1,3.5
			c1.6,1.1,3.1,2.4,4.5,4.2c-1.5,0-3,0.2-4.5,0c-2.6-0.3-4.3,0.4-4.9,3.2c-0.4,1.7-1.2,3.3-2,5.5c-0.8-2.8-1.3-5-2.2-7
			c-0.4-0.8-1.5-1.6-2.4-1.8c-2.1-0.4-4.2-0.3-6.5-1.1c1.7-1.2,3.6-2.3,5.2-3.7c0.7-0.6,1.1-2,1-2.8
			C274.8,309.2,274.1,307,273.2,304z"/>
	</g>
	<g>
		<path class="st0" d="M54.2,102c7.1,6.9,8,20.1,2,27C49.2,122.9,48.2,110,54.2,102z"/>
	</g>
	<g>
		<path class="st0" d="M324.1,108.5c-7.1-6-8.3-20.1-2.3-26.8C328.8,87.6,329.9,100.5,324.1,108.5z"/>
	</g>
	<g>
		<path class="st0" d="M69.2,81.6c5.8,7.6,4.8,20.5-2.1,26.8C62,104.1,61.1,88.6,69.2,81.6z"/>
	</g>
	<g>
		<path class="st0" d="M80.9,89.8c-4.7-6.1-2.1-21.4,6.1-26C91.9,71.2,88.6,85.2,80.9,89.8z"/>
	</g>
	<g>
		<path class="st0" d="M42.6,124.6c7.7,5.1,10.7,18.1,6,26.2C40.7,146.7,37.6,131,42.6,124.6z"/>
	</g>
	<g>
		<path class="st0" d="M334.8,129.1c-5.8-8-5-19.9,1.8-27C342.3,107,342.4,122.7,334.8,129.1z"/>
	</g>
	<g>
		<path class="st0" d="M340.8,218.9c-8-4.6-11.8-17.7-7.5-25.6C341.5,197,345.3,212.4,340.8,218.9z"/>
	</g>
	<g>
		<path class="st0" d="M348.4,124.6c4.9,7.6,2,20.8-5.8,26.2C337.9,145.5,339.7,129.8,348.4,124.6z"/>
	</g>
	<g>
		<path class="st0" d="M343,173.9c-8.7-0.9-17.1-14.4-14.8-22.1C336.7,153,344.6,164.7,343,173.9z"/>
	</g>
	<g>
		<path class="st0" d="M347.3,196.7c-1.9-9.4,4.3-20.1,13.3-23.2C363.8,181.3,356.5,194.2,347.3,196.7z"/>
	</g>
	<g>
		<path class="st0" d="M63,151.6c1.3,9.8-6.5,21.1-15,22.2C46.7,164.4,54,153.4,63,151.6z"/>
	</g>
	<g>
		<path class="st0" d="M264.7,70.6c7.7-4.9,21.3-1.8,26.1,5.9C283,81.3,269.3,78.3,264.7,70.6z"/>
	</g>
	<g>
		<path class="st0" d="M274.3,60c-9-2.7-15.8-14.2-13.5-22.8C270.4,38.8,277.2,53.8,274.3,60z"/>
	</g>
	<g>
		<path class="st0" d="M43.5,196.7c-8.8-2.5-15.7-14.2-13.4-23C39.8,175.5,46.3,190.4,43.5,196.7z"/>
	</g>
	<g>
		<path class="st0" d="M34.5,148.6c8.5,3.9,13.2,15.8,10,24.8C36.9,171.5,30.6,157.2,34.5,148.6z"/>
	</g>
	<g>
		<path class="st0" d="M106.9,48.6c3.3,9.1-1.7,21.5-10,24.9C93.4,65.2,98.1,53.2,106.9,48.6z"/>
	</g>
	<g>
		<path class="st0" d="M320.9,110.4c-9,2.5-21.7-5.3-23.2-13.3C306.4,94.7,318.3,101.4,320.9,110.4z"/>
	</g>
	<g>
		<path class="st0" d="M339,151.8c-9.6-1-17.4-9.3-18.4-19.4C328.1,130.7,338.4,141.4,339,151.8z"/>
	</g>
	<g>
		<path class="st0" d="M46.4,219.7c-9.7-1.9-17.4-11.4-16.7-20.6C38.3,199.5,47.2,210.4,46.4,219.7z"/>
	</g>
	<g>
		<path class="st0" d="M92.9,97c-2.1,8.6-13.2,15.1-22.9,13.6C70.1,102.9,83.1,95.1,92.9,97z"/>
	</g>
	<g>
		<path class="st0" d="M83.1,92.4c3.9-8.6,17.2-13.6,25-9.7C104.5,90.9,92.4,95.6,83.1,92.4z"/>
	</g>
	<g>
		<path class="st0" d="M70.2,131.9c0.2,9.4-8.5,18.9-18,19.8C51.5,143,60.6,132.9,70.2,131.9z"/>
	</g>
	<g>
		<path class="st0" d="M346.7,173.7c-3.3-9.2,1.3-20.9,9.7-25.1C360.6,155.8,355.5,169.3,346.7,173.7z"/>
	</g>
	<g>
		<path class="st0" d="M59.6,130.3c1-8.9,10.3-16.5,20.6-16.9C81.1,120.5,69.2,131.8,59.6,130.3z"/>
	</g>
	<g>
		<path class="st0" d="M47.4,196.6c-3.1-8.8,2.6-21.1,11.2-24.3C61.9,180.5,56.4,192.7,47.4,196.6z"/>
	</g>
	<g>
		<path class="st0" d="M343.7,196.5c-8.4-2.4-14.7-16-11.3-24.2C340.9,175.5,346.4,187.2,343.7,196.5z"/>
	</g>
	<g>
		<path class="st0" d="M50,218.9c-4-8.8-0.4-20.9,7.5-25.6C62.3,200,58.2,214.7,50,218.9z"/>
	</g>
	<g>
		<path class="st0" d="M59.9,214.2c5.3,7.8,3.6,20.8-3.6,26.4C50.7,233.8,52.7,219,59.9,214.2z"/>
	</g>
	<g>
		<path class="st0" d="M293.6,73.6c-8.5-3.9-13.2-15.7-10-24.8C291.9,51.9,297.4,65.4,293.6,73.6z"/>
	</g>
	<g>
		<path class="st0" d="M282.3,82.6c8.8-3.6,21,1.1,25,9.5C301.9,95.8,286.8,92.4,282.3,82.6z"/>
	</g>
	<g>
		<path class="st0" d="M331.2,214.2c7.1,5.1,9,18.4,3.7,26.3C328.3,237.1,325.2,221.4,331.2,214.2z"/>
	</g>
	<g>
		<path class="st0" d="M304,63.8c7.7,4.5,11,18.4,6.2,26.1C302.5,85.3,299.2,71.4,304,63.8z"/>
	</g>
	<g>
		<path class="st0" d="M310.5,113.5c10.2,0,19.4,7.4,20.9,16.6C323.3,132.1,311.8,123.1,310.5,113.5z"/>
	</g>
	<g>
		<path class="st0" d="M361.4,199c0.8,9.1-7,18.8-16.5,20.7C342.6,213.5,351.5,199.5,361.4,199z"/>
	</g>
	<g>
		<path class="st0" d="M338.3,241.9c1.2-9.7,10.7-18.3,19.6-17.8C357.8,232.8,348.1,241.7,338.3,241.9z"/>
	</g>
	<g>
		<path class="st0" d="M33,224c9.6,0.1,19.4,9.2,19.5,17.8C43.3,242,33.6,233.2,33,224z"/>
	</g>
	<g>
		<path class="st0" d="M117.2,130.7"/>
	</g>
	<g>
		<path class="st0" d="M203.9,49.6c-1.8-1.3-3.7-2.5-5.4-3.9c-1.3-1.1-2.3-1-3.6,0.1c-1.8,1.5-3.8,2.7-6.3,4.5
			c0.8-2.4,1.2-4.3,2-5.9c1.2-2.6,0.9-4.3-1.8-5.7c-1.6-0.8-2.9-2.1-4.2-3.8c2.3,0,4.6,0.2,6.9-0.1c1-0.1,2.2-1,2.6-1.9
			c1-2.1,1.6-4.4,2.6-7.4c0.9,2.8,1.7,4.9,2.2,7c0.5,1.8,1.3,2.6,3.3,2.4c2.2-0.2,4.4,0,6.8,0.6c-1.5,1.1-3,2.4-4.7,3.4
			c-2.4,1.3-2.7,2.9-1.6,5.2c0.8,1.6,1.1,3.5,1.6,5.2C204.3,49.4,204.1,49.5,203.9,49.6z"/>
	</g>
	<g>
		<path class="st0" d="M161.1,53.7c0.2-2.3,0.7-4.6,0.6-7c0-1-0.8-2.3-1.6-2.8c-1.9-1.2-4.1-2-7-3.3c2.8-0.6,4.8-1.2,6.8-1.4
			c2.2-0.2,3.3-1.1,3.3-3.5c0-2,0.5-4,1.3-6.2c0.9,1.6,2,3.2,2.8,5c1,2.2,2.3,3.1,4.8,2.3c1.8-0.6,3.8-0.8,6.7-1.4
			c-2,2.2-3.3,3.9-4.9,5.3c-1.7,1.5-1.6,2.8-0.4,4.5c1.2,1.7,2.1,3.7,3.5,6.2c-3-1.3-5.1-2.5-7.4-3.2c-0.8-0.3-2.3,0-2.9,0.6
			c-1.8,1.5-3.2,3.4-4.8,5.1C161.5,53.8,161.3,53.7,161.1,53.7z"/>
	</g>
	<g>
		<path class="st0" d="M214.1,35.4c2.6,0.5,4.6,0.6,6.4,1.3c2.6,1,4,0,5-2.3c0.8-1.7,1.8-3.3,3.2-5.6c0.3,2.5,0.8,4.1,0.7,5.7
			c-0.2,3.5,1.5,4.9,4.8,5.1c1.5,0.1,3,0.6,4.6,1.5c-2,0.9-3.9,1.9-6,2.7c-1.8,0.7-2.3,1.7-2,3.6c0.4,2.2,0.5,4.4,0.8,7.3
			c-2.1-2.2-3.7-3.8-5-5.5c-1.2-1.6-2.4-1.6-4-0.7c-1.9,1-3.9,1.8-6.7,3.1c1.8-3.2,3.2-5.8,4.7-8.7
			C218.7,40.5,216.6,38.2,214.1,35.4z"/>
	</g>
	<g>
		<path class="st0" d="M124.5,318.4c-1.9,0.1-2.9,0.2-4,0.3c-5.2,0.5-5.2,0.5-6.8,5.7c-0.3,0.9-0.6,1.8-1.1,3.2
			c-0.8-2.1-1.6-3.7-2-5.4c-0.6-2.8-2.3-3.5-4.9-3.2c-1.5,0.2-3,0-5.3,0c2.2-1.8,4-2.9,5.3-4.4c0.7-0.7,1.1-2.2,0.9-3.1
			c-0.4-2.1-1.3-4.1-2.4-7c2.5,1.7,4.4,2.8,6.1,4.1c1.2,0.9,2.2,1,3.3-0.1c1.6-1.4,3.4-2.6,5.8-4.5c-0.6,2.1-0.8,3.5-1.3,4.7
			c-1.4,3.1-1,5.4,2.3,6.8C121.7,316.2,122.8,317.2,124.5,318.4z"/>
	</g>
	<g>
		<path class="st0" d="M253,340.2c-0.1-1.6-0.3-3.2-0.3-4.8c0-2.3-1-3.6-3.4-4c-1.8-0.3-3.6-0.8-6.1-1.4c2.6-1.1,4.4-1.9,6.3-2.7
			c1.6-0.6,2.3-1.6,2.1-3.3c-0.3-2.1-0.4-4.3-0.7-7.1c1.9,2.2,3.4,3.8,4.8,5.5c1,1.4,2.1,1.5,3.5,0.8c1.8-0.9,3.7-1.6,6-1.9
			c-1,1.7-1.9,3.5-3.1,5.1c-1,1.5-1,2.6,0.3,3.9c1.4,1.4,2.5,3,4.4,5.1c-2.5-0.5-4.4-0.7-6.2-1.3c-2.1-0.7-3.3-0.1-4.2,1.8
			c-0.8,1.5-1.8,3-2.7,4.4C253.5,340.3,253.2,340.2,253,340.2z"/>
	</g>
	<g>
		<path class="st0" d="M141.3,341.1c-1.4-2.2-2.5-3.9-3.5-5.7c-0.8-1.6-1.9-2-3.6-1.5c-1.9,0.6-3.8,0.9-6.5,1.5
			c1.7-2,2.9-3.7,4.3-5.2c1.3-1.3,1.2-2.4,0.2-3.9c-1.2-1.7-2.2-3.5-3.6-5.9c1.8,0.7,3,1.2,4.3,1.7c5.1,2,3.6,2.7,7.4-1.7
			c0.8-0.9,1.6-1.9,3.1-2.6c-0.2,2-0.3,4-0.6,6c-0.3,1.7,0.3,2.8,2,3.4c1.9,0.7,3.8,1.6,6.3,2.7c-2.8,0.7-4.9,1-6.8,1.8
			c-0.9,0.4-1.9,1.5-2.2,2.4C141.7,336.3,141.6,338.4,141.3,341.1z"/>
	</g>
	<g>
		<path class="st0" d="M203.7,349.9c-1.8-1.2-2.9-1.8-3.8-2.6c-2.1-2-4.1-2.2-6.3,0c-1,1-2.3,1.7-4.2,3c0.8-2.6,1.3-4.4,1.9-6
			c0.8-1.9,0.3-3.1-1.5-4.1c-1.6-0.9-3-2.1-4.3-3.8c2,0,4.1,0.2,6-0.1c1.1-0.2,2.4-1.1,2.9-2.1c0.9-1.9,1.4-4,2.3-6.8
			c0.9,2.7,1.6,4.6,2.1,6.5c0.5,1.8,1.4,2.6,3.3,2.5c1.9-0.2,3.9,0,6.6,0c-1.5,1.2-2.4,1.8-3.3,2.5c-4.9,3.5-4,2.4-2.6,7.5
			C203.1,347.2,203.3,348.1,203.7,349.9z"/>
	</g>
	<g>
		<path class="st0" d="M225.3,325.7c1,1.8,2.1,3.5,3,5.3c0.8,1.6,1.9,2,3.6,1.6c1.9-0.5,3.8-0.8,6-0.6c-1.4,1.5-2.7,3-4.1,4.4
			c-1.2,1.1-1.4,2.1-0.5,3.6c1.1,1.7,2,3.6,3.2,5.9c-2.3-1-4.2-1.7-5.8-2.6c-1.7-0.9-2.9-0.6-4.1,0.8c-1.2,1.5-2.6,2.9-4.3,4.6
			c0.1-1.7,0.2-2.9,0.3-4.1c0.3-4.8,0.3-4.8-4.1-6.8c-1-0.4-1.9-0.9-3.7-1.8c2.3-0.5,3.8-1,5.3-1.1c3-0.2,4-1.8,4.1-4.5
			c0-1.5,0.3-3.1,0.4-4.6C224.9,325.8,225.1,325.7,225.3,325.7z"/>
	</g>
	<g>
		<path class="st0" d="M169.4,325.4c0.3,0.6,0.4,0.6,0.4,0.7c0.4,2.6,0,5.9,1.5,7.6c1.5,1.7,4.8,1.6,7.9,2.5c-2,1-3.6,2-5.4,2.6
			c-1.9,0.7-2.6,1.8-2.2,3.8c0.3,1.8,0.4,3.7,0.7,6c-1.7-1.7-3.2-3-4.4-4.4c-1.2-1.5-2.4-1.7-4.1-0.8c-1.5,0.8-3.2,1.4-5.7,2.5
			c1.3-2.4,2.1-4.2,3.1-5.8c0.9-1.4,0.8-2.5-0.4-3.6c-1.4-1.3-2.6-2.9-3.6-4.9c1.8,0.3,3.7,0.6,5.5,1.1c1.7,0.4,2.8,0.1,3.6-1.6
			C167.1,329.1,168.2,327.4,169.4,325.4z"/>
	</g>
	<g>
		<path class="st0" d="M127.2,70.6c-5.2,7.8-18.1,10.6-26.1,5.9C105,68.8,120.2,65.8,127.2,70.6z"/>
	</g>
	<g>
		<path class="st0" d="M119.4,62.9c7.1-6.7,20.2-7.4,26.7-1.4C139.7,68.4,124.2,69.3,119.4,62.9z"/>
	</g>
	<g>
		<path class="st0" d="M117.3,60.1c-1.7-9.7,5.3-21.3,13.7-22.9C133.5,45.4,126.5,57.4,117.3,60.1z"/>
	</g>
	<g>
		<path class="st0" d="M247.5,61.4c6.9-6,21-5.1,26.8,1.8C267.2,69.2,253.5,68.3,247.5,61.4z"/>
	</g>
	<g>
		<path class="st0" d="M196.6,375C93.2,375,9.1,290.9,9.1,187.5S93.2,0,196.6,0s187.5,84.1,187.5,187.5S300,375,196.6,375z
			 M196.6,8.1C97.6,8.1,17.2,88.6,17.2,187.5s80.5,179.4,179.4,179.4S376,286.4,376,187.5S295.5,8.1,196.6,8.1z"/>
	</g>
	<g>
		<path class="st0" d="M116.6,132.8c-0.8-1.3-2.8-2.4-5.2-2.4c-3.1,0-4.5,1.3-4.5,2.9c0,1.9,2.3,2.4,4.9,2.8c4.6,0.6,8.8,1.8,8.8,7
			c0,4.9-4.3,7-9.2,7c-4.5,0-7.9-1.4-9.6-5.4l3.4-1.8c1,2.4,3.5,3.5,6.2,3.5c2.6,0,5-0.9,5-3.3c0-2.1-2.2-2.9-5.1-3.2
			c-4.5-0.5-8.6-1.7-8.6-6.6c0-4.5,4.5-6.4,8.5-6.4c3.4,0,7,1,8.6,4.4L116.6,132.8z"/>
		<path class="st0" d="M139.4,145.3h-11.5l-1.9,4.1h-4.5l9.8-21.9h4.5l9.8,21.9h-4.5L139.4,145.3z M133.6,132.1l-4.1,9.3h8.1
			L133.6,132.1z"/>
		<path class="st0" d="M149.7,131.3h-7v-3.8c6.3,0,11.7,0,18,0v3.8h-7v18.2h-4.1V131.3z"/>
		<path class="st0" d="M163.3,149.5v-21.9h4.1v21.9H163.3z"/>
		<path class="st0" d="M171.4,149.5v-21.9h15.8v4h-11.6v6h11v3.8h-11v8.1H171.4z"/>
		<path class="st0" d="M205.6,145.3h-11.5l-1.9,4.1h-4.5l9.8-21.9h4.5l9.8,21.9h-4.5L205.6,145.3z M199.8,132.1l-4.1,9.3h8.1
			L199.8,132.1z"/>
		<path class="st0" d="M231.8,146.7c-2.3,2.2-5.2,3.3-8.3,3.3c-8.1,0-11.6-5.6-11.6-11.3c0-5.7,3.7-11.6,11.6-11.6
			c3,0,5.8,1.1,8.1,3.3l-2.8,2.7c-1.4-1.4-3.4-2.1-5.3-2.1c-5.3,0-7.6,3.9-7.5,7.6c0,3.6,2.1,7.4,7.5,7.4c1.9,0,4.1-0.8,5.5-2.2
			L231.8,146.7z"/>
		<path class="st0" d="M239.6,131.3h-7v-3.8c6.3,0,11.7,0,18,0v3.8h-7v18.2h-4.1V131.3z"/>
		<path class="st0" d="M253.2,149.5v-21.9h4.1v21.9H253.2z"/>
		<path class="st0" d="M283.4,138.6c-0.1,5.7-3.5,11.3-11.2,11.3c-7.7,0-11.3-5.5-11.3-11.3s3.7-11.6,11.3-11.6
			C279.7,127.1,283.5,132.9,283.4,138.6z M265,138.7c0.1,3.6,2,7.5,7.2,7.5c5.2,0,7.1-3.9,7.2-7.5c0.1-3.7-2-7.8-7.2-7.8
			C267,130.9,264.9,135,265,138.7z"/>
		<path class="st0" d="M300.9,127.5h4.1v22h-2.6v0l-11.5-14.8v14.8h-4.1v-21.9h3.4l10.7,13.6V127.5z"/>
	</g>
	<g>
		<path class="st0" d="M114,217.5h12.1v-41.2l-13.3,4.1l-1.8-4.6l16.9-7.6l5.5,0.9v48.3h10.8v6.2H114V217.5z"/>
		<path class="st0" d="M157.3,216.9c-3.3-5-5-11.9-5-20.8s1.7-15.8,5-20.7c3.3-4.9,8.4-7.4,15.2-7.4c6.8,0,11.9,2.5,15.2,7.4
			c3.3,4.9,5,11.8,5,20.7s-1.7,15.8-5,20.8c-3.3,5-8.4,7.5-15.1,7.5S160.6,221.9,157.3,216.9z M181.6,212.6
			c2.1-3.7,3.2-9.2,3.2-16.5c0-7.2-1.1-12.7-3.2-16.4c-2.1-3.7-5.2-5.5-9.2-5.5c-3.9,0-7,1.8-9.1,5.5c-2.2,3.7-3.2,9.1-3.2,16.4
			c0,7.3,1.1,12.8,3.2,16.5c2.2,3.7,5.2,5.6,9.1,5.6C176.4,218.2,179.5,216.3,181.6,212.6z"/>
		<path class="st0" d="M207.4,216.9c-3.3-5-5-11.9-5-20.8s1.7-15.8,5-20.7c3.3-4.9,8.4-7.4,15.2-7.4c6.8,0,11.9,2.5,15.2,7.4
			c3.3,4.9,5,11.8,5,20.7s-1.7,15.8-5,20.8c-3.3,5-8.4,7.5-15.1,7.5S210.8,221.9,207.4,216.9z M231.7,212.6
			c2.1-3.7,3.2-9.2,3.2-16.5c0-7.2-1.1-12.7-3.2-16.4c-2.1-3.7-5.2-5.5-9.2-5.5c-3.9,0-7,1.8-9.1,5.5c-2.2,3.7-3.2,9.1-3.2,16.4
			c0,7.3,1.1,12.8,3.2,16.5c2.1,3.7,5.2,5.6,9.1,5.6C226.5,218.2,229.6,216.3,231.7,212.6z"/>
		<path class="st0" d="M256.3,195.8c-2.1-2.9-3.1-6.8-3.1-11.9s1-9,3.1-11.8c2-2.8,5.1-4.2,9.1-4.2c4.1,0,7.2,1.4,9.2,4.2
			c2,2.8,3,6.8,3,11.8c0,5.1-1,9.1-3,11.9c-2,2.9-5.1,4.3-9.2,4.3C261.4,200.2,258.3,198.7,256.3,195.8z M269.9,191.9
			c1-1.8,1.6-4.4,1.6-7.9c0-3.5-0.5-6.1-1.6-7.9c-1-1.8-2.5-2.6-4.4-2.6c-1.9,0-3.4,0.9-4.4,2.7c-1,1.8-1.6,4.4-1.6,7.8
			c0,3.5,0.5,6.1,1.6,7.9c1,1.8,2.5,2.7,4.4,2.7C267.4,194.6,268.9,193.7,269.9,191.9z M263,223.6l33.3-57.6l5.4,3.1l-33.2,57.5
			L263,223.6z M291,220.1c-2.1-2.9-3.1-6.8-3.1-11.9s1-9,3.1-11.8c2.1-2.8,5.1-4.2,9.1-4.2c4.1,0,7.2,1.4,9.2,4.2
			c2,2.8,3,6.8,3,11.8c0,5.1-1,9.1-3,11.9c-2,2.9-5.1,4.3-9.2,4.3C296.1,224.5,293,223,291,220.1z M304.5,216.2
			c1-1.8,1.6-4.4,1.6-7.9s-0.5-6.1-1.6-7.9c-1-1.8-2.5-2.6-4.4-2.6c-1.9,0-3.4,0.9-4.4,2.7c-1,1.8-1.6,4.4-1.6,7.8
			c0,3.5,0.5,6.1,1.6,7.9c1,1.8,2.5,2.7,4.4,2.7C302,218.9,303.5,218,304.5,216.2z"/>
	</g>
	<g>
		<g>
			<path class="st0" d="M114.2,253.9c-1.6-1.6-4-2.4-6.1-2.4c-5.2,0-8.3,3.9-8.3,8.9c0,4,2.3,8.1,8.3,8.1c1.9,0,3.6-0.4,5.5-1.9
				v-4.3h-6.2v-4.1h10.4v10.2c-2.4,2.7-5.4,4.3-9.6,4.3c-9.1,0-12.8-6-12.8-12.3c0-6.8,4.2-13.1,12.8-13.1c3.2,0,6.5,1.2,9,3.7
				L114.2,253.9z"/>
			<path class="st0" d="M142.6,248v13.8c0,7.2-4.4,10.8-10.5,10.8c-5.8,0-10.7-3.5-10.7-10.8V248h4.5v13.8c0,4.4,2.5,6.7,6.3,6.7
				s5.9-2.5,5.9-6.7V248H142.6z"/>
			<path class="st0" d="M164.2,267.6h-12.6l-2.1,4.6h-4.9l10.8-24.2h5l10.8,24.2h-5L164.2,267.6z M157.9,253.1l-4.5,10.3h9
				L157.9,253.1z"/>
			<path class="st0" d="M194.7,272.2h-5.4l-7-8.1h-4.4v8.1h-4.6V248c3.8,0,7.7,0,11.5,0c5.7,0,8.7,3.8,8.7,8c0,3.3-1.5,6.7-6.1,7.6
				l7.3,8.3V272.2z M177.8,252.3v7.7h6.9c2.9,0,4.1-1.9,4.1-3.9c0-1.9-1.3-3.9-4.1-3.9H177.8z"/>
			<path class="st0" d="M213.7,267.6H201l-2.1,4.6H194l10.8-24.2h5l10.8,24.2h-5L213.7,267.6z M207.4,253.1l-4.5,10.3h9L207.4,253.1
				z"/>
			<path class="st0" d="M238.6,248h4.6v24.2h-2.8v0l-12.7-16.3v16.3h-4.6V248h3.7l11.8,15V248z"/>
			<path class="st0" d="M253.6,252.2h-7.7V248c7,0,12.9,0,19.9,0v4.1h-7.7v20h-4.6V252.2z"/>
			<path class="st0" d="M286.6,272.2h-18.1c0-8,0-16.1,0-24.2h18.1v4.4H273v5.6h13.1v4.2H273v5.5h13.6V272.2z"/>
			<path class="st0" d="M311.4,259.9c0.1,6.1-3.6,12.3-12.1,12.3c-3,0-6.5,0-9.5,0V248c3,0,6.5,0,9.5,0
				C307.6,248,311.3,253.9,311.4,259.9z M294.3,267.8h5c5.5,0,7.7-4,7.6-7.9c-0.1-3.8-2.3-7.5-7.6-7.5h-5V267.8z"/>
		</g>
		<g>
			<path class="st0" d="M114.2,253.9c-1.6-1.6-4-2.4-6.1-2.4c-5.2,0-8.3,3.9-8.3,8.9c0,4,2.3,8.1,8.3,8.1c1.9,0,3.6-0.4,5.5-1.9
				v-4.3h-6.2v-4.1h10.4v10.2c-2.4,2.7-5.4,4.3-9.6,4.3c-9.1,0-12.8-6-12.8-12.3c0-6.8,4.2-13.1,12.8-13.1c3.2,0,6.5,1.2,9,3.7
				L114.2,253.9z"/>
			<path class="st0" d="M142.6,248v13.8c0,7.2-4.4,10.8-10.5,10.8c-5.8,0-10.7-3.5-10.7-10.8V248h4.5v13.8c0,4.4,2.5,6.7,6.3,6.7
				s5.9-2.5,5.9-6.7V248H142.6z"/>
			<path class="st0" d="M164.2,267.6h-12.6l-2.1,4.6h-4.9l10.8-24.2h5l10.8,24.2h-5L164.2,267.6z M157.9,253.1l-4.5,10.3h9
				L157.9,253.1z"/>
			<path class="st0" d="M194.7,272.2h-5.4l-7-8.1h-4.4v8.1h-4.6V248c3.8,0,7.7,0,11.5,0c5.7,0,8.7,3.8,8.7,8c0,3.3-1.5,6.7-6.1,7.6
				l7.3,8.3V272.2z M177.8,252.3v7.7h6.9c2.9,0,4.1-1.9,4.1-3.9c0-1.9-1.3-3.9-4.1-3.9H177.8z"/>
			<path class="st0" d="M213.7,267.6H201l-2.1,4.6H194l10.8-24.2h5l10.8,24.2h-5L213.7,267.6z M207.4,253.1l-4.5,10.3h9L207.4,253.1
				z"/>
			<path class="st0" d="M238.6,248h4.6v24.2h-2.8v0l-12.7-16.3v16.3h-4.6V248h3.7l11.8,15V248z"/>
			<path class="st0" d="M253.6,252.2h-7.7V248c7,0,12.9,0,19.9,0v4.1h-7.7v20h-4.6V252.2z"/>
			<path class="st0" d="M286.6,272.2h-18.1c0-8,0-16.1,0-24.2h18.1v4.4H273v5.6h13.1v4.2H273v5.5h13.6V272.2z"/>
			<path class="st0" d="M311.4,259.9c0.1,6.1-3.6,12.3-12.1,12.3c-3,0-6.5,0-9.5,0V248c3,0,6.5,0,9.5,0
				C307.6,248,311.3,253.9,311.4,259.9z M294.3,267.8h5c5.5,0,7.7-4,7.6-7.9c-0.1-3.8-2.3-7.5-7.6-7.5h-5V267.8z"/>
		</g>
	</g>
</g>
</svg>
