<?xml version="1.0" encoding="utf-8"?>
<!-- Generator: Adobe Illustrator 23.0.2, SVG Export Plug-In . SVG Version: 6.00 Build 0)  -->
<svg version="1.1" id="Layer_1" xmlns="http://www.w3.org/2000/svg" xmlns:xlink="http://www.w3.org/1999/xlink" x="0px" y="0px"
	 viewBox="0 0 768.6 179.6" style="enable-background:new 0 0 768.6 179.6;" xml:space="preserve">
<style type="text/css">
	.st0{fill-rule:evenodd;clip-rule:evenodd;}
	.st1{fill-rule:evenodd;clip-rule:evenodd;fill:#040405;}
	.st2{fill-rule:evenodd;clip-rule:evenodd;fill:none;stroke:#000000;stroke-width:4;stroke-miterlimit:10;}
	.st3{fill-rule:evenodd;clip-rule:evenodd;fill:#FFFFFF;}
	.st4{fill-rule:evenodd;clip-rule:evenodd;fill:#7E7F7F;}
	.st5{fill-rule:evenodd;clip-rule:evenodd;fill:#A7A7A8;}
</style>
<g>
	<path class="st0" d="M149.4,110.7c-6.2,0-18.5,0.6-23.6-2.5l-4.3-42.9c0-1.9-0.1-2.7-0.3-4.4L120,48c-0.3-2.6-0.9-5.9-0.9-8.6
		c2.1,0,5.4,0.7,7.6,0.8c2.4,0.1,1.9-0.3,4.5,2.5c2.9,3.2,1.6,1.9,1.6,4.7c0,3.3,1.6,7.5,3.5,10.1l0.9,1.1c2.3,2.3,2.2,3.3,6.4,5.8
		c4.2,2.6,7.8,3.7,12.2,1.6V64c-1.5,0.3-2.6,1.6-6.5-1.5l-1.6-1.1c-3.6-2.4-11.3-11.9-11.3-16.5c0-1.6,0.1-1.4,0.9-2.5
		c-0.6-0.9-0.9-0.6-1.2-1.7c5.4,0,10.7,0,16.1,0l11.2-0.9c2-0.2,1.4-0.5,4.6-0.5c0,1.6-0.5,3.5-0.6,5l-1,10.2
		c-0.2,1.2-0.5,3.8-0.6,5c-0.4,7.2-1.4,13.4-1.8,20.5l-2.7,27.4c-0.2,2.3-3.4,2.6-6,2.8C153.3,110.4,151.8,110.7,149.4,110.7
		L149.4,110.7z M119.4,36.8c5.9-1.3,5.7-1.4,7.6,1.1c-1.5,0-3,0-4-0.2C119.8,37.3,120.1,37.7,119.4,36.8L119.4,36.8z M131.5,35.2
		c3.4,0,32.5-0.7,35.8,1.9c-7.9,1.7-18.2,1.7-27.3,1.7c-2.6,0-3.9-0.3-6.4-0.3c-0.4-0.6-0.6-0.9-1.1-1.4
		C131.8,36.3,131.7,36.5,131.5,35.2L131.5,35.2z M104.2,10.6c0,2.4,0.4,2.2,2,4l6.6,7.5c2.1,2.4,9.9,10.3,10.4,12.1
		c-5.3,1.2-7.3,0.8-7,3.6c0.1,1.2,0,2.3,0.2,3.5c0.9,5.8,1,11.3,1.6,16.2c1,7.1,1.2,15.9,2.3,23.1c0.3,2.1,0.3,4.4,0.5,6.4
		c0.2,1.9,0.7,4.4,0.8,6.4c0.4,4.3,0.5,8.9,1.2,13.4c1.1,7.8-1.7,7.9,9.3,9.5c7.1,1,18.9,0.9,25.6-0.5c6.9-1.4,5.1-2.1,5.9-7.4
		l1.7-17.2c0.1-2.4,0.5-3.8,0.6-5.8c0.2-3.9,0.8-7.8,1.2-11.4c0.2-2.1-0.1-2.2,0.5-5.9l1.1-11.5c0.5-5.4,1.8-14.4,1.8-19.4
		c0-1.9-2.1-2-4.5-2.6c-9.5-2.1-26.8-1.1-36.8-1.1L116.3,17c-0.8-0.8-0.6-0.7-1.3-1.6l-4.1-5.1c-1-1.3-1.6-2.3-3.5-2.5H107
		C105.8,7.8,104.2,9.2,104.2,10.6z"/>
	<path class="st0" d="M154.6,62.8c-0.5-0.7-0.2-0.6-1.2-0.8c0-6.2,1.2-3.1-1-9.9c-1.3-4.2,1.7-5.3-7.5-5.3c-2.3,0-3.9-0.4-5.4-1.1
		c-0.3-1.3,0,0.1-0.1-0.8c-0.1-1,0.4-0.3-0.3-0.9c-1.9-1.5-1.7,1.9-0.3,4.5c1.6,2.8,3.2,5.2,5.4,7.5l3.1,3.3
		c0.3,0.2,0.5,0.4,0.8,0.7c1.3,1.2,3,2.6,4.8,3.2C153.9,63.5,153.7,63.4,154.6,62.8z"/>
</g>
<path class="st1" d="M20.8,144.5h-3.6l-1.4-3.5H9.1l-1.4,3.5H4.1l6.4-15.4h3.6L20.8,144.5L20.8,144.5z M14.6,138.3l-2.3-5.7
	l-2.2,5.7H14.6L14.6,138.3z M33.6,144.5h-2.9v-1.6c-0.5,0.6-1.1,1.1-1.7,1.4c-0.7,0.3-1.3,0.5-2,0.5c-1.4,0-2.6-0.5-3.6-1.6
	c-1-1-1.5-2.5-1.5-4.3c0-1.9,0.5-3.3,1.4-4.3c1-1,2.2-1.5,3.6-1.5c1.3,0,2.5,0.5,3.5,1.6V129h3.2V144.5L33.6,144.5z M25.1,138.7
	c0,1.2,0.2,2.1,0.5,2.6c0.5,0.8,1.2,1.2,2.2,1.2c0.7,0,1.4-0.3,1.9-0.9c0.5-0.6,0.8-1.4,0.8-2.6c0-1.3-0.2-2.2-0.7-2.8
	c-0.5-0.6-1.1-0.8-1.9-0.8c-0.8,0-1.4,0.3-1.9,0.8C25.4,136.7,25.1,137.5,25.1,138.7L25.1,138.7z M47.8,144.5h-2.9v-1.6
	c-0.5,0.6-1.1,1.1-1.7,1.4c-0.7,0.3-1.3,0.5-2,0.5c-1.4,0-2.6-0.5-3.6-1.6c-1-1-1.5-2.5-1.5-4.3c0-1.9,0.5-3.3,1.4-4.3
	c1-1,2.2-1.5,3.6-1.5c1.3,0,2.5,0.5,3.5,1.6V129h3.2V144.5L47.8,144.5z M39.3,138.7c0,1.2,0.2,2.1,0.5,2.6c0.5,0.8,1.2,1.2,2.1,1.2
	c0.7,0,1.4-0.3,1.9-0.9c0.5-0.6,0.8-1.4,0.8-2.6c0-1.3-0.2-2.2-0.7-2.8c-0.5-0.6-1.1-0.8-1.9-0.8c-0.8,0-1.4,0.3-1.9,0.8
	C39.5,136.7,39.3,137.5,39.3,138.7L39.3,138.7z M56.7,140.5l3.2-0.3c0.1,0.7,0.4,1.2,0.8,1.6c0.4,0.4,1,0.6,1.5,0.6
	c0.7,0,1.2-0.3,1.7-0.8c0.5-0.5,0.7-1.3,0.7-2.3c0-1-0.2-1.7-0.7-2.1c-0.5-0.5-1.1-0.7-1.8-0.7c-0.9,0-1.7,0.4-2.5,1.1l-2.6-0.3
	l1.6-8h8.4v2.8h-6l-0.5,2.6c0.7-0.3,1.4-0.5,2.2-0.5c1.4,0,2.6,0.5,3.6,1.4c1,1,1.5,2.2,1.5,3.7c0,1.3-0.4,2.4-1.2,3.4
	c-1.1,1.4-2.6,2-4.5,2c-1.5,0-2.8-0.4-3.8-1.1C57.5,142.8,56.9,141.8,56.7,140.5L56.7,140.5z M69.9,145.2l3.6,0.4
	c0.1,0.4,0.2,0.7,0.4,0.8c0.3,0.2,0.8,0.3,1.4,0.3c0.8,0,1.5-0.1,1.9-0.3c0.3-0.2,0.5-0.4,0.6-0.7c0.1-0.2,0.1-0.7,0.1-1.4l0-1.6
	c-1,1.2-2.2,1.8-3.6,1.8c-1.6,0-2.9-0.6-3.8-1.9c-0.7-1-1.1-2.2-1.1-3.7c0-1.9,0.5-3.3,1.5-4.3c1-1,2.2-1.5,3.6-1.5
	c1.5,0,2.7,0.6,3.7,1.8v-1.6h3v10c0,1.3-0.1,2.3-0.4,3c-0.2,0.7-0.6,1.2-1,1.5c-0.4,0.4-1,0.7-1.7,0.9c-0.7,0.2-1.6,0.3-2.7,0.3
	c-2,0-3.5-0.3-4.3-1c-0.9-0.7-1.3-1.5-1.3-2.5C69.9,145.4,69.9,145.3,69.9,145.2L69.9,145.2z M72.8,138.7c0,1.2,0.2,2,0.7,2.6
	c0.5,0.5,1.1,0.8,1.8,0.8c0.8,0,1.4-0.3,2-0.8c0.5-0.6,0.8-1.4,0.8-2.5c0-1.2-0.3-2-0.8-2.6c-0.5-0.6-1.2-0.8-1.9-0.8
	c-0.8,0-1.4,0.3-1.9,0.8C73,136.7,72.8,137.5,72.8,138.7L72.8,138.7z M90.9,144.5V129h3.4v6.1h6.5V129h3.4v15.4h-3.4v-6.7h-6.5v6.7
	H90.9L90.9,144.5z M115.6,144.5v-1.7c-0.4,0.6-1,1.1-1.7,1.4c-0.7,0.4-1.5,0.5-2.3,0.5c-0.8,0-1.5-0.2-2.2-0.5
	c-0.6-0.3-1.1-0.8-1.4-1.4c-0.3-0.6-0.4-1.4-0.4-2.5v-7.1h3.2v5.1c0,1.6,0.1,2.5,0.2,2.9c0.1,0.4,0.3,0.6,0.6,0.8
	c0.3,0.2,0.7,0.3,1.2,0.3c0.5,0,1-0.1,1.5-0.4c0.4-0.3,0.7-0.6,0.9-1c0.2-0.4,0.2-1.4,0.2-3v-4.7h3.2v11.2H115.6L115.6,144.5z
	 M120.6,141.3l3.2-0.5c0.1,0.6,0.4,1,0.8,1.3c0.4,0.3,1,0.4,1.7,0.4c0.8,0,1.4-0.1,1.9-0.4c0.3-0.2,0.4-0.5,0.4-0.8
	c0-0.2-0.1-0.4-0.2-0.6c-0.2-0.1-0.5-0.3-1.1-0.4c-2.6-0.5-4.2-1-4.9-1.4c-1-0.6-1.4-1.4-1.4-2.5c0-1,0.4-1.8,1.2-2.4
	c0.8-0.7,2.1-1,3.8-1c1.6,0,2.9,0.3,3.7,0.7c0.8,0.5,1.4,1.2,1.7,2.2l-3,0.5c-0.1-0.4-0.4-0.8-0.7-1c-0.4-0.2-0.9-0.3-1.5-0.3
	c-0.8,0-1.4,0.1-1.8,0.3c-0.2,0.2-0.4,0.4-0.4,0.6c0,0.2,0.1,0.4,0.3,0.5c0.3,0.2,1.3,0.5,3,0.8c1.7,0.4,2.9,0.8,3.6,1.3
	c0.7,0.5,1,1.3,1,2.2c0,1-0.5,1.9-1.4,2.6c-0.9,0.7-2.3,1.1-4.1,1.1c-1.6,0-2.9-0.3-3.9-0.9C121.6,143.2,120.9,142.4,120.6,141.3
	L120.6,141.3z M134.6,144.5V129h3.2v8.2l3.7-3.9h3.9l-4.1,4.1l4.4,7.1h-3.4l-3-5l-1.5,1.5v3.6H134.6L134.6,144.5z M154,131.8V129
	h3.2v2.7H154L154,131.8z M154,144.5v-11.2h3.2v11.2H154L154,144.5z M171.4,144.5h-3.2v-5.7c0-1.2-0.1-2-0.2-2.3
	c-0.1-0.4-0.4-0.6-0.7-0.8c-0.3-0.2-0.7-0.3-1.1-0.3c-0.6,0-1.1,0.1-1.5,0.4c-0.4,0.3-0.7,0.7-0.9,1.1c-0.2,0.5-0.2,1.3-0.2,2.6v5.1
	h-3.2v-11.2h2.9v1.6c1.1-1.3,2.4-1.9,4-1.9c0.7,0,1.3,0.1,1.9,0.4c0.6,0.2,1,0.5,1.3,0.9c0.3,0.4,0.5,0.8,0.6,1.2
	c0.1,0.5,0.2,1.1,0.2,2V144.5L171.4,144.5z M188,140.9l3.2,0.5c-0.4,1.1-1.1,1.9-1.9,2.5c-0.9,0.6-2,0.8-3.3,0.8
	c-2.1,0-3.6-0.6-4.6-1.9c-0.8-1-1.2-2.3-1.2-3.9c0-1.9,0.5-3.3,1.6-4.4c1-1.1,2.4-1.6,4-1.6c1.8,0,3.2,0.5,4.2,1.6
	c1,1.1,1.5,2.8,1.5,5h-8c0,0.9,0.3,1.6,0.8,2c0.5,0.5,1.1,0.7,1.8,0.7c0.5,0,0.9-0.1,1.3-0.4C187.6,141.9,187.9,141.5,188,140.9
	L188,140.9z M188.2,137.9c0-0.9-0.3-1.5-0.7-2c-0.5-0.4-1-0.7-1.6-0.7c-0.7,0-1.3,0.2-1.7,0.7c-0.5,0.5-0.7,1.1-0.7,1.9H188.2
	L188.2,137.9z M193.8,133.3h2.9v1.5c1-1.2,2.3-1.8,3.7-1.8c0.8,0,1.4,0.1,2,0.4c0.6,0.3,1,0.7,1.4,1.3c0.5-0.6,1.1-1,1.7-1.3
	c0.6-0.3,1.3-0.4,2-0.4c0.9,0,1.6,0.2,2.2,0.5c0.6,0.3,1.1,0.8,1.4,1.5c0.2,0.5,0.3,1.2,0.3,2.3v7.1h-3.2v-6.4
	c0-1.1-0.1-1.8-0.3-2.1c-0.3-0.4-0.7-0.6-1.4-0.6c-0.4,0-0.9,0.1-1.3,0.4c-0.4,0.3-0.7,0.6-0.9,1.1c-0.2,0.5-0.3,1.3-0.3,2.3v5.4
	H201v-6.1c0-1.1-0.1-1.8-0.2-2.1c-0.1-0.3-0.3-0.6-0.5-0.7c-0.2-0.2-0.6-0.2-1-0.2c-0.5,0-0.9,0.1-1.3,0.4c-0.4,0.2-0.7,0.6-0.8,1.1
	c-0.2,0.5-0.3,1.2-0.3,2.3v5.4h-3.2V133.3L193.8,133.3z M214.5,133.3h3v1.6c0.4-0.6,0.9-1,1.6-1.4c0.7-0.3,1.4-0.5,2.2-0.5
	c1.4,0,2.6,0.5,3.6,1.5c1,1,1.5,2.4,1.5,4.3c0,1.9-0.5,3.3-1.5,4.4c-1,1-2.2,1.6-3.6,1.6c-0.7,0-1.3-0.1-1.8-0.4
	c-0.5-0.2-1.1-0.7-1.7-1.3v5.6h-3.2V133.3L214.5,133.3z M217.7,138.7c0,1.3,0.3,2.2,0.8,2.8c0.5,0.6,1.2,0.9,2,0.9
	c0.7,0,1.4-0.3,1.8-0.8c0.5-0.6,0.7-1.5,0.7-2.7c0-1.2-0.2-2-0.8-2.6c-0.5-0.6-1.1-0.9-1.9-0.9c-0.8,0-1.4,0.3-1.9,0.8
	C217.9,136.8,217.7,137.6,217.7,138.7L217.7,138.7z M234.3,133.3v2.3h-2.2v4.5c0,0.9,0,1.5,0.1,1.6c0,0.2,0.1,0.3,0.3,0.4
	c0.1,0.1,0.3,0.1,0.5,0.1c0.3,0,0.7-0.1,1.3-0.3l0.3,2.3c-0.7,0.3-1.6,0.4-2.5,0.4c-0.6,0-1.1-0.1-1.5-0.3c-0.5-0.2-0.8-0.4-1-0.7
	c-0.2-0.3-0.4-0.7-0.4-1.2c-0.1-0.3-0.1-1-0.1-2.1v-4.9h-1.5v-2.3h1.5v-2.2l3.2-1.7v4H234.3L234.3,133.3z M235,133.3h3.4l2.9,7.9
	l2.8-7.9h3.3l-4.2,10.8l-0.8,1.9c-0.3,0.7-0.6,1.1-0.8,1.5c-0.3,0.3-0.5,0.6-0.9,0.8c-0.3,0.2-0.7,0.4-1.2,0.5
	c-0.5,0.1-1,0.2-1.6,0.2c-0.6,0-1.2-0.1-1.8-0.2l-0.3-2.3c0.5,0.1,1,0.1,1.4,0.1c0.7,0,1.3-0.2,1.6-0.6c0.4-0.4,0.6-0.9,0.8-1.5
	L235,133.3z"/>
<path class="st1" d="M39.6,171l3.6,0.4c0.1,0.4,0.2,0.7,0.4,0.8c0.3,0.2,0.8,0.3,1.4,0.3c0.8,0,1.5-0.1,1.9-0.3
	c0.3-0.2,0.5-0.4,0.6-0.7c0.1-0.2,0.1-0.7,0.1-1.4l0-1.6c-1,1.2-2.2,1.8-3.6,1.8c-1.6,0-2.9-0.6-3.8-1.9c-0.7-1-1.1-2.2-1.1-3.7
	c0-1.9,0.5-3.3,1.5-4.3c1-1,2.2-1.5,3.6-1.5c1.5,0,2.7,0.6,3.7,1.8v-1.6h3v10c0,1.3-0.1,2.3-0.4,3c-0.2,0.7-0.6,1.2-1,1.5
	c-0.4,0.4-1,0.7-1.7,0.9c-0.7,0.2-1.6,0.3-2.7,0.3c-2,0-3.5-0.3-4.3-1c-0.9-0.7-1.3-1.5-1.3-2.5C39.6,171.3,39.6,171.2,39.6,171
	L39.6,171z M42.5,164.5c0,1.2,0.2,2,0.7,2.6c0.5,0.5,1.1,0.8,1.8,0.8c0.8,0,1.4-0.3,2-0.8c0.5-0.6,0.8-1.4,0.8-2.5
	c0-1.2-0.3-2-0.8-2.6c-0.5-0.6-1.2-0.8-1.9-0.8c-0.8,0-1.4,0.3-1.9,0.8C42.7,162.5,42.5,163.4,42.5,164.5L42.5,164.5z M54.1,170.3
	v-15.4h3.2v15.4H54.1L54.1,170.3z M62.9,162.6l-2.9-0.5c0.3-1.1,0.9-1.9,1.7-2.4c0.8-0.5,2-0.8,3.5-0.8c1.4,0,2.5,0.2,3.2,0.5
	c0.7,0.3,1.2,0.7,1.5,1.2c0.3,0.5,0.4,1.4,0.4,2.6l0,3.4c0,1,0.1,1.7,0.2,2.2c0.1,0.5,0.3,1,0.6,1.5h-3.2c-0.1-0.2-0.2-0.5-0.3-0.9
	c0-0.2-0.1-0.3-0.1-0.3c-0.5,0.5-1.1,0.9-1.7,1.1c-0.6,0.2-1.3,0.4-2,0.4c-1.2,0-2.2-0.3-2.9-0.9c-0.7-0.6-1.1-1.4-1.1-2.4
	c0-0.6,0.2-1.2,0.5-1.7c0.3-0.5,0.8-0.9,1.4-1.1c0.6-0.3,1.4-0.5,2.5-0.7c1.5-0.3,2.5-0.5,3.1-0.7v-0.3c0-0.6-0.2-1-0.5-1.2
	c-0.3-0.2-0.9-0.4-1.7-0.4c-0.6,0-1,0.1-1.3,0.3C63.4,161.7,63.1,162,62.9,162.6L62.9,162.6z M67.2,165c-0.4,0.1-1.1,0.3-1.9,0.5
	c-0.9,0.2-1.5,0.3-1.7,0.5c-0.4,0.3-0.6,0.6-0.6,1c0,0.4,0.2,0.8,0.5,1.1c0.3,0.3,0.8,0.5,1.3,0.5c0.6,0,1.1-0.2,1.6-0.5
	c0.4-0.3,0.6-0.6,0.8-1c0.1-0.3,0.1-0.7,0.1-1.4V165L67.2,165z M72.3,167.2l3.2-0.5c0.1,0.6,0.4,1,0.8,1.3c0.4,0.3,1,0.4,1.7,0.4
	c0.8,0,1.4-0.1,1.9-0.4c0.3-0.2,0.4-0.5,0.4-0.8c0-0.2-0.1-0.4-0.2-0.6c-0.2-0.1-0.5-0.3-1.1-0.4c-2.6-0.5-4.2-1-4.9-1.4
	c-1-0.6-1.4-1.4-1.4-2.5c0-1,0.4-1.8,1.2-2.4c0.8-0.7,2.1-1,3.8-1c1.6,0,2.9,0.3,3.7,0.7c0.8,0.5,1.4,1.2,1.7,2.2l-3,0.5
	c-0.1-0.4-0.4-0.8-0.7-1c-0.4-0.2-0.9-0.3-1.5-0.3c-0.8,0-1.4,0.1-1.8,0.3c-0.2,0.2-0.4,0.4-0.4,0.6c0,0.2,0.1,0.4,0.3,0.5
	c0.3,0.2,1.3,0.5,3,0.8c1.7,0.4,2.9,0.8,3.6,1.3c0.7,0.5,1,1.3,1,2.2c0,1-0.5,1.9-1.4,2.6c-0.9,0.7-2.3,1.1-4.1,1.1
	c-1.6,0-2.9-0.3-3.9-0.9C73.2,169,72.6,168.2,72.3,167.2L72.3,167.2z M85.2,167.2l3.2-0.5c0.1,0.6,0.4,1,0.8,1.3
	c0.4,0.3,1,0.4,1.7,0.4c0.8,0,1.4-0.1,1.9-0.4c0.3-0.2,0.4-0.5,0.4-0.8c0-0.2-0.1-0.4-0.2-0.6c-0.2-0.1-0.5-0.3-1.1-0.4
	c-2.6-0.5-4.2-1-4.9-1.4c-1-0.6-1.4-1.4-1.4-2.5c0-1,0.4-1.8,1.2-2.4c0.8-0.7,2.1-1,3.8-1c1.6,0,2.9,0.3,3.7,0.7
	c0.8,0.5,1.4,1.2,1.7,2.2l-3,0.5c-0.1-0.4-0.4-0.8-0.7-1c-0.4-0.2-0.9-0.3-1.5-0.3c-0.8,0-1.4,0.1-1.8,0.3c-0.2,0.2-0.4,0.4-0.4,0.6
	c0,0.2,0.1,0.4,0.3,0.5c0.3,0.2,1.3,0.5,3,0.8c1.7,0.4,2.9,0.8,3.6,1.3c0.7,0.5,1,1.3,1,2.2c0,1-0.5,1.9-1.4,2.6
	c-0.9,0.7-2.3,1.1-4.1,1.1c-1.6,0-2.9-0.3-3.9-0.9C86.1,169,85.5,168.2,85.2,167.2L85.2,167.2z M108.1,162.6l-2.9-0.5
	c0.3-1.1,0.9-1.9,1.7-2.4c0.8-0.5,2-0.8,3.5-0.8c1.4,0,2.5,0.2,3.2,0.5c0.7,0.3,1.2,0.7,1.5,1.2c0.3,0.5,0.4,1.4,0.4,2.6l0,3.4
	c0,1,0,1.7,0.2,2.2c0.1,0.5,0.3,1,0.6,1.5H113c-0.1-0.2-0.2-0.5-0.3-0.9c0-0.2-0.1-0.3-0.1-0.3c-0.5,0.5-1.1,0.9-1.7,1.1
	c-0.6,0.2-1.3,0.4-2,0.4c-1.2,0-2.2-0.3-2.9-0.9c-0.7-0.6-1.1-1.4-1.1-2.4c0-0.6,0.2-1.2,0.5-1.7c0.3-0.5,0.8-0.9,1.4-1.1
	c0.6-0.3,1.4-0.5,2.5-0.7c1.5-0.3,2.5-0.5,3.1-0.7v-0.3c0-0.6-0.2-1-0.5-1.2c-0.3-0.2-0.9-0.4-1.7-0.4c-0.6,0-1,0.1-1.3,0.3
	C108.5,161.7,108.3,162,108.1,162.6L108.1,162.6z M112.3,165c-0.4,0.1-1.1,0.3-1.9,0.5c-0.9,0.2-1.5,0.3-1.7,0.5
	c-0.4,0.3-0.6,0.6-0.6,1c0,0.4,0.2,0.8,0.5,1.1c0.3,0.3,0.8,0.5,1.3,0.5c0.6,0,1.1-0.2,1.6-0.5c0.4-0.3,0.6-0.6,0.8-1
	c0.1-0.3,0.1-0.7,0.1-1.4V165L112.3,165z M124.1,159.1v2.3h-2.2v4.5c0,0.9,0,1.5,0.1,1.6c0,0.2,0.1,0.3,0.3,0.4
	c0.1,0.1,0.3,0.1,0.5,0.1c0.3,0,0.7-0.1,1.3-0.3l0.3,2.3c-0.7,0.3-1.6,0.4-2.5,0.4c-0.6,0-1.1-0.1-1.5-0.3c-0.5-0.2-0.8-0.4-1-0.7
	c-0.2-0.3-0.4-0.7-0.4-1.2c-0.1-0.3-0.1-1-0.1-2.1v-4.9h-1.5v-2.3h1.5v-2.2l3.2-1.7v4H124.1L124.1,159.1z M132.6,170.3v-15.4h3.2
	v5.6c1-1,2.1-1.6,3.5-1.6c1.5,0,2.7,0.5,3.6,1.5c1,1,1.4,2.4,1.4,4.3c0,1.9-0.5,3.4-1.5,4.4c-1,1-2.2,1.5-3.6,1.5
	c-0.7,0-1.4-0.2-2-0.5c-0.7-0.3-1.2-0.8-1.7-1.4v1.6H132.6L132.6,170.3z M135.8,164.5c0,1.2,0.2,2,0.6,2.6c0.6,0.8,1.3,1.2,2.2,1.2
	c0.7,0,1.3-0.3,1.8-0.8c0.5-0.6,0.7-1.4,0.7-2.6c0-1.3-0.3-2.2-0.8-2.8c-0.5-0.6-1.1-0.8-1.9-0.8c-0.8,0-1.4,0.3-1.9,0.8
	C136,162.5,135.8,163.4,135.8,164.5L135.8,164.5z M153.9,166.8l3.2,0.5c-0.4,1.1-1.1,1.9-1.9,2.5c-0.9,0.6-2,0.8-3.3,0.8
	c-2.1,0-3.6-0.6-4.6-1.9c-0.8-1-1.2-2.3-1.2-3.9c0-1.9,0.5-3.3,1.6-4.4c1-1.1,2.4-1.6,4-1.6c1.8,0,3.2,0.5,4.2,1.6
	c1,1.1,1.5,2.8,1.5,5h-8c0,0.9,0.3,1.6,0.8,2c0.5,0.5,1.1,0.7,1.8,0.7c0.5,0,0.9-0.1,1.3-0.4C153.5,167.7,153.7,167.3,153.9,166.8
	L153.9,166.8z M154.1,163.8c0-0.9-0.3-1.5-0.7-2c-0.5-0.4-1-0.7-1.6-0.7c-0.7,0-1.3,0.2-1.7,0.7c-0.5,0.5-0.7,1.1-0.7,1.9H154.1
	L154.1,163.8z M170.9,170.3H168v-1.6c-0.5,0.6-1.1,1.1-1.7,1.4c-0.7,0.3-1.3,0.5-2,0.5c-1.4,0-2.6-0.5-3.6-1.6c-1-1-1.5-2.5-1.5-4.3
	c0-1.9,0.5-3.3,1.4-4.3c1-1,2.2-1.5,3.6-1.5c1.3,0,2.5,0.5,3.5,1.6v-5.6h3.2V170.3L170.9,170.3z M162.4,164.5c0,1.2,0.2,2.1,0.5,2.6
	c0.5,0.8,1.2,1.2,2.1,1.2c0.7,0,1.4-0.3,1.9-0.9c0.5-0.6,0.8-1.4,0.8-2.6c0-1.3-0.2-2.2-0.7-2.8c-0.5-0.6-1.1-0.8-1.9-0.8
	c-0.8,0-1.4,0.3-1.9,0.8C162.7,162.6,162.4,163.4,162.4,164.5L162.4,164.5z M179.5,159.1v2.3h-2.2v4.5c0,0.9,0,1.5,0.1,1.6
	c0,0.2,0.1,0.3,0.3,0.4c0.1,0.1,0.3,0.1,0.5,0.1c0.3,0,0.7-0.1,1.3-0.3l0.3,2.3c-0.7,0.3-1.6,0.4-2.5,0.4c-0.6,0-1.1-0.1-1.5-0.3
	c-0.5-0.2-0.8-0.4-1-0.7c-0.2-0.3-0.4-0.7-0.4-1.2c-0.1-0.3-0.1-1-0.1-2.1v-4.9h-1.5v-2.3h1.5v-2.2l3.2-1.7v4H179.5L179.5,159.1z
	 M181.8,157.6v-2.7h3.2v2.7H181.8L181.8,157.6z M181.8,170.3v-11.2h3.2v11.2H181.8L181.8,170.3z M188,159.1h2.9v1.5
	c1-1.2,2.3-1.8,3.7-1.8c0.8,0,1.4,0.1,2,0.4c0.6,0.3,1,0.7,1.4,1.3c0.5-0.6,1.1-1,1.7-1.3c0.6-0.3,1.3-0.4,2-0.4
	c0.9,0,1.6,0.2,2.2,0.5c0.6,0.3,1.1,0.8,1.4,1.5c0.2,0.5,0.3,1.2,0.3,2.3v7.1h-3.2v-6.4c0-1.1-0.1-1.8-0.3-2.1
	c-0.3-0.4-0.7-0.6-1.4-0.6c-0.4,0-0.9,0.1-1.3,0.4c-0.4,0.3-0.7,0.6-0.8,1.1c-0.2,0.5-0.3,1.3-0.3,2.3v5.4h-3.2v-6.1
	c0-1.1-0.1-1.8-0.2-2.1c-0.1-0.3-0.3-0.6-0.5-0.7c-0.2-0.2-0.6-0.2-1-0.2c-0.5,0-0.9,0.1-1.3,0.4c-0.4,0.2-0.7,0.6-0.8,1.1
	c-0.2,0.5-0.3,1.2-0.3,2.3v5.4H188V159.1L188,159.1z M215.8,166.8l3.2,0.5c-0.4,1.1-1.1,1.9-1.9,2.5c-0.9,0.6-2,0.8-3.3,0.8
	c-2.1,0-3.6-0.6-4.6-1.9c-0.8-1-1.2-2.3-1.2-3.9c0-1.9,0.5-3.3,1.6-4.4c1-1.1,2.4-1.6,3.9-1.6c1.8,0,3.2,0.5,4.2,1.6
	c1,1.1,1.5,2.8,1.5,5h-8c0,0.9,0.3,1.6,0.8,2c0.5,0.5,1.1,0.7,1.8,0.7c0.5,0,0.9-0.1,1.3-0.4C215.4,167.7,215.6,167.3,215.8,166.8
	L215.8,166.8z M216,163.8c0-0.9-0.3-1.5-0.7-2c-0.5-0.4-1-0.7-1.6-0.7c-0.7,0-1.3,0.2-1.7,0.7c-0.5,0.5-0.7,1.1-0.7,1.9H216z"/>
<path class="st1" d="M317,144.1v-15.4h5l3,10.5l2.9-10.5h5v15.4h-3.1l0-12.1l-3.3,12.1h-3.2l-3.3-12.1l0,12.1H317L317,144.1z
	 M336.3,131.5v-2.7h3.2v2.7H336.3L336.3,131.5z M336.3,144.1V133h3.2v11.2H336.3L336.3,144.1z M341.2,144.1l4.3-5.8l-4.2-5.4h3.9
	l2.1,3.1l2.3-3.1h3.7l-4.1,5.3l4.4,5.9h-3.9l-2.5-3.5l-2.5,3.5H341.2L341.2,144.1z M372.2,141.4v2.7H361c0.1-1,0.5-2,1.1-3
	c0.6-0.9,1.8-2.2,3.6-3.7c1.4-1.2,2.3-2.1,2.6-2.5c0.4-0.6,0.7-1.2,0.7-1.8c0-0.7-0.2-1.2-0.6-1.5c-0.4-0.4-0.9-0.5-1.6-0.5
	c-0.7,0-1.2,0.2-1.6,0.6c-0.4,0.4-0.6,1-0.7,1.9l-3.2-0.3c0.2-1.6,0.8-2.8,1.8-3.5c1-0.7,2.2-1.1,3.7-1.1c1.6,0,2.9,0.4,3.9,1.2
	c0.9,0.8,1.4,1.8,1.4,3.1c0,0.7-0.1,1.4-0.4,2c-0.3,0.6-0.7,1.3-1.3,2c-0.4,0.5-1.1,1.1-2.1,2c-1,0.9-1.6,1.4-1.9,1.7
	c-0.3,0.3-0.5,0.6-0.7,0.8H372.2L372.2,141.4z M379.7,128.6c1.6,0,2.9,0.5,3.8,1.6c1.1,1.3,1.6,3.4,1.6,6.3c0,2.9-0.5,5-1.6,6.3
	c-0.9,1.1-2.2,1.6-3.8,1.6c-1.6,0-2.9-0.6-3.9-1.7c-1-1.2-1.5-3.2-1.5-6.2c0-2.9,0.5-5,1.6-6.3C376.9,129.2,378.1,128.6,379.7,128.6
	L379.7,128.6z M379.7,131.1c-0.4,0-0.7,0.1-1,0.3c-0.3,0.2-0.5,0.6-0.7,1.2c-0.2,0.8-0.3,2.1-0.3,3.9c0,1.8,0.1,3.1,0.3,3.7
	c0.2,0.7,0.4,1.1,0.7,1.4c0.3,0.2,0.6,0.3,1,0.3c0.4,0,0.7-0.1,1-0.3c0.3-0.2,0.5-0.6,0.7-1.2c0.2-0.8,0.3-2,0.3-3.9
	c0-1.8-0.1-3.1-0.3-3.7c-0.2-0.7-0.4-1.1-0.7-1.4C380.4,131.2,380.1,131.1,379.7,131.1L379.7,131.1z M392.6,128.6
	c1.6,0,2.9,0.5,3.8,1.6c1.1,1.3,1.6,3.4,1.6,6.3c0,2.9-0.5,5-1.6,6.3c-0.9,1.1-2.2,1.6-3.8,1.6c-1.6,0-2.9-0.6-3.9-1.7
	c-1-1.2-1.5-3.2-1.5-6.2c0-2.9,0.5-5,1.6-6.3C389.8,129.2,391,128.6,392.6,128.6L392.6,128.6z M392.6,131.1c-0.4,0-0.7,0.1-1,0.3
	c-0.3,0.2-0.5,0.6-0.7,1.2c-0.2,0.8-0.3,2.1-0.3,3.9c0,1.8,0.1,3.1,0.3,3.7c0.2,0.7,0.4,1.1,0.7,1.4c0.3,0.2,0.6,0.3,1,0.3
	c0.4,0,0.7-0.1,1-0.3c0.3-0.2,0.5-0.6,0.7-1.2c0.2-0.8,0.3-2,0.3-3.9c0-1.8-0.1-3.1-0.3-3.7c-0.2-0.7-0.4-1.1-0.7-1.4
	C393.3,131.2,393,131.1,392.6,131.1L392.6,131.1z M400.6,133h2.9v1.5c1-1.2,2.3-1.8,3.7-1.8c0.8,0,1.4,0.1,2,0.4
	c0.6,0.3,1,0.7,1.4,1.3c0.5-0.6,1.1-1,1.7-1.3c0.6-0.3,1.3-0.4,2-0.4c0.9,0,1.6,0.2,2.2,0.5c0.6,0.3,1.1,0.8,1.4,1.5
	c0.2,0.5,0.3,1.2,0.3,2.3v7.1h-3.2v-6.4c0-1.1-0.1-1.8-0.3-2.1c-0.3-0.4-0.7-0.6-1.4-0.6c-0.4,0-0.9,0.1-1.3,0.4
	c-0.4,0.3-0.7,0.6-0.8,1.1c-0.2,0.5-0.3,1.3-0.3,2.3v5.4h-3.2V138c0-1.1-0.1-1.8-0.2-2.1c-0.1-0.3-0.3-0.6-0.5-0.7
	c-0.2-0.2-0.6-0.2-1-0.2c-0.5,0-0.9,0.1-1.3,0.4c-0.4,0.2-0.7,0.6-0.8,1.1c-0.2,0.5-0.3,1.2-0.3,2.3v5.4h-3.2V133L400.6,133z
	 M421.5,144.1v-15.4h3.2v15.4H421.5L421.5,144.1z M434.3,144.1v-15.4h3.2v15.4H434.3L434.3,144.1z M448.7,144.1v-1.7
	c-0.4,0.6-1,1.1-1.7,1.4c-0.7,0.4-1.5,0.5-2.3,0.5c-0.8,0-1.5-0.2-2.2-0.5c-0.6-0.3-1.1-0.8-1.4-1.4c-0.3-0.6-0.4-1.4-0.4-2.5V133
	h3.2v5.1c0,1.6,0.1,2.5,0.2,2.9c0.1,0.4,0.3,0.6,0.6,0.8c0.3,0.2,0.7,0.3,1.2,0.3c0.5,0,1-0.1,1.5-0.4c0.4-0.3,0.7-0.6,0.9-1
	c0.2-0.4,0.2-1.4,0.2-3V133h3.2v11.2H448.7L448.7,144.1z M454.8,144.1v-15.4h3.2v8.2l3.7-3.9h3.9l-4.1,4.1l4.4,7.1h-3.4l-3-5
	l-1.5,1.5v3.6H454.8L454.8,144.1z M474.8,140.6l3.2,0.5c-0.4,1.1-1.1,1.9-1.9,2.5c-0.9,0.6-2,0.8-3.3,0.8c-2.1,0-3.6-0.6-4.6-1.9
	c-0.8-1-1.2-2.3-1.2-3.9c0-1.9,0.5-3.3,1.6-4.4c1-1.1,2.4-1.6,4-1.6c1.8,0,3.2,0.5,4.2,1.6c1,1.1,1.5,2.8,1.5,5h-8
	c0,0.9,0.3,1.6,0.8,2c0.5,0.5,1.1,0.7,1.8,0.7c0.5,0,0.9-0.1,1.3-0.4C474.4,141.6,474.6,141.2,474.8,140.6L474.8,140.6z M475,137.6
	c0-0.9-0.3-1.5-0.7-2c-0.5-0.4-1-0.7-1.6-0.7c-0.7,0-1.3,0.2-1.7,0.7c-0.5,0.5-0.7,1.1-0.7,1.9H475L475,137.6z M489.4,144.1
	l-3.8-11.2h3.1l2.3,7.3l2.1-7.3h3.1l2,7.3l2.3-7.3h3.1l-3.9,11.2h-3.1l-2.1-7.2l-2,7.2H489.4L489.4,144.1z M507.6,136.4l-2.9-0.5
	c0.3-1.1,0.9-1.9,1.7-2.4c0.8-0.5,2-0.8,3.5-0.8c1.4,0,2.5,0.2,3.2,0.5c0.7,0.3,1.2,0.7,1.5,1.2c0.3,0.5,0.4,1.4,0.4,2.6l0,3.4
	c0,1,0,1.7,0.2,2.2c0.1,0.5,0.3,1,0.6,1.5h-3.2c-0.1-0.2-0.2-0.5-0.3-0.9c-0.1-0.2-0.1-0.3-0.1-0.3c-0.5,0.5-1.1,0.9-1.7,1.1
	c-0.6,0.2-1.3,0.4-2,0.4c-1.2,0-2.2-0.3-2.9-0.9c-0.7-0.6-1.1-1.4-1.1-2.4c0-0.6,0.2-1.2,0.5-1.7c0.3-0.5,0.8-0.9,1.4-1.1
	c0.6-0.3,1.4-0.5,2.5-0.7c1.5-0.3,2.5-0.5,3.1-0.7v-0.3c0-0.6-0.2-1-0.5-1.2c-0.3-0.2-0.9-0.4-1.7-0.4c-0.6,0-1,0.1-1.3,0.3
	C508.1,135.5,507.8,135.9,507.6,136.4L507.6,136.4z M511.9,138.8c-0.4,0.1-1.1,0.3-1.9,0.5c-0.9,0.2-1.5,0.3-1.7,0.5
	c-0.4,0.3-0.6,0.6-0.6,1c0,0.4,0.2,0.8,0.5,1.1c0.3,0.3,0.8,0.5,1.3,0.5c0.6,0,1.1-0.2,1.6-0.5c0.4-0.3,0.6-0.6,0.8-1
	c0.1-0.3,0.1-0.7,0.1-1.4V138.8L511.9,138.8z M521.2,144.1H518V133h2.9v1.6c0.5-0.8,1-1.2,1.4-1.5c0.4-0.2,0.9-0.3,1.4-0.3
	c0.7,0,1.4,0.2,2.1,0.6l-1,2.6c-0.5-0.3-1-0.5-1.5-0.5c-0.4,0-0.8,0.1-1.1,0.3c-0.3,0.2-0.6,0.6-0.7,1.2c-0.2,0.6-0.3,1.8-0.3,3.7
	V144.1L521.2,144.1z M526.9,133h2.9v1.5c1-1.2,2.3-1.8,3.7-1.8c0.8,0,1.4,0.1,2,0.4c0.6,0.3,1,0.7,1.4,1.3c0.5-0.6,1.1-1,1.7-1.3
	c0.6-0.3,1.3-0.4,2-0.4c0.9,0,1.6,0.2,2.2,0.5c0.6,0.3,1.1,0.8,1.4,1.5c0.2,0.5,0.3,1.2,0.3,2.3v7.1h-3.2v-6.4
	c0-1.1-0.1-1.8-0.3-2.1c-0.3-0.4-0.7-0.6-1.4-0.6c-0.4,0-0.9,0.1-1.3,0.4c-0.4,0.3-0.7,0.6-0.8,1.1c-0.2,0.5-0.3,1.3-0.3,2.3v5.4
	h-3.2V138c0-1.1-0.1-1.8-0.2-2.1c-0.1-0.3-0.3-0.6-0.5-0.7c-0.2-0.2-0.6-0.2-1-0.2c-0.5,0-0.9,0.1-1.3,0.4c-0.4,0.2-0.7,0.6-0.8,1.1
	c-0.2,0.5-0.3,1.2-0.3,2.3v5.4h-3.2V133z"/>
<path class="st1" d="M356.6,170l-3.8-11.2h3.1l2.3,7.3l2.1-7.3h3.1l2,7.3l2.3-7.3h3.1l-3.9,11.2h-3.1l-2.1-7.2l-2,7.2H356.6
	L356.6,170z M374.8,162.3l-2.9-0.5c0.3-1.1,0.9-1.9,1.7-2.4c0.8-0.5,2-0.8,3.5-0.8c1.4,0,2.5,0.2,3.2,0.5c0.7,0.3,1.2,0.7,1.5,1.2
	c0.3,0.5,0.4,1.4,0.4,2.6l0,3.4c0,1,0,1.7,0.2,2.2c0.1,0.5,0.3,1,0.6,1.5h-3.2c-0.1-0.2-0.2-0.5-0.3-0.9c0-0.2-0.1-0.3-0.1-0.3
	c-0.5,0.5-1.1,0.9-1.7,1.1c-0.6,0.2-1.3,0.4-2,0.4c-1.2,0-2.2-0.3-2.9-0.9c-0.7-0.6-1.1-1.4-1.1-2.4c0-0.6,0.2-1.2,0.5-1.7
	c0.3-0.5,0.8-0.9,1.4-1.1c0.6-0.3,1.4-0.5,2.5-0.7c1.5-0.3,2.5-0.5,3.1-0.7v-0.3c0-0.6-0.2-1-0.5-1.2c-0.3-0.2-0.9-0.4-1.7-0.4
	c-0.6,0-1,0.1-1.3,0.3C375.3,161.4,375,161.7,374.8,162.3L374.8,162.3z M379.1,164.6c-0.4,0.1-1.1,0.3-1.9,0.5
	c-0.9,0.2-1.5,0.3-1.7,0.5c-0.4,0.3-0.6,0.6-0.6,1c0,0.4,0.2,0.8,0.5,1.1c0.3,0.3,0.8,0.5,1.3,0.5c0.6,0,1.1-0.2,1.6-0.5
	c0.4-0.3,0.6-0.6,0.8-1c0.1-0.3,0.1-0.7,0.1-1.4V164.6L379.1,164.6z M390.9,158.8v2.3h-2.2v4.5c0,0.9,0,1.5,0.1,1.6
	c0,0.2,0.1,0.3,0.3,0.4c0.1,0.1,0.3,0.1,0.5,0.1c0.3,0,0.7-0.1,1.3-0.3l0.3,2.3c-0.7,0.3-1.6,0.4-2.5,0.4c-0.6,0-1.1-0.1-1.5-0.3
	c-0.5-0.2-0.8-0.4-1-0.7c-0.2-0.3-0.4-0.7-0.4-1.2c-0.1-0.3-0.1-1-0.1-2.1v-4.9H384v-2.3h1.5v-2.2l3.2-1.7v4H390.9L390.9,158.8z
	 M400,166.4l3.2,0.5c-0.4,1.1-1.1,1.9-1.9,2.5c-0.9,0.6-2,0.8-3.3,0.8c-2.1,0-3.6-0.6-4.6-1.9c-0.8-1-1.2-2.3-1.2-3.9
	c0-1.9,0.5-3.3,1.6-4.4c1-1.1,2.4-1.6,4-1.6c1.8,0,3.2,0.5,4.2,1.6c1,1.1,1.5,2.8,1.5,5h-8c0,0.9,0.3,1.6,0.8,2
	c0.5,0.5,1.1,0.7,1.8,0.7c0.5,0,0.9-0.1,1.3-0.4C399.6,167.4,399.9,167,400,166.4L400,166.4z M400.2,163.5c0-0.9-0.3-1.5-0.7-2
	c-0.5-0.4-1-0.7-1.7-0.7c-0.7,0-1.3,0.2-1.7,0.7c-0.5,0.5-0.7,1.1-0.7,1.9H400.2L400.2,163.5z M409,170h-3.2v-11.2h2.9v1.6
	c0.5-0.8,1-1.2,1.4-1.5c0.4-0.2,0.9-0.3,1.4-0.3c0.7,0,1.4,0.2,2.1,0.6l-1,2.6c-0.5-0.3-1-0.5-1.5-0.5c-0.4,0-0.8,0.1-1.1,0.3
	c-0.3,0.2-0.6,0.6-0.7,1.2c-0.2,0.6-0.3,1.8-0.3,3.7V170L409,170z M420.7,164.3c0-1,0.3-1.9,0.8-2.9c0.5-0.9,1.3-1.6,2.2-2.1
	c1-0.5,2-0.7,3.2-0.7c1.8,0,3.3,0.5,4.5,1.6c1.2,1.1,1.7,2.5,1.7,4.2c0,1.7-0.6,3.1-1.8,4.2c-1.2,1.1-2.7,1.7-4.4,1.7
	c-1.1,0-2.2-0.2-3.2-0.7c-1-0.5-1.8-1.1-2.3-2C421,166.6,420.7,165.5,420.7,164.3L420.7,164.3z M424,164.4c0,1.1,0.3,2,0.8,2.5
	c0.6,0.6,1.3,0.9,2.1,0.9c0.8,0,1.5-0.3,2.1-0.9c0.6-0.6,0.8-1.4,0.8-2.6c0-1.1-0.3-1.9-0.8-2.5c-0.6-0.6-1.3-0.9-2.1-0.9
	c-0.8,0-1.5,0.3-2.1,0.9C424.3,162.5,424,163.3,424,164.4L424,164.4z M438.7,170h-3.2v-11.2h2.9v1.6c0.5-0.8,1-1.2,1.4-1.5
	c0.4-0.2,0.9-0.3,1.4-0.3c0.7,0,1.4,0.2,2.1,0.6l-1,2.6c-0.5-0.3-1-0.5-1.5-0.5c-0.4,0-0.8,0.1-1.1,0.3c-0.3,0.2-0.6,0.6-0.7,1.2
	c-0.2,0.6-0.3,1.8-0.3,3.7V170L438.7,170z M450.9,158.8h2.9v1.5c1-1.2,2.3-1.8,3.7-1.8c0.8,0,1.4,0.1,2,0.4c0.6,0.3,1,0.7,1.4,1.3
	c0.5-0.6,1.1-1,1.7-1.3c0.6-0.3,1.3-0.4,2-0.4c0.9,0,1.6,0.2,2.2,0.5c0.6,0.3,1.1,0.8,1.4,1.5c0.2,0.5,0.3,1.2,0.3,2.3v7.1h-3.2
	v-6.4c0-1.1-0.1-1.8-0.3-2.1c-0.3-0.4-0.7-0.6-1.4-0.6c-0.4,0-0.9,0.1-1.3,0.4c-0.4,0.3-0.7,0.6-0.9,1.1c-0.2,0.5-0.3,1.3-0.3,2.3
	v5.4h-3.2v-6.1c0-1.1-0.1-1.8-0.2-2.1c-0.1-0.3-0.3-0.6-0.5-0.7c-0.2-0.2-0.6-0.2-1-0.2c-0.5,0-0.9,0.1-1.3,0.4
	c-0.4,0.2-0.7,0.6-0.8,1.1c-0.2,0.5-0.3,1.2-0.3,2.3v5.4h-3.2V158.8L450.9,158.8z M471.7,157.3v-2.7h3.2v2.7H471.7L471.7,157.3z
	 M471.7,170v-11.2h3.2V170H471.7L471.7,170z M478.2,170v-15.4h3.2V170H478.2L478.2,170z M484.5,170v-15.4h3.2v8.2l3.7-3.9h3.9
	l-4.1,4.1l4.4,7.1h-3.4l-3-5l-1.5,1.5v3.6H484.5z"/>
<path class="st1" d="M617.4,139.3l3.3-0.3c0.2,1,0.6,1.8,1.2,2.2c0.6,0.5,1.4,0.7,2.4,0.7c1.1,0,1.9-0.2,2.4-0.6
	c0.5-0.4,0.8-0.9,0.8-1.5c0-0.4-0.1-0.7-0.3-0.9c-0.2-0.3-0.6-0.5-1.2-0.7c-0.4-0.1-1.3-0.4-2.7-0.7c-1.8-0.4-3-0.9-3.8-1.5
	c-1-0.8-1.5-1.9-1.5-3.1c0-0.8,0.2-1.5,0.7-2.2c0.5-0.7,1.2-1.2,2.1-1.6c0.9-0.4,2-0.5,3.3-0.5c2.1,0,3.6,0.4,4.7,1.3
	c1.1,0.9,1.6,2,1.7,3.4l-3.4,0.1c-0.1-0.8-0.4-1.4-0.9-1.7c-0.5-0.3-1.2-0.5-2.1-0.5c-1,0-1.7,0.2-2.3,0.6c-0.4,0.2-0.5,0.6-0.5,1
	c0,0.4,0.2,0.7,0.5,0.9c0.4,0.3,1.4,0.7,3.1,1c1.6,0.4,2.8,0.7,3.6,1.1c0.8,0.4,1.4,0.9,1.8,1.6c0.4,0.7,0.7,1.5,0.7,2.5
	c0,0.9-0.3,1.7-0.8,2.5c-0.5,0.8-1.3,1.3-2.2,1.7c-1,0.4-2.2,0.6-3.6,0.6c-2.1,0-3.7-0.4-4.8-1.4C618.3,142.3,617.6,141,617.4,139.3
	L617.4,139.3z M639.2,133.1v2.3h-2.2v4.5c0,0.9,0,1.5,0.1,1.6c0,0.2,0.1,0.3,0.3,0.4c0.1,0.1,0.3,0.1,0.5,0.1c0.3,0,0.7-0.1,1.3-0.3
	l0.3,2.3c-0.7,0.3-1.6,0.4-2.5,0.4c-0.6,0-1.1-0.1-1.5-0.3c-0.5-0.2-0.8-0.4-1-0.7c-0.2-0.3-0.4-0.7-0.4-1.2c-0.1-0.3-0.1-1-0.1-2.1
	v-4.9h-1.5v-2.3h1.5v-2.2l3.2-1.7v4H639.2L639.2,133.1z M641.5,131.6v-2.7h3.2v2.7H641.5L641.5,131.6z M641.5,144.3v-11.2h3.2v11.2
	H641.5L641.5,144.3z M651,144.3h-3.2v-11.2h2.9v1.6c0.5-0.8,1-1.2,1.4-1.5c0.4-0.2,0.9-0.3,1.4-0.3c0.7,0,1.4,0.2,2.1,0.6l-1,2.6
	c-0.5-0.3-1-0.5-1.5-0.5c-0.4,0-0.8,0.1-1.1,0.3c-0.3,0.2-0.6,0.6-0.7,1.2c-0.2,0.6-0.3,1.8-0.3,3.7V144.3L651,144.3z M671.3,148.5
	V143c-0.4,0.5-0.9,0.9-1.6,1.2c-0.6,0.3-1.3,0.4-2,0.4c-1.4,0-2.5-0.5-3.4-1.4c-1-1.1-1.6-2.6-1.6-4.5c0-1.8,0.5-3.2,1.5-4.2
	c1-1,2.2-1.5,3.7-1.5c0.8,0,1.5,0.2,2.1,0.5c0.6,0.3,1.1,0.8,1.6,1.4v-1.7h2.9v15.4H671.3L671.3,148.5z M671.3,138.6
	c0-1.1-0.3-2-0.8-2.6c-0.5-0.6-1.1-0.8-1.9-0.8c-0.8,0-1.4,0.3-1.9,0.9c-0.5,0.6-0.8,1.5-0.8,2.7c0,1.2,0.2,2.1,0.7,2.7
	c0.5,0.5,1.1,0.8,1.8,0.8c0.7,0,1.4-0.3,1.9-0.9C671.1,140.7,671.3,139.8,671.3,138.6L671.3,138.6z M685.5,144.3v-1.7
	c-0.4,0.6-1,1.1-1.7,1.4c-0.7,0.4-1.5,0.5-2.3,0.5c-0.8,0-1.5-0.2-2.2-0.5c-0.6-0.3-1.1-0.8-1.4-1.4c-0.3-0.6-0.4-1.4-0.4-2.5v-7.1
	h3.2v5.1c0,1.6,0.1,2.5,0.2,2.9c0.1,0.4,0.3,0.6,0.6,0.8c0.3,0.2,0.7,0.3,1.2,0.3c0.5,0,1-0.1,1.5-0.4c0.4-0.3,0.7-0.6,0.9-1
	c0.2-0.4,0.2-1.4,0.2-3v-4.7h3.2v11.2H685.5L685.5,144.3z M691.7,131.6v-2.7h3.2v2.7H691.7L691.7,131.6z M691.7,144.3v-11.2h3.2
	v11.2H691.7L691.7,144.3z M708.7,136.4l-3.1,0.5c-0.1-0.6-0.3-1-0.7-1.3c-0.4-0.3-0.9-0.4-1.5-0.4c-0.8,0-1.4,0.3-1.9,0.8
	c-0.5,0.5-0.7,1.4-0.7,2.6c0,1.3,0.2,2.3,0.7,2.8c0.5,0.5,1.1,0.8,1.9,0.8c0.6,0,1.1-0.2,1.5-0.5c0.4-0.3,0.7-0.9,0.8-1.7l3.1,0.5
	c-0.3,1.3-0.9,2.3-1.9,3c-0.9,0.7-2.2,1-3.7,1c-1.8,0-3.2-0.5-4.2-1.5c-1-1-1.6-2.5-1.6-4.3c0-1.8,0.5-3.3,1.6-4.3
	c1-1,2.5-1.5,4.3-1.5c1.5,0,2.6,0.3,3.5,0.9C707.7,134.3,708.3,135.2,708.7,136.4L708.7,136.4z M711,144.3v-15.4h3.2v8.2l3.7-3.9
	h3.9l-4.1,4.1l4.4,7.1h-3.4l-3-5l-1.5,1.5v3.6H711L711,144.3z M724,144.3v-15.4h3.2v15.4H724L724,144.3z M728.9,133.1h3.4l2.9,7.9
	l2.8-7.9h3.3l-4.2,10.8l-0.8,1.9c-0.3,0.6-0.5,1.1-0.8,1.5c-0.3,0.3-0.5,0.6-0.9,0.8c-0.3,0.2-0.7,0.4-1.2,0.5
	c-0.5,0.1-1,0.2-1.6,0.2c-0.6,0-1.2-0.1-1.8-0.2l-0.3-2.3c0.5,0.1,1,0.1,1.4,0.1c0.7,0,1.3-0.2,1.6-0.6c0.4-0.4,0.6-0.9,0.8-1.5
	L728.9,133.1L728.9,133.1z M764.5,142.4l-1.9,2.3c-0.9-0.4-1.9-1-2.7-1.8c-0.7,0.6-1.4,1-2.1,1.2c-0.8,0.3-1.6,0.4-2.7,0.4
	c-2.1,0-3.6-0.5-4.7-1.6c-0.8-0.8-1.2-1.8-1.2-2.9c0-1,0.3-1.9,1-2.7c0.6-0.8,1.6-1.5,2.9-2.1c-0.6-0.6-1-1.2-1.3-1.8
	c-0.3-0.6-0.4-1.1-0.4-1.6c0-0.9,0.4-1.7,1.2-2.4c0.8-0.6,2-1,3.4-1c1.4,0,2.6,0.3,3.4,1c0.8,0.7,1.2,1.5,1.2,2.5
	c0,0.6-0.2,1.2-0.6,1.8c-0.4,0.6-1.2,1.2-2.4,1.9l2.3,2.9c0.3-0.4,0.5-1,0.7-1.7l2.9,0.6c-0.3,0.9-0.5,1.6-0.8,2.1
	c-0.2,0.4-0.4,0.8-0.7,1.1c0.4,0.3,0.8,0.6,1.4,1C763.8,142.1,764.2,142.3,764.5,142.4L764.5,142.4z M755.8,134l0.9-0.6
	c0.6-0.5,0.9-0.9,0.9-1.4c0-0.4-0.1-0.7-0.5-1c-0.3-0.3-0.7-0.4-1.2-0.4c-0.5,0-0.9,0.1-1.2,0.4c-0.3,0.2-0.4,0.5-0.4,0.8
	c0,0.4,0.2,0.8,0.7,1.3L755.8,134L755.8,134z M754.6,137.2c-0.7,0.3-1.3,0.8-1.6,1.2c-0.4,0.5-0.5,1-0.5,1.5c0,0.6,0.2,1.2,0.7,1.6
	c0.4,0.4,1,0.6,1.8,0.6c0.5,0,1-0.1,1.4-0.3c0.5-0.2,1-0.5,1.5-0.9L754.6,137.2z"/>
<path class="st1" d="M631.3,170.1h-2.9v-1.6c-0.5,0.6-1.1,1.1-1.7,1.4c-0.7,0.3-1.3,0.5-2,0.5c-1.4,0-2.6-0.5-3.6-1.6
	c-1-1-1.5-2.5-1.5-4.3c0-1.9,0.5-3.3,1.4-4.3c1-1,2.2-1.5,3.6-1.5c1.3,0,2.5,0.5,3.5,1.6v-5.6h3.2V170.1L631.3,170.1z M622.8,164.3
	c0,1.2,0.2,2.1,0.5,2.6c0.5,0.8,1.2,1.2,2.2,1.2c0.7,0,1.4-0.3,1.9-0.9c0.5-0.6,0.8-1.4,0.8-2.6c0-1.3-0.2-2.2-0.7-2.8
	c-0.5-0.6-1.1-0.8-1.9-0.8c-0.8,0-1.4,0.3-1.9,0.8C623,162.4,622.8,163.2,622.8,164.3L622.8,164.3z M637.4,170.1h-3.2V159h2.9v1.6
	c0.5-0.8,1-1.2,1.4-1.5c0.4-0.2,0.9-0.3,1.4-0.3c0.7,0,1.4,0.2,2.1,0.6l-1,2.6c-0.5-0.3-1-0.5-1.5-0.5c-0.4,0-0.8,0.1-1.1,0.3
	c-0.3,0.2-0.6,0.6-0.7,1.2c-0.2,0.6-0.3,1.8-0.3,3.7V170.1L637.4,170.1z M643.4,157.4v-2.7h3.2v2.7H643.4L643.4,157.4z M643.4,170.1
	V159h3.2v11.2H643.4L643.4,170.1z M660.8,170.1h-3.2v-5.7c0-1.2-0.1-2-0.2-2.3c-0.1-0.4-0.4-0.6-0.7-0.8c-0.3-0.2-0.7-0.3-1.1-0.3
	c-0.6,0-1.1,0.1-1.5,0.4c-0.4,0.3-0.7,0.7-0.9,1.1c-0.2,0.5-0.2,1.3-0.2,2.6v5.1h-3.2V159h2.9v1.6c1.1-1.3,2.4-1.9,4-1.9
	c0.7,0,1.3,0.1,1.9,0.4c0.6,0.2,1,0.5,1.3,0.9c0.3,0.4,0.5,0.8,0.6,1.2c0.1,0.5,0.2,1.1,0.2,2V170.1L660.8,170.1z M663.9,170.1
	v-15.4h3.2v8.2l3.7-3.9h3.9l-4.1,4.1l4.4,7.1h-3.4l-3-5l-1.5,1.5v3.6H663.9L663.9,170.1z M685.7,162.4l-2.9-0.5
	c0.3-1.1,0.9-1.9,1.7-2.4c0.8-0.5,2-0.8,3.5-0.8c1.4,0,2.5,0.2,3.2,0.5c0.7,0.3,1.2,0.7,1.5,1.2c0.3,0.5,0.4,1.4,0.4,2.6l0,3.4
	c0,1,0,1.7,0.2,2.2c0.1,0.5,0.3,1,0.6,1.5h-3.2c-0.1-0.2-0.2-0.5-0.3-0.9c-0.1-0.2-0.1-0.3-0.1-0.3c-0.5,0.5-1.1,0.9-1.7,1.1
	c-0.6,0.2-1.3,0.4-2,0.4c-1.2,0-2.2-0.3-2.9-0.9c-0.7-0.6-1.1-1.4-1.1-2.4c0-0.6,0.2-1.2,0.5-1.7c0.3-0.5,0.8-0.9,1.4-1.1
	c0.6-0.3,1.4-0.5,2.5-0.7c1.5-0.3,2.5-0.5,3.1-0.7v-0.3c0-0.6-0.2-1-0.5-1.2c-0.3-0.2-0.9-0.4-1.7-0.4c-0.6,0-1,0.1-1.3,0.3
	C686.2,161.5,685.9,161.9,685.7,162.4L685.7,162.4z M690,164.8c-0.4,0.1-1.1,0.3-1.9,0.5c-0.9,0.2-1.5,0.3-1.7,0.5
	c-0.4,0.3-0.6,0.6-0.6,1c0,0.4,0.2,0.8,0.5,1.1c0.3,0.3,0.8,0.5,1.3,0.5c0.6,0,1.1-0.2,1.6-0.5c0.4-0.3,0.6-0.6,0.8-1
	c0.1-0.3,0.1-0.7,0.1-1.4V164.8L690,164.8z M701.8,159v2.3h-2.2v4.5c0,0.9,0,1.5,0.1,1.6c0,0.2,0.1,0.3,0.3,0.4
	c0.1,0.1,0.3,0.1,0.5,0.1c0.3,0,0.7-0.1,1.3-0.3l0.3,2.3c-0.7,0.3-1.6,0.4-2.5,0.4c-0.6,0-1.1-0.1-1.5-0.3c-0.5-0.2-0.8-0.4-1-0.7
	c-0.2-0.3-0.4-0.7-0.4-1.2c-0.1-0.3-0.1-1-0.1-2.1v-4.9H695V159h1.5v-2.2l3.2-1.7v4H701.8L701.8,159z M709.7,164.4
	c0-1,0.3-1.9,0.8-2.9c0.5-0.9,1.3-1.6,2.2-2.1c1-0.5,2-0.7,3.2-0.7c1.8,0,3.3,0.5,4.5,1.6c1.2,1.1,1.7,2.5,1.7,4.2
	c0,1.7-0.6,3.1-1.8,4.2c-1.2,1.1-2.7,1.7-4.4,1.7c-1.1,0-2.2-0.2-3.2-0.7c-1-0.5-1.8-1.1-2.3-2C710,166.8,709.7,165.7,709.7,164.4
	L709.7,164.4z M713,164.6c0,1.1,0.3,2,0.8,2.5c0.6,0.6,1.3,0.9,2.1,0.9c0.8,0,1.5-0.3,2.1-0.9c0.6-0.6,0.8-1.4,0.8-2.6
	c0-1.1-0.3-1.9-0.8-2.5c-0.6-0.6-1.3-0.9-2.1-0.9c-0.8,0-1.5,0.3-2.1,0.9C713.3,162.6,713,163.5,713,164.6L713,164.6z M735.6,170.1
	h-3.2v-5.7c0-1.2-0.1-2-0.2-2.3c-0.1-0.4-0.4-0.6-0.7-0.8c-0.3-0.2-0.7-0.3-1.1-0.3c-0.6,0-1.1,0.1-1.5,0.4
	c-0.4,0.3-0.7,0.7-0.9,1.1c-0.2,0.5-0.2,1.3-0.2,2.6v5.1h-3.2V159h2.9v1.6c1.1-1.3,2.4-1.9,4-1.9c0.7,0,1.3,0.1,1.9,0.4
	c0.6,0.2,1,0.5,1.3,0.9c0.3,0.4,0.5,0.8,0.6,1.2c0.1,0.5,0.2,1.1,0.2,2V170.1L735.6,170.1z M749.3,162.3l-3.1,0.5
	c-0.1-0.6-0.3-1-0.7-1.3c-0.4-0.3-0.9-0.4-1.5-0.4c-0.8,0-1.4,0.3-1.9,0.8c-0.5,0.5-0.7,1.4-0.7,2.6c0,1.3,0.2,2.3,0.7,2.8
	c0.5,0.5,1.1,0.8,1.9,0.8c0.6,0,1.1-0.2,1.5-0.5c0.4-0.3,0.7-0.9,0.8-1.7l3.1,0.5c-0.3,1.3-0.9,2.3-1.9,3c-0.9,0.7-2.2,1-3.7,1
	c-1.8,0-3.2-0.5-4.2-1.5c-1-1-1.6-2.5-1.6-4.3c0-1.8,0.5-3.3,1.6-4.3c1-1,2.5-1.5,4.3-1.5c1.5,0,2.6,0.3,3.5,0.9
	C748.3,160.2,748.9,161.1,749.3,162.3L749.3,162.3z M758.6,166.6l3.2,0.5c-0.4,1.1-1.1,1.9-1.9,2.5c-0.9,0.6-2,0.8-3.3,0.8
	c-2.1,0-3.6-0.6-4.6-1.9c-0.8-1-1.2-2.3-1.2-3.9c0-1.9,0.5-3.3,1.6-4.4c1-1.1,2.4-1.6,4-1.6c1.8,0,3.2,0.5,4.2,1.6
	c1,1.1,1.5,2.8,1.5,5h-8c0,0.9,0.3,1.6,0.8,2c0.5,0.5,1.1,0.7,1.8,0.7c0.5,0,0.9-0.1,1.3-0.4C758.2,167.6,758.5,167.2,758.6,166.6
	L758.6,166.6z M758.8,163.6c0-0.9-0.3-1.5-0.7-2c-0.5-0.4-1-0.7-1.7-0.7c-0.7,0-1.3,0.2-1.7,0.7c-0.5,0.5-0.7,1.1-0.7,1.9H758.8z"/>
<line class="st2" x1="220.8" y1="78.7" x2="294.2" y2="78.7"/>
<line class="st2" x1="544.1" y1="79.6" x2="617.5" y2="79.6"/>
<polygon class="st0" points="275.8,97.2 275.8,87.7 291.7,78.3 275.8,69.1 275.8,59.6 298.5,74.3 298.5,82.4 "/>
<polygon class="st0" points="594.8,98.8 594.8,89.2 610.6,79.8 594.8,70.6 594.8,61.1 617.5,75.8 617.5,83.9 "/>
<g>
	<path class="st0" d="M415.7,50.9c1.2-0.2,0.7,0.9,0.9,3.8c0.3,4.6,1.8,30.1,1.5,32c0.7,0.4,0.4,2.8,0.4,3.6l-0.6-3.2l-3.3-34.9
		c-0.4-0.8-0.4-0.8-0.5-1.9C415.2,50.6,415,50.4,415.7,50.9L415.7,50.9z M420.9,50c0-1-0.4-2.4-0.6-3.4c-1.8-9.9-0.8-9.2-6.4-9.4
		c-3.1-0.1-1.6-0.1-3.1-0.5c-1.7-0.5-1.9-0.2-1.6,1.5c0.2,1.2,0.1,2.3,0.2,3.5c0.1,1,0.5,2.2,0.6,3.4l3.7,38.6
		c0,2.9,0.3,4.5,0.6,7.2c0.2,2.1,0.3,4.6,0.6,6.9c0.3,1.9,0.8,5,0.8,7c0,1.6,0,2.1,1.3,2.7c4.8,2.2,28.2,3.3,34.5-0.5
		c0-1.6,0.2-3,0.4-4.6c0.2-1.4,0.3-3,0.5-4.3c0.2-1.3,0.2-2.9,0.4-4.3c0.4-2.6,0.7-10.3,1.2-13.4c0.4-2.2,0.8-6.3,0.8-8.7
		c0-1.9,0.5-2.8,0.6-4.5c0.1-1.8,0.3-2.7,0.3-4.4c-0.1-5.9,2.4-20.3,2.4-26.4c-4,0.8-10.9,1.6-15.1,1.7c-2.4,0-15.8-0.6-16.7,0.3
		c-0.4,0.4,1.9,12.3,2.2,13c0.8,2.1,11.8,2.8,13.9,2.8c15.3,0,13.1-6.9,12.4,5.5c-0.1,1.3-0.4,3.8-0.6,5c-0.3,1.4-0.4,3.6-0.6,5
		l-2.8,30.2c-0.7,5.4,1.2,5.8-4.6,6.9c-3.5,0.7-6.4,1.2-10.5,1.2c-3.1,0-17.5-0.3-18.6-2.6c-0.4-0.8-2.1-22.5-2.3-24.5
		c-1.1-9.2-1.6-16.2-2.4-25c-0.6-7.1-1.9-6.7,3.1-6.2c1,0.1,2,0,3,0.1C419.7,49.8,419.5,50,420.9,50L420.9,50z M409.4,33.9
		c6.4-0.5,8.7-2.8,8.8,1.7c-3.9,0-5.3-0.4-8.8-1.1V33.9L409.4,33.9z M423.7,32.5c5.7,0,20.7-0.3,25.9,0.5c1.6,0.2,2.5,0.3,4.1,0.4
		c1.3,0.1,2.6,0.5,4,0.5l-4.9,1.3c-3.7,0.7-9,0.5-11,0.8l-14.4,0.1C424.1,36.1,424.6,34.4,423.7,32.5L423.7,32.5z M389.7,11.6
		c0-1.9,0.9-2.5,2.1-3.3c4-2.6,6.1-0.8,7.3-0.6c-0.1,1.3-0.8,1.2-1.9,1.6c-0.7,0.3-0.6,0.2-1.3,0.5c-0.5,0.3-0.9,0.4-1.4,0.6
		C392,11.6,389.7,13.4,389.7,11.6L389.7,11.6z M387.9,13.3c-6,2.9-4.3,6.2-1,10.7c2.4,3.2,5.3,3.7,9,1.9c1.2-0.6,2.1-0.8,3.3-1.4
		c3-1.3,9.2-1.4,12.8-1.8c2.6-0.3,2.4,0.3,3.9,4.5c0.3,0.9,0.7,2.8,1.2,3.7c-2.6,1.2-10.6,0.3-10.6,3.6c0,5.3,1.1,9.5,1.2,14.4
		l0.6,7.2c0.8,6.4,1.4,16.2,2.2,21.9c1.2,8.4,1.7,22.5,2.8,29.2c0.4,2.9-0.1,5.1,1.9,6c4.5,2.2,17.5,2.5,22.5,2.2
		c3.8-0.3,2.4,0.1,7.8-0.6l3.5-0.7c6.6-1.8,4.4-1,6-14.6c0.5-4.7,0.8-10,1.4-14.5c0.7-5,0.7-9.6,1.4-14.6c1.2-8.5,1.7-20.2,3-29
		l0.6-6.7c0-1.4-0.6-1.9-1.8-2.2c-8.8-2.5-26.2-1.9-37-1.9l-0.8-1.8c-7-14.1-9.5-10.6-13-16.1c-1.1-1.7-3-5.3-4.4-6.3
		c-1,0.2-1.6,0.6-2.7,0.8c-0.9-0.6-1.3-1.2-2.5-1.6c-3.7-1.5-7-0.8-9.6,1.4C388.2,8.1,386.6,11,387.9,13.3z"/>
	<path class="st3" d="M414.6,52.3l3.3,34.9l0.2-0.4c0.3-1.9-1.2-27.5-1.5-32c-0.2-2.9,0.3-4.1-0.9-3.8l-1.3-0.2L414.6,52.3z"/>
	<path class="st4" d="M417.9,87.2l0.6,3.2c0.1-0.8,0.4-3.2-0.4-3.6L417.9,87.2z"/>
	<path class="st0" d="M435.5,117.5h0.7h0.2c0,0,0-0.1,0.3-0.6c-0.5-0.3-0.4-0.2-1.2-0.3V117.5z"/>
	<path class="st5" d="M414.6,52.3l-0.2-1.6l1.3,0.2c-0.7-0.5-0.5-0.4-1.6-0.5C414.2,51.5,414.2,51.5,414.6,52.3z"/>
</g>
<path class="st0" d="M677,80.1h-0.6c0-4.8-0.7-8.9-1.2-13.2c-0.2-2.2-0.5-4.4-0.6-6.4c-0.1-1.4-0.3-1.8-0.3-3.2
	c0-2.9-0.7-2.8,0.2-3.1c1.8-0.8,1.3,4.2,1.3,5.5c0,1.5,0.3,1.7,0.3,3.2c0,1.2-0.1,2.5,0,3.8L677,80.1L677,80.1z M710.9,105.8
	l0.8-8.7c0.9-5.8,1.5-18.6,2.5-25.4c0.1-0.8,0.1-1.4,0.2-2.2c0.9-5.1,0.5-4.8,0.8-8.7c0.4-4.6,2.4-19.8,2.4-22.8
	c-4.6,2-26.6,1.6-33.4,1.6c0,2,1.6,4.9,2.2,6.9c0.4,1.4,0.7,1.9,1.3,3.2c0.5,1.2,1.3,1.8,1.3,3.1h7.2c6.8,0,11.2-1.3,16.9-1.9
	c1.3-0.1,1.5-0.1,1.7,0.8l-5.4,53.1c-1.3,0.3-2.5,0.8-3.7,1c-1.4,0.3-2.6,0.2-4,0.4l-4.3,0.4c-1.4,0.1-2.4,0.3-4.2,0.3
	c-2.8,0-10.3-0.7-12.8-1.2c-1.4-0.3-2.2-0.7-3.5-0.9c-0.9-3.5-2.3-21.3-2.7-26c-0.1-1.1-0.5-2.2-0.6-3.3l-2.1-24.1
	c0-2.1,7.2,0.5,11.7,0.5l-4.1-9.7c-0.3-0.6-0.8-2-1.2-2.4c-0.5-0.5,0.2-0.3-1.1-0.6c-0.8-0.2-5.6-0.4-8-0.9c0,4.5,0.3,4.6,0.8,8.1
	c0.1,0.9,0,1.7,0.1,2.6l1.6,16c0.3,1.9,0.3,3.3,0.5,5.2c0.5,5.9,1.1,9.7,1.5,15.8l1.8,15.3c0.3,2.4,0.1,4,1.3,4.8
	c2.1,1.3,8.3,1.5,10.6,1.8c4.2,0.5,9.5,0.6,13.7,0C705.1,107.3,706.6,107.9,710.9,105.8L710.9,105.8z M669.1,35.8
	c2-0.4,4.5-1.1,6.9-1.1c0.2,0.9,0.6,1.4,0.9,2.4l-6.2-0.6C669.3,36.3,669.8,36.6,669.1,35.8L669.1,35.8z M682.1,34.5
	c1.5,0,1.6-0.3,3.3-0.3l17,0.1c1.7,0.2,3.4,0,5.1,0.3c3.8,0.5,4.1,0.1,9.5,1.2c-0.7,0.9,0.1,0.4-1.4,0.7l-6.2,0.7
	c-3,0-5.2,0.5-8.4,0.5h-17.1C682.7,37.7,682.2,35.5,682.1,34.5L682.1,34.5z M667,13.1c0,2.2,0.4,2,1.3,4.2c0.8,2,6.7,14.9,6.8,15.9
	c-2.8,0-4,0.3-6.7,1c-3.1,0.7-2.5,1.8-2.3,4.4l1.6,16.3c0.1,0.8,0.2,2.1,0.3,3.2c0.1,1,0.1,2,0.2,3.3c0.1,1,0.4,2.4,0.5,3.3
	l1.3,13.1c0.3,4.3,0.8,8.7,1.4,12.7c0.3,2.1,0.3,4.5,0.4,6.6c0,0.9,0.2,2.1,0.4,3.1l1,9.8c0.3,1.2,0.8,1.4,1.9,1.8
	c7.1,2.7,31.2,2.9,36.8-0.3c1.5-0.9,1.1-1.2,1.3-3.1c0.6-3.7,0.6-8.3,1.2-12.1c0.2-1.1,0.3-3,0.4-3.9c0.1-1.6,0.3-2.5,0.3-4
	c0-1.3,0.3-2.5,0.5-3.9l4.3-44.1c-0.1-3.6,1.7-5.1-1.8-6.2c-7.7-2.4-30.5-1.9-37.3-1.9c-0.1-1.2-6.5-18.2-7.5-20.2
	c-0.6-1.2-1.6-1.7-2.7-1.8h-0.3h-0.3C668.5,10.5,667,11.6,667,13.1z"/>
</svg>
