<?xml version="1.0" encoding="utf-8"?>
<!-- Generator: Adobe Illustrator 23.0.2, SVG Export Plug-In . SVG Version: 6.00 Build 0)  -->
<svg version="1.1" id="Layer_1" xmlns="http://www.w3.org/2000/svg" xmlns:xlink="http://www.w3.org/1999/xlink" x="0px" y="0px"
	 viewBox="0 0 768.6 179.6" style="enable-background:new 0 0 768.6 179.6;" xml:space="preserve">
<style type="text/css">
	.st0{fill:#212529;}
</style>
<g>
	<g>
		<path class="st0" d="M269.2,115.7c-11.9,0-23.9-4.1-33.5-12.6c-10.2-9-16.3-21.3-17.2-34.9c-0.9-13.5,3.6-26.6,12.5-36.8
			c8.9-10.2,21.3-16.3,34.9-17.2c13.7-0.9,26.6,3.6,36.8,12.5l0,0c21.1,18.5,23.2,50.6,4.7,71.7
			C297.4,109.9,283.4,115.7,269.2,115.7z M269.3,16.3c-1.1,0-2.1,0-3.2,0.1c-13,0.8-24.8,6.7-33.4,16.4s-12.8,22.3-12,35.2
			c0.8,13,6.7,24.8,16.4,33.4c20.1,17.7,50.9,15.7,68.6-4.5c17.7-20.1,15.7-50.9-4.5-68.6l0,0C292.4,20.6,281.1,16.3,269.3,16.3z"/>
	</g>
	<g>
		<g>
			<path class="st0" d="M274.9,27c-2.9-2.1-5.5-3.3-8.4-3.5c-6.7-0.6-12,2.1-15.6,7.8c-1.7,2.7-2.5,5.7-2.3,8.9
				c0.1,1.7,0.4,3.3,0.7,5c0.7,4.2,1.5,8.5,2.3,12.7c0.1,0.7,0.3,1.5,0.4,2.2c0.1,0.7,0.2,1.4,0.4,2.1c0.7,3.9,1.4,7.8,2.1,11.7
				c0,0.1,0,0.2,0,0.3c0.2,1.3,0.5,2.6,0.7,3.9c0.9,5.1,1.8,10.2,2.8,15.3c0.2,1,0.5,2,0.8,3c0,0,0,0,0,0.1c0.9,2.3,2.4,4.3,4.3,6.1
				l0,0c1.2,1.1,2.5,1.9,3.9,2.6c0.1,0.1,0.3,0.1,0.4,0.2c1.4,0.6,2.8,1,4.4,1.2c0.4,0.1,0.8,0.1,1.2,0.1c6.3,0.3,12.2-3.2,15.1-8.8
				c1.6-3.2,2.2-6.6,1.6-10.1c-0.4-2.6-0.9-5.1-1.4-7.7c-0.5-2.8-1-5.6-1.5-8.4c-1.1-6.2-2.2-12.4-3.3-18.6
				c-0.9-5.2-1.9-10.4-2.8-15.5c-0.3-1.6-0.7-3.1-1.3-4.5C278.2,30.4,276.6,28.3,274.9,27z M282.2,66.7c0.6,3.2,1.1,6.5,1.7,9.7
				c0.1,0.6,0.2,1.1,0.3,1.7c0.2,1,0.3,2,0.5,3c0,0.2,0.1,0.4,0.1,0.6c0.4,2.1,0.8,4.2,1.1,6.3c0.6,3.6-0.2,6.8-2,9.4
				c-2.6,3.5-6.5,5.3-10.4,5.3c-1.6,0-3.3-0.4-4.8-1.1c-0.2-0.1-0.4-0.2-0.6-0.3c-1.2-0.6-2.2-1.3-3.1-2.2c-1.9-1.8-3.1-4.1-3.6-6.9
				c-0.9-5.1-1.8-10.1-2.7-15.2c-0.3-1.8-0.6-3.5-0.9-5.3c0-0.3-0.1-0.6-0.2-0.9c-0.3-1.4,0.5-2.6,1.9-2.8c1.4-0.2,2.8-0.5,4.2-0.7
				c3.7-0.7,7.5-1.3,11.2-2c1.4-0.2,2.8-0.5,4.2-0.8C280.9,64.3,281.9,65.1,282.2,66.7z M258.3,31.5c-1.1,2.6-1.3,5.3-0.8,8.1
				c0.8,4.5,1.5,8.9,2.3,13.4c0.1,0.8,0.3,1.6,0.4,2.4c0.1,0.8-0.3,1.5-1,1.8c-0.8,0.3-1.6,0-2-0.6c-0.1-0.2-0.2-0.5-0.3-0.8
				c-0.6-3.2-1.1-6.4-1.7-9.7c-0.3-1.9-0.7-3.8-1-5.7c-0.5-2.9,0.2-5.4,2.1-8c0.3-0.3,0.8-0.8,1.3-1.3c0.2-0.2,0.3-0.2,0.5-0.1
				C258.4,31.2,258.4,31.3,258.3,31.5z"/>
		</g>
	</g>
	<g>
		<path class="st0" d="M166,64.5"/>
	</g>
	<g>
		<path class="st0" d="M139.2,64.5"/>
	</g>
	<g>
		<path class="st0" d="M57,115.3c-28,0-50.8-22.8-50.8-50.8S29,13.7,57,13.7c28,0,50.8,22.8,50.8,50.8S85,115.3,57,115.3z M57,15.9
			c-26.8,0-48.6,21.8-48.6,48.6s21.8,48.6,48.6,48.6c26.8,0,48.6-21.8,48.6-48.6S83.8,15.9,57,15.9z"/>
	</g>
	<g>
		<g>
			<g>
				<path class="st0" d="M99.2,51.8c-0.3-3.6-1.2-6.3-2.9-8.6c-4-5.4-9.5-7.7-16.1-6.6c-3.2,0.5-5.9,1.9-8.2,4.2
					c-1.2,1.2-2.2,2.5-3.3,3.9c-2.7,3.3-5.4,6.7-8.1,10.1c-0.5,0.6-0.9,1.2-1.4,1.8c-0.5,0.6-0.9,1.1-1.3,1.7
					c-2.5,3.1-4.9,6.2-7.4,9.3c-0.1,0.1-0.1,0.2-0.2,0.2c-0.8,1-1.6,2-2.4,3.1c-3.2,4.1-6.5,8.1-9.7,12.2c-0.7,0.8-1.2,1.7-1.7,2.6
					c0,0,0,0,0,0.1c-1.1,2.2-1.7,4.6-1.7,7.2v0.1c0,1.6,0.2,3.2,0.7,4.6c0,0.2,0.1,0.3,0.2,0.5c0.5,1.4,1.1,2.8,2,4.1
					c0.2,0.3,0.5,0.6,0.7,1c4,4.9,10.4,7.1,16.5,5.5c3.5-0.9,6.4-2.7,8.6-5.5c1.6-2,3.3-4.1,4.9-6.1c1.8-2.2,3.5-4.5,5.3-6.7
					c3.9-4.9,7.8-9.8,11.7-14.8c3.3-4.1,6.6-8.3,9.8-12.4c1-1.2,1.9-2.5,2.5-4C98.9,56.5,99.4,53.9,99.2,51.8z M74.2,83.4
					c-2.1,2.6-4.1,5.1-6.1,7.7c-0.4,0.5-0.7,0.9-1.1,1.4c-0.6,0.8-1.3,1.6-1.9,2.4c-0.1,0.2-0.3,0.3-0.4,0.5c-1.3,1.7-2.7,3.4-4,5
					c-2.3,2.8-5.2,4.4-8.4,4.7c-4.4,0.3-8.3-1.4-10.8-4.3c-1.1-1.2-1.9-2.7-2.4-4.3C39.1,96.2,39,96,39,95.8
					c-0.3-1.3-0.5-2.5-0.4-3.7c0.1-2.6,1-5,2.8-7.2c3.2-4,6.4-8.1,9.6-12.1c1.1-1.4,2.2-2.8,3.3-4.2c0.2-0.2,0.4-0.5,0.6-0.7
					c0.9-1.1,2.3-1.3,3.4-0.4c1.1,0.9,2.2,1.8,3.3,2.6c3,2.4,5.9,4.7,8.9,7.1c1.1,0.9,2.2,1.8,3.3,2.7
					C75.1,80.9,75.2,82.2,74.2,83.4z M84.8,42.5c-3.3,1.1-5.9,3.1-8.1,5.8c-3.4,4.3-6.9,8.5-10.4,12.8c-0.6,0.8-1.2,1.5-1.8,2.3
					c-0.6,0.7-1.6,0.9-2.5,0.5c-0.9-0.5-1.3-1.5-1-2.4c0.1-0.3,0.3-0.6,0.5-0.8c2.5-3.1,5-6.2,7.5-9.2c1.5-1.8,2.9-3.7,4.4-5.5
					c2.2-2.7,5.1-4.1,9-4.5c0.5,0,1.4,0.1,2.3,0.1c0.3,0,0.5,0.1,0.5,0.4C85.2,42.2,85,42.4,84.8,42.5z"/>
			</g>
			<g>
				<path class="st0" d="M70.9,84c-1.2,1.5-2.4,3-3.6,4.5c-1,1.2-1.9,2.4-2.9,3.6c-0.5,0.6-1,1.3-1.5,1.9c-1.1,1.3-2.1,2.6-3.2,3.9
					c-2.3,2.8-5.2,4.3-9,4.7c-0.5,0-1.2,0-2-0.1c-0.3,0-0.5-0.2-0.6-0.5c0-0.3,0.1-0.5,0.4-0.6c3.4-1.2,6-3.4,8.1-6.1
					c2.1-2.7,4.2-5.3,6.4-7.9c0.3-0.3,0.5-0.7,0.8-1c0.7-0.8,1.3-1.7,2-2.5c0.6-0.8,1.3-1.6,1.9-2.3c0.7-0.9,2-1,2.9-0.3
					C71.6,81.9,71.7,83.1,70.9,84z"/>
			</g>
		</g>
		<g>
			<g>
				<path class="st0" d="M65.1,94.8c-0.1,0.2-0.3,0.3-0.4,0.5c-1.3,1.7-2.7,3.4-4,5c-2.3,2.8-5.2,4.4-8.4,4.7
					c-4.4,0.3-8.3-1.4-10.8-4.3c-1.1-1.2-1.9-2.7-2.4-4.3c-0.2-0.5-0.3-1-0.4-1.5c-0.5-2.1-1-4.2-1.4-6.2c-0.3-1.1-0.5-2.2-0.8-3.4
					c-0.3-1.1-0.5-2.3-0.8-3.4c-0.2-0.7-0.3-1.3-0.5-2c-0.5-2-0.9-4.1-1.4-6.1c-0.3-1.4,0.4-2.6,1.8-2.9c4.2-1,8.4-1.9,12.5-2.9
					c0.7-0.2,1.4-0.3,2.1-0.5c0.2,0,0.4-0.1,0.6-0.1c1.3-0.3,2.6-0.6,3.9-0.9c0.2-0.2,0.4-0.5,0.6-0.7c1-1.1,2.4-1.1,3.4-0.1
					c1,1,2.1,1.9,3.1,2.9c-0.9-4.1-1.9-8.1-2.8-12.2c0,0,0-0.1,0-0.1c-0.1-0.5-0.3-1.1-0.4-1.6c-1.2-5.1-2.4-10.3-3.5-15.4
					c-0.3-1.5-0.8-3.1-1.5-4.5c-1.3-2.4-3-4.4-4.8-5.6c-3-2-5.7-3-8.6-3.1c-6.8-0.2-11.9,2.6-15.2,8.5c-1.6,2.8-2.2,5.8-1.9,9
					c0.2,1.7,0.6,3.3,1,5c0.9,4.2,1.9,8.4,2.9,12.6c1.2,5.3,2.4,10.5,3.6,15.8c0.9,4.1,1.9,8.1,2.8,12.2c0.5,2.4,1.1,4.7,1.6,7.1
					c0.1,0.4,0.2,0.8,0.3,1.2c0,0.2,0.1,0.3,0.2,0.5c0.2,0.5,0.4,1.1,0.6,1.6c1,2.1,2.5,4,4.5,5.6c2.6,2.1,5.6,3.3,9,3.5
					c6.8,0.5,13.1-3.3,15.8-9.4c0.5-1.1,0.9-2.2,1.1-3.4c0.2-1.1,0.4-2.1,0.4-3.2C66.4,93.2,65.7,94,65.1,94.8z"/>
			</g>
		</g>
	</g>
	<g>
		<path class="st0" d="M13.6,141.3v-12.6h8.6v2.1h-6.1v3h5.2v2.1h-5.2v5.3H13.6z"/>
		<path class="st0" d="M24.3,131v-2.2h2.4v2.2H24.3z M24.3,141.3v-9.1h2.4v9.1H24.3z"/>
		<path class="st0" d="M31.5,141.3h-2.4v-9.1h2.2v1.3c0.4-0.6,0.7-1,1-1.2c0.3-0.2,0.7-0.3,1-0.3c0.5,0,1.1,0.2,1.6,0.5l-0.7,2.1
			c-0.4-0.3-0.8-0.4-1.1-0.4c-0.3,0-0.6,0.1-0.9,0.3c-0.2,0.2-0.4,0.5-0.5,1c-0.1,0.5-0.2,1.5-0.2,3V141.3z"/>
		<path class="st0" d="M35.1,138.7l2.4-0.4c0.1,0.5,0.3,0.8,0.6,1.1c0.3,0.2,0.8,0.4,1.3,0.4c0.6,0,1.1-0.1,1.4-0.3
			c0.2-0.2,0.3-0.4,0.3-0.6c0-0.2-0.1-0.3-0.2-0.5c-0.1-0.1-0.4-0.2-0.8-0.3c-1.9-0.4-3.2-0.8-3.7-1.2c-0.7-0.5-1.1-1.2-1.1-2
			c0-0.8,0.3-1.4,0.9-2c0.6-0.5,1.6-0.8,2.9-0.8c1.2,0,2.2,0.2,2.8,0.6s1,1,1.3,1.8l-2.3,0.4c-0.1-0.4-0.3-0.6-0.6-0.8
			c-0.3-0.2-0.7-0.3-1.2-0.3c-0.6,0-1.1,0.1-1.4,0.3c-0.2,0.1-0.3,0.3-0.3,0.5c0,0.2,0.1,0.3,0.2,0.4c0.2,0.2,1,0.4,2.2,0.7
			c1.3,0.3,2.2,0.7,2.7,1.1c0.5,0.4,0.8,1,0.8,1.8c0,0.8-0.4,1.5-1,2.1c-0.7,0.6-1.7,0.9-3.1,0.9c-1.2,0-2.2-0.2-2.9-0.8
			C35.8,140.2,35.4,139.6,35.1,138.7z"/>
		<path class="st0" d="M49.9,132.2v1.9h-1.6v3.7c0,0.7,0,1.2,0.1,1.3c0,0.1,0.1,0.2,0.2,0.3c0.1,0.1,0.2,0.1,0.4,0.1
			c0.2,0,0.5-0.1,1-0.2l0.2,1.9c-0.6,0.2-1.2,0.4-1.9,0.4c-0.4,0-0.8-0.1-1.2-0.2c-0.4-0.1-0.6-0.3-0.8-0.6
			c-0.2-0.2-0.3-0.5-0.3-0.9c-0.1-0.3-0.1-0.8-0.1-1.7v-4h-1.1v-1.9h1.1v-1.8l2.4-1.4v3.2H49.9z"/>
		<path class="st0" d="M62.1,141.3h-2.4v-9.1c-0.9,0.8-1.9,1.4-3.1,1.8v-2.2c0.6-0.2,1.3-0.6,2-1.2c0.7-0.6,1.2-1.2,1.5-2h2V141.3z"
			/>
		<path class="st0" d="M65.7,138.1l2.4-0.2c0.1,0.5,0.3,1,0.6,1.3c0.3,0.3,0.7,0.5,1.2,0.5c0.5,0,0.9-0.2,1.3-0.6
			c0.4-0.4,0.5-1,0.5-1.8c0-0.8-0.2-1.3-0.5-1.7c-0.4-0.4-0.8-0.6-1.4-0.6c-0.7,0-1.3,0.3-1.9,0.9l-2-0.3l1.2-6.5h6.4v2.3h-4.5
			l-0.4,2.1c0.5-0.3,1.1-0.4,1.6-0.4c1.1,0,2,0.4,2.7,1.2c0.7,0.8,1.1,1.8,1.1,3c0,1-0.3,2-0.9,2.8c-0.8,1.1-2,1.7-3.4,1.7
			c-1.2,0-2.1-0.3-2.8-0.9C66.3,139.9,65.9,139.1,65.7,138.1z"/>
		<path class="st0" d="M80.8,128.7h4.6c1,0,1.8,0.1,2.4,0.2c0.7,0.2,1.4,0.6,1.9,1.2c0.5,0.6,0.9,1.2,1.2,2c0.3,0.8,0.4,1.8,0.4,3
			c0,1-0.1,1.9-0.4,2.7c-0.3,0.9-0.8,1.7-1.3,2.2c-0.4,0.4-1,0.8-1.8,1c-0.6,0.2-1.3,0.3-2.2,0.3h-4.8V128.7z M83.4,130.9v8.3h1.9
			c0.7,0,1.2,0,1.5-0.1c0.4-0.1,0.8-0.3,1-0.5c0.3-0.2,0.5-0.7,0.7-1.2c0.2-0.6,0.3-1.3,0.3-2.3s-0.1-1.7-0.3-2.2s-0.4-0.9-0.7-1.2
			s-0.7-0.5-1.2-0.6c-0.4-0.1-1-0.1-2.1-0.1H83.4z"/>
		<path class="st0" d="M95.3,135l-2.2-0.4c0.2-0.9,0.7-1.5,1.3-2c0.6-0.4,1.5-0.6,2.7-0.6c1.1,0,1.9,0.1,2.4,0.4
			c0.5,0.3,0.9,0.6,1.1,1c0.2,0.4,0.3,1.1,0.3,2.1l0,2.8c0,0.8,0,1.4,0.1,1.8c0.1,0.4,0.2,0.8,0.4,1.2H99c-0.1-0.2-0.1-0.4-0.2-0.7
			c0-0.1-0.1-0.2-0.1-0.3c-0.4,0.4-0.8,0.7-1.3,0.9c-0.5,0.2-1,0.3-1.5,0.3c-0.9,0-1.7-0.3-2.2-0.8c-0.5-0.5-0.8-1.1-0.8-1.9
			c0-0.5,0.1-1,0.4-1.4c0.2-0.4,0.6-0.7,1-0.9c0.4-0.2,1.1-0.4,1.9-0.6c1.1-0.2,1.9-0.4,2.3-0.6v-0.2c0-0.5-0.1-0.8-0.3-1
			c-0.2-0.2-0.7-0.3-1.3-0.3c-0.4,0-0.8,0.1-1,0.2C95.6,134.2,95.4,134.5,95.3,135z M98.5,136.9c-0.3,0.1-0.8,0.2-1.5,0.4
			c-0.7,0.1-1.1,0.3-1.3,0.4c-0.3,0.2-0.5,0.5-0.5,0.8c0,0.3,0.1,0.6,0.4,0.9c0.2,0.2,0.6,0.4,1,0.4c0.4,0,0.8-0.1,1.2-0.4
			c0.3-0.2,0.5-0.5,0.6-0.8c0.1-0.2,0.1-0.6,0.1-1.2V136.9z"/>
		<path class="st0" d="M102.1,132.2h2.6l2.2,6.5l2.1-6.5h2.5l-3.2,8.8l-0.6,1.6c-0.2,0.5-0.4,0.9-0.6,1.2c-0.2,0.3-0.4,0.5-0.7,0.7
			c-0.2,0.2-0.5,0.3-0.9,0.4c-0.4,0.1-0.8,0.1-1.2,0.1c-0.5,0-0.9-0.1-1.4-0.1l-0.2-1.9c0.4,0.1,0.7,0.1,1,0.1c0.6,0,1-0.2,1.2-0.5
			c0.3-0.3,0.5-0.8,0.6-1.3L102.1,132.2z"/>
	</g>
	<g>
		<path class="st0" d="M236.9,145h-2.8l-1.1-2.9h-5l-1,2.9h-2.7l4.9-12.6h2.7L236.9,145z M232.2,140l-1.7-4.7l-1.7,4.7H232.2z"/>
		<path class="st0" d="M237.1,135.9h1.3v-0.7c0-0.8,0.1-1.3,0.2-1.7c0.2-0.4,0.5-0.7,0.9-0.9c0.4-0.2,1-0.4,1.7-0.4
			c0.7,0,1.4,0.1,2,0.3l-0.3,1.7c-0.4-0.1-0.8-0.1-1.1-0.1s-0.6,0.1-0.7,0.2c-0.2,0.2-0.2,0.5-0.2,0.9v0.6h1.8v1.9h-1.8v7.2h-2.4
			v-7.2h-1.3V135.9z"/>
		<path class="st0" d="M248.2,135.9v1.9h-1.6v3.7c0,0.7,0,1.2,0.1,1.3c0,0.1,0.1,0.2,0.2,0.3c0.1,0.1,0.2,0.1,0.4,0.1
			c0.2,0,0.5-0.1,1-0.2l0.2,1.9c-0.6,0.2-1.2,0.4-1.9,0.4c-0.4,0-0.8-0.1-1.2-0.2c-0.4-0.1-0.6-0.3-0.8-0.6
			c-0.2-0.2-0.3-0.5-0.3-0.9c-0.1-0.3-0.1-0.8-0.1-1.7v-4H243v-1.9h1.1v-1.8l2.4-1.4v3.2H248.2z"/>
		<path class="st0" d="M255.1,142.1l2.4,0.4c-0.3,0.9-0.8,1.5-1.5,2c-0.7,0.5-1.5,0.7-2.5,0.7c-1.6,0-2.7-0.5-3.5-1.5
			c-0.6-0.8-0.9-1.9-0.9-3.1c0-1.5,0.4-2.7,1.2-3.5c0.8-0.9,1.8-1.3,3-1.3c1.4,0,2.4,0.4,3.2,1.3c0.8,0.9,1.2,2.3,1.1,4.1h-6
			c0,0.7,0.2,1.3,0.6,1.7c0.4,0.4,0.8,0.6,1.4,0.6c0.4,0,0.7-0.1,1-0.3C254.8,142.9,255,142.6,255.1,142.1z M255.3,139.7
			c0-0.7-0.2-1.2-0.5-1.6c-0.3-0.4-0.8-0.5-1.3-0.5c-0.5,0-1,0.2-1.3,0.6c-0.3,0.4-0.5,0.9-0.5,1.6H255.3z"/>
		<path class="st0" d="M261.9,145h-2.4v-9.1h2.2v1.3c0.4-0.6,0.7-1,1-1.2c0.3-0.2,0.7-0.3,1-0.3c0.5,0,1.1,0.2,1.6,0.5l-0.7,2.1
			c-0.4-0.3-0.8-0.4-1.1-0.4c-0.3,0-0.6,0.1-0.9,0.3c-0.2,0.2-0.4,0.5-0.5,1c-0.1,0.5-0.2,1.5-0.2,3V145z"/>
		<path class="st0" d="M277,145h-2.4v-9.1c-0.9,0.8-1.9,1.4-3.1,1.8v-2.2c0.6-0.2,1.3-0.6,2-1.2c0.7-0.6,1.2-1.2,1.5-2h2V145z"/>
		<path class="st0" d="M280.6,141.8l2.4-0.2c0.1,0.5,0.3,1,0.6,1.3c0.3,0.3,0.7,0.5,1.2,0.5c0.5,0,0.9-0.2,1.3-0.6
			c0.4-0.4,0.5-1,0.5-1.8c0-0.8-0.2-1.3-0.5-1.7c-0.4-0.4-0.8-0.6-1.4-0.6c-0.7,0-1.3,0.3-1.9,0.9l-2-0.3l1.2-6.5h6.4v2.3h-4.5
			l-0.4,2.1c0.5-0.3,1.1-0.4,1.6-0.4c1.1,0,2,0.4,2.7,1.2c0.7,0.8,1.1,1.8,1.1,3c0,1-0.3,2-0.9,2.8c-0.8,1.1-2,1.7-3.4,1.7
			c-1.2,0-2.1-0.3-2.8-0.9C281.2,143.6,280.7,142.8,280.6,141.8z"/>
		<path class="st0" d="M295.7,132.4h4.6c1,0,1.8,0.1,2.4,0.2c0.7,0.2,1.4,0.6,1.9,1.2s0.9,1.2,1.2,2c0.3,0.8,0.4,1.8,0.4,3
			c0,1-0.1,1.9-0.4,2.7c-0.3,0.9-0.8,1.7-1.3,2.2c-0.4,0.4-1,0.8-1.8,1c-0.6,0.2-1.3,0.3-2.2,0.3h-4.8V132.4z M298.2,134.6v8.3h1.9
			c0.7,0,1.2,0,1.5-0.1c0.4-0.1,0.8-0.3,1-0.5c0.3-0.2,0.5-0.7,0.7-1.2c0.2-0.6,0.3-1.3,0.3-2.3c0-1-0.1-1.7-0.3-2.2
			c-0.2-0.5-0.4-0.9-0.7-1.2c-0.3-0.3-0.7-0.5-1.2-0.6c-0.4-0.1-1-0.1-2.1-0.1H298.2z"/>
		<path class="st0" d="M310.2,138.7l-2.2-0.4c0.2-0.9,0.7-1.5,1.3-2s1.5-0.6,2.7-0.6c1.1,0,1.9,0.1,2.4,0.4c0.5,0.3,0.9,0.6,1.1,1
			c0.2,0.4,0.3,1.1,0.3,2.1l0,2.8c0,0.8,0,1.4,0.1,1.8c0.1,0.4,0.2,0.8,0.4,1.2h-2.4c-0.1-0.2-0.1-0.4-0.2-0.7
			c0-0.1-0.1-0.2-0.1-0.3c-0.4,0.4-0.8,0.7-1.3,0.9s-1,0.3-1.5,0.3c-0.9,0-1.7-0.3-2.2-0.8c-0.5-0.5-0.8-1.1-0.8-1.9
			c0-0.5,0.1-1,0.4-1.4c0.2-0.4,0.6-0.7,1-0.9c0.4-0.2,1.1-0.4,1.9-0.6c1.1-0.2,1.9-0.4,2.3-0.6v-0.2c0-0.5-0.1-0.8-0.3-1
			c-0.2-0.2-0.7-0.3-1.3-0.3c-0.4,0-0.8,0.1-1,0.2C310.5,138,310.3,138.3,310.2,138.7z M313.4,140.6c-0.3,0.1-0.8,0.2-1.5,0.4
			c-0.7,0.1-1.1,0.3-1.3,0.4c-0.3,0.2-0.5,0.5-0.5,0.8c0,0.3,0.1,0.6,0.4,0.9c0.2,0.2,0.6,0.4,1,0.4c0.4,0,0.8-0.1,1.2-0.4
			c0.3-0.2,0.5-0.5,0.6-0.8c0.1-0.2,0.1-0.6,0.1-1.2V140.6z"/>
		<path class="st0" d="M317,135.9h2.6l2.2,6.5l2.1-6.5h2.5l-3.2,8.8l-0.6,1.6c-0.2,0.5-0.4,0.9-0.6,1.2c-0.2,0.3-0.4,0.5-0.7,0.7
			c-0.2,0.2-0.5,0.3-0.9,0.4c-0.4,0.1-0.8,0.1-1.2,0.1c-0.5,0-0.9-0.1-1.4-0.1l-0.2-1.9c0.4,0.1,0.7,0.1,1,0.1c0.6,0,1-0.2,1.2-0.5
			c0.3-0.3,0.5-0.8,0.6-1.3L317,135.9z"/>
	</g>
	<g>
		<path class="st0" d="M434.9,144.6v-12.4h2.5v10.3h6.3v2.1H434.9z"/>
		<path class="st0" d="M451.5,144.6v-1.4c-0.3,0.5-0.8,0.9-1.3,1.1c-0.5,0.3-1.1,0.4-1.7,0.4c-0.6,0-1.2-0.1-1.6-0.4
			c-0.5-0.3-0.8-0.6-1.1-1.1c-0.2-0.5-0.3-1.2-0.3-2v-5.8h2.4v4.2c0,1.3,0,2.1,0.1,2.3c0.1,0.3,0.2,0.5,0.5,0.7
			c0.2,0.2,0.5,0.3,0.9,0.3c0.4,0,0.8-0.1,1.1-0.3c0.3-0.2,0.5-0.5,0.7-0.8c0.1-0.3,0.2-1.1,0.2-2.4v-3.8h2.4v9.1H451.5z"/>
		<path class="st0" d="M456.2,144.6v-12.6h2.4v6.7l2.8-3.2h3l-3.1,3.3l3.3,5.8H462l-2.3-4.1l-1.1,1.2v2.9H456.2z"/>
		<path class="st0" d="M471.3,141.7l2.4,0.4c-0.3,0.9-0.8,1.5-1.5,2c-0.7,0.5-1.5,0.7-2.5,0.7c-1.6,0-2.7-0.5-3.5-1.5
			c-0.6-0.8-0.9-1.9-0.9-3.1c0-1.5,0.4-2.7,1.2-3.5c0.8-0.9,1.8-1.3,3-1.3c1.4,0,2.4,0.4,3.2,1.3c0.8,0.9,1.2,2.3,1.1,4.1h-6
			c0,0.7,0.2,1.3,0.6,1.7c0.4,0.4,0.8,0.6,1.4,0.6c0.4,0,0.7-0.1,1-0.3C470.9,142.5,471.1,142.2,471.3,141.7z M471.4,139.3
			c0-0.7-0.2-1.2-0.5-1.6c-0.3-0.4-0.8-0.5-1.3-0.5c-0.5,0-1,0.2-1.3,0.6c-0.3,0.4-0.5,0.9-0.5,1.6H471.4z"/>
		<path class="st0" d="M482.4,144.6l-3-12.6h2.6l1.9,8.6l2.3-8.6h3l2.2,8.8l1.9-8.8h2.6l-3,12.6h-2.7l-2.5-9.4l-2.5,9.4H482.4z"/>
		<path class="st0" d="M498.3,138.3l-2.2-0.4c0.2-0.9,0.7-1.5,1.3-2s1.5-0.6,2.7-0.6c1.1,0,1.9,0.1,2.4,0.4c0.5,0.3,0.9,0.6,1.1,1
			c0.2,0.4,0.3,1.1,0.3,2.1l0,2.8c0,0.8,0,1.4,0.1,1.8c0.1,0.4,0.2,0.8,0.4,1.2h-2.4c-0.1-0.2-0.1-0.4-0.2-0.7
			c0-0.1-0.1-0.2-0.1-0.3c-0.4,0.4-0.8,0.7-1.3,0.9c-0.5,0.2-1,0.3-1.5,0.3c-0.9,0-1.7-0.3-2.2-0.8c-0.5-0.5-0.8-1.1-0.8-1.9
			c0-0.5,0.1-1,0.4-1.4c0.2-0.4,0.6-0.7,1-0.9c0.4-0.2,1.1-0.4,1.9-0.6c1.1-0.2,1.9-0.4,2.3-0.6v-0.2c0-0.5-0.1-0.8-0.3-1
			c-0.2-0.2-0.7-0.3-1.3-0.3c-0.4,0-0.8,0.1-1,0.2C498.7,137.6,498.5,137.9,498.3,138.3z M501.6,140.3c-0.3,0.1-0.8,0.2-1.5,0.4
			c-0.7,0.1-1.1,0.3-1.3,0.4c-0.3,0.2-0.5,0.5-0.5,0.8c0,0.3,0.1,0.6,0.4,0.9c0.2,0.2,0.6,0.4,1,0.4c0.4,0,0.8-0.1,1.2-0.4
			c0.3-0.2,0.5-0.5,0.6-0.8c0.1-0.2,0.1-0.6,0.1-1.2V140.3z"/>
		<path class="st0" d="M508.6,144.6h-2.4v-9.1h2.2v1.3c0.4-0.6,0.7-1,1-1.2c0.3-0.2,0.7-0.3,1-0.3c0.5,0,1.1,0.2,1.6,0.5l-0.7,2.1
			c-0.4-0.3-0.8-0.4-1.1-0.4c-0.3,0-0.6,0.1-0.9,0.3c-0.2,0.2-0.4,0.5-0.5,1c-0.1,0.5-0.2,1.5-0.2,3V144.6z"/>
		<path class="st0" d="M512.9,135.5h2.2v1.2c0.8-1,1.7-1.4,2.8-1.4c0.6,0,1.1,0.1,1.5,0.4s0.8,0.6,1.1,1.1c0.4-0.5,0.8-0.8,1.3-1.1
			s1-0.4,1.5-0.4c0.7,0,1.2,0.1,1.7,0.4c0.5,0.3,0.8,0.7,1,1.2c0.2,0.4,0.2,1,0.2,1.9v5.8h-2.4v-5.2c0-0.9-0.1-1.5-0.2-1.7
			c-0.2-0.3-0.6-0.5-1-0.5c-0.3,0-0.7,0.1-1,0.3c-0.3,0.2-0.5,0.5-0.6,0.9c-0.1,0.4-0.2,1-0.2,1.9v4.4h-2.4v-5c0-0.9,0-1.5-0.1-1.7
			c-0.1-0.3-0.2-0.4-0.4-0.6c-0.2-0.1-0.4-0.2-0.7-0.2c-0.4,0-0.7,0.1-1,0.3s-0.5,0.5-0.6,0.9c-0.1,0.4-0.2,1-0.2,1.9v4.4h-2.4
			V135.5z"/>
		<path class="st0" d="M436.6,165.7l-3-12.6h2.6l1.9,8.6l2.3-8.6h3l2.2,8.8l1.9-8.8h2.6l-3,12.6h-2.7l-2.5-9.4l-2.5,9.4H436.6z"/>
		<path class="st0" d="M452.5,159.4l-2.2-0.4c0.2-0.9,0.7-1.5,1.3-2s1.5-0.6,2.7-0.6c1.1,0,1.9,0.1,2.4,0.4c0.5,0.3,0.9,0.6,1.1,1
			c0.2,0.4,0.3,1.1,0.3,2.1l0,2.8c0,0.8,0,1.4,0.1,1.8c0.1,0.4,0.2,0.8,0.4,1.2h-2.4c-0.1-0.2-0.1-0.4-0.2-0.7
			c0-0.1-0.1-0.2-0.1-0.3c-0.4,0.4-0.8,0.7-1.3,0.9c-0.5,0.2-1,0.3-1.5,0.3c-0.9,0-1.7-0.3-2.2-0.8c-0.5-0.5-0.8-1.1-0.8-1.9
			c0-0.5,0.1-1,0.4-1.4c0.2-0.4,0.6-0.7,1-0.9c0.4-0.2,1.1-0.4,1.9-0.6c1.1-0.2,1.9-0.4,2.3-0.6v-0.2c0-0.5-0.1-0.8-0.3-1
			c-0.2-0.2-0.7-0.3-1.3-0.3c-0.4,0-0.8,0.1-1,0.2C452.9,158.6,452.7,158.9,452.5,159.4z M455.8,161.3c-0.3,0.1-0.8,0.2-1.5,0.4
			c-0.7,0.1-1.1,0.3-1.3,0.4c-0.3,0.2-0.5,0.5-0.5,0.8c0,0.3,0.1,0.6,0.4,0.9c0.2,0.2,0.6,0.4,1,0.4c0.4,0,0.8-0.1,1.2-0.4
			c0.3-0.2,0.5-0.5,0.6-0.8c0.1-0.2,0.1-0.6,0.1-1.2V161.3z"/>
		<path class="st0" d="M464.7,156.6v1.9H463v3.7c0,0.7,0,1.2,0.1,1.3c0,0.1,0.1,0.2,0.2,0.3c0.1,0.1,0.2,0.1,0.4,0.1
			c0.2,0,0.5-0.1,1-0.2l0.2,1.9c-0.6,0.2-1.2,0.4-1.9,0.4c-0.4,0-0.8-0.1-1.2-0.2c-0.4-0.1-0.6-0.3-0.8-0.6
			c-0.2-0.2-0.3-0.5-0.3-0.9c-0.1-0.3-0.1-0.8-0.1-1.7v-4h-1.1v-1.9h1.1v-1.8l2.4-1.4v3.2H464.7z"/>
		<path class="st0" d="M471.6,162.8l2.4,0.4c-0.3,0.9-0.8,1.5-1.5,2c-0.7,0.5-1.5,0.7-2.5,0.7c-1.6,0-2.7-0.5-3.5-1.5
			c-0.6-0.8-0.9-1.9-0.9-3.1c0-1.5,0.4-2.7,1.2-3.5c0.8-0.9,1.8-1.3,3-1.3c1.4,0,2.4,0.4,3.2,1.3c0.8,0.9,1.2,2.3,1.1,4.1h-6
			c0,0.7,0.2,1.3,0.6,1.7c0.4,0.4,0.8,0.6,1.4,0.6c0.4,0,0.7-0.1,1-0.3C471.3,163.6,471.5,163.2,471.6,162.8z M471.7,160.4
			c0-0.7-0.2-1.2-0.5-1.6c-0.3-0.4-0.8-0.5-1.3-0.5c-0.5,0-1,0.2-1.3,0.6c-0.3,0.4-0.5,0.9-0.5,1.6H471.7z"/>
		<path class="st0" d="M478.4,165.7H476v-9.1h2.2v1.3c0.4-0.6,0.7-1,1-1.2c0.3-0.2,0.7-0.3,1-0.3c0.5,0,1.1,0.2,1.6,0.5l-0.7,2.1
			c-0.4-0.3-0.8-0.4-1.1-0.4c-0.3,0-0.6,0.1-0.9,0.3c-0.2,0.2-0.4,0.5-0.5,1c-0.1,0.5-0.2,1.5-0.2,3V165.7z"/>
		<path class="st0" d="M487.2,161c0-0.8,0.2-1.6,0.6-2.3c0.4-0.7,1-1.3,1.7-1.7c0.7-0.4,1.5-0.6,2.4-0.6c1.4,0,2.5,0.4,3.4,1.3
			c0.9,0.9,1.3,2,1.3,3.4c0,1.4-0.4,2.5-1.3,3.4c-0.9,0.9-2,1.4-3.3,1.4c-0.8,0-1.6-0.2-2.4-0.6c-0.8-0.4-1.3-0.9-1.7-1.7
			C487.4,162.9,487.2,162.1,487.2,161z M489.7,161.1c0,0.9,0.2,1.6,0.6,2.1c0.4,0.5,1,0.7,1.6,0.7c0.6,0,1.2-0.2,1.6-0.7
			c0.4-0.5,0.6-1.2,0.6-2.1c0-0.9-0.2-1.6-0.6-2.1c-0.4-0.5-1-0.7-1.6-0.7c-0.6,0-1.2,0.2-1.6,0.7
			C489.9,159.5,489.7,160.2,489.7,161.1z"/>
		<path class="st0" d="M500.8,165.7h-2.4v-9.1h2.2v1.3c0.4-0.6,0.7-1,1-1.2c0.3-0.2,0.7-0.3,1-0.3c0.5,0,1.1,0.2,1.6,0.5l-0.7,2.1
			c-0.4-0.3-0.8-0.4-1.1-0.4c-0.3,0-0.6,0.1-0.9,0.3c-0.2,0.2-0.4,0.5-0.5,1c-0.1,0.5-0.2,1.5-0.2,3V165.7z"/>
		<path class="st0" d="M510.2,165.7v-12.6h3.8l2.3,8.6l2.3-8.6h3.8v12.6h-2.4v-9.9l-2.5,9.9H515l-2.5-9.9v9.9H510.2z"/>
		<path class="st0" d="M524.8,155.4v-2.2h2.4v2.2H524.8z M524.8,165.7v-9.1h2.4v9.1H524.8z"/>
		<path class="st0" d="M529.7,165.7v-12.6h2.4v12.6H529.7z"/>
		<path class="st0" d="M534.4,165.7v-12.6h2.4v6.7l2.8-3.2h3l-3.1,3.3l3.3,5.8h-2.6l-2.3-4.1l-1.1,1.2v2.9H534.4z"/>
	</g>
	<g>
		<path class="st0" d="M481.4,115.4c-28,0-50.8-22.8-50.8-50.8s22.8-50.8,50.8-50.8c28,0,50.8,22.8,50.8,50.8
			S509.4,115.4,481.4,115.4z M481.4,16c-26.8,0-48.6,21.8-48.6,48.6s21.8,48.6,48.6,48.6c26.8,0,48.6-21.8,48.6-48.6
			S508.2,16,481.4,16z"/>
	</g>
	<g>
		<path class="st0" d="M494.3,93.3h-25.9c-0.7,0-1.2-0.4-1.4-1.1l-14.5-54.6c-0.1-0.4,0-0.8,0.2-1.2c0.3-0.4,0.7-0.6,1.2-0.6h54.8
			c0.5,0,0.9,0.2,1.2,0.6c0.3,0.3,0.4,0.8,0.2,1.2l-14.4,54.6C495.5,92.9,495,93.3,494.3,93.3z M454,36.8c-0.2,0-0.3,0.1-0.4,0.2
			c-0.1,0.1-0.1,0.2-0.1,0.4L467.9,92c0.1,0.2,0.3,0.4,0.5,0.4h25.9c0.2,0,0.5-0.2,0.5-0.4l14.4-54.6c0.1-0.2,0-0.3-0.1-0.4
			c-0.1-0.1-0.3-0.2-0.4-0.2H454z"/>
	</g>
	<g>
		<path class="st0" d="M506.3,52.4c0,0-19.9-2.3-27.3,1.8c-10.5,5.8-21.6,2-21.6,2L467.7,95h27.4L506.3,52.4z"/>
	</g>
	<g>
		<path class="st0" d="M693.5,115.8c-28,0-50.8-22.8-50.8-50.8s22.8-50.8,50.8-50.8S744.3,37,744.3,65S721.5,115.8,693.5,115.8z
			 M693.5,16.4c-26.8,0-48.6,21.8-48.6,48.6s21.8,48.6,48.6,48.6c26.8,0,48.6-21.8,48.6-48.6S720.3,16.4,693.5,16.4z"/>
	</g>
	<g>
		<g>
			<g>
				<path class="st0" d="M675.5,43.8c0.5,6.2,1.5,7.9,4.5,8c2,0.1,3.6-0.9,4.2-2.7c0.5-1.6,0.5-3.4,0.8-5.2c5.7,0,11.6,0,17.6,0
					c0,1.2,0,2.3,0,3.4c0.1,2.3,1.8,4.2,4,4.5c2.3,0.3,4.4-1.2,4.9-3.6c0.3-1.4,0.2-2.8,0.3-4.3c2.3,0,4.7-0.2,7,0.1
					c2.9,0.3,4.9,2.7,4.9,5.7c0,13.4,0,26.7,0,40.1c0,3.5-2.5,5.9-6,5.9c-16.1,0-32.2,0-48.3,0c-3.6,0-6-2.3-6-6
					c0-13.3,0-26.6,0-39.9c0-3.2,2.1-5.6,5.2-5.9C670.8,43.6,673.1,43.8,675.5,43.8z M718.9,90.2c0-11.7,0-23.3,0-34.8
					c-17,0-33.8,0-50.7,0c0,11.7,0,23.2,0,34.8C685.2,90.2,702,90.2,718.9,90.2z"/>
			</g>
			<g>
				<path class="st0" d="M677.1,42.2c0-1.7,0-3.4,0-5.2c0-1.9,0.8-2.5,3-2.5c2.1,0,2.9,0.6,2.9,2.4c0,3.5,0,7,0,10.5
					c0,1.9-1.2,2.3-2.8,2.3c-1.6,0-3-0.2-3.1-2.2C677,45.8,677.1,44,677.1,42.2C677.1,42.2,677.1,42.2,677.1,42.2z"/>
			</g>
			<g>
				<path class="st0" d="M704,42.2c0-1.8,0-3.6,0-5.4c0-1.9,1.2-2.3,2.8-2.3c1.6,0,3,0.2,3.1,2.2c0,3.6,0,7.2,0,10.7
					c0,1.7-0.8,2.3-3,2.3c-1.6,0-2.8-0.3-2.9-2.2C704,45.7,704,44,704,42.2z"/>
			</g>
		</g>
		<g>
			<path class="st0" d="M681.1,78.8c0.7,0.4,2.3,1.1,4,1.1c3.1,0,4.1-2,4-3.5c0-2.5-2.3-3.6-4.6-3.6h-1.3V71h1.3c1.8,0,4-0.9,4-3
				c0-1.4-0.9-2.7-3.1-2.7c-1.4,0-2.8,0.6-3.6,1.2l-0.7-1.8c1-0.7,2.8-1.4,4.7-1.4c3.5,0,5.1,2.1,5.1,4.3c0,1.9-1.1,3.5-3.3,4.2v0.1
				c2.2,0.4,4,2.1,4,4.6c0,2.9-2.3,5.4-6.5,5.4c-2,0-3.8-0.6-4.7-1.2L681.1,78.8z"/>
			<path class="st0" d="M706.7,72.4c0,6.1-2.3,9.5-6.2,9.5c-3.5,0-5.9-3.3-6-9.2c0-6,2.6-9.3,6.3-9.3
				C704.5,63.3,706.7,66.7,706.7,72.4z M696.9,72.7c0,4.7,1.4,7.3,3.6,7.3c2.5,0,3.6-2.9,3.6-7.5c0-4.4-1.1-7.3-3.6-7.3
				C698.5,65.2,696.9,67.8,696.9,72.7z"/>
		</g>
	</g>
	<g>
		<path class="st0" d="M640.5,137.2l2.5,0.8c-0.4,1.4-1,2.4-1.9,3c-0.9,0.7-2,1-3.3,1c-1.7,0-3-0.6-4.1-1.7
			c-1.1-1.1-1.6-2.7-1.6-4.7c0-2.1,0.5-3.7,1.6-4.9c1.1-1.2,2.5-1.7,4.3-1.7c1.5,0,2.8,0.5,3.7,1.4c0.6,0.5,1,1.3,1.3,2.3l-2.5,0.6
			c-0.1-0.7-0.5-1.2-0.9-1.5c-0.5-0.4-1-0.6-1.7-0.6c-0.9,0-1.7,0.3-2.3,1c-0.6,0.7-0.9,1.7-0.9,3.2c0,1.6,0.3,2.7,0.9,3.4
			s1.3,1,2.2,1c0.7,0,1.3-0.2,1.7-0.6C639.9,138.8,640.3,138.1,640.5,137.2z"/>
		<path class="st0" d="M644.5,137.1c0-0.8,0.2-1.6,0.6-2.3s1-1.3,1.7-1.7c0.7-0.4,1.5-0.6,2.4-0.6c1.4,0,2.5,0.4,3.4,1.3
			c0.9,0.9,1.3,2,1.3,3.4c0,1.4-0.4,2.5-1.3,3.4c-0.9,0.9-2,1.4-3.3,1.4c-0.8,0-1.6-0.2-2.4-0.6c-0.8-0.4-1.3-0.9-1.7-1.7
			C644.7,139.1,644.5,138.2,644.5,137.1z M647,137.3c0,0.9,0.2,1.6,0.6,2.1s1,0.7,1.6,0.7c0.6,0,1.2-0.2,1.6-0.7
			c0.4-0.5,0.6-1.2,0.6-2.1c0-0.9-0.2-1.6-0.6-2.1c-0.4-0.5-1-0.7-1.6-0.7c-0.6,0-1.2,0.2-1.6,0.7S647,136.4,647,137.3z"/>
		<path class="st0" d="M664.1,141.8h-2.4v-4.6c0-1-0.1-1.6-0.2-1.9c-0.1-0.3-0.3-0.5-0.5-0.7c-0.2-0.2-0.5-0.2-0.8-0.2
			c-0.4,0-0.8,0.1-1.1,0.3s-0.6,0.5-0.7,0.9c-0.1,0.4-0.2,1.1-0.2,2.1v4.1h-2.4v-9.1h2.2v1.3c0.8-1,1.8-1.5,3-1.5
			c0.5,0,1,0.1,1.5,0.3c0.4,0.2,0.8,0.4,1,0.7c0.2,0.3,0.4,0.6,0.5,1c0.1,0.4,0.1,0.9,0.1,1.6V141.8z"/>
		<path class="st0" d="M665.7,139.2l2.4-0.4c0.1,0.5,0.3,0.8,0.6,1.1c0.3,0.2,0.8,0.4,1.3,0.4c0.6,0,1.1-0.1,1.4-0.3
			c0.2-0.2,0.3-0.4,0.3-0.6c0-0.2-0.1-0.3-0.2-0.5c-0.1-0.1-0.4-0.2-0.8-0.3c-1.9-0.4-3.2-0.8-3.7-1.2c-0.7-0.5-1.1-1.2-1.1-2
			c0-0.8,0.3-1.4,0.9-2c0.6-0.5,1.6-0.8,2.9-0.8c1.2,0,2.2,0.2,2.8,0.6c0.6,0.4,1,1,1.3,1.8l-2.3,0.4c-0.1-0.4-0.3-0.6-0.6-0.8
			c-0.3-0.2-0.7-0.3-1.2-0.3c-0.6,0-1.1,0.1-1.4,0.3c-0.2,0.1-0.3,0.3-0.3,0.5c0,0.2,0.1,0.3,0.2,0.4c0.2,0.2,1,0.4,2.2,0.7
			c1.3,0.3,2.2,0.7,2.7,1.1c0.5,0.4,0.8,1,0.8,1.8c0,0.8-0.4,1.5-1,2.1c-0.7,0.6-1.7,0.9-3.1,0.9c-1.2,0-2.2-0.2-2.9-0.8
			C666.4,140.8,665.9,140.1,665.7,139.2z"/>
		<path class="st0" d="M682.3,141.8v-1.4c-0.3,0.5-0.8,0.9-1.3,1.1c-0.5,0.3-1.1,0.4-1.7,0.4c-0.6,0-1.2-0.1-1.6-0.4
			c-0.5-0.3-0.8-0.6-1.1-1.1c-0.2-0.5-0.3-1.2-0.3-2v-5.8h2.4v4.2c0,1.3,0,2.1,0.1,2.3c0.1,0.3,0.2,0.5,0.5,0.7
			c0.2,0.2,0.5,0.3,0.9,0.3c0.4,0,0.8-0.1,1.1-0.3c0.3-0.2,0.5-0.5,0.7-0.8c0.1-0.3,0.2-1.1,0.2-2.4v-3.8h2.4v9.1H682.3z"/>
		<path class="st0" d="M686.8,132.7h2.2v1.2c0.8-1,1.7-1.4,2.8-1.4c0.6,0,1.1,0.1,1.5,0.4s0.8,0.6,1.1,1.1c0.4-0.5,0.8-0.8,1.3-1.1
			c0.5-0.2,1-0.4,1.5-0.4c0.7,0,1.2,0.1,1.7,0.4c0.5,0.3,0.8,0.7,1,1.2c0.2,0.4,0.2,1,0.2,1.9v5.8h-2.4v-5.2c0-0.9-0.1-1.5-0.2-1.7
			c-0.2-0.3-0.6-0.5-1-0.5c-0.3,0-0.7,0.1-1,0.3c-0.3,0.2-0.5,0.5-0.6,0.9c-0.1,0.4-0.2,1-0.2,1.9v4.4h-2.4v-5c0-0.9,0-1.5-0.1-1.7
			s-0.2-0.4-0.4-0.6c-0.2-0.1-0.4-0.2-0.7-0.2c-0.4,0-0.7,0.1-1,0.3s-0.5,0.5-0.6,0.9c-0.1,0.4-0.2,1-0.2,1.9v4.4h-2.4V132.7z"/>
		<path class="st0" d="M707.8,138.9l2.4,0.4c-0.3,0.9-0.8,1.5-1.5,2c-0.7,0.5-1.5,0.7-2.5,0.7c-1.6,0-2.7-0.5-3.5-1.5
			c-0.6-0.8-0.9-1.9-0.9-3.1c0-1.5,0.4-2.7,1.2-3.5c0.8-0.9,1.8-1.3,3-1.3c1.4,0,2.4,0.4,3.2,1.3c0.8,0.9,1.2,2.3,1.1,4.1h-6
			c0,0.7,0.2,1.3,0.6,1.7c0.4,0.4,0.8,0.6,1.4,0.6c0.4,0,0.7-0.1,1-0.3C707.5,139.7,707.7,139.4,707.8,138.9z M708,136.5
			c0-0.7-0.2-1.2-0.5-1.6c-0.3-0.4-0.8-0.5-1.3-0.5c-0.5,0-1,0.2-1.3,0.6c-0.3,0.4-0.5,0.9-0.5,1.6H708z"/>
		<path class="st0" d="M725.5,141.8h-2.2v-1.3c-0.4,0.5-0.8,0.9-1.3,1.2c-0.5,0.2-1,0.4-1.5,0.4c-1,0-1.9-0.4-2.7-1.3
			c-0.7-0.8-1.1-2-1.1-3.5c0-1.5,0.4-2.7,1.1-3.5c0.7-0.8,1.6-1.2,2.7-1.2c1,0,1.9,0.4,2.6,1.3v-4.5h2.4V141.8z M719.1,137.1
			c0,1,0.1,1.7,0.4,2.1c0.4,0.6,0.9,0.9,1.6,0.9c0.6,0,1-0.2,1.4-0.7c0.4-0.5,0.6-1.2,0.6-2.1c0-1-0.2-1.8-0.6-2.3
			c-0.4-0.5-0.9-0.7-1.4-0.7c-0.6,0-1,0.2-1.4,0.7C719.3,135.5,719.1,136.2,719.1,137.1z"/>
		<path class="st0" d="M729.7,135.5l-2.2-0.4c0.2-0.9,0.7-1.5,1.3-2s1.5-0.6,2.7-0.6c1.1,0,1.9,0.1,2.4,0.4c0.5,0.3,0.9,0.6,1.1,1
			c0.2,0.4,0.3,1.1,0.3,2.1l0,2.8c0,0.8,0,1.4,0.1,1.8c0.1,0.4,0.2,0.8,0.4,1.2h-2.4c-0.1-0.2-0.1-0.4-0.2-0.7
			c0-0.1-0.1-0.2-0.1-0.3c-0.4,0.4-0.8,0.7-1.3,0.9c-0.5,0.2-1,0.3-1.5,0.3c-0.9,0-1.7-0.3-2.2-0.8c-0.5-0.5-0.8-1.1-0.8-1.9
			c0-0.5,0.1-1,0.4-1.4c0.2-0.4,0.6-0.7,1-0.9c0.4-0.2,1.1-0.4,1.9-0.6c1.1-0.2,1.9-0.4,2.3-0.6v-0.2c0-0.5-0.1-0.8-0.3-1
			c-0.2-0.2-0.7-0.3-1.3-0.3c-0.4,0-0.8,0.1-1,0.2C730,134.8,729.8,135.1,729.7,135.5z M732.9,137.5c-0.3,0.1-0.8,0.2-1.5,0.4
			c-0.7,0.1-1.1,0.3-1.3,0.4c-0.3,0.2-0.5,0.5-0.5,0.8c0,0.3,0.1,0.6,0.4,0.9c0.2,0.2,0.6,0.4,1,0.4c0.4,0,0.8-0.1,1.2-0.4
			c0.3-0.2,0.5-0.5,0.6-0.8c0.1-0.2,0.1-0.6,0.1-1.2V137.5z"/>
		<path class="st0" d="M737.7,131.5v-2.2h2.4v2.2H737.7z M737.7,141.8v-9.1h2.4v9.1H737.7z"/>
		<path class="st0" d="M742.5,141.8v-12.6h2.4v12.6H742.5z"/>
		<path class="st0" d="M746.3,132.7h2.6l2.2,6.5l2.1-6.5h2.5l-3.2,8.8l-0.6,1.6c-0.2,0.5-0.4,0.9-0.6,1.2c-0.2,0.3-0.4,0.5-0.7,0.7
			c-0.2,0.2-0.5,0.3-0.9,0.4c-0.4,0.1-0.8,0.1-1.2,0.1c-0.5,0-0.9-0.1-1.4-0.1l-0.2-1.9c0.4,0.1,0.7,0.1,1,0.1c0.6,0,1-0.2,1.2-0.5
			c0.3-0.3,0.5-0.8,0.6-1.3L746.3,132.7z"/>
		<path class="st0" d="M624.1,153.8h1.3v-0.7c0-0.8,0.1-1.3,0.2-1.7c0.2-0.4,0.5-0.7,0.9-0.9c0.4-0.2,1-0.4,1.7-0.4
			c0.7,0,1.4,0.1,2,0.3l-0.3,1.7c-0.4-0.1-0.8-0.1-1.1-0.1c-0.4,0-0.6,0.1-0.7,0.2c-0.2,0.2-0.2,0.5-0.2,0.9v0.6h1.8v1.9h-1.8v7.2
			h-2.4v-7.2h-1.3V153.8z"/>
		<path class="st0" d="M630.4,158.2c0-0.8,0.2-1.6,0.6-2.3c0.4-0.7,1-1.3,1.7-1.7c0.7-0.4,1.5-0.6,2.4-0.6c1.4,0,2.5,0.4,3.4,1.3
			c0.9,0.9,1.3,2,1.3,3.4c0,1.4-0.4,2.5-1.3,3.4c-0.9,0.9-2,1.4-3.3,1.4c-0.8,0-1.6-0.2-2.4-0.6c-0.8-0.4-1.3-0.9-1.7-1.7
			C630.6,160.1,630.4,159.2,630.4,158.2z M632.9,158.3c0,0.9,0.2,1.6,0.6,2.1s1,0.7,1.6,0.7s1.2-0.2,1.6-0.7
			c0.4-0.5,0.6-1.2,0.6-2.1c0-0.9-0.2-1.6-0.6-2.1c-0.4-0.5-1-0.7-1.6-0.7s-1.2,0.2-1.6,0.7C633.1,156.7,632.9,157.4,632.9,158.3z"
			/>
		<path class="st0" d="M644,162.9h-2.4v-9.1h2.2v1.3c0.4-0.6,0.7-1,1-1.2c0.3-0.2,0.7-0.3,1-0.3c0.5,0,1.1,0.2,1.6,0.5l-0.7,2.1
			c-0.4-0.3-0.8-0.4-1.1-0.4c-0.3,0-0.6,0.1-0.9,0.3c-0.2,0.2-0.4,0.5-0.5,1c-0.1,0.5-0.2,1.5-0.2,3V162.9z"/>
		<path class="st0" d="M653.3,162.9v-12.6h2.4v4.5c0.7-0.8,1.6-1.3,2.6-1.3c1.1,0,2,0.4,2.7,1.2c0.7,0.8,1.1,2,1.1,3.5
			c0,1.5-0.4,2.7-1.1,3.6c-0.7,0.8-1.6,1.3-2.7,1.3c-0.5,0-1-0.1-1.5-0.4c-0.5-0.3-0.9-0.6-1.3-1.1v1.3H653.3z M655.7,158.1
			c0,0.9,0.1,1.6,0.4,2.1c0.4,0.6,1,1,1.7,1c0.5,0,1-0.2,1.4-0.7c0.4-0.4,0.6-1.2,0.6-2.1c0-1-0.2-1.8-0.6-2.2
			c-0.4-0.5-0.9-0.7-1.4-0.7c-0.6,0-1.1,0.2-1.4,0.7C655.8,156.5,655.7,157.2,655.7,158.1z"/>
		<path class="st0" d="M669.3,160l2.4,0.4c-0.3,0.9-0.8,1.5-1.5,2c-0.7,0.5-1.5,0.7-2.5,0.7c-1.6,0-2.7-0.5-3.5-1.5
			c-0.6-0.8-0.9-1.9-0.9-3.1c0-1.5,0.4-2.7,1.2-3.5c0.8-0.9,1.8-1.3,3-1.3c1.4,0,2.4,0.4,3.2,1.3c0.8,0.9,1.2,2.3,1.1,4.1h-6
			c0,0.7,0.2,1.3,0.6,1.7c0.4,0.4,0.8,0.6,1.4,0.6c0.4,0,0.7-0.1,1-0.3C669,160.8,669.2,160.4,669.3,160z M669.5,157.5
			c0-0.7-0.2-1.2-0.5-1.6c-0.3-0.4-0.8-0.5-1.3-0.5c-0.5,0-1,0.2-1.3,0.6c-0.3,0.4-0.5,0.9-0.5,1.6H669.5z"/>
		<path class="st0" d="M678,153.8v1.9h-1.6v3.7c0,0.7,0,1.2,0.1,1.3c0,0.1,0.1,0.2,0.2,0.3c0.1,0.1,0.2,0.1,0.4,0.1
			c0.2,0,0.5-0.1,1-0.2l0.2,1.9c-0.6,0.2-1.2,0.4-1.9,0.4c-0.4,0-0.8-0.1-1.2-0.2c-0.4-0.1-0.6-0.3-0.8-0.6
			c-0.2-0.2-0.3-0.5-0.3-0.9c-0.1-0.3-0.1-0.8-0.1-1.7v-4h-1.1v-1.9h1.1V152l2.4-1.4v3.2H678z"/>
		<path class="st0" d="M683.8,153.8v1.9h-1.6v3.7c0,0.7,0,1.2,0.1,1.3c0,0.1,0.1,0.2,0.2,0.3c0.1,0.1,0.2,0.1,0.4,0.1
			c0.2,0,0.5-0.1,1-0.2l0.2,1.9c-0.6,0.2-1.2,0.4-1.9,0.4c-0.4,0-0.8-0.1-1.2-0.2c-0.4-0.1-0.6-0.3-0.8-0.6
			c-0.2-0.2-0.3-0.5-0.3-0.9c-0.1-0.3-0.1-0.8-0.1-1.7v-4h-1.1v-1.9h1.1V152l2.4-1.4v3.2H683.8z"/>
		<path class="st0" d="M690.8,160l2.4,0.4c-0.3,0.9-0.8,1.5-1.5,2c-0.7,0.5-1.5,0.7-2.5,0.7c-1.6,0-2.7-0.5-3.5-1.5
			c-0.6-0.8-0.9-1.9-0.9-3.1c0-1.5,0.4-2.7,1.2-3.5c0.8-0.9,1.8-1.3,3-1.3c1.4,0,2.4,0.4,3.2,1.3c0.8,0.9,1.2,2.3,1.1,4.1h-6
			c0,0.7,0.2,1.3,0.6,1.7c0.4,0.4,0.8,0.6,1.4,0.6c0.4,0,0.7-0.1,1-0.3C690.5,160.8,690.7,160.4,690.8,160z M690.9,157.5
			c0-0.7-0.2-1.2-0.5-1.6c-0.3-0.4-0.8-0.5-1.3-0.5c-0.5,0-1,0.2-1.3,0.6c-0.3,0.4-0.5,0.9-0.5,1.6H690.9z"/>
		<path class="st0" d="M697.6,162.9h-2.4v-9.1h2.2v1.3c0.4-0.6,0.7-1,1-1.2c0.3-0.2,0.7-0.3,1-0.3c0.5,0,1.1,0.2,1.6,0.5l-0.7,2.1
			c-0.4-0.3-0.8-0.4-1.1-0.4c-0.3,0-0.6,0.1-0.9,0.3c-0.2,0.2-0.4,0.5-0.5,1c-0.1,0.5-0.2,1.5-0.2,3V162.9z"/>
		<path class="st0" d="M709.3,162.9h-2.4v-9.1h2.2v1.3c0.4-0.6,0.7-1,1-1.2c0.3-0.2,0.7-0.3,1-0.3c0.5,0,1.1,0.2,1.6,0.5l-0.7,2.1
			c-0.4-0.3-0.8-0.4-1.1-0.4c-0.3,0-0.6,0.1-0.9,0.3c-0.2,0.2-0.4,0.5-0.5,1c-0.1,0.5-0.2,1.5-0.2,3V162.9z"/>
		<path class="st0" d="M719.1,160l2.4,0.4c-0.3,0.9-0.8,1.5-1.5,2c-0.7,0.5-1.5,0.7-2.5,0.7c-1.6,0-2.7-0.5-3.5-1.5
			c-0.6-0.8-0.9-1.9-0.9-3.1c0-1.5,0.4-2.7,1.2-3.5c0.8-0.9,1.8-1.3,3-1.3c1.4,0,2.4,0.4,3.2,1.3c0.8,0.9,1.2,2.3,1.1,4.1h-6
			c0,0.7,0.2,1.3,0.6,1.7c0.4,0.4,0.8,0.6,1.4,0.6c0.4,0,0.7-0.1,1-0.3C718.7,160.8,718.9,160.4,719.1,160z M719.2,157.5
			c0-0.7-0.2-1.2-0.5-1.6c-0.3-0.4-0.8-0.5-1.3-0.5c-0.5,0-1,0.2-1.3,0.6c-0.3,0.4-0.5,0.9-0.5,1.6H719.2z"/>
		<path class="st0" d="M722.7,160.3l2.4-0.4c0.1,0.5,0.3,0.8,0.6,1.1c0.3,0.2,0.8,0.4,1.3,0.4c0.6,0,1.1-0.1,1.4-0.3
			c0.2-0.2,0.3-0.4,0.3-0.6c0-0.2-0.1-0.3-0.2-0.5c-0.1-0.1-0.4-0.2-0.8-0.3c-1.9-0.4-3.2-0.8-3.7-1.2c-0.7-0.5-1.1-1.2-1.1-2
			c0-0.8,0.3-1.4,0.9-2s1.6-0.8,2.9-0.8c1.2,0,2.2,0.2,2.8,0.6c0.6,0.4,1,1,1.3,1.8l-2.3,0.4c-0.1-0.4-0.3-0.6-0.6-0.8
			c-0.3-0.2-0.7-0.3-1.2-0.3c-0.6,0-1.1,0.1-1.4,0.3c-0.2,0.1-0.3,0.3-0.3,0.5c0,0.2,0.1,0.3,0.2,0.4c0.2,0.2,1,0.4,2.2,0.7
			c1.3,0.3,2.2,0.7,2.7,1.1c0.5,0.4,0.8,1,0.8,1.8c0,0.8-0.4,1.5-1,2.1s-1.7,0.9-3.1,0.9c-1.2,0-2.2-0.2-2.9-0.8
			C723.4,161.8,722.9,161.1,722.7,160.3z"/>
		<path class="st0" d="M739.3,162.9v-1.4c-0.3,0.5-0.8,0.9-1.3,1.1c-0.5,0.3-1.1,0.4-1.7,0.4c-0.6,0-1.2-0.1-1.6-0.4
			c-0.5-0.3-0.8-0.6-1.1-1.1c-0.2-0.5-0.3-1.2-0.3-2v-5.8h2.4v4.2c0,1.3,0,2.1,0.1,2.3c0.1,0.3,0.2,0.5,0.5,0.7
			c0.2,0.2,0.5,0.3,0.9,0.3c0.4,0,0.8-0.1,1.1-0.3c0.3-0.2,0.5-0.5,0.7-0.8c0.1-0.3,0.2-1.1,0.2-2.4v-3.8h2.4v9.1H739.3z"/>
		<path class="st0" d="M744,162.9v-12.6h2.4v12.6H744z"/>
		<path class="st0" d="M753,153.8v1.9h-1.6v3.7c0,0.7,0,1.2,0.1,1.3c0,0.1,0.1,0.2,0.2,0.3c0.1,0.1,0.2,0.1,0.4,0.1
			c0.2,0,0.5-0.1,1-0.2l0.2,1.9c-0.6,0.2-1.2,0.4-1.9,0.4c-0.4,0-0.8-0.1-1.2-0.2c-0.4-0.1-0.6-0.3-0.8-0.6
			c-0.2-0.2-0.3-0.5-0.3-0.9c-0.1-0.3-0.1-0.8-0.1-1.7v-4h-1.1v-1.9h1.1V152l2.4-1.4v3.2H753z"/>
		<path class="st0" d="M753.9,160.3l2.4-0.4c0.1,0.5,0.3,0.8,0.6,1.1c0.3,0.2,0.8,0.4,1.3,0.4c0.6,0,1.1-0.1,1.4-0.3
			c0.2-0.2,0.3-0.4,0.3-0.6c0-0.2-0.1-0.3-0.2-0.5c-0.1-0.1-0.4-0.2-0.8-0.3c-1.9-0.4-3.2-0.8-3.7-1.2c-0.7-0.5-1.1-1.2-1.1-2
			c0-0.8,0.3-1.4,0.9-2s1.6-0.8,2.9-0.8c1.2,0,2.2,0.2,2.8,0.6c0.6,0.4,1,1,1.3,1.8l-2.3,0.4c-0.1-0.4-0.3-0.6-0.6-0.8
			c-0.3-0.2-0.7-0.3-1.2-0.3c-0.6,0-1.1,0.1-1.4,0.3c-0.2,0.1-0.3,0.3-0.3,0.5c0,0.2,0.1,0.3,0.2,0.4c0.2,0.2,1,0.4,2.2,0.7
			c1.3,0.3,2.2,0.7,2.7,1.1c0.5,0.4,0.8,1,0.8,1.8c0,0.8-0.4,1.5-1,2.1s-1.7,0.9-3.1,0.9c-1.2,0-2.2-0.2-2.9-0.8
			C754.6,161.8,754.1,161.1,753.9,160.3z"/>
	</g>
	<g>
		<path class="st0" d="M165.8,64.5"/>
	</g>
	<g>
		<path class="st0" d="M139,64.5"/>
	</g>
	<g>
		<g>
			<polygon class="st0" points="139.2,67.2 173.4,67.2 173.4,72.2 186.8,64.4 173.4,56.7 173.4,61.6 139.2,61.6 			"/>
		</g>
	</g>
	<g>
		<g>
			<polygon class="st0" points="351,67.3 385.2,67.3 385.2,72.2 398.6,64.5 385.2,56.7 385.2,61.7 351,61.7 			"/>
		</g>
	</g>
	<g>
		<g>
			<polygon class="st0" points="563.4,71.9 597.7,71.9 597.7,76.8 611.1,69.1 597.7,61.3 597.7,66.3 563.4,66.3 			"/>
		</g>
	</g>
</g>
</svg>
