<?xml version="1.0" encoding="utf-8"?>
<!-- Generator: Adobe Illustrator 23.0.2, SVG Export Plug-In . SVG Version: 6.00 Build 0)  -->
<svg version="1.1" id="Layer_1" xmlns="http://www.w3.org/2000/svg" xmlns:xlink="http://www.w3.org/1999/xlink" x="0px" y="0px"
	 viewBox="0 0 768.6 179.6" style="enable-background:new 0 0 768.6 179.6;" xml:space="preserve">
<style type="text/css">
	.st0{fill:#212529;}
	.st1{fill-rule:evenodd;clip-rule:evenodd;fill:#212529;}
</style>
<g>
	<g>
		<path class="st0" d="M483.7,110.1c-28.8,0-52.3-23.4-52.3-52.2s23.5-52.2,52.3-52.2c28.9,0,52.3,23.4,52.3,52.2
			S512.5,110.1,483.7,110.1z M483.7,7.7c-27.7,0-50.3,22.5-50.3,50.2s22.6,50.2,50.3,50.2c27.8,0,50.3-22.5,50.3-50.2
			S511.4,7.7,483.7,7.7z"/>
	</g>
	<g>
		<path class="st0" d="M690.8,112.3c-28.8,0-52.3-23.4-52.3-52.2c0-28.8,23.5-52.2,52.3-52.2s52.3,23.4,52.3,52.2
			C743.1,88.9,719.7,112.3,690.8,112.3z M690.8,9.9c-27.7,0-50.3,22.5-50.3,50.2c0,27.7,22.6,50.2,50.3,50.2s50.3-22.5,50.3-50.2
			C741.1,32.4,718.6,9.9,690.8,9.9z"/>
	</g>
	<g>
		<path class="st0" d="M276.5,110.2c-28.8,0-52.3-23.4-52.3-52.2c0-28.8,23.5-52.2,52.3-52.2c28.9,0,52.3,23.4,52.3,52.2
			C328.9,86.7,305.4,110.2,276.5,110.2z M276.5,7.7c-27.7,0-50.3,22.5-50.3,50.2c0,27.7,22.6,50.2,50.3,50.2
			c27.7,0,50.3-22.5,50.3-50.2C326.9,30.3,304.3,7.7,276.5,7.7z"/>
	</g>
	<g>
		<path class="st0" d="M69.6,110.7c-28.8,0-52.3-23.4-52.3-52.2c0-28.8,23.5-52.2,52.3-52.2c28.9,0,52.3,23.4,52.3,52.2
			C121.9,87.2,98.4,110.7,69.6,110.7z M69.6,8.2c-27.7,0-50.3,22.5-50.3,50.2c0,27.7,22.6,50.2,50.3,50.2
			c27.7,0,50.3-22.5,50.3-50.2C119.9,30.8,97.3,8.2,69.6,8.2z"/>
	</g>
	<g>
		<path class="st0" d="M491.5,88C491.5,88,491.5,88,491.5,88l-24.9-0.4c-0.7,0-1.2-0.4-1.4-1l-13.1-49c-0.1-0.4,0-0.8,0.2-1.1
			c0.3-0.3,0.7-0.6,1.2-0.6c0,0,0,0,0,0l52.6,0.8c0.5,0,0.9,0.2,1.2,0.6c0.2,0.3,0.3,0.7,0.2,1.1L492.9,87
			C492.7,87.6,492.1,88,491.5,88z M491.5,87c0.3,0,0.4-0.1,0.4-0.3l14.7-48.6c0-0.1,0-0.2,0-0.2c-0.1-0.1-0.2-0.2-0.4-0.2l-52.6-0.8
			c-0.1,0-0.3,0.1-0.4,0.2c0,0.1-0.1,0.1-0.1,0.3l13.1,49c0,0.2,0.2,0.3,0.4,0.3L491.5,87z"/>
	</g>
	<g>
		<path class="st1" d="M503.4,48.7c0,0-19.2-1.7-26.2,2c-10,5.3-20.7,2.2-20.7,2.2l10.2,34.5l26.8-0.5L503.4,48.7z"/>
	</g>
	<g>
		<path class="st0" d="M631.2,137.9l2.5,0.8c-0.4,1.4-1,2.5-1.9,3.1c-0.9,0.7-2,1-3.4,1c-1.7,0-3.1-0.6-4.2-1.8s-1.7-2.8-1.7-4.8
			c0-2.2,0.6-3.8,1.7-5s2.6-1.8,4.4-1.8c1.6,0,2.9,0.5,3.9,1.4c0.6,0.6,1,1.3,1.3,2.4l-2.6,0.6c-0.2-0.7-0.5-1.2-1-1.6
			s-1.1-0.6-1.8-0.6c-1,0-1.7,0.3-2.3,1c-0.6,0.7-0.9,1.8-0.9,3.3c0,1.6,0.3,2.8,0.9,3.5c0.6,0.7,1.4,1,2.3,1c0.7,0,1.3-0.2,1.8-0.7
			C630.7,139.5,631,138.8,631.2,137.9z"/>
		<path class="st0" d="M635.4,137.8c0-0.8,0.2-1.6,0.6-2.4c0.4-0.8,1-1.4,1.7-1.8c0.7-0.4,1.6-0.6,2.5-0.6c1.4,0,2.6,0.5,3.5,1.4
			c0.9,0.9,1.4,2.1,1.4,3.5c0,1.4-0.5,2.6-1.4,3.5c-0.9,0.9-2.1,1.4-3.5,1.4c-0.9,0-1.7-0.2-2.5-0.6c-0.8-0.4-1.4-1-1.8-1.7
			C635.6,139.8,635.4,138.9,635.4,137.8z M638,138c0,0.9,0.2,1.6,0.7,2.1c0.4,0.5,1,0.7,1.6,0.7s1.2-0.2,1.6-0.7
			c0.4-0.5,0.7-1.2,0.7-2.2c0-0.9-0.2-1.6-0.7-2.1c-0.4-0.5-1-0.7-1.6-0.7s-1.2,0.2-1.6,0.7C638.2,136.3,638,137,638,138z"/>
		<path class="st0" d="M655.6,142.6h-2.5v-4.8c0-1-0.1-1.7-0.2-2c-0.1-0.3-0.3-0.5-0.5-0.7c-0.2-0.2-0.5-0.2-0.9-0.2
			c-0.4,0-0.8,0.1-1.2,0.4c-0.3,0.2-0.6,0.5-0.7,0.9c-0.1,0.4-0.2,1.1-0.2,2.2v4.2H647v-9.4h2.3v1.4c0.8-1.1,1.8-1.6,3.1-1.6
			c0.5,0,1,0.1,1.5,0.3c0.5,0.2,0.8,0.4,1,0.8c0.2,0.3,0.4,0.7,0.5,1c0.1,0.4,0.1,0.9,0.1,1.7V142.6z"/>
		<path class="st0" d="M657.2,140l2.5-0.4c0.1,0.5,0.3,0.8,0.6,1.1c0.3,0.3,0.8,0.4,1.4,0.4c0.6,0,1.1-0.1,1.4-0.4
			c0.2-0.2,0.3-0.4,0.3-0.7c0-0.2-0.1-0.3-0.2-0.5c-0.1-0.1-0.4-0.2-0.8-0.3c-2-0.4-3.3-0.8-3.8-1.2c-0.7-0.5-1.1-1.2-1.1-2.1
			c0-0.8,0.3-1.5,1-2s1.6-0.8,3-0.8c1.3,0,2.2,0.2,2.9,0.6c0.6,0.4,1.1,1,1.3,1.9l-2.3,0.4c-0.1-0.4-0.3-0.6-0.6-0.8
			c-0.3-0.2-0.7-0.3-1.2-0.3c-0.7,0-1.1,0.1-1.4,0.3c-0.2,0.1-0.3,0.3-0.3,0.5c0,0.2,0.1,0.3,0.2,0.5c0.2,0.2,1,0.4,2.3,0.7
			c1.3,0.3,2.2,0.7,2.8,1.1c0.5,0.4,0.8,1.1,0.8,1.8c0,0.9-0.4,1.6-1.1,2.2c-0.7,0.6-1.8,0.9-3.2,0.9c-1.3,0-2.3-0.3-3-0.8
			C657.9,141.6,657.4,140.9,657.2,140z"/>
		<path class="st0" d="M674.3,142.6v-1.4c-0.3,0.5-0.8,0.9-1.3,1.2s-1.1,0.4-1.8,0.4c-0.6,0-1.2-0.1-1.7-0.4
			c-0.5-0.3-0.9-0.7-1.1-1.2c-0.2-0.5-0.3-1.2-0.3-2.1v-5.9h2.5v4.3c0,1.3,0,2.1,0.1,2.4c0.1,0.3,0.3,0.5,0.5,0.7
			c0.2,0.2,0.5,0.3,0.9,0.3c0.4,0,0.8-0.1,1.1-0.3s0.6-0.5,0.7-0.9c0.1-0.3,0.2-1.2,0.2-2.5v-4h2.5v9.4H674.3z"/>
		<path class="st0" d="M679,133.3h2.3v1.3c0.8-1,1.8-1.5,2.9-1.5c0.6,0,1.1,0.1,1.6,0.4c0.4,0.2,0.8,0.6,1.1,1.1
			c0.4-0.5,0.9-0.9,1.3-1.1s1-0.4,1.5-0.4c0.7,0,1.3,0.1,1.7,0.4s0.8,0.7,1.1,1.2c0.2,0.4,0.3,1,0.3,1.9v6h-2.5v-5.4
			c0-0.9-0.1-1.5-0.3-1.8c-0.2-0.4-0.6-0.5-1.1-0.5c-0.3,0-0.7,0.1-1,0.3s-0.5,0.5-0.7,0.9c-0.1,0.4-0.2,1.1-0.2,1.9v4.5h-2.5v-5.1
			c0-0.9,0-1.5-0.1-1.8s-0.2-0.5-0.4-0.6c-0.2-0.1-0.4-0.2-0.8-0.2c-0.4,0-0.7,0.1-1,0.3s-0.5,0.5-0.7,0.9c-0.1,0.4-0.2,1-0.2,1.9
			v4.6H679V133.3z"/>
		<path class="st0" d="M700.6,139.7l2.5,0.4c-0.3,0.9-0.8,1.6-1.5,2.1c-0.7,0.5-1.5,0.7-2.6,0.7c-1.6,0-2.8-0.5-3.6-1.6
			c-0.6-0.9-0.9-1.9-0.9-3.2c0-1.6,0.4-2.8,1.2-3.6c0.8-0.9,1.8-1.3,3.1-1.3c1.4,0,2.5,0.5,3.3,1.4c0.8,0.9,1.2,2.3,1.2,4.2H697
			c0,0.7,0.2,1.3,0.6,1.7c0.4,0.4,0.9,0.6,1.4,0.6c0.4,0,0.7-0.1,1-0.3S700.5,140.1,700.6,139.7z M700.8,137.2
			c0-0.7-0.2-1.3-0.6-1.6c-0.4-0.4-0.8-0.6-1.3-0.6c-0.5,0-1,0.2-1.3,0.6c-0.4,0.4-0.5,0.9-0.5,1.6H700.8z"/>
		<path class="st0" d="M718.9,142.6h-2.3v-1.4c-0.4,0.5-0.8,0.9-1.4,1.2s-1,0.4-1.6,0.4c-1.1,0-2-0.4-2.8-1.3
			c-0.8-0.9-1.2-2.1-1.2-3.6c0-1.6,0.4-2.8,1.1-3.6c0.7-0.8,1.7-1.2,2.8-1.2c1,0,2,0.4,2.7,1.3v-4.7h2.5V142.6z M712.2,137.8
			c0,1,0.1,1.7,0.4,2.2c0.4,0.6,1,1,1.7,1c0.6,0,1.1-0.2,1.5-0.7c0.4-0.5,0.6-1.2,0.6-2.2c0-1.1-0.2-1.9-0.6-2.3
			c-0.4-0.5-0.9-0.7-1.5-0.7c-0.6,0-1.1,0.2-1.5,0.7C712.4,136.1,712.2,136.8,712.2,137.8z"/>
		<path class="st0" d="M723.2,136.1l-2.2-0.4c0.3-0.9,0.7-1.6,1.3-2c0.6-0.4,1.5-0.7,2.8-0.7c1.1,0,1.9,0.1,2.5,0.4s0.9,0.6,1.1,1
			c0.2,0.4,0.3,1.1,0.3,2.2l0,2.9c0,0.8,0,1.4,0.1,1.8s0.2,0.8,0.4,1.3H727c-0.1-0.2-0.1-0.4-0.2-0.7c0-0.1-0.1-0.2-0.1-0.3
			c-0.4,0.4-0.9,0.7-1.4,0.9c-0.5,0.2-1,0.3-1.5,0.3c-1,0-1.7-0.3-2.3-0.8s-0.8-1.2-0.8-2c0-0.5,0.1-1,0.4-1.4
			c0.3-0.4,0.6-0.7,1.1-1s1.1-0.4,2-0.6c1.2-0.2,2-0.4,2.4-0.6v-0.2c0-0.5-0.1-0.8-0.4-1s-0.7-0.3-1.3-0.3c-0.4,0-0.8,0.1-1,0.3
			C723.5,135.4,723.3,135.7,723.2,136.1z M726.5,138.1c-0.3,0.1-0.8,0.2-1.5,0.4c-0.7,0.1-1.1,0.3-1.3,0.4c-0.3,0.2-0.5,0.5-0.5,0.9
			c0,0.3,0.1,0.6,0.4,0.9s0.6,0.4,1,0.4c0.4,0,0.9-0.1,1.3-0.4c0.3-0.2,0.5-0.5,0.6-0.8c0.1-0.2,0.1-0.6,0.1-1.2V138.1z"/>
		<path class="st0" d="M731.4,132v-2.3h2.5v2.3H731.4z M731.4,142.6v-9.4h2.5v9.4H731.4z"/>
		<path class="st0" d="M736.4,142.6v-12.9h2.5v12.9H736.4z"/>
		<path class="st0" d="M740.2,133.3h2.6l2.2,6.6l2.2-6.6h2.6l-3.3,9l-0.6,1.6c-0.2,0.5-0.4,1-0.6,1.3c-0.2,0.3-0.4,0.5-0.7,0.7
			s-0.6,0.3-0.9,0.4c-0.4,0.1-0.8,0.2-1.3,0.2c-0.5,0-0.9-0.1-1.4-0.2l-0.2-1.9c0.4,0.1,0.7,0.1,1,0.1c0.6,0,1-0.2,1.3-0.5
			s0.5-0.8,0.6-1.3L740.2,133.3z"/>
	</g>
	<g>
		<path class="st0" d="M614.3,155h1.4v-0.7c0-0.8,0.1-1.4,0.3-1.8c0.2-0.4,0.5-0.7,0.9-0.9c0.5-0.2,1-0.4,1.7-0.4
			c0.7,0,1.4,0.1,2.1,0.3l-0.3,1.7c-0.4-0.1-0.8-0.1-1.1-0.1c-0.4,0-0.6,0.1-0.8,0.3c-0.2,0.2-0.2,0.5-0.2,1v0.7h1.9v1.9h-1.9v7.4
			h-2.5v-7.4h-1.4V155z"/>
		<path class="st0" d="M620.9,159.5c0-0.8,0.2-1.6,0.6-2.4c0.4-0.8,1-1.4,1.7-1.8c0.7-0.4,1.6-0.6,2.5-0.6c1.4,0,2.6,0.5,3.5,1.4
			c0.9,0.9,1.4,2.1,1.4,3.5c0,1.4-0.5,2.6-1.4,3.5c-0.9,0.9-2.1,1.4-3.5,1.4c-0.9,0-1.7-0.2-2.5-0.6c-0.8-0.4-1.4-1-1.8-1.7
			C621.1,161.5,620.9,160.6,620.9,159.5z M623.4,159.6c0,0.9,0.2,1.6,0.7,2.1c0.4,0.5,1,0.7,1.6,0.7s1.2-0.2,1.6-0.7
			c0.4-0.5,0.7-1.2,0.7-2.2c0-0.9-0.2-1.6-0.7-2.1c-0.4-0.5-1-0.7-1.6-0.7s-1.2,0.2-1.6,0.7C623.6,158,623.4,158.7,623.4,159.6z"/>
		<path class="st0" d="M634.8,164.3h-2.5V155h2.3v1.3c0.4-0.6,0.7-1,1.1-1.2c0.3-0.2,0.7-0.3,1.1-0.3c0.6,0,1.1,0.2,1.6,0.5
			l-0.8,2.2c-0.4-0.3-0.8-0.4-1.2-0.4c-0.3,0-0.6,0.1-0.9,0.3s-0.4,0.5-0.6,1c-0.1,0.5-0.2,1.5-0.2,3.1V164.3z"/>
		<path class="st0" d="M644.4,164.3v-12.9h2.5v4.7c0.8-0.9,1.7-1.3,2.7-1.3c1.1,0,2.1,0.4,2.8,1.2c0.7,0.8,1.1,2,1.1,3.6
			c0,1.6-0.4,2.8-1.1,3.7c-0.8,0.9-1.7,1.3-2.8,1.3c-0.5,0-1.1-0.1-1.6-0.4s-1-0.7-1.3-1.2v1.4H644.4z M646.9,159.4
			c0,1,0.2,1.7,0.5,2.2c0.4,0.7,1,1,1.7,1c0.5,0,1-0.2,1.4-0.7c0.4-0.5,0.6-1.2,0.6-2.2c0-1.1-0.2-1.8-0.6-2.3
			c-0.4-0.5-0.9-0.7-1.5-0.7c-0.6,0-1.1,0.2-1.5,0.7C647.1,157.8,646.9,158.5,646.9,159.4z"/>
		<path class="st0" d="M661,161.3l2.5,0.4c-0.3,0.9-0.8,1.6-1.5,2.1c-0.7,0.5-1.5,0.7-2.6,0.7c-1.6,0-2.8-0.5-3.6-1.6
			c-0.6-0.9-0.9-1.9-0.9-3.2c0-1.6,0.4-2.8,1.2-3.6c0.8-0.9,1.8-1.3,3.1-1.3c1.4,0,2.5,0.5,3.3,1.4s1.2,2.3,1.2,4.2h-6.2
			c0,0.7,0.2,1.3,0.6,1.7c0.4,0.4,0.9,0.6,1.4,0.6c0.4,0,0.7-0.1,1-0.3S660.8,161.8,661,161.3z M661.1,158.8c0-0.7-0.2-1.3-0.6-1.6
			c-0.4-0.4-0.8-0.6-1.3-0.6c-0.5,0-1,0.2-1.3,0.6c-0.4,0.4-0.5,0.9-0.5,1.6H661.1z"/>
		<path class="st0" d="M669.9,155v2h-1.7v3.8c0,0.8,0,1.2,0,1.3c0,0.1,0.1,0.2,0.2,0.3c0.1,0.1,0.3,0.1,0.4,0.1c0.2,0,0.6-0.1,1-0.2
			l0.2,1.9c-0.6,0.2-1.2,0.4-2,0.4c-0.4,0-0.8-0.1-1.2-0.2c-0.4-0.1-0.6-0.3-0.8-0.6c-0.2-0.2-0.3-0.6-0.3-1
			c-0.1-0.3-0.1-0.9-0.1-1.7v-4.1h-1.1v-2h1.1v-1.9l2.5-1.4v3.3H669.9z"/>
		<path class="st0" d="M675.9,155v2h-1.7v3.8c0,0.8,0,1.2,0,1.3c0,0.1,0.1,0.2,0.2,0.3c0.1,0.1,0.3,0.1,0.4,0.1c0.2,0,0.6-0.1,1-0.2
			l0.2,1.9c-0.6,0.2-1.2,0.4-2,0.4c-0.4,0-0.8-0.1-1.2-0.2c-0.4-0.1-0.6-0.3-0.8-0.6c-0.2-0.2-0.3-0.6-0.3-1
			c-0.1-0.3-0.1-0.9-0.1-1.7v-4.1h-1.1v-2h1.1v-1.9l2.5-1.4v3.3H675.9z"/>
		<path class="st0" d="M683,161.3l2.5,0.4c-0.3,0.9-0.8,1.6-1.5,2.1c-0.7,0.5-1.5,0.7-2.6,0.7c-1.6,0-2.8-0.5-3.6-1.6
			c-0.6-0.9-0.9-1.9-0.9-3.2c0-1.6,0.4-2.8,1.2-3.6c0.8-0.9,1.8-1.3,3.1-1.3c1.4,0,2.5,0.5,3.3,1.4s1.2,2.3,1.2,4.2h-6.2
			c0,0.7,0.2,1.3,0.6,1.7c0.4,0.4,0.9,0.6,1.4,0.6c0.4,0,0.7-0.1,1-0.3S682.9,161.8,683,161.3z M683.2,158.8c0-0.7-0.2-1.3-0.6-1.6
			c-0.4-0.4-0.8-0.6-1.3-0.6c-0.5,0-1,0.2-1.3,0.6c-0.4,0.4-0.5,0.9-0.5,1.6H683.2z"/>
		<path class="st0" d="M690,164.3h-2.5V155h2.3v1.3c0.4-0.6,0.7-1,1.1-1.2c0.3-0.2,0.7-0.3,1.1-0.3c0.6,0,1.1,0.2,1.6,0.5l-0.8,2.2
			c-0.4-0.3-0.8-0.4-1.2-0.4c-0.3,0-0.6,0.1-0.9,0.3s-0.4,0.5-0.6,1c-0.1,0.5-0.2,1.5-0.2,3.1V164.3z"/>
		<path class="st0" d="M702.1,164.3h-2.5V155h2.3v1.3c0.4-0.6,0.7-1,1.1-1.2c0.3-0.2,0.7-0.3,1.1-0.3c0.6,0,1.1,0.2,1.6,0.5
			l-0.8,2.2c-0.4-0.3-0.8-0.4-1.2-0.4c-0.3,0-0.6,0.1-0.9,0.3s-0.4,0.5-0.6,1c-0.1,0.5-0.2,1.5-0.2,3.1V164.3z"/>
		<path class="st0" d="M712.2,161.3l2.5,0.4c-0.3,0.9-0.8,1.6-1.5,2.1c-0.7,0.5-1.5,0.7-2.6,0.7c-1.6,0-2.8-0.5-3.6-1.6
			c-0.6-0.9-0.9-1.9-0.9-3.2c0-1.6,0.4-2.8,1.2-3.6c0.8-0.9,1.8-1.3,3.1-1.3c1.4,0,2.5,0.5,3.3,1.4s1.2,2.3,1.2,4.2h-6.2
			c0,0.7,0.2,1.3,0.6,1.7c0.4,0.4,0.9,0.6,1.4,0.6c0.4,0,0.7-0.1,1-0.3S712,161.8,712.2,161.3z M712.3,158.8c0-0.7-0.2-1.3-0.6-1.6
			c-0.4-0.4-0.8-0.6-1.3-0.6c-0.5,0-1,0.2-1.3,0.6c-0.4,0.4-0.5,0.9-0.5,1.6H712.3z"/>
		<path class="st0" d="M715.9,161.6l2.5-0.4c0.1,0.5,0.3,0.8,0.6,1.1c0.3,0.3,0.8,0.4,1.4,0.4c0.6,0,1.1-0.1,1.4-0.4
			c0.2-0.2,0.3-0.4,0.3-0.7c0-0.2-0.1-0.3-0.2-0.5c-0.1-0.1-0.4-0.2-0.8-0.3c-2-0.4-3.3-0.8-3.8-1.2c-0.7-0.5-1.1-1.2-1.1-2.1
			c0-0.8,0.3-1.5,1-2s1.6-0.8,3-0.8c1.3,0,2.2,0.2,2.9,0.6c0.6,0.4,1.1,1,1.3,1.9l-2.3,0.4c-0.1-0.4-0.3-0.6-0.6-0.8
			s-0.7-0.3-1.2-0.3c-0.7,0-1.1,0.1-1.4,0.3c-0.2,0.1-0.3,0.3-0.3,0.5c0,0.2,0.1,0.3,0.2,0.4c0.2,0.2,1,0.4,2.3,0.7
			c1.3,0.3,2.2,0.7,2.8,1.1c0.5,0.4,0.8,1.1,0.8,1.8c0,0.9-0.4,1.6-1.1,2.2c-0.7,0.6-1.8,0.9-3.2,0.9c-1.3,0-2.3-0.3-3-0.8
			C716.6,163.2,716.1,162.5,715.9,161.6z"/>
		<path class="st0" d="M733,164.3v-1.4c-0.3,0.5-0.8,0.9-1.3,1.2s-1.1,0.4-1.8,0.4c-0.6,0-1.2-0.1-1.7-0.4c-0.5-0.3-0.9-0.7-1.1-1.2
			c-0.2-0.5-0.3-1.2-0.3-2.1V155h2.5v4.3c0,1.3,0,2.1,0.1,2.4c0.1,0.3,0.3,0.5,0.5,0.7c0.2,0.2,0.5,0.3,0.9,0.3
			c0.4,0,0.8-0.1,1.1-0.3s0.6-0.5,0.7-0.9c0.1-0.3,0.2-1.2,0.2-2.5v-4h2.5v9.4H733z"/>
		<path class="st0" d="M737.9,164.3v-12.9h2.5v12.9H737.9z"/>
		<path class="st0" d="M747.2,155v2h-1.7v3.8c0,0.8,0,1.2,0,1.3c0,0.1,0.1,0.2,0.2,0.3c0.1,0.1,0.3,0.1,0.4,0.1c0.2,0,0.6-0.1,1-0.2
			l0.2,1.9c-0.6,0.2-1.2,0.4-2,0.4c-0.4,0-0.8-0.1-1.2-0.2c-0.4-0.1-0.6-0.3-0.8-0.6c-0.2-0.2-0.3-0.6-0.3-1
			c-0.1-0.3-0.1-0.9-0.1-1.7v-4.1h-1.1v-2h1.1v-1.9l2.5-1.4v3.3H747.2z"/>
		<path class="st0" d="M748,161.6l2.5-0.4c0.1,0.5,0.3,0.8,0.6,1.1c0.3,0.3,0.8,0.4,1.4,0.4c0.6,0,1.1-0.1,1.4-0.4
			c0.2-0.2,0.3-0.4,0.3-0.7c0-0.2-0.1-0.3-0.2-0.5c-0.1-0.1-0.4-0.2-0.8-0.3c-2-0.4-3.3-0.8-3.8-1.2c-0.7-0.5-1.1-1.2-1.1-2.1
			c0-0.8,0.3-1.5,1-2s1.6-0.8,3-0.8c1.3,0,2.2,0.2,2.9,0.6c0.6,0.4,1.1,1,1.3,1.9l-2.3,0.4c-0.1-0.4-0.3-0.6-0.6-0.8
			s-0.7-0.3-1.2-0.3c-0.7,0-1.1,0.1-1.4,0.3c-0.2,0.1-0.3,0.3-0.3,0.5c0,0.2,0.1,0.3,0.2,0.4c0.2,0.2,1,0.4,2.3,0.7
			c1.3,0.3,2.2,0.7,2.8,1.1c0.5,0.4,0.8,1.1,0.8,1.8c0,0.9-0.4,1.6-1.1,2.2c-0.7,0.6-1.8,0.9-3.2,0.9c-1.3,0-2.3-0.3-3-0.8
			C748.8,163.2,748.3,162.5,748,161.6z"/>
	</g>
	<g>
		<path class="st0" d="M439.8,142.3l-3.1-12.9h2.7l1.9,8.9l2.4-8.9h3.1l2.3,9l2-9h2.6l-3.1,12.9h-2.8l-2.6-9.7l-2.6,9.7H439.8z"/>
		<path class="st0" d="M454.8,131.6v-2.3h2.5v2.3H454.8z M454.8,142.3v-9.4h2.5v9.4H454.8z"/>
		<path class="st0" d="M464.1,132.9v2h-1.7v3.8c0,0.8,0,1.2,0,1.3c0,0.1,0.1,0.2,0.2,0.3c0.1,0.1,0.3,0.1,0.4,0.1
			c0.2,0,0.6-0.1,1-0.2l0.2,1.9c-0.6,0.2-1.2,0.4-2,0.4c-0.4,0-0.8-0.1-1.2-0.2c-0.4-0.1-0.6-0.3-0.8-0.6c-0.2-0.2-0.3-0.6-0.3-1
			c-0.1-0.3-0.1-0.9-0.1-1.7v-4.1h-1.1v-2h1.1V131l2.5-1.4v3.3H464.1z"/>
		<path class="st0" d="M468.3,129.3v4.8c0.8-0.9,1.8-1.4,2.9-1.4c0.6,0,1.1,0.1,1.5,0.3c0.5,0.2,0.8,0.5,1,0.8
			c0.2,0.3,0.4,0.7,0.5,1.1c0.1,0.4,0.1,1,0.1,1.9v5.5h-2.5v-4.9c0-1,0-1.6-0.1-1.9s-0.3-0.5-0.5-0.6c-0.2-0.2-0.5-0.2-0.9-0.2
			c-0.4,0-0.8,0.1-1.1,0.3c-0.3,0.2-0.6,0.5-0.7,0.9c-0.2,0.4-0.2,1-0.2,1.8v4.7h-2.5v-12.9H468.3z"/>
		<path class="st0" d="M482,142.3v-12.8h2.6v10.6h6.5v2.2H482z"/>
		<path class="st0" d="M499.1,142.3v-1.4c-0.3,0.5-0.8,0.9-1.3,1.2s-1.1,0.4-1.8,0.4c-0.6,0-1.2-0.1-1.7-0.4
			c-0.5-0.3-0.9-0.7-1.1-1.2c-0.2-0.5-0.3-1.2-0.3-2.1v-5.9h2.5v4.3c0,1.3,0,2.1,0.1,2.4c0.1,0.3,0.3,0.5,0.5,0.7
			c0.2,0.2,0.5,0.3,0.9,0.3c0.4,0,0.8-0.1,1.1-0.3s0.6-0.5,0.7-0.9c0.1-0.3,0.2-1.2,0.2-2.5v-4h2.5v9.4H499.1z"/>
		<path class="st0" d="M503.9,142.3v-12.9h2.5v6.9l2.9-3.3h3.1l-3.2,3.4l3.4,5.9h-2.7l-2.4-4.2l-1.2,1.2v3H503.9z"/>
		<path class="st0" d="M519.4,139.3l2.5,0.4c-0.3,0.9-0.8,1.6-1.5,2.1c-0.7,0.5-1.5,0.7-2.6,0.7c-1.6,0-2.8-0.5-3.6-1.6
			c-0.6-0.9-0.9-1.9-0.9-3.2c0-1.6,0.4-2.8,1.2-3.6c0.8-0.9,1.8-1.3,3.1-1.3c1.4,0,2.5,0.5,3.3,1.4c0.8,0.9,1.2,2.3,1.2,4.2h-6.2
			c0,0.7,0.2,1.3,0.6,1.7c0.4,0.4,0.9,0.6,1.4,0.6c0.4,0,0.7-0.1,1-0.3S519.3,139.7,519.4,139.3z M519.6,136.8
			c0-0.7-0.2-1.3-0.6-1.6c-0.4-0.4-0.8-0.6-1.3-0.6c-0.5,0-1,0.2-1.3,0.6c-0.4,0.4-0.5,0.9-0.5,1.6H519.6z"/>
	</g>
	<g>
		<path class="st0" d="M430.8,163.9l-3.1-12.9h2.7l1.9,8.9l2.4-8.9h3.1l2.3,9l2-9h2.6l-3.1,12.9h-2.8l-2.6-9.7l-2.6,9.7H430.8z"/>
		<path class="st0" d="M447.2,157.4l-2.2-0.4c0.3-0.9,0.7-1.6,1.3-2s1.5-0.7,2.8-0.7c1.1,0,1.9,0.1,2.5,0.4c0.5,0.3,0.9,0.6,1.1,1
			c0.2,0.4,0.3,1.1,0.3,2.2l0,2.9c0,0.8,0,1.4,0.1,1.8s0.2,0.8,0.4,1.3H451c-0.1-0.2-0.1-0.4-0.2-0.7c0-0.1-0.1-0.2-0.1-0.3
			c-0.4,0.4-0.9,0.7-1.4,0.9c-0.5,0.2-1,0.3-1.5,0.3c-1,0-1.7-0.3-2.3-0.8s-0.8-1.2-0.8-2c0-0.5,0.1-1,0.4-1.4
			c0.3-0.4,0.6-0.7,1.1-1s1.1-0.4,2-0.6c1.2-0.2,2-0.4,2.4-0.6v-0.2c0-0.5-0.1-0.8-0.4-1s-0.7-0.3-1.3-0.3c-0.4,0-0.8,0.1-1,0.3
			C447.5,156.7,447.3,157,447.2,157.4z M450.5,159.4c-0.3,0.1-0.8,0.2-1.5,0.4c-0.7,0.1-1.1,0.3-1.3,0.4c-0.3,0.2-0.5,0.5-0.5,0.9
			c0,0.3,0.1,0.6,0.4,0.9s0.6,0.4,1,0.4c0.4,0,0.9-0.1,1.3-0.4c0.3-0.2,0.5-0.5,0.6-0.8c0.1-0.2,0.1-0.6,0.1-1.2V159.4z"/>
		<path class="st0" d="M457.7,163.9h-2.5v-9.4h2.3v1.3c0.4-0.6,0.7-1,1.1-1.2c0.3-0.2,0.7-0.3,1.1-0.3c0.6,0,1.1,0.2,1.6,0.5
			l-0.8,2.2c-0.4-0.3-0.8-0.4-1.2-0.4c-0.3,0-0.6,0.1-0.9,0.3s-0.4,0.5-0.6,1c-0.1,0.5-0.2,1.5-0.2,3.1V163.9z"/>
		<path class="st0" d="M462.2,154.6h2.3v1.3c0.8-1,1.8-1.5,2.9-1.5c0.6,0,1.1,0.1,1.6,0.4c0.4,0.2,0.8,0.6,1.1,1.1
			c0.4-0.5,0.9-0.9,1.3-1.1s1-0.4,1.5-0.4c0.7,0,1.3,0.1,1.7,0.4s0.8,0.7,1.1,1.2c0.2,0.4,0.3,1,0.3,1.9v6h-2.5v-5.4
			c0-0.9-0.1-1.5-0.3-1.8c-0.2-0.4-0.6-0.5-1.1-0.5c-0.3,0-0.7,0.1-1,0.3c-0.3,0.2-0.5,0.5-0.7,0.9c-0.1,0.4-0.2,1.1-0.2,1.9v4.5
			h-2.5v-5.1c0-0.9,0-1.5-0.1-1.8s-0.2-0.5-0.4-0.6c-0.2-0.1-0.4-0.2-0.8-0.2c-0.4,0-0.7,0.1-1,0.3c-0.3,0.2-0.5,0.5-0.7,0.9
			c-0.1,0.4-0.2,1-0.2,1.9v4.6h-2.5V154.6z"/>
		<path class="st0" d="M485.3,163.9l-3.1-12.9h2.7l1.9,8.9l2.4-8.9h3.1l2.3,9l2-9h2.6l-3.1,12.9h-2.8l-2.6-9.7l-2.6,9.7H485.3z"/>
		<path class="st0" d="M501.7,157.4l-2.2-0.4c0.3-0.9,0.7-1.6,1.3-2s1.5-0.7,2.8-0.7c1.1,0,1.9,0.1,2.5,0.4c0.5,0.3,0.9,0.6,1.1,1
			c0.2,0.4,0.3,1.1,0.3,2.2l0,2.9c0,0.8,0,1.4,0.1,1.8s0.2,0.8,0.4,1.3h-2.5c-0.1-0.2-0.1-0.4-0.2-0.7c0-0.1-0.1-0.2-0.1-0.3
			c-0.4,0.4-0.9,0.7-1.4,0.9c-0.5,0.2-1,0.3-1.5,0.3c-1,0-1.7-0.3-2.3-0.8s-0.8-1.2-0.8-2c0-0.5,0.1-1,0.4-1.4
			c0.3-0.4,0.6-0.7,1.1-1s1.1-0.4,2-0.6c1.2-0.2,2-0.4,2.4-0.6v-0.2c0-0.5-0.1-0.8-0.4-1s-0.7-0.3-1.3-0.3c-0.4,0-0.8,0.1-1,0.3
			C502.1,156.7,501.9,157,501.7,157.4z M505,159.4c-0.3,0.1-0.8,0.2-1.5,0.4c-0.7,0.1-1.1,0.3-1.3,0.4c-0.3,0.2-0.5,0.5-0.5,0.9
			c0,0.3,0.1,0.6,0.4,0.9s0.6,0.4,1,0.4c0.4,0,0.9-0.1,1.3-0.4c0.3-0.2,0.5-0.5,0.6-0.8c0.1-0.2,0.1-0.6,0.1-1.2V159.4z"/>
		<path class="st0" d="M514.2,154.6v2h-1.7v3.8c0,0.8,0,1.2,0,1.3c0,0.1,0.1,0.2,0.2,0.3c0.1,0.1,0.3,0.1,0.4,0.1
			c0.2,0,0.6-0.1,1-0.2l0.2,1.9c-0.6,0.2-1.2,0.4-2,0.4c-0.4,0-0.8-0.1-1.2-0.2c-0.4-0.1-0.6-0.3-0.8-0.6c-0.2-0.2-0.3-0.6-0.3-1
			c-0.1-0.3-0.1-0.9-0.1-1.7v-4.1h-1.1v-2h1.1v-1.9l2.5-1.4v3.3H514.2z"/>
		<path class="st0" d="M521.3,161l2.5,0.4c-0.3,0.9-0.8,1.6-1.5,2.1c-0.7,0.5-1.5,0.7-2.6,0.7c-1.6,0-2.8-0.5-3.6-1.6
			c-0.6-0.9-0.9-1.9-0.9-3.2c0-1.6,0.4-2.8,1.2-3.6c0.8-0.9,1.8-1.3,3.1-1.3c1.4,0,2.5,0.5,3.3,1.4s1.2,2.3,1.2,4.2h-6.2
			c0,0.7,0.2,1.3,0.6,1.7c0.4,0.4,0.9,0.6,1.4,0.6c0.4,0,0.7-0.1,1-0.3S521.2,161.4,521.3,161z M521.5,158.5c0-0.7-0.2-1.3-0.6-1.6
			c-0.4-0.4-0.8-0.6-1.3-0.6c-0.5,0-1,0.2-1.3,0.6c-0.4,0.4-0.5,0.9-0.5,1.6H521.5z"/>
		<path class="st0" d="M528.3,163.9h-2.5v-9.4h2.3v1.3c0.4-0.6,0.7-1,1.1-1.2c0.3-0.2,0.7-0.3,1.1-0.3c0.6,0,1.1,0.2,1.6,0.5
			l-0.8,2.2c-0.4-0.3-0.8-0.4-1.2-0.4c-0.3,0-0.6,0.1-0.9,0.3s-0.4,0.5-0.6,1c-0.1,0.5-0.2,1.5-0.2,3.1V163.9z"/>
	</g>
	<g>
		<path class="st0" d="M235.7,138.6l2.4-0.3c0.1,0.6,0.3,1.1,0.6,1.4c0.3,0.3,0.7,0.5,1.2,0.5c0.5,0,0.9-0.2,1.3-0.6
			c0.3-0.4,0.5-0.9,0.5-1.6c0-0.6-0.2-1.1-0.5-1.5c-0.3-0.4-0.7-0.5-1.2-0.5c-0.3,0-0.7,0.1-1.1,0.2l0.3-2c0.7,0,1.2-0.1,1.5-0.4
			c0.4-0.3,0.5-0.7,0.5-1.2c0-0.4-0.1-0.8-0.4-1s-0.6-0.4-1-0.4c-0.4,0-0.8,0.1-1.1,0.4c-0.3,0.3-0.5,0.7-0.5,1.3l-2.3-0.4
			c0.2-0.8,0.4-1.4,0.7-1.9c0.3-0.5,0.8-0.8,1.3-1.1c0.6-0.3,1.2-0.4,1.9-0.4c1.2,0,2.2,0.4,2.9,1.2c0.6,0.6,0.9,1.4,0.9,2.2
			c0,1.1-0.6,2-1.9,2.7c0.7,0.2,1.3,0.5,1.8,1.1s0.7,1.2,0.7,2c0,1.1-0.4,2.1-1.2,2.9c-0.8,0.8-1.9,1.2-3.1,1.2
			c-1.2,0-2.1-0.3-2.9-1C236.3,140.6,235.8,139.7,235.7,138.6z"/>
		<path class="st0" d="M250,129.1c1.3,0,2.2,0.4,2.9,1.3c0.8,1.1,1.3,2.8,1.3,5.3c0,2.4-0.4,4.2-1.3,5.3c-0.7,0.9-1.7,1.3-2.9,1.3
			c-1.3,0-2.3-0.5-3-1.5c-0.8-1-1.2-2.7-1.2-5.2c0-2.4,0.4-4.2,1.3-5.3C247.8,129.5,248.8,129.1,250,129.1z M250,131.2
			c-0.3,0-0.6,0.1-0.8,0.3c-0.2,0.2-0.4,0.5-0.5,1c-0.2,0.6-0.3,1.7-0.3,3.2c0,1.5,0.1,2.6,0.2,3.1c0.2,0.6,0.3,0.9,0.6,1.1
			c0.2,0.2,0.5,0.3,0.8,0.3s0.6-0.1,0.8-0.3c0.2-0.2,0.4-0.5,0.5-1c0.2-0.6,0.3-1.7,0.3-3.2c0-1.5-0.1-2.6-0.2-3.1
			c-0.2-0.6-0.3-0.9-0.6-1.1C250.6,131.2,250.3,131.2,250,131.2z"/>
		<path class="st0" d="M256.2,132.7h2.3v1.3c0.8-1,1.8-1.5,2.9-1.5c0.6,0,1.1,0.1,1.6,0.4s0.8,0.6,1.1,1.1c0.4-0.5,0.9-0.9,1.3-1.1
			c0.5-0.2,1-0.4,1.5-0.4c0.7,0,1.3,0.1,1.7,0.4c0.5,0.3,0.8,0.7,1.1,1.2c0.2,0.4,0.3,1,0.3,1.9v6h-2.5v-5.4c0-0.9-0.1-1.5-0.3-1.8
			c-0.2-0.4-0.6-0.5-1.1-0.5c-0.3,0-0.7,0.1-1,0.3s-0.5,0.5-0.7,0.9c-0.1,0.4-0.2,1.1-0.2,1.9v4.5h-2.5v-5.1c0-0.9,0-1.5-0.1-1.8
			c-0.1-0.3-0.2-0.5-0.4-0.6c-0.2-0.1-0.4-0.2-0.8-0.2c-0.4,0-0.7,0.1-1,0.3s-0.5,0.5-0.7,0.9s-0.2,1-0.2,1.9v4.6h-2.5V132.7z"/>
		<path class="st0" d="M272.5,142.1v-12.9h2.5v12.9H272.5z"/>
		<path class="st0" d="M287.2,129.2h2.6v8.2c0,1.1-0.1,1.9-0.3,2.5c-0.3,0.8-0.7,1.4-1.4,1.8s-1.5,0.7-2.6,0.7
			c-1.3,0-2.3-0.4-2.9-1.1c-0.7-0.7-1-1.8-1-3.1l2.5-0.3c0,0.7,0.1,1.3,0.3,1.6c0.3,0.5,0.7,0.7,1.3,0.7c0.6,0,1-0.2,1.2-0.5
			c0.2-0.3,0.4-1,0.4-2.1V129.2z"/>
		<path class="st0" d="M298.7,142.1v-1.4c-0.3,0.5-0.8,0.9-1.3,1.2s-1.1,0.4-1.8,0.4c-0.6,0-1.2-0.1-1.7-0.4s-0.9-0.7-1.1-1.2
			c-0.2-0.5-0.3-1.2-0.3-2.1v-5.9h2.5v4.3c0,1.3,0,2.1,0.1,2.4c0.1,0.3,0.3,0.5,0.5,0.7c0.2,0.2,0.5,0.3,0.9,0.3
			c0.4,0,0.8-0.1,1.1-0.3c0.3-0.2,0.6-0.5,0.7-0.9s0.2-1.2,0.2-2.5v-4h2.5v9.4H298.7z"/>
		<path class="st0" d="M303.6,131.4v-2.3h2.5v2.3H303.6z M303.6,142.1v-9.4h2.5v9.4H303.6z"/>
		<path class="st0" d="M316.8,135.5l-2.4,0.4c-0.1-0.5-0.3-0.9-0.6-1.1c-0.3-0.2-0.7-0.4-1.1-0.4c-0.6,0-1.1,0.2-1.5,0.6
			c-0.4,0.4-0.6,1.1-0.6,2.1c0,1.1,0.2,1.9,0.6,2.4s0.9,0.7,1.5,0.7c0.5,0,0.9-0.1,1.2-0.4s0.5-0.7,0.6-1.4l2.4,0.4
			c-0.3,1.1-0.7,2-1.5,2.5s-1.7,0.9-2.9,0.9c-1.4,0-2.5-0.4-3.3-1.3s-1.2-2.1-1.2-3.6c0-1.5,0.4-2.8,1.2-3.6s1.9-1.3,3.3-1.3
			c1.1,0,2,0.2,2.7,0.7S316.5,134.5,316.8,135.5z"/>
		<path class="st0" d="M324.1,139.1l2.5,0.4c-0.3,0.9-0.8,1.6-1.5,2.1c-0.7,0.5-1.5,0.7-2.6,0.7c-1.6,0-2.8-0.5-3.6-1.6
			c-0.6-0.9-0.9-1.9-0.9-3.2c0-1.6,0.4-2.8,1.2-3.6s1.8-1.3,3.1-1.3c1.4,0,2.5,0.5,3.3,1.4c0.8,0.9,1.2,2.3,1.2,4.2h-6.2
			c0,0.7,0.2,1.3,0.6,1.7c0.4,0.4,0.9,0.6,1.4,0.6c0.4,0,0.7-0.1,1-0.3S323.9,139.6,324.1,139.1z M324.2,136.6
			c0-0.7-0.2-1.3-0.6-1.6c-0.4-0.4-0.8-0.6-1.3-0.6c-0.5,0-1,0.2-1.3,0.6c-0.4,0.4-0.5,0.9-0.5,1.6H324.2z"/>
	</g>
	<g>
		<path class="st1" d="M62.6,53.1c-0.1-0.1-0.1-0.1-0.2-0.2c-1.3,0.7-2.5,1.5-3.8,2.2c-0.8,0.4-1,0.8-0.7,1.6
			c0.2,0.5,0.5,0.9,0.9,1.6C60.2,56.4,61.4,54.8,62.6,53.1L62.6,53.1z M74.2,73.8c-2.1-1.1-4.1-2.2-6.1-3.2c-0.4-0.2-1-0.1-1.5-0.2
			c0.1,0.5-0.1,1.2,0.2,1.5c1.1,1.2,2.2,2.5,3.5,3.4C72.2,76.5,73.5,75.9,74.2,73.8L74.2,73.8z M77.2,69.5c0.3,2.3-1.4,3.7-3.5,2.8
			c-2.1-0.9-4.1-1.9-6-3c-0.5-0.3-1-1-1.1-1.5c-0.1-0.6,0.3-1.3,0.6-1.9c0.1-0.1,1,0.1,1.4,0.3C71.2,67.7,73.5,69.1,77.2,69.5
			L77.2,69.5z M76.3,59.9c-2.2-1.3-4.2-1.3-6.2-0.9c-0.4,0.1-0.8,0.7-1,1.1c-0.1,0.2,0.1,0.8,0.2,0.9c1.4,0.5,2.7,1.2,4.2,1.5
			c1.8,0.3,3.7,0.3,5.6,0.4c0.3,0,0.7-0.2,0.9-0.5c1.1-1.4,0.2-3.5-1.4-3.8c-0.9-0.1-1.9,0-2.8,0c0,0-0.1,0.1-0.1,0.2
			C75.8,59,75.9,59.3,76.3,59.9L76.3,59.9z M69.1,61.9c-0.3,0.3-0.7,0.6-0.9,1c-0.5,0.8-0.3,1.5,0.4,2.1c2.3,2.1,5.1,2.8,8,3.4
			c1,0.2,2.4-1.5,2.5-2.7c0-1.2-0.8-2-2.1-2.1c-0.5,0-1.1-0.1-1.6,0c-1.7,0.1-3.2,0-4.6-1.1C70.3,62.2,69.8,62.1,69.1,61.9
			L69.1,61.9z M68.5,51.4c0.4-0.3,0.9-0.7,1.2-1.1c0.2-0.2,0.3-0.6,0.3-0.9c0.9-3.6,2.7-6.4,6.3-7.6c1.7-0.6,3.4-0.6,5,0.7
			c1.7,1.3,3.3,2.4,3.4,4.7c0.1,2.8-0.7,5.3-2.8,7.2c-1.1,1-2.3,2-3.6,2.8c-0.5,0.3-1.4,0.2-2,0.2c0.5-2.3,3.1-2.4,4.4-3.9
			c0.6-0.7,1.2-1.4,1.9-2.3c-3.6-1.3-7-2.5-10.5-3.8c-0.2,1-0.5,2-0.7,2.9c-0.2,1.2-0.7,2.4-1.8,2.5c-2.8,0.4-4.2,2.3-5.7,4.4
			c-3.7,5.2-7.4,10.3-11.2,15.5c-0.5,0.7-0.5,1.2,0.3,1.7c2.6,1.9,5.3,3.7,7.9,5.7c0.8,0.6,1.3,0.6,1.9-0.3c1.3-1.9,2.7-3.8,4.2-5.8
			c0.9,0.5,1.3,0.9,0.6,1.9c-1.4,1.7-2.6,3.5-3.9,5.3c-0.9,1.2-1.8,1.4-3,0.5c-2.9-2.1-5.9-4.2-8.8-6.4c-1.2-0.9-1.4-2.2-0.5-3.4
			c4.4-6,8.9-12,13.3-18.1C65.6,52.6,66.9,51.8,68.5,51.4L68.5,51.4z M69.7,76.4c-1.7,2.3-3.3,4.5-4.9,6.5c-1.1,1.4-3.8,1.7-5.2,0.6
			c-3.1-2.2-6.2-4.4-9.3-6.7c-2-1.5-2.2-3.8-0.7-5.9c2.6-3.7,5.3-7.3,8-11c0.2-0.3,0.4-0.6,0.6-0.9c-0.3-0.3-0.5-0.5-0.7-0.7
			c-1.9-2-1.4-4.4,1.2-5.4c2.4-0.9,5-1.7,7.3-2.9c1.1-0.6,2.1-1.8,2.6-2.9c1.8-4.3,4.6-7.2,9.4-7.8c0.5-0.1,1-0.5,1.6-0.9
			c2.4,1.8,5.1,3.7,7.7,5.6c-0.1,0-0.3,0.1-0.4,0.1c0,0.6-0.2,1.1-0.1,1.7c0.6,4.1-0.5,7.6-3.7,10.2c-1.4,1.1-1.9,2.2-1.3,3.9
			c0.5,1.3-0.1,2.4-1.2,3.2c-0.2,0.2-0.4,0.7-0.4,1c0.3,1.5-0.1,2.8-1.1,3.9c-0.3,0.4-0.5,1-0.6,1.5c-0.2,1.3-0.7,2.3-1.8,3.1
			c-0.6,0.4-1.1,1-1.4,1.6c-0.8,1.8-2.8,2.7-4.6,2C70.3,76.7,70.1,76.5,69.7,76.4z"/>
	</g>
	<g>
		<path class="st1" d="M88,42.2c0.4-0.6,0.7-1,1.1-1.5c-2.4-1.7-4.7-3.4-7-5.1C81.7,36,81.4,36.4,81,37C83.3,38.7,85.6,40.4,88,42.2
			L88,42.2z M82.1,33.8c0.2,0,0.5,0.1,0.8,0.3c2.4,1.8,4.8,3.5,7.2,5.3c0.3,0.3,0.5,0.7,1,1.3c-0.9,1.1-1.8,2.1-2.8,3.1
			c-0.1,0.1-0.9-0.2-1.2-0.4c-2.4-1.7-4.8-3.4-7.2-5.2c-0.1,0-0.1-0.1-0.2-0.1c-0.8-0.8-0.5-1.6,1.1-3.6c0.3-0.4,0.6-0.6,1-0.7H82.1
			z"/>
	</g>
	<g>
		<path class="st0" d="M0.7,137.8l2.5-0.2c0.2,0.9,0.5,1.5,0.9,1.9c0.5,0.4,1.1,0.6,1.9,0.6c0.8,0,1.5-0.2,1.9-0.5
			c0.4-0.4,0.6-0.8,0.6-1.2c0-0.3-0.1-0.6-0.3-0.8c-0.2-0.2-0.5-0.4-0.9-0.6c-0.3-0.1-1-0.3-2.1-0.6c-1.4-0.3-2.4-0.8-2.9-1.3
			c-0.8-0.7-1.2-1.6-1.2-2.6c0-0.7,0.2-1.3,0.6-1.8s0.9-1,1.6-1.3c0.7-0.3,1.6-0.5,2.5-0.5c1.6,0,2.8,0.4,3.7,1.1
			c0.8,0.7,1.3,1.7,1.3,2.8l-2.6,0.1c-0.1-0.7-0.4-1.1-0.7-1.4c-0.4-0.3-0.9-0.4-1.7-0.4c-0.8,0-1.4,0.2-1.8,0.5
			c-0.3,0.2-0.4,0.5-0.4,0.8c0,0.3,0.1,0.6,0.4,0.8c0.3,0.3,1.1,0.6,2.4,0.9s2.2,0.6,2.8,0.9c0.6,0.3,1.1,0.8,1.4,1.3
			c0.3,0.6,0.5,1.2,0.5,2.1c0,0.7-0.2,1.4-0.6,2.1s-1,1.1-1.7,1.4c-0.8,0.3-1.7,0.5-2.8,0.5c-1.6,0-2.9-0.4-3.8-1.1
			C1.3,140.4,0.8,139.3,0.7,137.8z"/>
		<path class="st0" d="M15.8,129.1v4.8c0.8-0.9,1.8-1.4,2.9-1.4c0.6,0,1.1,0.1,1.5,0.3s0.8,0.5,1,0.8s0.4,0.7,0.5,1.1
			c0.1,0.4,0.1,1,0.1,1.9v5.5h-2.5v-4.9c0-1,0-1.6-0.1-1.9c-0.1-0.3-0.3-0.5-0.5-0.6s-0.5-0.2-0.9-0.2c-0.4,0-0.8,0.1-1.1,0.3
			c-0.3,0.2-0.6,0.5-0.7,0.9c-0.1,0.4-0.2,1-0.2,1.8v4.7h-2.5v-12.9H15.8z"/>
		<path class="st0" d="M26.2,135.5l-2.2-0.4c0.3-0.9,0.7-1.6,1.3-2c0.6-0.4,1.5-0.7,2.8-0.7c1.1,0,1.9,0.1,2.5,0.4s0.9,0.6,1.1,1
			c0.2,0.4,0.3,1.1,0.3,2.2l0,2.9c0,0.8,0,1.4,0.1,1.8c0.1,0.4,0.2,0.8,0.4,1.3h-2.5c-0.1-0.2-0.1-0.4-0.2-0.7
			c0-0.1-0.1-0.2-0.1-0.3c-0.4,0.4-0.9,0.7-1.4,0.9c-0.5,0.2-1,0.3-1.5,0.3c-1,0-1.7-0.3-2.3-0.8s-0.8-1.2-0.8-2
			c0-0.5,0.1-1,0.4-1.4c0.3-0.4,0.6-0.7,1.1-1s1.1-0.4,2-0.6c1.2-0.2,2-0.4,2.4-0.6v-0.2c0-0.5-0.1-0.8-0.4-1
			c-0.2-0.2-0.7-0.3-1.3-0.3c-0.4,0-0.8,0.1-1,0.3C26.6,134.8,26.4,135.1,26.2,135.5z M29.5,137.6c-0.3,0.1-0.8,0.2-1.5,0.4
			c-0.7,0.1-1.1,0.3-1.3,0.4c-0.3,0.2-0.5,0.5-0.5,0.9c0,0.3,0.1,0.6,0.4,0.9s0.6,0.4,1,0.4c0.4,0,0.9-0.1,1.3-0.4
			c0.3-0.2,0.5-0.5,0.6-0.8c0.1-0.2,0.1-0.6,0.1-1.2V137.6z"/>
		<path class="st0" d="M34.3,142.1v-12.9h2.5v6.9l2.9-3.3h3.1l-3.2,3.4l3.4,5.9h-2.7l-2.4-4.2l-1.2,1.2v3H34.3z"/>
		<path class="st0" d="M49.9,139.1l2.5,0.4c-0.3,0.9-0.8,1.6-1.5,2.1c-0.7,0.5-1.5,0.7-2.6,0.7c-1.6,0-2.8-0.5-3.6-1.6
			c-0.6-0.9-0.9-1.9-0.9-3.2c0-1.6,0.4-2.8,1.2-3.6s1.8-1.3,3.1-1.3c1.4,0,2.5,0.5,3.3,1.4c0.8,0.9,1.2,2.3,1.2,4.2h-6.2
			c0,0.7,0.2,1.3,0.6,1.7c0.4,0.4,0.9,0.6,1.4,0.6c0.4,0,0.7-0.1,1-0.3S49.8,139.5,49.9,139.1z M50,136.6c0-0.7-0.2-1.3-0.6-1.6
			c-0.4-0.4-0.8-0.6-1.3-0.6c-0.5,0-1,0.2-1.3,0.6c-0.4,0.4-0.5,0.9-0.5,1.6H50z"/>
		<path class="st0" d="M63.8,132.7v2h-1.7v3.8c0,0.8,0,1.2,0,1.3c0,0.1,0.1,0.2,0.2,0.3s0.3,0.1,0.4,0.1c0.2,0,0.6-0.1,1-0.2
			l0.2,1.9c-0.6,0.2-1.2,0.4-2,0.4c-0.4,0-0.9-0.1-1.2-0.2c-0.4-0.1-0.6-0.3-0.8-0.6c-0.2-0.2-0.3-0.6-0.3-1
			c-0.1-0.3-0.1-0.9-0.1-1.7v-4.1h-1.1v-2h1.1v-1.9l2.5-1.4v3.3H63.8z"/>
		<path class="st0" d="M68,129.1v4.8c0.8-0.9,1.8-1.4,2.9-1.4c0.6,0,1.1,0.1,1.5,0.3s0.8,0.5,1,0.8s0.4,0.7,0.5,1.1
			c0.1,0.4,0.1,1,0.1,1.9v5.5h-2.5v-4.9c0-1,0-1.6-0.1-1.9c-0.1-0.3-0.3-0.5-0.5-0.6s-0.5-0.2-0.9-0.2c-0.4,0-0.8,0.1-1.1,0.3
			c-0.3,0.2-0.6,0.5-0.7,0.9c-0.1,0.4-0.2,1-0.2,1.8v4.7h-2.5v-12.9H68z"/>
		<path class="st0" d="M82,139.1l2.5,0.4c-0.3,0.9-0.8,1.6-1.5,2.1c-0.7,0.5-1.5,0.7-2.6,0.7c-1.6,0-2.8-0.5-3.6-1.6
			c-0.6-0.9-0.9-1.9-0.9-3.2c0-1.6,0.4-2.8,1.2-3.6s1.8-1.3,3.1-1.3c1.4,0,2.5,0.5,3.3,1.4c0.8,0.9,1.2,2.3,1.2,4.2h-6.2
			c0,0.7,0.2,1.3,0.6,1.7c0.4,0.4,0.9,0.6,1.4,0.6c0.4,0,0.7-0.1,1-0.3S81.9,139.5,82,139.1z M82.1,136.6c0-0.7-0.2-1.3-0.6-1.6
			c-0.4-0.4-0.8-0.6-1.3-0.6c-0.5,0-1,0.2-1.3,0.6c-0.4,0.4-0.5,0.9-0.5,1.6H82.1z"/>
		<path class="st0" d="M91.5,142.1v-12.9H94v4.7c0.8-0.9,1.7-1.3,2.7-1.3c1.1,0,2.1,0.4,2.8,1.2c0.7,0.8,1.1,2,1.1,3.6
			c0,1.6-0.4,2.8-1.1,3.7c-0.8,0.9-1.7,1.3-2.8,1.3c-0.5,0-1.1-0.1-1.6-0.4s-1-0.7-1.3-1.2v1.4H91.5z M94,137.2c0,1,0.2,1.7,0.5,2.2
			c0.4,0.7,1,1,1.7,1c0.5,0,1-0.2,1.4-0.7c0.4-0.5,0.6-1.2,0.6-2.2c0-1.1-0.2-1.8-0.6-2.3c-0.4-0.5-0.9-0.7-1.5-0.7
			c-0.6,0-1.1,0.2-1.5,0.7C94.2,135.5,94,136.2,94,137.2z"/>
		<path class="st0" d="M102.1,137.2c0-0.8,0.2-1.6,0.6-2.4c0.4-0.8,1-1.4,1.7-1.8c0.7-0.4,1.6-0.6,2.5-0.6c1.4,0,2.6,0.5,3.5,1.4
			c0.9,0.9,1.4,2.1,1.4,3.5c0,1.4-0.5,2.6-1.4,3.5c-0.9,0.9-2.1,1.4-3.5,1.4c-0.9,0-1.7-0.2-2.5-0.6c-0.8-0.4-1.4-1-1.8-1.7
			S102.1,138.3,102.1,137.2z M104.6,137.4c0,0.9,0.2,1.6,0.7,2.1s1,0.7,1.6,0.7s1.2-0.2,1.6-0.7c0.4-0.5,0.7-1.2,0.7-2.2
			c0-0.9-0.2-1.6-0.7-2.1c-0.4-0.5-1-0.7-1.6-0.7s-1.2,0.2-1.6,0.7C104.9,135.7,104.6,136.4,104.6,137.4z"/>
		<path class="st0" d="M118,132.7v2h-1.7v3.8c0,0.8,0,1.2,0,1.3c0,0.1,0.1,0.2,0.2,0.3s0.3,0.1,0.4,0.1c0.2,0,0.6-0.1,1-0.2l0.2,1.9
			c-0.6,0.2-1.2,0.4-2,0.4c-0.4,0-0.9-0.1-1.2-0.2c-0.4-0.1-0.6-0.3-0.8-0.6c-0.2-0.2-0.3-0.6-0.3-1c-0.1-0.3-0.1-0.9-0.1-1.7v-4.1
			h-1.1v-2h1.1v-1.9l2.5-1.4v3.3H118z"/>
		<path class="st0" d="M124,132.7v2h-1.7v3.8c0,0.8,0,1.2,0,1.3c0,0.1,0.1,0.2,0.2,0.3s0.3,0.1,0.4,0.1c0.2,0,0.6-0.1,1-0.2l0.2,1.9
			c-0.6,0.2-1.2,0.4-2,0.4c-0.4,0-0.9-0.1-1.2-0.2c-0.4-0.1-0.6-0.3-0.8-0.6c-0.2-0.2-0.3-0.6-0.3-1c-0.1-0.3-0.1-0.9-0.1-1.7v-4.1
			h-1.1v-2h1.1v-1.9l2.5-1.4v3.3H124z"/>
		<path class="st0" d="M131.2,139.1l2.5,0.4c-0.3,0.9-0.8,1.6-1.5,2.1c-0.7,0.5-1.5,0.7-2.6,0.7c-1.6,0-2.8-0.5-3.6-1.6
			c-0.6-0.9-0.9-1.9-0.9-3.2c0-1.6,0.4-2.8,1.2-3.6s1.8-1.3,3.1-1.3c1.4,0,2.5,0.5,3.3,1.4c0.8,0.9,1.2,2.3,1.2,4.2h-6.2
			c0,0.7,0.2,1.3,0.6,1.7c0.4,0.4,0.9,0.6,1.4,0.6c0.4,0,0.7-0.1,1-0.3S131,139.5,131.2,139.1z M131.3,136.6c0-0.7-0.2-1.3-0.6-1.6
			c-0.4-0.4-0.8-0.6-1.3-0.6c-0.5,0-1,0.2-1.3,0.6c-0.4,0.4-0.5,0.9-0.5,1.6H131.3z"/>
		<path class="st0" d="M135.8,142.1v-12.9h2.5v12.9H135.8z"/>
	</g>
	<g>
		<path class="st0" d="M25.3,163.7v-12.9h2.5v4.7c0.8-0.9,1.7-1.3,2.7-1.3c1.1,0,2.1,0.4,2.8,1.2c0.7,0.8,1.1,2,1.1,3.6
			c0,1.6-0.4,2.8-1.1,3.7c-0.8,0.9-1.7,1.3-2.8,1.3c-0.5,0-1.1-0.1-1.6-0.4s-1-0.7-1.3-1.2v1.4H25.3z M27.7,158.9
			c0,1,0.2,1.7,0.5,2.2c0.4,0.7,1,1,1.7,1c0.5,0,1-0.2,1.4-0.7c0.4-0.5,0.6-1.2,0.6-2.2c0-1.1-0.2-1.8-0.6-2.3
			c-0.4-0.5-0.9-0.7-1.5-0.7c-0.6,0-1.1,0.2-1.5,0.7C27.9,157.2,27.7,157.9,27.7,158.9z"/>
		<path class="st0" d="M41.8,160.8l2.5,0.4c-0.3,0.9-0.8,1.6-1.5,2.1c-0.7,0.5-1.5,0.7-2.6,0.7c-1.6,0-2.8-0.5-3.6-1.6
			c-0.6-0.9-0.9-1.9-0.9-3.2c0-1.6,0.4-2.8,1.2-3.6s1.8-1.3,3.1-1.3c1.4,0,2.5,0.5,3.3,1.4c0.8,0.9,1.2,2.3,1.2,4.2h-6.2
			c0,0.7,0.2,1.3,0.6,1.7c0.4,0.4,0.9,0.6,1.4,0.6c0.4,0,0.7-0.1,1-0.3S41.7,161.2,41.8,160.8z M42,158.3c0-0.7-0.2-1.3-0.6-1.6
			c-0.4-0.4-0.8-0.6-1.3-0.6c-0.5,0-1,0.2-1.3,0.6c-0.4,0.4-0.5,0.9-0.5,1.6H42z"/>
		<path class="st0" d="M45.4,154.4h1.4v-0.7c0-0.8,0.1-1.4,0.3-1.8c0.2-0.4,0.5-0.7,0.9-0.9c0.4-0.2,1-0.4,1.7-0.4
			c0.7,0,1.4,0.1,2.1,0.3l-0.3,1.7c-0.4-0.1-0.8-0.1-1.1-0.1c-0.4,0-0.6,0.1-0.8,0.3s-0.2,0.5-0.2,1v0.7h1.9v1.9h-1.9v7.4h-2.5v-7.4
			h-1.4V154.4z"/>
		<path class="st0" d="M51.9,158.9c0-0.8,0.2-1.6,0.6-2.4s1-1.4,1.7-1.8c0.7-0.4,1.6-0.6,2.5-0.6c1.4,0,2.6,0.5,3.5,1.4
			c0.9,0.9,1.4,2.1,1.4,3.5c0,1.4-0.5,2.6-1.4,3.5c-0.9,0.9-2.1,1.4-3.5,1.4c-0.9,0-1.7-0.2-2.5-0.6c-0.8-0.4-1.4-1-1.8-1.7
			S51.9,160,51.9,158.9z M54.4,159.1c0,0.9,0.2,1.6,0.7,2.1s1,0.7,1.6,0.7s1.2-0.2,1.6-0.7c0.4-0.5,0.7-1.2,0.7-2.2
			c0-0.9-0.2-1.6-0.7-2.1c-0.4-0.5-1-0.7-1.6-0.7s-1.2,0.2-1.6,0.7C54.7,157.4,54.4,158.1,54.4,159.1z"/>
		<path class="st0" d="M65.9,163.7h-2.5v-9.4h2.3v1.3c0.4-0.6,0.7-1,1.1-1.2c0.3-0.2,0.7-0.3,1.1-0.3c0.6,0,1.1,0.2,1.6,0.5
			l-0.8,2.2c-0.4-0.3-0.8-0.4-1.2-0.4c-0.3,0-0.6,0.1-0.9,0.3s-0.4,0.5-0.6,1c-0.1,0.5-0.2,1.5-0.2,3.1V163.7z"/>
		<path class="st0" d="M76,160.8l2.5,0.4c-0.3,0.9-0.8,1.6-1.5,2.1c-0.7,0.5-1.5,0.7-2.6,0.7c-1.6,0-2.8-0.5-3.6-1.6
			c-0.6-0.9-0.9-1.9-0.9-3.2c0-1.6,0.4-2.8,1.2-3.6s1.8-1.3,3.1-1.3c1.4,0,2.5,0.5,3.3,1.4c0.8,0.9,1.2,2.3,1.2,4.2h-6.2
			c0,0.7,0.2,1.3,0.6,1.7c0.4,0.4,0.9,0.6,1.4,0.6c0.4,0,0.7-0.1,1-0.3S75.8,161.2,76,160.8z M76.1,158.3c0-0.7-0.2-1.3-0.6-1.6
			c-0.4-0.4-0.8-0.6-1.3-0.6c-0.5,0-1,0.2-1.3,0.6c-0.4,0.4-0.5,0.9-0.5,1.6H76.1z"/>
		<path class="st0" d="M91.8,163.7v-1.4c-0.3,0.5-0.8,0.9-1.3,1.2s-1.1,0.4-1.8,0.4c-0.6,0-1.2-0.1-1.7-0.4s-0.9-0.7-1.1-1.2
			c-0.2-0.5-0.3-1.2-0.3-2.1v-5.9H88v4.3c0,1.3,0,2.1,0.1,2.4c0.1,0.3,0.3,0.5,0.5,0.7c0.2,0.2,0.5,0.3,0.9,0.3
			c0.4,0,0.8-0.1,1.1-0.3c0.3-0.2,0.6-0.5,0.7-0.9s0.2-1.2,0.2-2.5v-4h2.5v9.4H91.8z"/>
		<path class="st0" d="M95.8,161.1l2.5-0.4c0.1,0.5,0.3,0.8,0.6,1.1c0.3,0.3,0.8,0.4,1.4,0.4c0.6,0,1.1-0.1,1.4-0.4
			c0.2-0.2,0.3-0.4,0.3-0.7c0-0.2-0.1-0.3-0.2-0.5c-0.1-0.1-0.4-0.2-0.8-0.3c-2-0.4-3.3-0.8-3.8-1.2c-0.7-0.5-1.1-1.2-1.1-2.1
			c0-0.8,0.3-1.5,1-2c0.6-0.6,1.6-0.8,3-0.8c1.3,0,2.2,0.2,2.9,0.6c0.6,0.4,1.1,1,1.3,1.9l-2.3,0.4c-0.1-0.4-0.3-0.6-0.6-0.8
			s-0.7-0.3-1.2-0.3c-0.7,0-1.1,0.1-1.4,0.3c-0.2,0.1-0.3,0.3-0.3,0.5c0,0.2,0.1,0.3,0.2,0.4c0.2,0.2,1,0.4,2.3,0.7
			c1.3,0.3,2.2,0.7,2.8,1.1c0.5,0.4,0.8,1.1,0.8,1.8c0,0.9-0.4,1.6-1.1,2.2c-0.7,0.6-1.8,0.9-3.2,0.9c-1.3,0-2.3-0.3-3-0.8
			C96.5,162.7,96,162,95.8,161.1z"/>
		<path class="st0" d="M112.1,160.8l2.5,0.4c-0.3,0.9-0.8,1.6-1.5,2.1c-0.7,0.5-1.5,0.7-2.6,0.7c-1.6,0-2.8-0.5-3.6-1.6
			c-0.6-0.9-0.9-1.9-0.9-3.2c0-1.6,0.4-2.8,1.2-3.6s1.8-1.3,3.1-1.3c1.4,0,2.5,0.5,3.3,1.4c0.8,0.9,1.2,2.3,1.2,4.2h-6.2
			c0,0.7,0.2,1.3,0.6,1.7c0.4,0.4,0.9,0.6,1.4,0.6c0.4,0,0.7-0.1,1-0.3S112,161.2,112.1,160.8z M112.2,158.3c0-0.7-0.2-1.3-0.6-1.6
			c-0.4-0.4-0.8-0.6-1.3-0.6c-0.5,0-1,0.2-1.3,0.6c-0.4,0.4-0.5,0.9-0.5,1.6H112.2z"/>
	</g>
	<g>
		<polygon class="st1" points="559.6,59 607,59 607,61.9 614.8,57.4 607,52.9 607,55.7 559.6,55.7 		"/>
	</g>
	<g>
		<path class="st0" d="M291.3,88.6c-0.3,0-0.5,0-0.8,0h-0.8c-1.9,0-3.9,0-5.8,0c-2.7,0-5.4,0-8.2-0.1l-8.6-0.1c-2.3,0-4.6,0-6.9,0
			l-1,0c-0.6,0-1.3,0-1.9,0l-0.2,0c-0.2,0-0.4,0-0.6,0c-0.8,0.1-1.5-0.2-2.1-0.7c-0.7-0.6-1.3-1.2-1.8-2.1c-0.6-1.1-0.9-2.2-0.9-3.4
			c0-2,0-4,0-6l0-3.1c0-1.2,0-2.4,0-3.6c0-0.9,0-1.8,0-2.7l0-4.7c0-2.5,0-4.9,0-7.4c0-1.4,0-2.7,0-4.1c0-1.6,0-3.2,0-4.8
			c0-1.6,0-3.2,0.1-4.9l0-1.6c0-0.3,0-0.7,0-1c0-0.3,0-0.5,0-0.8c0-0.3,0-0.6,0-0.9c-0.2-0.1-0.4-0.3-0.4-0.3l-0.8-0.6l0.3-1
			l-0.2-0.3l0.3-0.1l0.3-0.6l0.9-0.1c0.1,0,0.3,0,0.4,0l3.1,0c7.4,0,14.8,0,22.2,0l6.5,0c1.9,0,3.9,0,5.8,0l5.6,0c0.4,0,0.8,0,1.3,0
			c0.9,0.1,2,0.3,3.1,0.9c0.3,0.2,0.6,0.5,0.8,0.6l0.1,0.1c0.1,0.1,0.2,0.2,0.3,0.3l1.7,2l-2.8,0.5c-0.1,0-0.2,0-0.3,0
			c-0.2,0.1-0.3,0.1-0.4,0.2c-0.2,0.2-0.3,0.5-0.5,0.8l-0.1,0.1c-0.3,0.4-0.4,1-0.4,1.6c0,0.4,0,0.7-0.1,1.1c0,0.5-0.1,1-0.1,1.5
			c0,1.5-0.1,2.9-0.1,4.4c0,0.3,0,0.7,0.1,1c0.1,0.4,0.1,0.8,0,1.1c0,0.1,0,0.2,0,0.3c0,0.2,0,0.4,0,0.6c0,0.3,0,0.6,0,0.8
			c0.1,1,0.1,1.9,0.1,2.8c0,0.3,0,0.6,0,0.9c0,0.6,0,1.2,0,1.8l0,2.7c0,1.4,0,2.7-0.1,4.1c0,2.9-0.1,5.7-0.1,8.6l-0.1,8.7
			c0,0.2,0,0.3,0,0.5c0,0.3,0,0.7,0,1c0,0.8-0.1,1.8-0.4,2.8c-0.3,1-0.8,1.7-1.6,2.3c-0.1,0.1-0.4,0.3-0.8,0.4l-0.1,0
			c-0.1,0-0.2,0-0.3,0.1c-0.3,0-0.6,0.1-0.9,0.1C293.2,88.6,292.3,88.6,291.3,88.6z M255.4,65.5c0,1.9,0,3.8,0,5.7
			c0,1.9,0,3.8,0,5.7l0,1.7c0,1.5,0,3,0,4.5c0,0,0,0.1,0,0.1c0.3,0.5,0.5,0.9,0.8,1.2c0.2,0.2,0.5,0.3,0.9,0.5
			c0.2,0.1,0.6,0.1,0.8,0.1c2,0,3.9,0,5.9,0l3.3,0c1.5,0,3,0,4.5,0c5,0,9.9,0,14.9,0l2.6,0c1.4,0,2.9,0,4.3,0c0.4,0,0.6,0,0.8-0.1
			c0.2-0.1,0.3-0.1,0.3-0.2l0.1-0.1c0.1-0.1,0.2-0.3,0.2-0.4c0.1-0.2,0.2-0.3,0.2-0.5c0-1.1,0-2.2,0-3.3l0-1.7c0-1.2,0-2.4,0-3.7
			l0.1-10.9c0-1.7,0-3.5,0-5.2c0-2.5,0-5,0-7.5c0-0.5,0-1,0-1.5c0-0.3,0-0.6,0-1c0-0.6,0-1.2,0-1.9c0-0.2,0-0.4,0-0.6
			c0-0.2,0-0.3,0-0.5c0-0.1,0-0.1,0-0.2l-9.2,0c-1.5,0-3,0-4.5,0l-2.2,0l-1.9,0c-1.3,0-2.5,0-3.8,0l-1,0c-0.9,0-1.7,0-2.6,0l-0.9,0
			c-0.9,0-1.9,0-2.8,0l-6.3,0c-1.2,0-2.3,0-3.5,0c-0.3,0-0.6,0-0.8,0l0,0.1L255.4,65.5z M255.4,42.7c1,0,2,0,3,0l2.1,0
			c0.6,0,1.2,0,1.8,0c4,0,8,0,12,0h6.2c4.8,0,9.7,0,14.5,0c0-0.4,0-0.7,0-1.1c0-1.1,0.1-1.9,0.3-2.7c0-0.1,0-0.1,0-0.2
			c0.1-0.2,0.1-0.5,0.3-0.9c0.2-0.3,0.3-0.6,0.6-0.9c-1.2,0-2.3,0-3.5,0c-0.8,0-1.6,0-2.4,0c-3.5,0-6.9,0-10.4,0l-6.7,0v0
			c-1.2,0-2.4,0-3.7,0c-1.7,0-3.4,0-5.1,0c-1.3,0-2.7,0-4,0l-3.9,0c-0.5,0-0.9,0-1.4,0c0,0.1,0,0.2,0,0.4c0,1,0.1,2.1,0.1,3.1
			C255.4,41.1,255.4,41.9,255.4,42.7z"/>
	</g>
	<g>
		<path class="st0" d="M280.5,61.2c-0.2,0-0.3,0-0.5,0c-0.2,0-0.3-0.1-0.3-0.1l-0.6-0.4l0.5-0.5c0.1-0.1,0.3-0.2,0.5-0.2
			c0.2,0,0.5-0.1,0.8-0.1c0.2,0,0.4,0,0.6,0l0.5,0l0.2,0c0.1,0,0.3,0,0.4,0l0.7,0c0.9,0,1.8,0,2.7-0.1c0.1,0,0.3,0,0.5,0.1
			c0.2,0.1,0.5,0.3,0.5,0.6c0,0.2-0.2,0.5-0.4,0.6c-0.1,0-0.3,0.1-0.4,0.1c-0.9,0-1.7,0.1-2.6,0.1c-0.7,0-1.4,0-2.1,0.1l-0.8,0
			C280.6,61.2,280.5,61.2,280.5,61.2z"/>
	</g>
	<g>
		<path class="st0" d="M280.5,66.9c-0.2,0-0.3,0-0.5-0.1c-0.3-0.1-0.5-0.3-0.5-0.6c0-0.3,0.2-0.5,0.4-0.6c0.2-0.1,0.3-0.1,0.4-0.1
			c1.9,0,3.8,0,5.7,0c0.1,0,0.3,0,0.4,0c0.1,0,0.1,0,0.2,0l0.5,0v1l-0.4,0.1c-0.1,0-0.2,0.1-0.4,0.1c-1.2,0-2.3,0-3.5,0l-0.9,0
			C281.4,66.9,280.9,66.9,280.5,66.9z"/>
	</g>
	<g>
		<path class="st0" d="M280.4,55.3c-0.2,0-0.3,0-0.5,0c-0.1,0-0.2-0.1-0.2-0.1l-0.4-0.1l0-0.9l0.5-0.1c0.1,0,0.3-0.1,0.4-0.1
			c0.6,0,1.2,0,1.8,0l1.2,0c0.9,0,1.9,0,2.8,0c0.1,0,0.2,0,0.3,0l0.6,0.1v0.8l-0.3,0.2c-0.2,0.1-0.3,0.1-0.4,0.1c-0.3,0-0.7,0-1,0
			L280.4,55.3C280.4,55.3,280.4,55.3,280.4,55.3z"/>
	</g>
	<g>
		<path class="st0" d="M280.8,49.4c-0.1,0-0.3,0-0.4,0l-0.1,0c-0.2,0-0.3-0.1-0.4-0.2l-0.6-0.4l0.5-0.4c0.1-0.1,0.2-0.2,0.5-0.2
			c0.1,0,0.3,0,0.5,0l4.2,0l0.4,0c0.2,0,0.4,0,0.6,0h0c0.1,0,0.2,0,0.3,0l0.4,0.1l0,0.9l-0.5,0.2c-0.1,0-0.2,0-0.3,0.1
			c-0.3,0-0.5,0-0.8,0l-0.4,0c-0.9,0-1.8,0-2.7,0L280.8,49.4C280.8,49.4,280.8,49.4,280.8,49.4z M280.4,49.2
			C280.4,49.2,280.4,49.2,280.4,49.2C280.4,49.2,280.4,49.2,280.4,49.2z"/>
	</g>
	<g>
		<path class="st0" d="M280.2,72.8c-0.1,0-0.2,0-0.3,0l-0.4-0.1l-0.1-0.4c0-0.1,0-0.1,0-0.2v-0.4l0.4-0.1l0.1,0.5l-0.1-0.5
			c0.1,0,0.2-0.1,0.4-0.1c0.6,0,1.1,0,1.7,0l4.1,0c0.1,0,0.2,0,0.3,0l0.4,0l0.1,0.4l0.1,0.5l-0.5,0.2c-0.1,0-0.2,0.1-0.4,0.1
			c-0.8,0-1.6,0-2.4,0.1L280.2,72.8z M279.9,72.2L279.9,72.2L279.9,72.2z"/>
	</g>
	<g>
		<path class="st0" d="M285.6,58.3c-0.2,0-0.3,0-0.5,0l-1,0c-0.4,0-0.7,0-1.1,0c-0.2,0-0.3-0.1-0.4-0.1l-1.2-0.4l1.1-0.5
			c0.1-0.1,0.3-0.2,0.5-0.2c0.4,0,0.7-0.1,1.1-0.1c0.6,0,1.2,0,1.7,0l0.3,0c0.1,0,0.4,0,0.5,0.2c0.1,0.1,0.2,0.2,0.2,0.5
			c0,0.1-0.1,0.6-0.7,0.6c0,0,0,0,0,0C285.9,58.3,285.8,58.3,285.6,58.3z"/>
	</g>
	<g>
		<path class="st0" d="M285.8,52.1C285.8,52.1,285.8,52.1,285.8,52.1l-3.1,0c-0.2,0-0.3,0-0.4-0.1c0,0-0.1,0-0.1-0.1l-0.7-0.4
			l0.6-0.5c0.1-0.1,0.2-0.2,0.4-0.2c0.2,0,0.5-0.1,0.7-0.1c0.6,0,1.1,0,1.7,0l0.8,0c0.7,0,0.7,0.6,0.7,0.7c0,0.2-0.1,0.4-0.2,0.5
			C286.2,52.1,286,52.1,285.8,52.1z M282.7,51.1C282.7,51.1,282.7,51.1,282.7,51.1L282.7,51.1z"/>
	</g>
	<g>
		<path class="st0" d="M286.3,64l-3.1,0c-0.1,0-0.2,0-0.3-0.1l-0.1,0l-0.1-0.1l-0.6-0.3l0.6-0.4c0-0.1,0.1-0.2,0.3-0.2
			c0.2,0,0.5-0.1,0.8-0.1c0.6,0,1.1,0,1.7,0l0.9,0c0.1,0,0.3,0,0.5,0.2c0.1,0.1,0.2,0.3,0.2,0.5C287,63.6,286.8,64,286.3,64z"/>
	</g>
	<g>
		<path class="st0" d="M283.2,70c-0.2,0-0.5-0.1-0.7-0.3l-0.1-0.2l0-0.2c0-0.1,0.1-0.5,0.7-0.6c0.4,0,0.7,0,1,0l0.7,0
			c0.4,0,0.8,0,1.2,0c0,0,0,0,0,0c0.2,0,0.3,0.1,0.4,0.1l1.1,0.4l-1,0.5c-0.1,0.1-0.3,0.2-0.5,0.2C285,69.9,284.1,70,283.2,70z"/>
	</g>
	<g>
		<polygon class="st1" points="352.5,59 399.9,59 399.9,61.9 407.7,57.4 399.9,52.9 399.9,55.7 352.5,55.7 		"/>
	</g>
	<g>
		<polygon class="st1" points="145.3,59 192.7,59 192.7,61.9 200.5,57.4 192.7,52.9 192.7,55.7 145.3,55.7 		"/>
	</g>
	<g>
		<g>
			<path class="st1" d="M675,42.4c0.4,4.8,1.2,6.1,3.6,6.2c1.6,0,2.9-0.7,3.4-2.1c0.4-1.2,0.4-2.6,0.6-4h14.2c0,0.9,0,1.8,0,2.7
				c0.1,1.8,1.4,3.3,3.2,3.5c1.8,0.2,3.6-1,4-2.8c0.2-1.1,0.2-2.2,0.3-3.4c1.9,0,3.8-0.2,5.6,0c2.4,0.3,3.9,2.1,3.9,4.5
				c0,10.4,0,20.7,0,31.1c0,2.7-2,4.5-4.8,4.5c-13,0-25.9,0-38.8,0c-2.9,0-4.8-1.8-4.8-4.6c0-10.3,0-20.6,0-30.9
				c0-2.5,1.7-4.3,4.1-4.5C671.2,42.3,673.1,42.4,675,42.4L675,42.4z M709.9,51.4h-40.8v27h40.8V51.4z"/>
		</g>
		<g>
			<path class="st1" d="M676.3,41.2c0-1.3,0-2.7,0-4c0.1-1.5,0.6-1.9,2.4-1.9c1.7,0,2.3,0.5,2.3,1.9c0,2.7,0,5.4,0,8.2
				c0,1.5-1,1.8-2.3,1.8c-1.3,0-2.4-0.1-2.5-1.7C676.3,44,676.3,42.6,676.3,41.2L676.3,41.2z"/>
		</g>
		<g>
			<path class="st1" d="M698,41.2c0-1.4,0-2.8,0-4.2c0-1.5,1-1.8,2.3-1.8c1.3,0,2.4,0.2,2.5,1.7c0,2.8,0,5.5,0,8.3
				c0,1.4-0.7,1.8-2.4,1.8c-1.3,0-2.3-0.3-2.3-1.8C697.9,44,698,42.6,698,41.2z"/>
		</g>
		<g>
			<path class="st1" d="M679.1,69.7l2-0.3c0.2,1.1,0.6,1.8,1.1,2.3c0.5,0.5,1.2,0.7,2,0.7c0.9,0,1.7-0.3,2.3-0.9s0.9-1.4,0.9-2.3
				c0-0.9-0.3-1.6-0.9-2.1c-0.6-0.6-1.3-0.8-2.2-0.8c-0.4,0-0.8,0.1-1.4,0.2l0.2-1.6c0.1,0,0.2,0,0.3,0c0.8,0,1.6-0.2,2.3-0.6
				c0.7-0.4,1-1.1,1-1.9c0-0.7-0.2-1.3-0.7-1.7c-0.5-0.5-1.1-0.7-1.9-0.7c-0.8,0-1.4,0.2-1.9,0.7c-0.5,0.5-0.8,1.2-1,2.1l-2-0.3
				c0.2-1.3,0.8-2.2,1.6-2.9c0.8-0.7,1.9-1,3.2-1c0.9,0,1.7,0.2,2.4,0.5c0.7,0.4,1.3,0.8,1.7,1.5c0.4,0.6,0.6,1.3,0.6,2
				c0,0.7-0.2,1.3-0.6,1.8c-0.4,0.5-0.9,1-1.6,1.3c0.9,0.2,1.7,0.6,2.2,1.3c0.5,0.7,0.8,1.5,0.8,2.5c0,1.3-0.5,2.5-1.5,3.4
				c-1,0.9-2.3,1.4-3.8,1.4c-1.4,0-2.6-0.4-3.5-1.2C679.7,72,679.2,70.9,679.1,69.7L679.1,69.7z M691.4,66.2c0-1.8,0.2-3.3,0.6-4.4
				c0.4-1.1,1-2,1.7-2.6c0.8-0.6,1.7-0.9,2.9-0.9c0.9,0,1.6,0.2,2.2,0.5c0.6,0.3,1.2,0.8,1.6,1.4c0.4,0.6,0.7,1.4,1,2.3
				c0.2,0.9,0.4,2.1,0.4,3.6c0,1.8-0.2,3.3-0.6,4.4c-0.4,1.1-1,2-1.7,2.6c-0.8,0.6-1.7,0.9-2.9,0.9c-1.5,0-2.7-0.5-3.6-1.6
				C691.9,71.1,691.4,69,691.4,66.2L691.4,66.2z M693.4,66.2c0,2.5,0.3,4.2,0.9,5c0.6,0.8,1.4,1.2,2.3,1.2c0.9,0,1.7-0.4,2.3-1.2
				c0.6-0.8,0.9-2.5,0.9-5c0-2.5-0.3-4.2-0.9-5c-0.6-0.8-1.4-1.2-2.3-1.2c-0.9,0-1.6,0.4-2.2,1.1C693.7,61.9,693.4,63.7,693.4,66.2z
				"/>
		</g>
	</g>
</g>
</svg>
