<?xml version="1.0" encoding="utf-8"?>
<!-- Generator: Adobe Illustrator 23.0.2, SVG Export Plug-In . SVG Version: 6.00 Build 0)  -->
<svg version="1.1" id="Layer_1" xmlns="http://www.w3.org/2000/svg" xmlns:xlink="http://www.w3.org/1999/xlink" x="0px" y="0px"
	 viewBox="0 0 383.9 384" style="enable-background:new 0 0 383.9 384;" xml:space="preserve">
<style type="text/css">
	.st0{fill:#010101;}
</style>
<g>
	<g>
		<path class="st0" d="M179.1,0c10,0,20,0,30,0c3.6,0.5,7.2,1.1,10.8,1.7c43.6,6.8,81.2,25.2,111.6,57.7
			c27.3,29.3,44.4,63.5,50.3,103.1c0.6,4.3,1.4,8.7,2.1,13c0,10.3,0,20.5,0,30.8c-0.3,0.6-0.7,1.2-0.8,1.8c-1.1,7-1.7,14.1-3.2,21.1
			c-17.8,86-91.7,144.7-173.4,151c-36.4,2.8-70.7-4.6-103.1-21.4c-1.3-0.7-3.1-0.9-4.5-0.5c-21.1,5.4-42.2,10.9-63.3,16.4
			c-11.8,3.1-23.5,6.1-35.7,9.3c0.4-1.6,0.6-2.8,1-3.9c8.4-30.6,16.9-61.3,25.2-91.9c0.4-1.6,0.2-3.7-0.6-5.1
			c-12.3-22.5-20.1-46.4-22.8-71.9c-3.5-32.7,0.2-64.5,13.5-94.5C45.3,51.1,96.5,14.1,166.5,2.1C170.7,1.4,174.9,0.7,179.1,0z
			 M46,337.9c1.5-0.3,2.4-0.4,3.2-0.6c17.7-4.6,35.5-9.2,53.2-13.9c2.6-0.7,4.6-0.3,6.9,1.1c36.5,21.9,75.6,29.1,117.3,19.8
			c83.7-18.5,141.1-99.4,121.4-189.1c-16.7-76.3-91.5-135-179.1-121.9c-46.6,7-83.1,30.8-108.9,70.2C38,137.2,29.8,174.3,35.8,214.3
			c3.4,22.8,12,43.6,24.5,62.9c0.9,1.4,1.3,3.7,0.9,5.4c-1.6,6.8-3.7,13.5-5.5,20.2C52.5,314.3,49.4,325.8,46,337.9z"/>
		<path class="st0" d="M243.1,281.6c-10.9-0.3-20.6-4.2-30.6-7.4c-34.1-11.2-60.9-32.4-83.2-59.9c-10.1-12.5-20.4-24.9-27.1-39.7
			c-10.9-23.8-8.7-45.7,8.9-65.7c3.9-4.4,8.5-6.9,14.3-7c3.9-0.1,7.9-0.5,11.5,0.4c2.5,0.7,5.2,3,6.5,5.3c2.6,4.6,4.4,9.8,6.5,14.7
			c3.2,7.7,6.3,15.4,9.7,23c1.7,3.8,1.7,7.3-0.8,10.6c-3.5,4.8-7.1,9.6-10.9,14.2c-3.9,4.9-4.1,6.3-0.9,11.6
			c15.3,25.4,36.4,44.1,64,55.2c5.7,2.3,7.7,1.9,11.7-3c4.5-5.5,9-11,13.4-16.6c3.1-3.9,4.9-4.9,9.6-3c7.8,3.2,15.4,7,23.2,10.4
			c5,2.2,10.2,4.2,15.3,6.2c4.5,1.7,5.6,4.9,5.5,9.4c-0.4,20.1-11.9,31.5-29.6,37.9C254.8,280.1,248.9,280.5,243.1,281.6z"/>
	</g>
</g>
</svg>
