<?xml version="1.0" encoding="utf-8"?>
<!-- Generator: Adobe Illustrator 21.0.2, SVG Export Plug-In . SVG Version: 6.00 Build 0)  -->
<svg version="1.1" id="Layer_1" xmlns="http://www.w3.org/2000/svg" xmlns:xlink="http://www.w3.org/1999/xlink" x="0px" y="0px"
	 viewBox="0 0 777.6 1321.6" style="enable-background:new 0 0 777.6 1321.6;" xml:space="preserve">
<style type="text/css">
	.st0{fill:#B96845;}
	.st1{fill:#C88C68;}
	.st2{fill:#08080A;}
	.st3{fill:#26201E;}
	.st4{fill:none;stroke:#282626;stroke-width:10;stroke-miterlimit:10;}
	.st5{fill:#14BAED;}
	.st6{fill:#EA331B;}
	.st7{fill:none;stroke:#E2E6EE;stroke-width:7;stroke-miterlimit:10;}
	.st8{fill:#DDE3E8;}
	.st9{fill:#B8BBBC;}
	.st10{fill:#AE7D72;}
	.st11{fill:#D89879;}
	.st12{fill:#794D3C;}
	.st13{fill:#865749;}
	.st14{fill:#855849;}
	.st15{fill:#DDB8AD;}
	.st16{fill:#DCC6C3;}
	.st17{fill:#C88C68;stroke:#724B37;stroke-miterlimit:10;}
	.st18{fill:none;stroke:#7A3E29;stroke-miterlimit:10;}
	.st19{fill:none;stroke:#B5AFB5;stroke-width:4;stroke-miterlimit:10;}
	.st20{fill:none;stroke:#A4A0A8;stroke-width:4;stroke-miterlimit:10;}
	.st21{fill:none;stroke:#A15B3F;stroke-miterlimit:10;}
	.st22{fill:#D5B4B0;}
	.st23{fill:none;stroke:#88462D;stroke-miterlimit:10;}
	.st24{fill:none;stroke:#86452C;stroke-miterlimit:10;}
	.st25{fill:none;stroke:#A25B3D;stroke-miterlimit:10;}
	.st26{fill:none;stroke:#894B2F;stroke-miterlimit:10;}
	.st27{fill:none;stroke:#8A4A2E;stroke-miterlimit:10;}
	.st28{fill:none;stroke:#874F2E;stroke-miterlimit:10;}
	.st29{fill:#E2E3E5;}
	.st30{fill:#E7ECF0;}
	.st31{fill:none;stroke:#915132;stroke-miterlimit:10;}
	.st32{fill:none;stroke:#C88C68;stroke-width:3;stroke-miterlimit:10;}
</style>
<path class="st0" d="M539.7,440.7c-11.6,0.8-23.6,3.9-32.2,11.8c-11.2,10.3-14.4,26.4-21.3,39.9c-12.6,24.6-37.2,40.2-59.3,56.8
	c-12.8,9.6-25.1,19.9-36.8,30.9c-8.6,8.1-17.5,17.8-17.7,29.6c0,2,0.2,4,1.3,5.6c2,3,6.1,3.7,9.6,4c41.6,3.2,82.3-10.7,121.7-24.5
	c16.7-5.9,33.5-11.7,50.2-17.6c4.2-1.5,9.2-4.1,8.9-8.6c-0.1-1.6-1-3-1.8-4.4c-11.9-20-20.5-41.9-25.4-64.6
	c-2.4-11.3-3.9-23.3,0.3-34.1c3-7.8,8.5-17.7,2.2-23.3c-2.6-2.4-8.6-0.3-6.9,2.8"/>
<path class="st1" d="M199.1,239.9c-6.9,4.4-8.8,13.5-9.7,21.7c-4.2,38.4,0.9,77.7,14.6,113.8c4.9,13,11,25.7,14.9,39
	c3.7,12.6,5.4,25.6,8.2,38.4c7.6,35,22.7,67.8,37.6,100.3c6.7,14.5,13.5,29.2,23.5,41.6s23.8,22.6,39.6,24.9
	c11.4,1.7,23-0.7,34.1-3.7c40-11,77.6-30.7,109.4-57.5c5.7-4.8,11.3-9.9,15.9-15.9c8.9-11.5,13.6-25.6,17.5-39.6
	c2.9-10.3,5.5-20.8,10.9-30c5.4-9.2,14.2-17.1,24.7-18.6c4-0.5,8-0.2,12-0.7c12.9-1.8,22.4-12.7,29.6-23.5
	c19.5-29.2,30.8-68.5,13.4-99c-8.9-15.6-24.2-26.7-40.4-34.3c-16.2-7.6-33.7-12.3-50.7-18.1c-46.1-15.9-88.7-40.7-134.7-56.8
	s-98.4-22.7-142.5-1.9c-10.7,5-20.7,11.6-29.6,19.5"/>
<path class="st2" d="M277.3,41.5c-6,3.5-12.1,7-17.3,11.6c-4.6,4.1-8.3,8.9-12.1,13.7c-21.6,27.6-43.4,55.7-56,88.3
	c-3.7,9.5-6.5,19.4-10.3,28.9c-3.9,9.9-8.7,19.5-11.6,29.7c-3.3,11.4-4.1,23.3-4.7,35.2c-1.3,24.5-1.7,49.3,3.8,73.1
	c5.5,23.9,17.7,47,37.4,61.4c-6.5-43.3-5.7-87.6,2.4-130.6c0.2,23.2,10.3,45,20.1,66.1c6.8,14.5,13.6,29,23.5,41.6
	c21.2,26.8,56.4,41.9,90.5,38.7c-11.9-5.5-23.4-11.6-34.6-18.4c-11.5-7-22.6-14.7-31.4-24.8c-6.4-7.4-11.4-15.8-15.6-24.6
	c-13.5-27.8-19.5-59.2-17.4-90.1c12.3,54.3,47.3,103,94.7,132c-18.1-29.2-28.1-63.4-28.4-97.7c0.2,24.3,25.2,47.8,36.7,66.6
	c13.9,22.5,26.4-24.1,54.1,48.1c9.5,24.9,44.8-27.1,67,62.1c0.8,3.2,23.9-12.6,27.1-11.7c6.4,1.8,3.5-14.6,9.7-12.2
	c20.7,8.3,28.3-26.9,69.5-87c1.7-2.5,5.1,4.6,8.2,4.4c5.8-0.3,3.2-1.8,8,4.8c3.4,4.7,7.6,8.8,7.4,14.7c-0.5,21.9-1.9,45.9-16.9,61.8
	c-13.2,14-28.2,12.9-41,27.4c-13.3,15-5.5,35.1-2.8,47.7c26.4-26,48.3-56.6,64.3-90.1c19.4-40.5,30.1-84.5,38.3-128.6
	c6.9-37.4,12-76.3,2.2-113c-3.6-13.6-9.2-26.6-15.5-39.2c-12.4-24.9-27.8-49-49.4-66.6c-17.8-14.5-39.1-23.9-60.1-33.1
	C482.9,16.4,447.4,1,409.7,0c-13.2-0.3-26.4,1.1-39.3,3.6C336.2,10.2,307.1,24.3,277.3,41.5z"/>
<path class="st3" d="M422.7,32.4c-2-0.2-4-0.5-6-0.7c4.8,8.7,9.6,17.4,12.9,26.8c9.1,25.8,6.3,55.2,18.9,79.4
	c4.9-11.8,9.9-23.8,12-36.4s1.1-26.2-5.4-37.3c-3.8-6.6-9.5-12.1-12.3-19.2c-1.3-3.2-2-6.7-4.4-9.2c-2.7-2.8-7-3.5-10.9-4
	c-2.6-0.3-5.2-0.7-7.8-1c-0.9-0.1-2.1-0.1-2.5,0.8c-0.4,0.9,1.6,1.4,1.3,0.5"/>
<path class="st3" d="M314.4,38.2c1,0,0.7-1.8-0.3-2s-1.8,0.7-2.4,1.5c-8.5,10.8-11.2,25.3-10.1,38.9s5.4,26.9,9.7,39.9
	c4.1,12.3,8.2,24.6,12.3,36.9c6.9-10.5,0.7-24.2-3.3-36.1c-8.6-25.3-6.6-53-1.6-79.3c-3.3,0.3-6.1,3.4-6.1,6.7"/>
<path class="st4" d="M381.1,318c-7.5-9.7,1.5-26.6,13.8-25.8c5.3,0.4,10,3.3,15.3,3.9c8.8,1,17.7-6,19-14.7
	c0.6-4.4-0.4-8.9-0.1-13.3s2.8-9.3,7.2-10c7-1.2,13.2,9,19.7,6.1c4.3-2.5,2.7-9.3-0.5-13.2c-3.2-3.9-7.6-7.7-7.3-12.7
	c0.1-2.7,1.6-5.1,3.2-7.3c5.2-7.4,14.5-14.7,22.3-10.1c2.5,1.5,4.3,4,6.8,5.5c7.6,4.4,16.8-2.8,21-10.4c4.3-7.6,7.4-16.9,15.4-20.6
	c9-4.1,19.3,1.2,27.7,6.3c25.7,15.7,51.5,31.3,77.2,47c1.3,0.8,2.9,2,2.7,3.6c-0.2,1.6-3.3,1.4-2.7,0"/>
<path class="st0" d="M580,336.2c-6.4-1.8-12.9,2.1-17.9,6.5c-10.5,9.5-18.2,22.1-21.8,35.7c-2.3,8.9-3.1,18.6-8.6,26
	c-8.5,11.4-25.4,13.7-34.2,24.9c-1.4,1.8-2.6,4-2.3,6.2c0.5,3.3,4,5.2,7.1,6.6c16.4,7.2,35.3,14.3,51.6,7.1
	c6.6-2.9,12-7.9,17.3-12.8c7.9-7.3,16.1-15.1,19.7-25.2c2.8-7.8,2.6-16.4,4.8-24.5c1-3.8,2.6-7.5,3.5-11.4
	c4.1-17.5-7.4-37.1-24.6-42.2c-1.3,1.8-1.8,4-1.4,6.2"/>
<path class="st5" d="M254.9,593.9c16.9,9.2,32.8,20.2,47.4,32.6c11.1,9.4,21.8,20,35.5,24.7c13.1,4.5,27.3,3.3,41,1.5
	c58.7-7.9,116-26.2,168.4-53.8c13-6.9,26.1-14.4,40.7-16.4c24.4-3.4,47.8,9.1,69.2,21.1c35.4,19.9,72.3,41.2,93.8,75.6
	c19.3,30.8,23.9,68.7,23.5,105s-5.4,72.7-3.1,109c1.3,20,4.7,39.8,6.1,59.7c0.3,4.3,0.4,8.9-1.9,12.4c-2.7,4.1-7.8,5.7-12.5,7.1
	c-58.6,16.8-103.7,35.9-162.2,52.6c5.9,22.9,71.6,276.9,54,292.7c-14.4,12.9-139.2-12.5-153.5,0.5c-7.2,6.6-146.9-30.8-154.8-24.9
	c-8.7,6.5-52.5-0.2-63.4,0c-110,2.3-17.4-0.9-127.5,0c-1.3-49.2-11-243.6-12.3-292.8c-0.5-18.5-1-37.4-7-55
	c-3.9-11.7-10.1-22.5-14.5-34.1c-11.2-29.8-9.1-63.3-0.4-94c8.8-30.6,23.9-59,38.9-87.1c19.2-35.9,38.4-71.8,57.5-107.8
	c5.2-9.8,10.8-20,20.1-25.9s23.5-5.9,29.9,3.2"/>
<path class="st6" d="M376.3,613.3c-1.1,0.6,0.1,2.2,1.2,2.7c14.4,6.4,31.1,2.9,46.4-0.8c16.3-3.9,32.6-7.8,48.7-12.5
	c27-7.9,53.4-17.9,79.4-28.5c4.9-2,9.8-4,15.1-4.5c6.9-0.6,13.8,1.4,20.4,3.5c9,2.8,18.3,5.7,25.8,11.5
	c-30.8,8.8-59.7,22.9-89.5,34.5c-46.5,18.1-95.5,29.9-145.1,35.2c-19.8,2.1-41.2,2.7-57.9-8c-7.5-4.8-13.6-11.6-19.9-18
	c-12.1-12.2-25.5-23-40-32.3c-1.9-1.2-3.9-2.5-5-4.4c-2.1-3.7-0.2-8.6,3.2-11.3c3.3-2.6,7.7-3.5,11.9-4.3c1.5-0.3,3.1-0.6,4.6-0.3
	c4.8,1,4.6,7.8,7.6,11.7c5.7,7.3,22.4,19.2,32.8,22.3c12.4,3.6,23.5,10,37.2,7.3c8.9-1.7,13.3-8.2,26.8-1.3"/>
<path class="st7" d="M310.5,552.6c0-24.4-121.8-100.3-160.9-100.3"/>
<path class="st8" d="M310.5,552.6c-39.1,0-160.9-75.9-160.9-100.3c0,0-108.9,239-103.4,255.5s91.1,52.7,93.8,54.1
	C142.8,763.2,306.4,578.2,310.5,552.6z"/>
<path class="st9" d="M95.8,573.8L46.2,707.7l93.8,54.1l143.2-174.2c0,0-63.7,4.3-85.9,4.3s-52.4,3.6-71-5
	C107.6,578.4,95.8,573.8,95.8,573.8z"/>
<path class="st1" d="M116.1,511.8c-4.3,16.8-9.2,33.4-15,49.8c-3.3-2.7-6.6-5.3-9.9-8c1.4-7.3,0.5-14.8,0.5-22.3
	c0-7.4,1.1-15.3,5.7-21.2c1.2-1.5,2.6-2.8,4.2-3.7c3.9-2.1,8.7-1.5,13.1-0.9c1.6,2.7,1.2,6.4-0.8,8.8"/>
<path class="st10" d="M79,603.5c-0.5,0.6-1,1.2-1.5,1.9c1.5-3.3,3-6.6,4.4-9.8c7.5,0.9,15.3-2.1,20.3-7.8c2.6-3,4.5-6.5,6.3-10.1
	c0.8-1.6,1.6-3.2,1.8-4.9c0.4-3.3-1.4-6.4-3.6-8.9c-5.3-5.9-13.5-9-21.4-8.9c-8,0.1-15.7,3.3-22,8.2c-3.3,2.6-6.4,5.8-7.8,9.8
	c-2.8,7.9,1.1,17.2-2.6,24.7c6.3,0,13,0,18.4,3.2c2.8,1.6,5.2,4.1,8.3,5.1"/>
<path class="st1" d="M58.1,596.4c0.9-0.2,1.9-0.3,2.8-0.5c-5.9-4-14.3-2-19.5,2.9c-5.2,4.9-7.7,11.9-9.4,18.8
	c-2.2,9-3.3,18.3-3.2,27.6c10.8-1,22,4.3,28,13.3c1.8-6.4,3.6-12.9,5.4-19.3c1.4,3.2,3.7,5.9,6.5,8c5.5,3.9,13,4.9,19.2,2.1
	c6.1-2.8,10.5-9.3,10.4-16c-0.1-5.2-2.5-10.1-5.2-14.6c-3.7-6.3-8.1-12.6-14.5-16.3c-3.2-1.9-6.8-3-10.3-4.1c-3.3-1-6.7-2.1-10-3.1"
	/>
<path class="st1" d="M43.1,768.8c-5.9,21.5-9.8,43.6-11.7,65.8c-1.3,15.3-1.6,30.7-4.2,45.9c-4.7,27-16.6,52.6-19.2,79.8
	c-1.1,10.8-0.6,21.7-0.2,32.6c0.8,20,1.6,40.2,5.6,59.8c4.1,19.6,11.6,38.9,24.5,54.2c10.3,12.2,26.3,22.1,41.6,17.8
	c5.4-1.5,10.2-4.7,14.6-8.1c18.7-14.4,32.9-34.7,40-57.2c1.8-5.6,3.2-11.4,5.8-16.7c4.8-9.7,13.8-17.6,15.5-28.3
	c2.6-16.1-12.1-29.2-18.6-44.2c-3.5-8-4.7-16.8-5.9-25.5c-5-37.4-10-75.8-0.7-112.3c3.8-15.1,10-29.4,15.3-44
	c0.8-2.2,1.6-4.7,0.5-6.8c-0.9-1.9-3-2.8-4.9-3.6c-15.5-6.3-31.3-12.7-48-13.4c-17.6-0.8-35.3,4.6-52.6,1.5
	c-1.1-1.9-2.1-3.8-3.2-5.6"/>
<path class="st11" d="M44.3,707.4c0.4-6.1,0.8-12.3,1.2-18.4c5.8,3.2,12.6,5.3,19.1,4.1c6.5-1.2,12.6-6.5,13-13.1
	c0.3-4.8-2.1-9.3-5-13.1c-9.2-12-23.4-19.6-38.3-22c-9.3-1.5-19.9-0.6-26.3,6.3c-3.2,3.4-4.9,7.9-6.1,12.5c-1.3,4.8-2,9.7-1.8,14.7
	c0.4,11.5,5.6,22.1,10,32.7c7.5,17.7,13.3,36,17.3,54.7c1.7,8,3.3,16.4,8.7,22.5c8.4,9.5,22.7,10.2,35.4,10.1
	c17.9-0.1,35.8-0.1,53.8-0.2c5.4,0,11.2-0.2,15.2-3.8c2.2-2,3.6-4.8,5.3-7.2c5.5-7.6,14.7-11.3,22.1-16.9
	c14.1-10.6,21.6-27.6,33.6-40.6c17.8-19.1,45.6-29.6,56.4-53.3c4.1-8.9,5.2-18.8,5.9-28.6c0.2-3.4,0.4-6.9-1-10.1
	c-1.4-3.1-4.8-5.6-8.1-4.8c-1.8,0.4-3.3,1.8-4.6,3.1c-21.9,21.1-36.1,48.9-55,72.8c-12.5,15.9-27.1,30.1-41.6,44.3
	c-4.2,4.1-9.1,8.5-15.1,8.6c-5.2,0-9.7-3.4-13.8-6.5c-19-14.2-39.8-25.8-61.8-34.5c-7.8-3.1-16.6-6.7-19.2-14.7
	c-0.7-2.1,1.1-5.5,2.7-4"/>
<path class="st12" d="M14.5,698.5c3.9-0.9,7.8-1.8,11.8-1.6c2.8,0.1,5.5,0.6,8.3,0.6c5-0.2,9.9-2.6,13.1-6.6
	c0.7,0.8,0.5,2.2-0.3,2.9"/>
<path class="st13" d="M23,676.8c-0.7-0.2-1.5-0.4-2.2-0.6C27,675.3,33,679,37.9,683c4.9,4,9.7,8.6,15.8,10.4
	c0.2-0.8,0.3-1.5,0.5-2.3"/>
<path class="st13" d="M39.3,632c0.9-1.9,0.3-4.4-1.4-5.6c0.5,3.6,4,6.1,7.6,6.8c3.6,0.7,7.2,0,10.8-0.5c0.7-0.1,1.5-0.2,2.1,0.2
	c0.6,0.4,1,1.1,1.3,1.7c2.8,5.7,8.2,10,14.4,11.6c0.5-0.1,0.4-1.1-0.1-1"/>
<path class="st14" d="M67.5,595.6c-0.6,0.1-1.2,0.2-1.8,0.4c7.4-2,15.1-2.6,22.7-1.8c0.6,0.1,1.3,0.1,1.7-0.4c0.4-0.5-0.2-1.4-0.7-1
	"/>
<path class="st15" d="M61.8,663.6c-5.3,0.8-9.9,4.9-11.4,10.1c-0.2,0.7-0.4,1.6-0.1,2.3c0.6,1.6,2.8,1.8,4.3,2.7
	c2.2,1.3,2.9,4,4.3,6.1c1.4,2.1,4.6,3.7,6.2,1.8c0.6-0.7,0.8-1.6,1.1-2.5c0.7-2,2.2-3.8,4-4.8c1.2-0.7,2.7-1.2,3.5-2.4
	c1.1-1.9-0.3-4.2-1.6-5.9c-1.6-2.2-3.3-4.4-5.6-6c-2.2-1.6-5.1-2.4-7.7-1.6c0.4,0.6,0.9,1.2,1.3,1.8"/>
<path class="st16" d="M82.5,614.3c-3.9-2.5-9.1,0.1-12,3.7c-0.9,1.1-1.7,2.3-2,3.7c-0.7,3.2,1.2,6.3,3.3,8.7s4.7,4.8,5.5,7.9
	c4.3-6.9,15.7-5.6,20.9-11.9c-3.2-2.6-5.9-5.7-8.1-9.1c-1.1-1.7-2.1-3.5-3.7-4.6c-2.7-1.9-6.3-1.5-9.5-1.1c-0.3,2.8,0,5.7,0.8,8.4"
	/>
<path class="st16" d="M99,561.9c0-0.9-0.1-1.8-0.1-2.7c-7.9-2.4-17.2,1-21.8,7.9c3.8,3.3,7.5,6.6,11.3,9.9c1.4,1.2,3.2,2.6,5,2
	c0.7-4.2,2.3-9.4,6.5-10c1.5-0.2,3,0.2,4.5,0.1c1.5-0.1,3.2-1.3,3-2.8c-0.1-0.8-0.8-1.5-1.4-2c-1.9-1.8-3.9-3.5-5.8-5.3
	c-1.4-1.3-3.1-2.7-5-2.7c-3,0-5.7,3.1-8.5,2.1c0.6,2.3,1.1,4.7,1.7,7"/>
<path class="st17" d="M590,1076.4c-2-1.6-2.1,4,0.4,3.5c2.5-0.6,3.1-3.8,3.1-6.4c0.2-27,0.5-54,0.7-81.1
	c38.9-12,77.8-23.9,116.6-35.9c6.5-2,13.5-4,19.9-1.8c13.2,4.6,14.7,22.4,13.7,36.4c-2,30.1-4.1,60.3-6.1,90.4
	c-1.6,23.1-3.1,46.3-8.2,68.8c-9.5,42.3-30.9,81.1-57.1,115.6c-9.6,12.7-21.6,25.8-37.4,27.4c-16.2,1.6-30.7-9.4-43.3-19.8
	c-26.2-21.6-52.5-43.3-75.8-68.1c-59.4-63.3-96.5-143.9-148.1-213.7c-3-4.1-6.3-8.3-11.1-10.1c-10.6-4-20.9,5.6-28.7,13.8
	c-11.2,11.7-23.5,22.2-36.8,31.3c-7,4.8-14.8,9.4-23.3,9.3c-5-0.1-9.7-1.7-14.4-3.4c-59.3-20.8-118.5-41.6-177.8-62.4
	c-3.7-1.3-7.6-2.8-9.7-6.1c-1.5-2.4-1.7-5.5-3.3-7.8c-4.6-7-16-3.2-23.2-7.5c-8-4.8-6.7-17.9,0.3-24.1c7-6.2,17-7.3,26.4-7.8
	c29.8-1.5,59.8,0.5,89.2,5.9c13.6,2.5,27.5,5.8,41.1,3.2c13.9-2.7,25.9-11.3,37.9-18.9c20.8-13.1,43.2-23.6,66.5-31.3
	c21.9-7.2,46.3-11.9,67.6-3.1c15.5,6.4,27.5,19,38.9,31.3c31.9,34.3,63.8,68.6,95.7,102.9c27.5,29.5,56.2,60,93.8,74.6
	c-0.9-2.1-1.7-4.2-2.6-6.3"/>
<path class="st18" d="M592.2,1078.6c-0.9,0.7-1.8-1.2-0.8-1.9c0.9-0.6,2.1-0.1,3.1,0.4c37.4,19.8,66.5,55,78.9,95.5
	c0.8,2.7,3,6,5.5,4.7c-0.8-8.8-3.4-17.4-7.4-25.2"/>
<path class="st19" d="M654.9,688.3c-41.6,63-64.7,138.2-65.5,213.7c-0.6,58.1,11.5,116.6,2.3,174c0.3-4,2.3-7.8,5.4-10.3"/>
<path class="st20" d="M590.4,913.8c13.3-33.4,26.7-66.8,40-100.2c5.6-14.1,11.3-28.2,19.3-41c12.7-20.3,30.8-36.5,48.7-52.5
	c0.2,1.2,0.3,2.4,0.5,3.6"/>
<path class="st21" d="M314.8,871.6c-10.6,4.3-18.3,13.5-25.6,22.4c-4.4,5.4-8.8,10.8-12.4,16.7c-3.1,5.2-5.7,10.9-10.1,15.2
	c-7,6.8-17.1,8.7-26.1,12.5c-10.8,4.6-20.1,12.1-28.6,20.2c-4.5,4.3-8.9,8.8-11.9,14.2c-3,5.4-4.5,11.9-2.9,17.9
	c1.6,6,6.7,11.2,12.9,11.8c6.2,0.6,11.8-3.2,17.4-6c4.9-2.5,10.2-4.2,15.4-5.9c26.6-8.8,53.9-17.7,81.9-16.3c0-0.9-0.7-1.8-1.5-2.1"
	/>
<path class="st22" d="M204.1,975.8c-0.1-0.5-0.9,0.3-0.4,0.6s1-0.1,1.4-0.5c4.6-4.1,9.6-7.8,14.9-10.9c1.8-1,3.7-2,5.7-1.6
	c1.6,0.3,2.9,1.5,4,2.7c2.5,2.5,5,5.1,6.5,8.2c1.6,3.1,2.1,7,0.6,10.2c-0.9,2-2.6,3.6-4.2,5.1c-3.5,3.3-7.1,6.7-10.6,10
	c-1.1,1.1-2.3,2.2-3.8,2.6c-2.5,0.7-5.1-0.7-7.1-2.4c-4.1-3.4-7.3-8-9-13c-0.5-1.3-0.8-2.8-0.7-4.2c0.2-3.7,3.3-6.4,6.2-8.7
	c0.5-0.4,1.1-0.9,1.8-0.8"/>
<path class="st23" d="M257.6,948.9c-0.7,0.4,0.1,1.4,0.7,1.9c1.9,1.4,3.1,3.5,4.2,5.6c3.9,8.1,6,17.1,5.9,26.1
	c0.1-0.8,0.3-1.7,0.4-2.5"/>
<path class="st24" d="M374.5,873.9c6.6,6.9,10,16.4,10.4,25.9c0.4,9.5-2.2,19-6.2,27.6c-2.1,4.5-4.6,9-5.3,14"/>
<path class="st25" d="M71.5,960.8c-0.6,0.4-1.2,0.7-1.8,1.1c9.7-9.5,23.8-14.3,37.3-12.8c11.2,1.2,21.4,6.5,32.2,9.8
	c11.9,3.7,24.5,5,36.9,6.2c9.2,0.9,19.3,1.7,26.9-3.6"/>
<path class="st26" d="M77.2,916.3c2.6,1.3,5.1,2.8,7.6,4.2c5.1,3,10.2,6,15.3,9c2.7,1.6,5.5,3.2,8.4,4.4c5.3,2.2,11,3.2,16.3,5.4
	c6.4,2.6,12.2,7,19,7.8c4.9,0.6,9.9-0.9,14.8-1.2c5-0.4,10.6,0.7,13.4,4.7c0.6,0.9,1.1,1.8,1.9,2.5c0.7,0.6,1.6,0.8,2.4,1.1
	c5.6,1.7,11.5,2.5,17.4,2.5c0.6,0,1.2,0,1.6,0.4s0.2,1.3-0.4,1.3"/>
<path class="st27" d="M135.5,956.6c-0.5-0.5-0.9-1.2-0.9-1.9c3.5,6.2,4.9,13.6,4,20.6c0.8-0.4,1.4-1.4,1.4-2.3"/>
<path class="st28" d="M185.3,965.3c-0.4,0-0.7-0.4-0.6-0.8c2.2,2.8,3.1,6.3,3.5,9.8c0.4,3.5,0.3,7,0.6,10.5c0,0.6,0.8,1.5,1.1,0.9"
	/>
<path class="st27" d="M149.2,933.4c-0.3-0.8-0.5-1.7-0.8-2.5c1.9,5.1,3.1,10.5,3.4,15.9c0.8-0.6,1.1-1.8,0.7-2.7"/>
<path class="st29" d="M181.3,929.5c-1-1.1-2.7-1.4-4.2-1.5c-2.6-0.1-5.2,0.2-7.7,0.9c-2,0.6-4,1.4-5.6,2.9
	c-3.4,3.1-3.9,8.4-2.5,12.8c0.2,0.7,0.5,1.4,1,1.9c0.5,0.5,1.3,0.8,2,1c6.2,1.8,13.4-0.9,17-6.2c1-1.5,1.7-3.1,1.8-4.9
	c0.2-3.6-2.2-6.8-4.5-9.6"/>
<path class="st30" d="M186.9,936.9c-5.9,1-11.6,3.6-16.1,7.5c-1,0.8-1.9,1.8-2.3,3.1c-0.5,1.8,0.6,3.8,2.2,4.9s3.5,1.6,5.3,2
	c5.3,1.2,10.6,2.4,15.8,3.6c1,0.2,2.1,0.5,3.1,0.2c1-0.3,1.9-1,2.7-1.7c1.7-1.5,3.5-3.2,3.6-5.4c0-0.8-0.1-1.6-0.4-2.4
	c-1.1-3.8-3.2-7.5-6.4-9.8c-3.3-2.3-7.7-3.1-11.3-1.4c0.5,0.5,0.8,1.3,0.7,2"/>
<path class="st31" d="M220.4,918.1c5.6,6.4,6.4,15.3,11.1,22.2c0.4-1.4,0.3-2.9-0.2-4.2"/>
<image style="display:none;overflow:visible;" width="768" height="1153" xlink:href="../../../../Webdesign/IMAGES/Web Copy and Paste/child-taking-medicine.jpg"  transform="matrix(1 0 0 1 -101.5479 -10.3519)">
</image>
<path class="st32" d="M64.4,737.4c4.4,3.9,8.9,7.9,13.3,11.8c5,4.4,10.1,9,12.7,15.1c2.8,6.4,2.9,14.3,8,18.9
	c0.6-0.8,1.2-1.6,1.8-2.4"/>
<path class="st31" d="M59.2,953.2c6.3,0.6,12.6,1,19,1"/>
</svg>
