<?xml version="1.0" encoding="utf-8"?>
<!-- Generator: Adobe Illustrator 23.0.2, SVG Export Plug-In . SVG Version: 6.00 Build 0)  -->
<svg version="1.1" id="Layer_1" xmlns="http://www.w3.org/2000/svg" xmlns:xlink="http://www.w3.org/1999/xlink" x="0px" y="0px"
	 viewBox="0 0 2982 949.1" style="enable-background:new 0 0 2982 949.1;" xml:space="preserve">
<style type="text/css">
	.st0{fill:#107BD4;stroke:#107BD4;stroke-width:0.101;}
	.st1{fill:url(#SVGID_1_);stroke:#FCD109;stroke-width:9.400000e-02;}
	.st2{fill:#F8F3B5;stroke:#F8F3B5;stroke-width:9.400000e-02;}
	.st3{fill:#F7B402;stroke:#F7B402;stroke-width:9.400000e-02;}
	.st4{fill:#BDA727;stroke:#BDA727;stroke-width:9.400000e-02;}
	.st5{fill:#F7E62D;stroke:#F7E62D;stroke-width:9.400000e-02;}
	.st6{fill:url(#SVGID_2_);stroke:#FCD109;stroke-width:9.400000e-02;}
	.st7{fill:url(#SVGID_3_);stroke:#FCD109;stroke-width:9.400000e-02;}
	.st8{fill:url(#SVGID_4_);stroke:#FCD109;stroke-width:9.400000e-02;}
	.st9{fill:#0D69B3;stroke:#0D69B3;stroke-width:9.400000e-02;}
	.st10{fill:#107BD4;stroke:#107BD4;stroke-width:9.400000e-02;}
	.st11{fill:#FFFFFF;stroke:#FFFFFF;stroke-width:9.400000e-02;}
	.st12{clip-path:url(#SVGID_6_);}
	.st13{fill:none;stroke:#D1D1D1;stroke-width:2;}
	.st14{fill:#FFFFFF;}
	.st15{font-family:'ArialMT';}
	.st16{font-size:200px;}
</style>
<path class="st0" d="M2824.2,949.1H157.8C70.6,949.1,0,878.5,0,791.4V157.8C0,70.6,70.6,0,157.8,0h2666.5
	c87.1,0,157.8,70.6,157.8,157.8v633.6C2982,878.5,2911.4,949.1,2824.2,949.1z"/>
<linearGradient id="SVGID_1_" gradientUnits="userSpaceOnUse" x1="2486.3701" y1="387.864" x2="2486.3701" y2="-199.9005" gradientTransform="matrix(1 0 0 -1 0.14 658.454)">
	<stop  offset="0" style="stop-color:#F7E830"/>
	<stop  offset="1" style="stop-color:#FDCB06"/>
</linearGradient>
<path class="st1" d="M2842.8,273.6c-0.3-1-0.6-2-1-3c-236.9,0.1-473.7,0-710.5,0.1c-0.6,0.7-1,1.4-1.1,2.3c0,183.7,0,367.3-0.1,551
	c1.5,9.8,6.9,18.7,14.1,25.4c0.3,0.1,1,0.2,1.3,0.3c3.7,3.9,9,5.8,14,7.6c3.7-0.2,7.3,1.4,11,1h294c2.8-0.1,5.7,0.4,8.4-0.7
	c0.1-0.4,0.2-1.1,0.3-1.5c0.1-0.5,0.2-1.6,0.3-2.2c6.3-35.2,12.4-70.5,19.1-105.7l0.6-4.5c-27.2-0.1-54.5,0-81.7-0.1
	c-6.6-0.2-13.4,0-20-0.8c-11.3-0.5-22.7-0.1-34-1.2c-14,0-27.9-1.3-41.9-1.3c-11-1.1-22.1-0.7-33.2-1.2c-7.2-0.9-14.6-0.5-21.9-0.8
	c-11.9-1.3-24-0.4-35.9-1.7c-12.6,0.1-25.2-1-37.8-1.3c0.1-0.1,0.2-0.5,0.2-0.6c4.2,0.1,8.3-0.2,12.5-0.3c9.3-1.2,18.7-0.4,28-1.7
	c9.7,0,19.3-1.3,29-1.3c8.6-1.2,17.3-0.5,25.9-1.7c10.1,0,20-1.3,30.1-1.4c8.3-1.1,16.7-0.5,25-1.6c9.7,0.1,19.3-1.4,29-1.3
	c9.5-1.1,19.2-0.8,28.7-1.8c-0.9-3.7-1.6-7.4-2.4-11.1c-0.7-2.3-3.5-1.8-5.3-2.1c-21.7-3.1-43.3-6.2-64.9-9.2
	c1.4-1.1,3.3-0.6,4.9-0.8c16.8-1.3,33.5-2.8,50.3-4c3.8-0.2,7.5-0.9,11.3-1c-1.7-5.2-2.7-10.9-5-15.7
	c-35.9-5.5-71.8-10.4-107.6-16.3c9.3-1.5,18.7-2.2,28-3.2l0.8-0.3c29.7-3.1,59.5-6.6,89.2-9.5c37.7-0.2,75.3-0.1,113,0
	c1.2-0.2,3.3,0.4,3.5-1.3c3.1-16.2,6.1-32.4,9.2-48.6c4.3-22.5,11.1-44.7,21.6-65.2c16.5-33,42.6-61,74.4-79.6
	c29.7-17.4,64.1-25.8,98.3-27.4c11.1-1,22.3-0.7,33.3,0.7c7.2,1.7,14.6,3.7,20.3,8.6c4.7,3.8,7.5,9.4,9.6,15
	c4.6,13.3,7.2,27.1,9.4,41c0.1,5.6,1.1,11.9-1.9,17c-2.8,5-8.4,7.4-13.7,8.9c-19.3,5-39.5,0.3-58.8,5c-15.9,3.4-30.7,12.2-40.8,24.9
	c-11.9,14.8-18.2,33.2-21.7,51.6c-2.7,16.4-6.1,32.8-8.8,49.3c19,0.1,38.1-0.1,57.2,0.1c7.6,0,15.4,4.2,18.5,11.4
	c4,9.2,3.1,19.6,1.8,29.3c-1.6,10.9-4.2,21.7-9.1,31.7c-4.1,8.5-10.9,16.3-20.2,19.3c-4.8,1.9-10,1.5-15.1,1.5
	c-16.8,0-33.6,0.2-50.4,0c-2.7,12.3-4.5,24.9-6.9,37.4c-4.4,24.3-8.7,48.7-13.1,73.1c-0.1,0.8-0.2,2.5-0.2,3.4
	c7.9,0.4,15.8,0,23.7,0.2c58.6,0,117.3-0.1,176,0c6.3,0.2,12.7-1.3,18.2-4.4c3.3-1.2,5.3-4.1,8.2-5.7c2.8-1.6,3.6-4.9,6-7
	c2.6-4.6,5.3-9.4,5.5-14.8c0.3,0,1.1-0.1,1.5-0.2C2842.7,641.6,2843,457.6,2842.8,273.6z"/>
<path class="st2" d="M2223.4,152.6c8.5-2.7,17.4-0.9,26.1-1.5c163.3,0.1,326.6,0,489.9,0c9.7-0.4,18.2,5.1,27.2,7.9
	c7.2,2.9,14.7,5.2,21.9,8.3c1.5,0.6,2.6,1.9,3.7,3c-0.1,13.2,0,26.5,0,39.8c0.1,3.5-0.5,7.1,0.7,10.5c2.1,0.3,3.2,1.9,4.6,3.2
	c6.6,3,12.2,7.9,18.2,11.9c9,6.4,18.6,12,27.4,18.6c0.4,2.6,0.1,5.3-0.7,7.7c-0.9,2.8-0.3,5.8-0.6,8.6c-236.9,0.1-473.7,0-710.5,0.1
	c-0.5-3.3,0.4-6.6-1-9.7c-0.2-2.6-1.1-6,1.4-7.8c10-7,20.6-13.3,30.4-20.7c6.1-3.9,12-7.9,17.9-11.9c1.2-2,0.8-4.5,0.8-6.7
	c0-14.5,0-29,0.1-43.5c3.4-4.4,9.3-4.9,14-7.1C2204.4,159.7,2214,156.2,2223.4,152.6 M2224,154.3c-12.8,4.9-25.7,9.6-38.5,14.5
	c-1.7,0.3-2.6,1.8-3.5,3.1c0.1,0.8,0.2,2.2,0.2,3c-0.1,12,0,24-0.1,36c0.1,3-0.3,6,0.8,8.7c-1.3,1.3-2.7,2.6-4.3,3.6
	c-14.5,9.4-28.5,19.6-43,28.9c-2.5,1.5-5.3,3.5-4.5,6.8c-0.5,1.8,0.4,3.3,2.3,2.8c31.4-0.2,62.7,0.2,94.1-0.3c46.7,0,93.3,0.1,140,0
	l0.7-0.3c2.1,0.5,4.2,0.3,6.4,0.3c84.6,0,169.2,0.1,253.9,0c26.6,0.1,53.3,0,80,0c44,0,88.1,0.4,132.1,0.2c1.3-0.3,1.7-1.2,1.2-2.8
	c-0.1-1.6,0.5-3.8-1.2-4.8c-7-3.3-13-8.4-19.7-12.4c-2.4-2-5.5-3.1-7.3-5.8c-6.9-3.9-13.3-8.7-20.1-13c-1.3-0.8-2.3-2.1-3.4-3.2
	c0.6-2.1,0.8-4.4,0.8-6.6c-0.1-12.7,0-25.4-0.1-38.1c0.3-2,0.2-4.3-1.6-5.6c-12-4.3-23.9-8.9-35.8-13.3c-3.7-1.8-7.8-2.8-11.8-3.4
	h-511.1C2228.3,152.7,2226.2,153.8,2224,154.3L2224,154.3z"/>
<path class="st3" d="M2182.2,174.9c8.8,3.7,18.2,5.8,27.1,9.4c4.8,1.9,6.3,7.1,8.4,11.3c-2.1,2.1-4.6,3.8-7.1,5.4
	c-9.2,6.2-18.6,12.2-27.7,18.6c-1.1-2.7-0.7-5.7-0.8-8.7C2182.2,198.9,2182.1,186.9,2182.2,174.9z M2763.7,184.3
	c8.9-3.5,18.2-5.9,27.1-9.4c0.1,12.7,0,25.4,0.1,38.1c0,2.2-0.2,4.5-0.8,6.6c-7.8-5.4-15.7-10.5-23.5-15.8c-3.8-2.8-8-4.9-11.4-8.3
	C2757.3,191.3,2758.9,186.2,2763.7,184.3L2763.7,184.3z"/>
<path class="st4" d="M2334.8,188.4c11-2.6,23.3,7.2,22.4,18.7c0.1,11.3-11.8,20.5-22.7,17.9c-4.4-1.5-8.6-3.8-11.3-7.7
	c-3.5-5.3-4.3-12.4-1.5-18.2C2323.7,193.5,2329.1,189.7,2334.8,188.4L2334.8,188.4z M2620.1,194.7c4.6-5.1,11.9-8,18.7-6.2
	c5.1,1.5,10.1,4.8,12.3,9.8c4.4,8.6,1,20.2-7.6,24.7c-7.6,4.2-17.2,2.2-23-3.9C2614.6,212.4,2614.2,201.4,2620.1,194.7z"/>
<path class="st5" d="M2210.6,201c2.5-1.6,5-3.3,7.1-5.4l0.7,0.7c0.7,5.2,0.2,10.5,0.4,15.7c-0.3,15.6,0.3,31.3-0.4,46.9
	c-29.1,0-58.2-0.2-87.3,0c-0.8-3.3,2-5.3,4.5-6.8c14.5-9.3,28.5-19.5,43-28.9c1.6-1,3-2.3,4.3-3.6
	C2192,213.2,2201.4,207.2,2210.6,201z M2754.2,199c0-1.3,0.3-2.4,1-3.5c3.4,3.4,7.6,5.5,11.4,8.3c7.8,5.3,15.7,10.4,23.5,15.8
	c1.1,1.1,2.1,2.4,3.4,3.2c6.8,4.3,13.2,9.1,20.1,13c1.8,2.7,4.9,3.8,7.3,5.8c6.7,4,12.7,9.1,19.7,12.4c1.7,1,1.1,3.2,1.2,4.8
	c-29.1,0.1-58.1-0.1-87.2,0.1c-0.5-4-0.2-8-0.3-11.9C2754.3,231,2754.1,215,2754.2,199L2754.2,199z"/>
<radialGradient id="SVGID_2_" cx="2483.3101" cy="119.788" r="478.08" gradientTransform="matrix(1 0 0 -1 0.14 658.454)" gradientUnits="userSpaceOnUse">
	<stop  offset="0.596" style="stop-color:#F29405"/>
	<stop  offset="0.736" style="stop-color:#F7D01E"/>
	<stop  offset="1" style="stop-color:#FDCB06"/>
</radialGradient>
<path class="st6" d="M2841.8,258.8c-29.1,0.1-58.1-0.1-87.2,0.1c-0.5-4-0.2-8-0.3-11.9c0-16-0.2-32-0.1-48c0-1.3,0.3-2.4,1-3.5
	c2.1-4.2,3.7-9.3,8.5-11.2c8.9-3.5,18.2-5.9,27.1-9.4c0.3-2,0.2-4.3-1.6-5.6c-12-4.3-23.9-8.9-35.8-13.3c-3.7-1.8-7.8-2.8-11.8-3.4
	h-511.1c-2.2,0.1-4.3,1.2-6.5,1.7c-12.8,4.9-25.7,9.6-38.5,14.5c-1.7,0.3-2.6,1.8-3.5,3.1c0.1,0.8,0.2,2.2,0.2,3
	c8.8,3.7,18.2,5.8,27.1,9.4c4.8,1.9,6.3,7.1,8.4,11.3l0.7,0.7c0.7,5.2,0.2,10.5,0.4,15.7c-0.3,15.6,0.3,31.3-0.4,46.9
	c-29.1,0-58.2-0.2-87.3,0c-0.5,1.8,0.4,3.3,2.3,2.8c31.4-0.2,62.7,0.2,94.1-0.3c46.7,0,93.3,0.1,140,0l0.7-0.3
	c2.1,0.5,4.2,0.3,6.4,0.3c84.6,0,169.2,0.1,253.9,0c26.6,0.1,53.3,0,80,0c44,0,88.1,0.4,132.1,0.2
	C2841.9,261.3,2842.3,260.4,2841.8,258.8L2841.8,258.8z M2321.7,199.1c2-5.6,7.4-9.4,13.1-10.7c11-2.6,23.3,7.2,22.4,18.7
	c0.1,11.3-11.8,20.5-22.7,17.9c-4.4-1.5-8.6-3.8-11.3-7.7C2319.7,212,2318.9,204.9,2321.7,199.1L2321.7,199.1z M2620.1,194.7
	c4.6-5.1,11.9-8,18.7-6.2c5.1,1.5,10.1,4.8,12.3,9.8c4.4,8.6,1,20.2-7.6,24.7c-7.6,4.2-17.2,2.2-23-3.9
	C2614.6,212.4,2614.2,201.4,2620.1,194.7z"/>
<linearGradient id="SVGID_3_" gradientUnits="userSpaceOnUse" x1="2649.9182" y1="366.6628" x2="2650.0852" y2="338.8298" gradientTransform="matrix(1 0 0 -1 0.14 658.454)">
	<stop  offset="0" style="stop-color:#FADA1C"/>
	<stop  offset="1" style="stop-color:#FDCB06"/>
</linearGradient>
<path class="st7" d="M2645.6,302.7c1.4,0.3-7.3-8.4-5.6-8.8c1.6,0.2,7.7-4.5,15-0.7s5.5,12.8,4.7,16.2c-1,4-3.5,6.5-5.5,8.5
	c-1.1,0.9-3.6,2.3-5.1,2.2c0.9-4.9-2-5.7-2.2-10.7L2645.6,302.7z"/>
<linearGradient id="SVGID_4_" gradientUnits="userSpaceOnUse" x1="4220.7744" y1="367.9828" x2="4220.9414" y2="340.1499" gradientTransform="matrix(-1 0 0 -1 6543.4463 658.454)">
	<stop  offset="0" style="stop-color:#FADA1C"/>
	<stop  offset="1" style="stop-color:#FDCB06"/>
</linearGradient>
<path class="st8" d="M2325.9,308.2c-0.2,5-3.1,5.8-2.2,10.7c-1.5,0.1-4-1.3-5.1-2.2c-2-2-4.5-4.5-5.5-8.5
	c-0.8-3.3-2.6-12.3,4.7-16.2c7.3-3.8,13.4,0.9,15,0.7c1.7,0.4-7,9-5.6,8.8L2325.9,308.2L2325.9,308.2z"/>
<path class="st4" d="M2632.5,366.8c1.5-1.3,2.5-1.3,4.5-1.3c-12,26-26,52-47.1,72.2c-2.3,2-4.6,3.9-7.1,5.6
	c-2.4,1.8-4.8,3.4-7.1,5.1c-2.3,1.6-4.6,3.2-6.8,4.9c-5.7,3.1-10.7,7.4-17,9.3c-11.5,5.5-23.9,9.2-36.4,11.8
	c-4.9,0.8-9.9,2-14.9,2.1c-6.2,1.8-12.8,0.5-19.1,0.9c-3.5,0.6-6.6-1.4-10-1c-2.9-0.4-5.9-0.9-8.8-1.5c-3-0.6-5.9-1.3-8.8-2.1
	c-45.8-14.3-90.8-49.3-103.9-96.6c-0.6-3.2-0.9-6.4-0.9-9.7c1.4,2.8,2.9,5.6,4.4,8.3c18.6,40.7,55.6,72.7,99.4,82.3
	c3.6,1.6,7.4,1,10.8,2.5c3.1,0,6.1-0.1,9.1,0.9c10.3,0.2,20.6,0.1,30.9,0.1c1.4,0.1,2.7-0.6,4.1-0.9c17.2-0.6,34-5.3,49.6-12.4
	c3.1-1.4,6.2-2.9,9.3-4.5c2.6-1.4,5.3-2.9,7.8-4.5c2.5-1.6,4.9-3.3,7.2-5.1c18.5-14.7,34.5-33.7,45.4-55.5
	C2628.9,373.7,2630.8,370.1,2632.5,366.8z"/>
<path class="st9" d="M2616.2,455.7c29.7-17.4,64.1-25.8,98.3-27.4c11.1-1,22.3-0.7,33.3,0.7c7.2,1.7,14.6,3.7,20.3,8.6
	c-2.9,0.2-5.7-1.1-8.6-1.5c-8.2-1.6-16.7-1-25-1.2c-24.1,0-48.4,1.9-71.7,8.5c-12.2,3.7-24.4,8-35.5,14.4
	c-19.2,10.6-36.5,24.6-50.5,41.4c-25,28.7-39.7,65.1-46.8,102.2c-3.4,19.9-7.3,39.7-10.4,59.7c-5,0.5-10.1,0.2-15.1,0.2
	c-22-0.1-44-0.2-66-0.4c-4.7,0.2-9.3-0.9-14-0.6c-40,0.2-80-0.1-120-0.1l0.8-0.3c29.7-3.1,59.5-6.6,89.2-9.5
	c37.7-0.2,75.3-0.1,113,0c1.2-0.2,3.3,0.4,3.5-1.3c3.1-16.2,6.1-32.4,9.2-48.6c4.3-22.5,11.1-44.7,21.6-65.2
	C2558.3,502.3,2584.4,474.3,2616.2,455.7z"/>
<path class="st10" d="M2662.8,443.4c23.3-6.6,47.6-8.5,71.7-8.5c8.3,0.2,16.8-0.4,25,1.2c2.9,0.4,5.7,1.7,8.6,1.5
	c4.7,3.8,7.5,9.4,9.6,15c4.6,13.3,7.2,27.1,9.4,41c0.1,5.6,1.1,11.9-1.9,17c-2.8,5-8.4,7.4-13.7,8.9c-19.3,5-39.5,0.3-58.8,5
	c-15.9,3.4-30.7,12.2-40.8,24.9c-11.9,14.8-18.2,33.2-21.7,51.6c-2.7,16.4-6.1,32.8-8.8,49.3c-1.2,3.7-1.9,7.7-2.6,11.6
	c18.9,0.3,37.8,0,56.7,0.2c7.2-0.2,14.4,0.2,21.6-0.3c4,9.2,3.1,19.6,1.8,29.3c-1.6,10.9-4.2,21.7-9.1,31.7
	c-4.1,8.5-10.9,16.3-20.2,19.3c-4.8,1.9-10,1.5-15.1,1.5c-16.8,0-33.6,0.2-50.4,0c-2.7,12.3-4.5,24.9-6.9,37.4
	c-4.4,24.3-8.7,48.7-13.1,73.1c-0.1,0.8-0.2,2.5-0.2,3.4v0.1c-43.7,0-87.3,0.1-131,0c0.1-0.4,0.2-1.1,0.3-1.5
	c0.1-0.5,0.2-1.6,0.3-2.2c0.1,0.8,0.2,2.3,0.3,3c2.7,0.3,7.6,1.7,8.3-2.2c6.8-36.8,13.1-73.8,20.1-110.6c-2.7-0.6-5.5-0.6-8.3-0.1
	c-0.4,1.4-0.8,2.8-1.3,4.2l0.6-4.5c-27.2-0.1-54.5,0-81.7-0.1c-6.6-0.2-13.4,0-20-0.8c-11.3-0.5-22.7-0.1-34-1.2
	c-14,0-27.9-1.3-41.9-1.3c-11-1.1-22.1-0.7-33.2-1.2c-7.2-0.9-14.6-0.5-21.9-0.8c-11.9-1.3-24-0.4-35.9-1.7
	c-12.6,0.1-25.2-1-37.8-1.3c0.1-0.1,0.2-0.5,0.2-0.6c4.2,0.1,8.3-0.2,12.5-0.3c9.3-1.2,18.7-0.4,28-1.7c9.7,0,19.3-1.3,29-1.3
	c8.6-1.2,17.3-0.5,25.9-1.7c10.1,0,20-1.3,30.1-1.4c8.3-1.1,16.7-0.5,25-1.6c9.7,0.1,19.3-1.4,29-1.3c9.5-1.1,19.2-0.8,28.7-1.8
	c-0.9-3.7-1.6-7.4-2.4-11.1c-0.7-2.3-3.5-1.8-5.3-2.1c-21.7-3.1-43.3-6.2-64.9-9.2c1.4-1.1,3.3-0.6,4.9-0.8
	c16.8-1.3,33.5-2.8,50.3-4c3.8-0.2,7.5-0.9,11.3-1c-1.7-5.2-2.7-10.9-5-15.7c-35.9-5.5-71.8-10.4-107.6-16.3
	c9.3-1.5,18.7-2.2,28-3.2c40,0,80,0.3,120,0.1c4.7-0.3,9.3,0.8,14,0.6c22,0.2,44,0.3,66,0.4c5,0,10.1,0.3,15.1-0.2
	c3.1-20,7-39.8,10.4-59.7c7.1-37.1,21.8-73.5,46.8-102.2c14-16.8,31.3-30.8,50.5-41.4C2638.4,451.4,2650.6,447.1,2662.8,443.4z"/>
<path class="st9" d="M2641.4,650.3c19,0.1,38.1-0.1,57.2,0.1c7.6,0,15.4,4.2,18.5,11.4c-7.2,0.5-14.4,0.1-21.6,0.3
	c-18.9-0.2-37.8,0.1-56.7-0.2C2639.5,658,2640.2,654,2641.4,650.3L2641.4,650.3z M2493.9,744c2.8-0.5,5.6-0.5,8.3,0.1
	c-7,36.8-13.3,73.8-20.1,110.6c-0.7,3.9-5.6,2.5-8.3,2.2c-0.1-0.7-0.2-2.2-0.3-3c6.3-35.2,12.4-70.5,19.1-105.7
	C2493.1,746.8,2493.5,745.4,2493.9,744L2493.9,744z"/>
<path class="st11" d="M2650.1,305.5c-0.8-1.5-0.9-3.3-0.9-5l-0.8,0.1c-1.2-4.4-4.9-8.6-9.7-8.8c-3.6-0.3-8.1-0.2-10.2,3.2
	c-4,5.4-2.1,12.3-2.3,18.4c0,0.4,0.1,1.1,0.1,1.5c0,4.1-0.5,8.1-1.2,12.1c-0.6,1.2-0.9,2.5-0.9,3.9c-1.7,9.4-5.1,18.7-9.7,27.2
	c-0.9,1.2-1.6,2.5-1.9,3.9c-3,5.2-6.6,10-10.3,14.8c-0.6,0.5-1.1,1.1-1.6,1.7c-2.6,3.2-5.4,5.9-8.3,8.7c-0.7,0.4-1.2,0.9-1.8,1.3
	c-3.4,3.3-7.2,6.4-11.3,8.9c-0.5,0.3-1,0.7-1.6,1.1c-25.6,16.9-56.7,23.9-87,24.2c-25.7,0.8-51.6-4.7-74.8-15.8
	c-0.4-0.2-1.4-0.6-1.8-0.8c-3.9-2.1-7.9-3.9-11.5-6.5c-0.8-0.4-1.6-0.9-2.5-1.3c-3.7-2.2-7.2-4.6-10.5-7.4c-1.1-1-2.3-1.8-3.5-2.7
	c-3.6-2.9-7.3-6-10.4-9.5c-0.8-0.9-1.6-1.7-2.4-2.5c-10.9-11.3-19.4-25.1-23.9-40.1c-4.3-11.9-3.7-24.9-4.2-37.4
	c-3.6-5.5-11.2-8.6-17.2-5.2c-2.5,1.8-2.8,5.1-4.7,7.4c-3.1,33,11,65.9,33.5,89.7c0,0.8,0.4,1.3,1.1,1.6c4,3.7,7.9,7.5,11.9,11.1
	c0.7,0.7,1.5,1.4,2.4,2c4,3.3,8.3,6.3,12.5,9.4c0.8,0.6,1.6,1.1,2.5,1.6c5.5,3.2,10.7,7,16.6,9.2c0.4,0.3,1.1,0.8,1.5,1
	c19,9.1,39.5,15.3,60.5,17.3c2.3,0,4.6,0.2,6.9,0.7c10,0.6,20,0.3,30,0.1c30.9-2.7,62.8-10.2,88.6-28.4l0.3,0.4
	c0.8-0.7,1.5-1.3,2.3-1.9c4.1-3,8.1-6.2,12.1-9.5c0.9-0.7,1.9-1.5,2.8-2.4c4.4-4.8,9.5-9.2,13.2-14.7l0.6,0.3c0.3-0.5,0.8-1.5,1.1-2
	c3.4-4.6,6.5-9.4,9.5-14.2c0.2-0.3,0.7-0.8,0.9-1.1l-0.4-0.4c0.3-0.4,1-1.2,1.3-1.6c5.5-11.2,10.4-22.9,12.1-35.3
	c0.7-0.3,1.1-0.9,1.1-1.6c0.1-4,1.5-7.8,1.1-11.8C2650.2,315.5,2650.3,310.5,2650.1,305.5L2650.1,305.5z"/>
<g>
	<g>
		<defs>
			<path id="SVGID_5_" d="M2650.1,305.5c-0.8-1.5-0.9-3.3-0.9-5l-0.8,0.1c-1.2-4.4-4.9-8.6-9.7-8.8c-3.6-0.3-8.1-0.2-10.2,3.2
				c-4,5.4-2.1,12.3-2.3,18.4c0,0.4,0.1,1.1,0.1,1.5c0,4.1-0.5,8.1-1.2,12.1c-0.6,1.2-0.9,2.5-0.9,3.9c-1.7,9.4-5.1,18.7-9.7,27.2
				c-0.9,1.2-1.6,2.5-1.9,3.9c-3,5.2-6.6,10-10.3,14.8c-0.6,0.5-1.1,1.1-1.6,1.7c-2.6,3.2-5.4,5.9-8.3,8.7c-0.7,0.4-1.2,0.9-1.8,1.3
				c-3.4,3.3-7.2,6.4-11.3,8.9c-0.5,0.3-1,0.7-1.6,1.1c-25.6,16.9-56.7,23.9-87,24.2c-25.7,0.8-51.6-4.7-74.8-15.8
				c-0.4-0.2-1.4-0.6-1.8-0.8c-3.9-2.1-7.9-3.9-11.5-6.5c-0.8-0.4-1.6-0.9-2.5-1.3c-3.7-2.2-7.2-4.6-10.5-7.4
				c-1.1-1-2.3-1.8-3.5-2.7c-3.6-2.9-7.3-6-10.4-9.5c-0.8-0.9-1.6-1.7-2.4-2.5c-10.9-11.3-19.4-25.1-23.9-40.1
				c-4.3-11.9-3.7-24.9-4.2-37.4c-3.6-5.5-11.2-8.6-17.2-5.2c-2.5,1.8-2.8,5.1-4.7,7.4c-3.1,33,11,65.9,33.5,89.7
				c0,0.8,0.4,1.3,1.1,1.6c4,3.7,7.9,7.5,11.9,11.1c0.7,0.7,1.5,1.4,2.4,2c4,3.3,8.3,6.3,12.5,9.4c0.8,0.6,1.6,1.1,2.5,1.6
				c5.5,3.2,10.7,7,16.6,9.2c0.4,0.3,1.1,0.8,1.5,1c19,9.1,39.5,15.3,60.5,17.3c2.3,0,4.6,0.2,6.9,0.7c10,0.6,20,0.3,30,0.1
				c30.9-2.7,62.8-10.2,88.6-28.4l0.3,0.4c0.8-0.7,1.5-1.3,2.3-1.9c4.1-3,8.1-6.2,12.1-9.5c0.9-0.7,1.9-1.5,2.8-2.4
				c4.4-4.8,9.5-9.2,13.2-14.7l0.6,0.3c0.3-0.5,0.8-1.5,1.1-2c3.4-4.6,6.5-9.4,9.5-14.2c0.2-0.3,0.7-0.8,0.9-1.1l-0.4-0.4
				c0.3-0.4,1-1.2,1.3-1.6c5.5-11.2,10.4-22.9,12.1-35.3c0.7-0.3,1.1-0.9,1.1-1.6c0.1-4,1.5-7.8,1.1-11.8
				C2650.2,315.5,2650.3,310.5,2650.1,305.5L2650.1,305.5z"/>
		</defs>
		<clipPath id="SVGID_6_">
			<use xlink:href="#SVGID_5_"  style="overflow:visible;"/>
		</clipPath>
		<g class="st12">
			<path class="st13" d="M2315.6,302.2c8.1,2.5,26.7-3.9,32,2 M2320.3,326.8c7.8-2.7,24.4-9.1,31.3-5.3 M2328.3,351.5
				c3.8,1.2,11.2-5.4,14.8-7.3c5.5-2.9,11.1-5.1,17.2-6 M2340.3,377.5c3.9-5.5,8.5-10.1,14.1-14c5.6-3.9,20.7-14.2,27.2-10.7
				 M2351.6,396.2c4.4-3.5,6.2-9.7,10.8-13.4c5.6-4.4,14.1-5.2,19.9-8 M2370.5,410c1.3-9.7,11.1-21.3,20.5-20.5 M2385,423.5
				c4.9-0.5,9.1-11.6,12.5-15.3c5-5.6,10.2-7.4,16.9-9.3 M2413.6,435.5c-0.3-7,6.9-27,15.3-26 M2435,442.2c-0.4-8.3,3.9-33.1,14-34
				 M2457,455.5c-1.9-11.6-1.8-28.3,7.3-36.7 M2484.3,458.2c-1-9.6-10.6-29.1,0-36.7 M2513.6,451.5c-4.6-5.3-7.2-26.2-5.3-32
				 M2541.6,446.8c-3.5-6.4-7.9-12.4-9.2-19.9c-0.8-4.4,0.6-10.8-0.1-14.1 M2565,436.8c-7.6-5-9.8-23.4-7.3-31.3 M2587.6,426.8
				c-5.4-11.7-11.2-20.7-11.3-34 M2609.6,405.5c-8.4-5.7-19.2-16-18-27.3 M2633,387.5c-12.8-2.9-28.3-14.3-36-24.7 M2643.6,365.5
				c-9.3-2-39.9-13.9-38-26 M2653.6,342.2c-12.9-4.7-31.7-9-42-18 M2660.3,320.8c-8.1,0.7-19.8-3.2-28.1-4.7
				c-9.2-1.6-17.7-4.7-26.6-6.7 M2652.3,300.2c-15.7,0.9-30.4-4.4-44.7-9.3"/>
		</g>
	</g>
</g>
<g>
	<path class="st14" d="M645.3,348.2c14.5-2.2,31.2-3.5,43.5,5.5c7.7,5.7,10.4,16.1,9.8,25.4c0.5,15.3-6.6,31.7-20.2,39.6
		c-12,6.6-26.5,7.1-39.9,5.7c-9-1.1-18-6-22.7-14.2C605.4,386.5,618.3,352.9,645.3,348.2L645.3,348.2z M211.7,365.5
		c0.8-8.2,8.2-15.6,16.7-15.3c63.2,0,126,0.3,188.9,0c6.8-0.5,14.2,2.5,17.5,8.5c4.6,8.2,0.5,17.2,0,25.7
		c-1.9,11.5-1.4,26.8-14.8,31.2c-45.9,1.4-91.9,0-137.8,0.5c-4.4,29-8.5,57.7-12.9,86.4c0,1.1,0.3,3.6,0.3,4.6
		c33.6-0.3,67.3,0,100.9-0.3c9.3-0.5,19.1,7.4,18.3,17.2c-0.8,10.1-3,20-4.4,30.1c-1.1,6.8-6.6,13.1-13.7,14.5
		c-37.5,0.8-75.5-0.8-112.9,0.8c-6,41.3-13.1,82.6-19.4,123.9c-0.8,8.2-7.4,15.3-15.6,15.6c-15.6,0.3-31.2,0.3-46.8,0
		c-10.1,0.3-18.3-10.9-15.6-20.5C177.3,580.6,194.5,473.2,211.7,365.5L211.7,365.5z M489.5,350.7c14.2-1.1,28.7-0.3,42.9-0.5
		c8.8-0.5,17.5,6.3,18.3,15.3c0,7.1-1.9,14.2-2.7,21.3c-11.5,73.3-23.2,146.5-34.7,219.8c-1.6,11.8-4.6,24.3-1.1,36.4
		c4.1,12,22.4,6.8,26.8,19.4c2.7,10.1-0.3,20.8-1.1,31.2c-0.8,13.7-16.4,16.7-27.1,19.7c-23.2,4.4-51.4,1.1-68.1-18
		c-12-13.9-12.9-33.6-10.4-51.1c14.5-93,29-185.9,43.8-279.1C476.9,358.1,482.4,351.8,489.5,350.7L489.5,350.7z M1032.2,365.5
		c0.8-8.2,8.2-15.3,16.4-15.3h41.6c10.4-0.3,18.9,10.9,16.4,20.8c-9.6,60.7-19.4,121.4-29,182.1c14.5-2.2,30.9-4.9,41-16.7
		c16.9-19.1,30.9-41.3,41.3-64.5c3.6-9,5.5-22.1,17.2-23.8c15.6-0.5,31.4-0.3,47,0c10.7-0.3,18.6,11.8,15,21.6
		c-4.1,14.5-10.9,27.9-18,40.7c-15.9,25.7-33.3,51.1-56.3,71.4c10.1,30.3,23,59.9,34.2,89.7c3.3,9.8,11.2,21.3,3.8,30.9
		c-8.5,11.5-24.3,5.7-36.1,7.1c-12.3-1.4-30.1,4.9-36.9-9c-12.8-29.8-23.5-60.4-36.6-90.2c-7.7,0.3-15.6,0.5-23.2-0.3
		c-0.5,1.1-1.6,3.3-2.2,4.4c-4.1,27.3-8.5,54.7-12.8,82c-1.6,6.6-6.8,12.3-13.9,12.8c-14.5,0.5-29.3,0.3-44,0.3
		c-6.3,0-12-4.1-14.8-9.6c-2.7-5.5-1.1-11.8-0.3-17.8C998.9,576.5,1015.5,471,1032.2,365.5L1032.2,365.5z M1792,395.3
		c1.9-7.7,9.3-12.9,16.9-12.6c10.9,0.3,22.2-0.3,33.3,0.3c9,0.3,16.1,9.3,15,18c-1.6,15.6-5.5,31.2-6.6,46.8c10.7,0,21.6-0.3,32.3,0
		c9.6,0,17.5,9.8,15.9,19.1c-1.4,8.5-3.3,16.7-4.7,25.1c-1.4,7.1-7.4,12.9-14.2,14c-13.1,0.8-26-0.5-38.8,0.8
		c-5.5,36.6-11.5,73.3-17.2,109.9c-0.8,8.5-1.4,18,3.6,25.4c7.4,9,20.2,5.7,30.6,6.8c8.2,2.5,13.4,11.5,12,19.7
		c-1.4,9.3-1.6,18.6-3.8,27.6c-3.3,10.1-15,12-24.1,14.5c-24.9,6.6-53.6,6.6-75.7-7.9c-20.5-14-23.8-41-21.6-64
		c5.7-44.3,14.8-88.3,19.7-132.9c-7.7,0.3-16.9,1.4-22.7-5.5c-6.6-6.8-3.3-17-2.2-25.4c1.6-9,1.4-20.8,11.2-25.7
		c7.9-3,16.9-0.8,25.4-1.9C1781.6,430,1786.6,412.5,1792,395.3L1792,395.3z M1637.6,483.9c17.2-17.2,38-31.4,61.8-38.5
		c10.4-4.6,23.8,4.1,23.5,15.6c-1.9,15-5.5,29.8-7.9,44.6c-1.1,7.4-7.4,13.7-14.8,14.5c-26.8,4.7-50,20.8-68.6,39.9
		c-4.7,5.7-11.5,11.2-12.3,19.1c-5.7,38.3-11.8,76.6-17.8,114.8c-0.8,8.2-7.9,16.1-16.4,15.6h-41.6c-9.6,0.5-18-9-16.9-18.6
		c12-75.7,24.1-151.2,35.8-226.9c0.6-7.6,6-15,13.9-15.9c10.1-0.5,20.2-0.3,30.6-0.3c8.2,0,15.9,7.4,15.9,15.9
		c0,11.8-1.1,23.8-1.4,35.8C1628,495.3,1632.1,488.8,1637.6,483.9L1637.6,483.9z M615.5,449.1c14.8-3,30.1-0.5,44.8-1.4
		c8.5-1.1,17.5,4.4,18.9,12.9c1.1,7.6-1.1,15-1.9,22.4c-11.2,70.3-22.4,140.5-33.4,210.8c-0.8,7.9-7.4,15.9-15.9,15.6
		c-14.8,0-29.5,0.3-44.6-0.3c-9.3-1.1-16.1-11.8-13.7-20.8c11.8-73,23-145.7,34.7-218.7C605.2,461.7,607.3,452.4,615.5,449.1z
		 M1500.3,452.7c-40.7-7.7-82.3-13.1-123.6-9c-36.9,4.6-74.1,21.3-96.8,51.7c-31.4,39.9-42.1,93.5-35,143.3
		c3.8,23.8,14.2,47.8,33.6,62.6c18,14,42.4,15.9,64.3,12.3c30.6-6,56.6-25.7,77.9-47.6c1.1,9.3-1.1,18.6-0.6,27.6
		c0.6,8.5,8.2,16.4,16.7,15.8h27.9c8.2,0,15-7.7,15.6-15.6c11.8-74.1,23.5-147.9,35-221.7C1517,462.8,1509.6,453.8,1500.3,452.7
		L1500.3,452.7z M1423.5,581.5c-10.9,20.5-26.3,39.1-43.5,55c-9.8,8.2-22.4,16.7-35.8,14c-13.1-2.7-19.4-16.4-22.4-28.2
		c-6.8-30.6-0.6-64,16.7-90.5c7.7-12.3,20-21.6,34.2-25.4c20-4.9,41-2.5,60.4,3l1.1,1.1C1431.7,534.2,1427,557.7,1423.5,581.5
		L1423.5,581.5z M963.6,540.5c-0.3-27.3-7.7-56-26.8-76.6c-13.1-14.5-32.8-21.9-52-21.6c-31.7-1.1-61.5,14.5-84.8,35.3
		c-5.2,4.1-8.8,10.1-14.5,13.4c0-9,0.8-18,0.5-27.3c0.3-8.5-7.7-15.9-15.9-15.9h-27.9c-8.8,0-15.9,7.7-16.4,16.1
		c-17.2,109.4-34.7,218.7-52,328.1c-2.5,10.1,6.3,20.5,16.7,20.2c15.3-0.3,30.9,1.1,45.9-1.1c12-3.3,11.8-17.2,13.7-27.3
		c4.4-24.1,7.4-48.1,10.1-72.5c53.9,10.4,116.5,3.3,156.7-37.5C949.9,638,965.2,588.6,963.6,540.5L963.6,540.5z M887,568.1
		c-1.6,25.2-10.7,50.6-28.2,68.9c-22.7,21.6-57.2,18.6-85,11.2c-0.5-0.8-1.4-2.5-1.6-3.3c4.4-23.8,6.6-47.8,12-71.4
		c15.3-25.2,33.9-50.6,60.4-64.5c9.8-4.6,23.2-3.5,30.3,5.5C887,529.5,888.1,549.7,887,568.1L887,568.1z"/>
</g>
<text transform="matrix(1 0 0 1 952.6555 290.4739)" class="st14 st15 st16">Buy now at</text>
</svg>
