<?xml version="1.0" encoding="utf-8"?>
<!-- Generator: Adobe Illustrator 24.3.0, SVG Export Plug-In . SVG Version: 6.00 Build 0)  -->
<svg version="1.1" id="Layer_1" xmlns="http://www.w3.org/2000/svg" xmlns:xlink="http://www.w3.org/1999/xlink" x="0px" y="0px"
	 viewBox="0 0 2982 949.12" style="enable-background:new 0 0 2982 949.12;" xml:space="preserve">
<style type="text/css">
	.st0{fill:#107BD4;stroke:#107BD4;stroke-width:0.101;}
	.st1{fill:url(#SVGID_1_);stroke:#FCD109;stroke-width:0.094;}
	.st2{fill:#F8F3B5;stroke:#F8F3B5;stroke-width:0.094;}
	.st3{fill:#F7B402;stroke:#F7B402;stroke-width:0.094;}
	.st4{fill:#BDA727;stroke:#BDA727;stroke-width:0.094;}
	.st5{fill:#F7E62D;stroke:#F7E62D;stroke-width:0.094;}
	.st6{fill:url(#SVGID_2_);stroke:#FCD109;stroke-width:0.094;}
	.st7{fill:url(#SVGID_3_);stroke:#FCD109;stroke-width:0.094;}
	.st8{fill:url(#SVGID_4_);stroke:#FCD109;stroke-width:0.094;}
	.st9{fill:#0D69B3;stroke:#0D69B3;stroke-width:0.094;}
	.st10{fill:#107BD4;stroke:#107BD4;stroke-width:0.094;}
	.st11{fill:#FFFFFF;stroke:#FFFFFF;stroke-width:0.094;}
	.st12{clip-path:url(#SVGID_6_);}
	.st13{fill:none;stroke:#D1D1D1;stroke-width:2;}
	.st14{fill:#FFFFFF;}
	.st15{font-family:'MyriadPro-Bold';}
	.st16{font-size:200px;}
</style>
<path class="st0" d="M2824.24,949.12H157.76C70.63,949.12,0,878.49,0,791.36V157.76C0,70.63,70.63,0,157.76,0h2666.48
	C2911.37,0,2982,70.63,2982,157.76v633.61C2982,878.49,2911.37,949.12,2824.24,949.12z"/>
<linearGradient id="SVGID_1_" gradientUnits="userSpaceOnUse" x1="2486.375" y1="564.134" x2="2486.375" y2="1151.8976" gradientTransform="matrix(1 0 0 1 0.14 -293.546)">
	<stop  offset="0" style="stop-color:#F7E830"/>
	<stop  offset="1" style="stop-color:#FDCB06"/>
</linearGradient>
<path class="st1" d="M2842.76,273.59c-0.3-1-0.6-2-1-3c-236.9,0.1-473.7,0-710.5,0.1c-0.6,0.7-1,1.4-1.1,2.3
	c0,183.7,0,367.3-0.1,551c1.5,9.8,6.9,18.7,14.1,25.4c0.3,0.1,1,0.2,1.3,0.3c3.7,3.9,9,5.8,14,7.6c3.7-0.2,7.3,1.4,11,1h294
	c2.8-0.1,5.7,0.4,8.4-0.7c0.1-0.4,0.2-1.1,0.3-1.5c0.1-0.5,0.2-1.6,0.3-2.2c6.3-35.2,12.4-70.5,19.1-105.7l0.6-4.5
	c-27.2-0.1-54.5,0-81.7-0.1c-6.6-0.2-13.4,0-20-0.8c-11.3-0.5-22.7-0.1-34-1.2c-14,0-27.9-1.3-41.9-1.3c-11-1.1-22.1-0.7-33.2-1.2
	c-7.2-0.9-14.6-0.5-21.9-0.8c-11.9-1.3-24-0.4-35.9-1.7c-12.6,0.1-25.2-1-37.8-1.3c0.1-0.1,0.2-0.5,0.2-0.6
	c4.2,0.1,8.3-0.2,12.5-0.3c9.3-1.2,18.7-0.4,28-1.7c9.7,0,19.3-1.3,29-1.3c8.6-1.2,17.3-0.5,25.9-1.7c10.1,0,20-1.3,30.1-1.4
	c8.3-1.1,16.7-0.5,25-1.6c9.7,0.1,19.3-1.4,29-1.3c9.5-1.1,19.2-0.8,28.7-1.8c-0.9-3.7-1.6-7.4-2.4-11.1c-0.7-2.3-3.5-1.8-5.3-2.1
	c-21.7-3.1-43.3-6.2-64.9-9.2c1.4-1.1,3.3-0.6,4.9-0.8c16.8-1.3,33.5-2.8,50.3-4c3.8-0.2,7.5-0.9,11.3-1c-1.7-5.2-2.7-10.9-5-15.7
	c-35.9-5.5-71.8-10.4-107.6-16.3c9.3-1.5,18.7-2.2,28-3.2l0.8-0.3c29.7-3.1,59.5-6.6,89.2-9.5c37.7-0.2,75.3-0.1,113,0
	c1.2-0.2,3.3,0.4,3.5-1.3c3.1-16.2,6.1-32.4,9.2-48.6c4.3-22.5,11.1-44.7,21.6-65.2c16.5-33,42.6-61,74.4-79.6
	c29.7-17.4,64.1-25.8,98.3-27.4c11.1-1,22.3-0.7,33.3,0.7c7.2,1.7,14.6,3.7,20.3,8.6c4.7,3.8,7.5,9.4,9.6,15
	c4.6,13.3,7.2,27.1,9.4,41c0.1,5.6,1.1,11.9-1.9,17c-2.8,5-8.4,7.4-13.7,8.9c-19.3,5-39.5,0.3-58.8,5c-15.9,3.4-30.7,12.2-40.8,24.9
	c-11.9,14.8-18.2,33.2-21.7,51.6c-2.7,16.4-6.1,32.8-8.8,49.3c19,0.1,38.1-0.1,57.2,0.1c7.6,0,15.4,4.2,18.5,11.4
	c4,9.2,3.1,19.6,1.8,29.3c-1.6,10.9-4.2,21.7-9.1,31.7c-4.1,8.5-10.9,16.3-20.2,19.3c-4.8,1.9-10,1.5-15.1,1.5
	c-16.8,0-33.6,0.2-50.4,0c-2.7,12.3-4.5,24.9-6.9,37.4c-4.4,24.3-8.7,48.7-13.1,73.1c-0.1,0.8-0.2,2.5-0.2,3.4
	c7.9,0.4,15.8,0,23.7,0.2c58.6,0,117.3-0.1,176,0c6.3,0.2,12.7-1.3,18.2-4.4c3.3-1.2,5.3-4.1,8.2-5.7c2.8-1.6,3.6-4.9,6-7
	c2.6-4.6,5.3-9.4,5.5-14.8c0.3,0,1.1-0.1,1.5-0.2C2842.66,641.59,2842.96,457.59,2842.76,273.59z"/>
<path class="st2" d="M2223.36,152.59c8.5-2.7,17.4-0.9,26.1-1.5c163.3,0.1,326.6,0,489.9,0c9.7-0.4,18.2,5.1,27.2,7.9
	c7.2,2.9,14.7,5.2,21.9,8.3c1.5,0.6,2.6,1.9,3.7,3c-0.1,13.2,0,26.5,0,39.8c0.1,3.5-0.5,7.1,0.7,10.5c2.1,0.3,3.2,1.9,4.6,3.2
	c6.6,3,12.2,7.9,18.2,11.9c9,6.4,18.6,12,27.4,18.6c0.4,2.6,0.1,5.3-0.7,7.7c-0.9,2.8-0.3,5.8-0.6,8.6c-236.9,0.1-473.7,0-710.5,0.1
	c-0.5-3.3,0.4-6.6-1-9.7c-0.2-2.6-1.1-6,1.4-7.8c10-7,20.6-13.3,30.4-20.7c6.1-3.9,12-7.9,17.9-11.9c1.2-2,0.8-4.5,0.8-6.7
	c0-14.5,0-29,0.1-43.5c3.4-4.4,9.3-4.9,14-7.1C2204.36,159.69,2213.97,156.19,2223.36,152.59 M2223.97,154.29
	c-12.8,4.9-25.7,9.6-38.5,14.5c-1.7,0.3-2.6,1.8-3.5,3.1c0.1,0.8,0.2,2.2,0.2,3c-0.1,12,0,24-0.1,36c0.1,3-0.3,6,0.8,8.7
	c-1.3,1.3-2.7,2.6-4.3,3.6c-14.5,9.4-28.5,19.6-43,28.9c-2.5,1.5-5.3,3.5-4.5,6.8c-0.5,1.8,0.4,3.3,2.3,2.8
	c31.4-0.2,62.7,0.2,94.1-0.3c46.7,0,93.3,0.1,140,0l0.7-0.3c2.1,0.5,4.2,0.3,6.4,0.3c84.6,0,169.2,0.1,253.9,0c26.6,0.1,53.3,0,80,0
	c44,0,88.1,0.4,132.1,0.2c1.3-0.3,1.7-1.2,1.2-2.8c-0.1-1.6,0.5-3.8-1.2-4.8c-7-3.3-13-8.4-19.7-12.4c-2.4-2-5.5-3.1-7.3-5.8
	c-6.9-3.9-13.3-8.7-20.1-13c-1.3-0.8-2.3-2.1-3.4-3.2c0.6-2.1,0.8-4.4,0.8-6.6c-0.1-12.7,0-25.4-0.1-38.1c0.3-2,0.2-4.3-1.6-5.6
	c-12-4.3-23.9-8.9-35.8-13.3c-3.7-1.8-7.8-2.8-11.8-3.4h-511.1C2228.27,152.69,2226.17,153.79,2223.97,154.29L2223.97,154.29z"/>
<path class="st3" d="M2182.17,174.89c8.8,3.7,18.2,5.8,27.1,9.4c4.8,1.9,6.3,7.1,8.4,11.3c-2.1,2.1-4.6,3.8-7.1,5.4
	c-9.2,6.2-18.6,12.2-27.7,18.6c-1.1-2.7-0.7-5.7-0.8-8.7C2182.17,198.89,2182.06,186.89,2182.17,174.89z M2763.66,184.29
	c8.9-3.5,18.2-5.9,27.1-9.4c0.1,12.7,0,25.4,0.1,38.1c0,2.2-0.2,4.5-0.8,6.6c-7.8-5.4-15.7-10.5-23.5-15.8c-3.8-2.8-8-4.9-11.4-8.3
	C2757.26,191.29,2758.86,186.19,2763.66,184.29L2763.66,184.29z"/>
<path class="st4" d="M2334.76,188.39c11-2.6,23.3,7.2,22.4,18.7c0.1,11.3-11.8,20.5-22.7,17.9c-4.4-1.5-8.6-3.8-11.3-7.7
	c-3.5-5.3-4.3-12.4-1.5-18.2C2323.67,193.49,2329.06,189.69,2334.76,188.39L2334.76,188.39z M2620.06,194.69
	c4.6-5.1,11.9-8,18.7-6.2c5.1,1.5,10.1,4.8,12.3,9.8c4.4,8.6,1,20.2-7.6,24.7c-7.6,4.2-17.2,2.2-23-3.9
	C2614.56,212.39,2614.16,201.39,2620.06,194.69z"/>
<path class="st5" d="M2210.56,200.99c2.5-1.6,5-3.3,7.1-5.4l0.7,0.7c0.7,5.2,0.2,10.5,0.4,15.7c-0.3,15.6,0.3,31.3-0.4,46.9
	c-29.1,0-58.2-0.2-87.3,0c-0.8-3.3,2-5.3,4.5-6.8c14.5-9.3,28.5-19.5,43-28.9c1.6-1,3-2.3,4.3-3.6
	C2191.96,213.19,2201.36,207.19,2210.56,200.99z M2754.16,198.99c0-1.3,0.3-2.4,1-3.5c3.4,3.4,7.6,5.5,11.4,8.3
	c7.8,5.3,15.7,10.4,23.5,15.8c1.1,1.1,2.1,2.4,3.4,3.2c6.8,4.3,13.2,9.1,20.1,13c1.8,2.7,4.9,3.8,7.3,5.8c6.7,4,12.7,9.1,19.7,12.4
	c1.7,1,1.1,3.2,1.2,4.8c-29.1,0.1-58.1-0.1-87.2,0.1c-0.5-4-0.2-8-0.3-11.9C2754.27,230.99,2754.06,214.99,2754.16,198.99
	L2754.16,198.99z"/>
<radialGradient id="SVGID_2_" cx="2483.3101" cy="832.212" r="478.08" gradientTransform="matrix(1 0 0 1 0.14 -293.546)" gradientUnits="userSpaceOnUse">
	<stop  offset="0.596" style="stop-color:#F29405"/>
	<stop  offset="0.736" style="stop-color:#F7D01E"/>
	<stop  offset="1" style="stop-color:#FDCB06"/>
</radialGradient>
<path class="st6" d="M2841.76,258.79c-29.1,0.1-58.1-0.1-87.2,0.1c-0.5-4-0.2-8-0.3-11.9c0-16-0.2-32-0.1-48c0-1.3,0.3-2.4,1-3.5
	c2.1-4.2,3.7-9.3,8.5-11.2c8.9-3.5,18.2-5.9,27.1-9.4c0.3-2,0.2-4.3-1.6-5.6c-12-4.3-23.9-8.9-35.8-13.3c-3.7-1.8-7.8-2.8-11.8-3.4
	h-511.1c-2.2,0.1-4.3,1.2-6.5,1.7c-12.8,4.9-25.7,9.6-38.5,14.5c-1.7,0.3-2.6,1.8-3.5,3.1c0.1,0.8,0.2,2.2,0.2,3
	c8.8,3.7,18.2,5.8,27.1,9.4c4.8,1.9,6.3,7.1,8.4,11.3l0.7,0.7c0.7,5.2,0.2,10.5,0.4,15.7c-0.3,15.6,0.3,31.3-0.4,46.9
	c-29.1,0-58.2-0.2-87.3,0c-0.5,1.8,0.4,3.3,2.3,2.8c31.4-0.2,62.7,0.2,94.1-0.3c46.7,0,93.3,0.1,140,0l0.7-0.3
	c2.1,0.5,4.2,0.3,6.4,0.3c84.6,0,169.2,0.1,253.9,0c26.6,0.1,53.3,0,80,0c44,0,88.1,0.4,132.1,0.2
	C2841.86,261.29,2842.26,260.39,2841.76,258.79L2841.76,258.79z M2321.67,199.09c2-5.6,7.4-9.4,13.1-10.7c11-2.6,23.3,7.2,22.4,18.7
	c0.1,11.3-11.8,20.5-22.7,17.9c-4.4-1.5-8.6-3.8-11.3-7.7C2319.67,211.99,2318.86,204.89,2321.67,199.09L2321.67,199.09z
	 M2620.06,194.69c4.6-5.1,11.9-8,18.7-6.2c5.1,1.5,10.1,4.8,12.3,9.8c4.4,8.6,1,20.2-7.6,24.7c-7.6,4.2-17.2,2.2-23-3.9
	C2614.56,212.39,2614.16,201.39,2620.06,194.69z"/>
<linearGradient id="SVGID_3_" gradientUnits="userSpaceOnUse" x1="2649.9243" y1="585.3467" x2="2650.0913" y2="613.1797" gradientTransform="matrix(1 0 0 1 0.14 -293.546)">
	<stop  offset="0" style="stop-color:#FADA1C"/>
	<stop  offset="1" style="stop-color:#FDCB06"/>
</linearGradient>
<path class="st7" d="M2645.55,302.73c1.4,0.3-7.29-8.35-5.59-8.75c1.6,0.2,7.67-4.51,15-0.67c7.33,3.84,5.51,12.83,4.68,16.17
	c-0.99,3.97-3.52,6.5-5.52,8.5c-1.1,0.9-3.57,2.3-5.07,2.2c0.9-4.9-2-5.7-2.2-10.7L2645.55,302.73z"/>
<linearGradient id="SVGID_4_" gradientUnits="userSpaceOnUse" x1="2238.7646" y1="584.0131" x2="2238.9316" y2="611.846" gradientTransform="matrix(-1 0 0 1 4561.4463 -293.546)">
	<stop  offset="0" style="stop-color:#FADA1C"/>
	<stop  offset="1" style="stop-color:#FDCB06"/>
</linearGradient>
<path class="st8" d="M2325.88,308.16c-0.2,5-3.1,5.8-2.2,10.7c-1.5,0.1-3.97-1.3-5.07-2.2c-2-2-4.52-4.53-5.52-8.5
	c-0.83-3.33-2.65-12.32,4.68-16.17c7.33-3.84,13.4,0.87,15,0.67c1.7,0.4-6.99,9.05-5.59,8.75L2325.88,308.16L2325.88,308.16z"/>
<path class="st4" d="M2632.46,366.79c1.5-1.31,2.5-1.31,4.5-1.31c-12,26-26,52-47.05,72.24c-2.25,2.01-4.63,3.87-7.12,5.58
	c-2.41,1.76-4.77,3.42-7.12,5.1c-2.3,1.6-4.59,3.2-6.81,4.88c-5.7,3.1-10.7,7.4-17,9.3c-11.5,5.5-23.9,9.2-36.4,11.8
	c-4.9,0.8-9.9,2-14.9,2.1c-6.2,1.8-12.8,0.5-19.1,0.9c-3.5,0.6-6.6-1.4-10-1c-2.95-0.42-5.89-0.92-8.82-1.5
	c-2.97-0.61-5.92-1.31-8.84-2.1c-45.84-14.3-90.84-49.3-103.95-96.64c-0.59-3.19-0.89-6.42-0.89-9.66c1.4,2.8,2.85,5.58,4.35,8.33
	c18.65,40.67,55.65,72.67,99.36,82.32c3.55,1.62,7.39,1.05,10.79,2.45c3.1,0,6.1-0.1,9.1,0.9c10.3,0.2,20.6,0.1,30.9,0.1
	c1.4,0.1,2.7-0.6,4.1-0.9c17.17-0.58,33.99-5.26,49.65-12.36c3.13-1.42,6.22-2.94,9.25-4.54c2.65-1.4,5.25-2.91,7.77-4.54
	c2.48-1.6,4.88-3.3,7.22-5.1c18.51-14.66,34.51-33.66,45.38-55.51C2628.9,373.71,2630.79,370.07,2632.46,366.79z"/>
<path class="st9" d="M2616.16,455.69c29.7-17.4,64.1-25.8,98.3-27.4c11.1-1,22.3-0.7,33.3,0.7c7.2,1.7,14.6,3.7,20.3,8.6
	c-2.9,0.2-5.7-1.1-8.6-1.5c-8.2-1.6-16.7-1-25-1.2c-24.1,0-48.4,1.9-71.7,8.5c-12.2,3.7-24.4,8-35.5,14.4
	c-19.2,10.6-36.5,24.6-50.5,41.4c-25,28.7-39.7,65.1-46.8,102.2c-3.4,19.9-7.3,39.7-10.4,59.7c-5,0.5-10.1,0.2-15.1,0.2
	c-22-0.1-44-0.2-66-0.4c-4.7,0.2-9.3-0.9-14-0.6c-40,0.2-80-0.1-120-0.1l0.8-0.3c29.7-3.1,59.5-6.6,89.2-9.5
	c37.7-0.2,75.3-0.1,113,0c1.2-0.2,3.3,0.4,3.5-1.3c3.1-16.2,6.1-32.4,9.2-48.6c4.3-22.5,11.1-44.7,21.6-65.2
	C2558.26,502.29,2584.36,474.29,2616.16,455.69z"/>
<path class="st10" d="M2662.76,443.39c23.3-6.6,47.6-8.5,71.7-8.5c8.3,0.2,16.8-0.4,25,1.2c2.9,0.4,5.7,1.7,8.6,1.5
	c4.7,3.8,7.5,9.4,9.6,15c4.6,13.3,7.2,27.1,9.4,41c0.1,5.6,1.1,11.9-1.9,17c-2.8,5-8.4,7.4-13.7,8.9c-19.3,5-39.5,0.3-58.8,5
	c-15.9,3.4-30.7,12.2-40.8,24.9c-11.9,14.8-18.2,33.2-21.7,51.6c-2.7,16.4-6.1,32.8-8.8,49.3c-1.2,3.7-1.9,7.7-2.6,11.6
	c18.9,0.3,37.8,0,56.7,0.2c7.2-0.2,14.4,0.2,21.6-0.3c4,9.2,3.1,19.6,1.8,29.3c-1.6,10.9-4.2,21.7-9.1,31.7
	c-4.1,8.5-10.9,16.3-20.2,19.3c-4.8,1.9-10,1.5-15.1,1.5c-16.8,0-33.6,0.2-50.4,0c-2.7,12.3-4.5,24.9-6.9,37.4
	c-4.4,24.3-8.7,48.7-13.1,73.1c-0.1,0.8-0.2,2.5-0.2,3.4v0.1c-43.7,0-87.3,0.1-131,0c0.1-0.4,0.2-1.1,0.3-1.5
	c0.1-0.5,0.2-1.6,0.3-2.2c0.1,0.8,0.2,2.3,0.3,3c2.7,0.3,7.6,1.7,8.3-2.2c6.8-36.8,13.1-73.8,20.1-110.6c-2.7-0.6-5.5-0.6-8.3-0.1
	c-0.4,1.4-0.8,2.8-1.3,4.2l0.6-4.5c-27.2-0.1-54.5,0-81.7-0.1c-6.6-0.2-13.4,0-20-0.8c-11.3-0.5-22.7-0.1-34-1.2
	c-14,0-27.9-1.3-41.9-1.3c-11-1.1-22.1-0.7-33.2-1.2c-7.2-0.9-14.6-0.5-21.9-0.8c-11.9-1.3-24-0.4-35.9-1.7
	c-12.6,0.1-25.2-1-37.8-1.3c0.1-0.1,0.2-0.5,0.2-0.6c4.2,0.1,8.3-0.2,12.5-0.3c9.3-1.2,18.7-0.4,28-1.7c9.7,0,19.3-1.3,29-1.3
	c8.6-1.2,17.3-0.5,25.9-1.7c10.1,0,20-1.3,30.1-1.4c8.3-1.1,16.7-0.5,25-1.6c9.7,0.1,19.3-1.4,29-1.3c9.5-1.1,19.2-0.8,28.7-1.8
	c-0.9-3.7-1.6-7.4-2.4-11.1c-0.7-2.3-3.5-1.8-5.3-2.1c-21.7-3.1-43.3-6.2-64.9-9.2c1.4-1.1,3.3-0.6,4.9-0.8
	c16.8-1.3,33.5-2.8,50.3-4c3.8-0.2,7.5-0.9,11.3-1c-1.7-5.2-2.7-10.9-5-15.7c-35.9-5.5-71.8-10.4-107.6-16.3
	c9.3-1.5,18.7-2.2,28-3.2c40,0,80,0.3,120,0.1c4.7-0.3,9.3,0.8,14,0.6c22,0.2,44,0.3,66,0.4c5,0,10.1,0.3,15.1-0.2
	c3.1-20,7-39.8,10.4-59.7c7.1-37.1,21.8-73.5,46.8-102.2c14-16.8,31.3-30.8,50.5-41.4C2638.36,451.39,2650.56,447.09,2662.76,443.39
	z"/>
<path class="st9" d="M2641.36,650.29c19,0.1,38.1-0.1,57.2,0.1c7.6,0,15.4,4.2,18.5,11.4c-7.2,0.5-14.4,0.1-21.6,0.3
	c-18.9-0.2-37.8,0.1-56.7-0.2C2639.47,657.99,2640.16,653.99,2641.36,650.29L2641.36,650.29z M2493.86,743.99
	c2.8-0.5,5.6-0.5,8.3,0.1c-7,36.8-13.3,73.8-20.1,110.6c-0.7,3.9-5.6,2.5-8.3,2.2c-0.1-0.7-0.2-2.2-0.3-3
	c6.3-35.2,12.4-70.5,19.1-105.7C2493.06,746.79,2493.46,745.39,2493.86,743.99L2493.86,743.99z"/>
<path class="st11" d="M2650.11,305.53c-0.8-1.5-0.9-3.3-0.9-5l-0.8,0.1c-1.2-4.4-4.9-8.6-9.7-8.8c-3.6-0.3-8.1-0.2-10.2,3.2
	c-4,5.4-2.1,12.3-2.3,18.4c0,0.4,0.1,1.1,0.1,1.5c0,4.1-0.5,8.1-1.2,12.1c-0.6,1.2-0.9,2.5-0.9,3.9c-1.7,9.4-5.1,18.7-9.7,27.2
	c-0.9,1.2-1.6,2.5-1.9,3.9c-3,5.2-6.6,10-10.3,14.8c-0.6,0.5-1.1,1.1-1.6,1.7c-2.6,3.2-5.4,5.9-8.3,8.7c-0.7,0.4-1.2,0.9-1.8,1.3
	c-3.4,3.3-7.2,6.4-11.3,8.9c-0.5,0.3-1,0.7-1.6,1.1c-25.6,16.9-56.7,23.9-87,24.2c-25.7,0.8-51.6-4.7-74.8-15.8
	c-0.4-0.2-1.4-0.6-1.8-0.8c-3.9-2.1-7.9-3.9-11.5-6.5c-0.8-0.4-1.6-0.9-2.5-1.3c-3.7-2.2-7.2-4.6-10.5-7.4c-1.1-1-2.3-1.8-3.5-2.7
	c-3.6-2.9-7.3-6-10.4-9.5c-0.8-0.9-1.6-1.7-2.4-2.5c-10.9-11.3-19.4-25.1-23.9-40.1c-4.3-11.9-3.7-24.9-4.2-37.4
	c-3.6-5.5-11.2-8.6-17.2-5.2c-2.5,1.8-2.8,5.1-4.7,7.4c-3.1,33,11,65.9,33.5,89.7c0,0.8,0.4,1.3,1.1,1.6c4,3.7,7.9,7.5,11.9,11.1
	c0.7,0.7,1.5,1.4,2.4,2c4,3.3,8.3,6.3,12.5,9.4c0.8,0.6,1.6,1.1,2.5,1.6c5.5,3.2,10.7,7,16.6,9.2c0.4,0.3,1.1,0.8,1.5,1
	c19,9.1,39.5,15.3,60.5,17.3c2.3,0,4.6,0.2,6.9,0.7c10,0.6,20,0.3,30,0.1c30.9-2.7,62.8-10.2,88.6-28.4l0.3,0.4
	c0.8-0.7,1.5-1.3,2.3-1.9c4.1-3,8.1-6.2,12.1-9.5c0.9-0.7,1.9-1.5,2.8-2.4c4.4-4.8,9.5-9.2,13.2-14.7l0.6,0.3c0.3-0.5,0.8-1.5,1.1-2
	c3.4-4.6,6.5-9.4,9.5-14.2c0.2-0.3,0.7-0.8,0.9-1.1l-0.4-0.4c0.3-0.4,1-1.2,1.3-1.6c5.5-11.2,10.4-22.9,12.1-35.3
	c0.7-0.3,1.1-0.9,1.1-1.6c0.1-4,1.5-7.8,1.1-11.8C2650.21,315.53,2650.31,310.53,2650.11,305.53L2650.11,305.53z"/>
<g>
	<defs>
		<path id="SVGID_5_" d="M2650.11,305.53c-0.8-1.5-0.9-3.3-0.9-5l-0.8,0.1c-1.2-4.4-4.9-8.6-9.7-8.8c-3.6-0.3-8.1-0.2-10.2,3.2
			c-4,5.4-2.1,12.3-2.3,18.4c0,0.4,0.1,1.1,0.1,1.5c0,4.1-0.5,8.1-1.2,12.1c-0.6,1.2-0.9,2.5-0.9,3.9c-1.7,9.4-5.1,18.7-9.7,27.2
			c-0.9,1.2-1.6,2.5-1.9,3.9c-3,5.2-6.6,10-10.3,14.8c-0.6,0.5-1.1,1.1-1.6,1.7c-2.6,3.2-5.4,5.9-8.3,8.7c-0.7,0.4-1.2,0.9-1.8,1.3
			c-3.4,3.3-7.2,6.4-11.3,8.9c-0.5,0.3-1,0.7-1.6,1.1c-25.6,16.9-56.7,23.9-87,24.2c-25.7,0.8-51.6-4.7-74.8-15.8
			c-0.4-0.2-1.4-0.6-1.8-0.8c-3.9-2.1-7.9-3.9-11.5-6.5c-0.8-0.4-1.6-0.9-2.5-1.3c-3.7-2.2-7.2-4.6-10.5-7.4c-1.1-1-2.3-1.8-3.5-2.7
			c-3.6-2.9-7.3-6-10.4-9.5c-0.8-0.9-1.6-1.7-2.4-2.5c-10.9-11.3-19.4-25.1-23.9-40.1c-4.3-11.9-3.7-24.9-4.2-37.4
			c-3.6-5.5-11.2-8.6-17.2-5.2c-2.5,1.8-2.8,5.1-4.7,7.4c-3.1,33,11,65.9,33.5,89.7c0,0.8,0.4,1.3,1.1,1.6c4,3.7,7.9,7.5,11.9,11.1
			c0.7,0.7,1.5,1.4,2.4,2c4,3.3,8.3,6.3,12.5,9.4c0.8,0.6,1.6,1.1,2.5,1.6c5.5,3.2,10.7,7,16.6,9.2c0.4,0.3,1.1,0.8,1.5,1
			c19,9.1,39.5,15.3,60.5,17.3c2.3,0,4.6,0.2,6.9,0.7c10,0.6,20,0.3,30,0.1c30.9-2.7,62.8-10.2,88.6-28.4l0.3,0.4
			c0.8-0.7,1.5-1.3,2.3-1.9c4.1-3,8.1-6.2,12.1-9.5c0.9-0.7,1.9-1.5,2.8-2.4c4.4-4.8,9.5-9.2,13.2-14.7l0.6,0.3
			c0.3-0.5,0.8-1.5,1.1-2c3.4-4.6,6.5-9.4,9.5-14.2c0.2-0.3,0.7-0.8,0.9-1.1l-0.4-0.4c0.3-0.4,1-1.2,1.3-1.6
			c5.5-11.2,10.4-22.9,12.1-35.3c0.7-0.3,1.1-0.9,1.1-1.6c0.1-4,1.5-7.8,1.1-11.8C2650.21,315.53,2650.31,310.53,2650.11,305.53
			L2650.11,305.53z"/>
	</defs>
	<clipPath id="SVGID_6_">
		<use xlink:href="#SVGID_5_"  style="overflow:visible;"/>
	</clipPath>
	<g class="st12">
		<path class="st13" d="M2315.63,302.16c8.11,2.54,26.73-3.85,32,2 M2320.3,326.82c7.77-2.7,24.42-9.1,31.33-5.33 M2328.3,351.49
			c3.75,1.22,11.16-5.38,14.83-7.31c5.47-2.88,11.08-5.08,17.17-6.02 M2340.3,377.49c3.87-5.5,8.51-10.08,14.1-13.98
			c5.55-3.87,20.72-14.22,27.23-10.68 M2351.63,396.16c4.4-3.49,6.19-9.68,10.8-13.35c5.58-4.44,14.14-5.24,19.86-7.98
			 M2370.46,409.99c1.32-9.67,11.13-21.34,20.5-20.5 M2384.96,423.49c4.95-0.5,9.14-11.58,12.49-15.33
			c5.02-5.62,10.21-7.35,16.85-9.34 M2413.63,435.49c-0.32-7,6.91-27.05,15.33-26 M2434.96,442.16c-0.35-8.27,3.92-33.14,14-34
			 M2456.96,455.49c-1.91-11.56-1.79-28.29,7.33-36.67 M2484.3,458.16c-1.02-9.64-10.59-29.12,0-36.67 M2513.63,451.49
			c-4.57-5.3-7.23-26.21-5.33-32 M2541.63,446.82c-3.53-6.4-7.9-12.42-9.23-19.85c-0.8-4.44,0.6-10.77-0.1-14.15 M2564.96,436.82
			c-7.65-5-9.77-23.39-7.33-31.33 M2587.63,426.82c-5.44-11.67-11.24-20.72-11.33-34 M2609.63,405.49
			c-8.45-5.69-19.24-16.02-18-27.33 M2632.96,387.49c-12.84-2.85-28.26-14.34-36-24.67 M2643.63,365.49
			c-9.27-1.99-39.88-13.93-38-26 M2653.63,342.16c-12.91-4.73-31.69-8.99-42-18 M2660.3,320.82c-8.13,0.7-19.78-3.24-28.05-4.67
			c-9.18-1.58-17.69-4.68-26.62-6.67 M2652.3,300.16c-15.69,0.94-30.4-4.43-44.67-9.33"/>
	</g>
</g>
<g>
	<path class="st14" d="M645.34,348.24c14.49-2.19,31.17-3.55,43.47,5.47c7.66,5.74,10.39,16.13,9.84,25.43
		c0.55,15.31-6.56,31.72-20.23,39.65c-12.03,6.56-26.52,7.11-39.92,5.74c-9.02-1.09-18.04-6.01-22.69-14.22
		C605.42,386.52,618.27,352.89,645.34,348.24L645.34,348.24z M211.71,365.46c0.82-8.2,8.2-15.58,16.68-15.31
		c63.16,0,126.04,0.27,188.93,0c6.83-0.55,14.22,2.46,17.5,8.47c4.65,8.2,0.55,17.23,0,25.7c-1.91,11.48-1.37,26.79-14.76,31.17
		c-45.93,1.37-91.87,0-137.8,0.55c-4.37,28.98-8.47,57.69-12.85,86.4c0,1.09,0.28,3.56,0.28,4.65c33.63-0.27,67.26,0,100.89-0.27
		c9.3-0.55,19.14,7.39,18.32,17.22c-0.82,10.12-3.01,19.96-4.37,30.08c-1.1,6.83-6.56,13.12-13.67,14.49
		c-37.46,0.82-75.46-0.82-112.92,0.82c-6.02,41.29-13.13,82.57-19.42,123.86c-0.82,8.2-7.38,15.31-15.58,15.58
		c-15.58,0.28-31.17,0.28-46.75,0c-10.12,0.28-18.32-10.94-15.59-20.51C177.26,580.64,194.49,473.19,211.71,365.46L211.71,365.46z
		 M489.5,350.7c14.22-1.09,28.71-0.27,42.93-0.54c8.75-0.55,17.5,6.29,18.32,15.31c0,7.11-1.91,14.22-2.73,21.33
		c-11.48,73.28-23.24,146.55-34.72,219.82c-1.64,11.76-4.65,24.33-1.09,36.36c4.1,12.03,22.42,6.83,26.79,19.41
		c2.73,10.12-0.28,20.78-1.09,31.17c-0.82,13.67-16.4,16.68-27.06,19.69c-23.24,4.37-51.4,1.09-68.08-18.05
		c-12.03-13.94-12.85-33.63-10.39-51.12c14.49-92.96,28.98-185.92,43.75-279.15C476.92,358.08,482.39,351.79,489.5,350.7
		L489.5,350.7z M1032.22,365.46c0.82-8.2,8.2-15.31,16.4-15.31h41.56c10.39-0.27,18.87,10.94,16.41,20.78
		c-9.57,60.7-19.41,121.4-28.98,182.09c14.49-2.19,30.9-4.92,41.01-16.68c16.95-19.14,30.9-41.28,41.28-64.52
		c3.55-9.02,5.47-22.15,17.22-23.79c15.59-0.55,31.44-0.27,47.03,0c10.66-0.27,18.59,11.76,15.04,21.6
		c-4.1,14.49-10.94,27.89-18.04,40.74c-15.86,25.7-33.35,51.13-56.32,71.36c10.12,30.35,22.97,59.88,34.18,89.68
		c3.28,9.84,11.21,21.32,3.83,30.9c-8.48,11.48-24.34,5.74-36.09,7.1c-12.3-1.37-30.07,4.92-36.91-9.02
		c-12.85-29.8-23.51-60.42-36.64-90.23c-7.66,0.27-15.58,0.55-23.24-0.27c-0.54,1.09-1.64,3.28-2.19,4.38
		c-4.1,27.34-8.47,54.68-12.85,82.02c-1.64,6.56-6.84,12.3-13.94,12.85c-14.49,0.55-29.26,0.27-44.02,0.27
		c-6.29,0-12.03-4.1-14.77-9.57c-2.73-5.47-1.09-11.76-0.27-17.77C998.86,576.54,1015.54,471,1032.22,365.46L1032.22,365.46z
		 M1792.02,395.27c1.92-7.66,9.3-12.85,16.95-12.58c10.94,0.27,22.15-0.27,33.35,0.27c9.02,0.27,16.13,9.3,15.04,18.04
		c-1.64,15.59-5.47,31.17-6.56,46.75c10.66,0,21.6-0.27,32.26,0c9.57,0,17.5,9.84,15.86,19.14c-1.37,8.48-3.28,16.68-4.65,25.15
		c-1.37,7.11-7.38,12.85-14.21,13.95c-13.12,0.82-25.97-0.55-38.82,0.82c-5.47,36.64-11.48,73.27-17.23,109.91
		c-0.82,8.47-1.37,18.04,3.55,25.43c7.38,9.02,20.23,5.74,30.62,6.84c8.2,2.46,13.4,11.48,12.03,19.69
		c-1.37,9.29-1.64,18.59-3.83,27.61c-3.28,10.11-15.04,12.03-24.06,14.49c-24.88,6.56-53.59,6.56-75.73-7.93
		c-20.51-13.95-23.79-41.01-21.6-63.98c5.74-44.29,14.77-88.31,19.69-132.88c-7.66,0.27-16.95,1.37-22.69-5.47
		c-6.56-6.83-3.28-16.95-2.19-25.43c1.64-9.02,1.37-20.78,11.21-25.7c7.93-3.01,16.95-0.82,25.43-1.91
		C1781.64,429.99,1786.56,412.49,1792.02,395.27L1792.02,395.27z M1637.55,483.85c17.22-17.23,38-31.44,61.79-38.55
		c10.39-4.65,23.79,4.1,23.52,15.58c-1.91,15.04-5.47,29.8-7.93,44.56c-1.1,7.38-7.38,13.67-14.77,14.49
		c-26.79,4.65-50.03,20.78-68.62,39.92c-4.65,5.74-11.48,11.21-12.3,19.14c-5.74,38.28-11.76,76.56-17.77,114.83
		c-0.82,8.2-7.93,16.13-16.41,15.59h-41.56c-9.57,0.55-18.04-9.02-16.95-18.59c12.03-75.74,24.06-151.2,35.82-226.93
		c0.55-7.65,6.02-15.04,13.94-15.86c10.12-0.55,20.23-0.27,30.62-0.27c8.2,0,15.86,7.38,15.86,15.86c0,11.76-1.09,23.78-1.37,35.82
		C1627.98,495.33,1632.08,488.77,1637.55,483.85L1637.55,483.85z M615.54,449.12c14.76-3.01,30.07-0.54,44.84-1.37
		c8.48-1.09,17.5,4.38,18.86,12.85c1.1,7.65-1.09,15.04-1.92,22.42c-11.21,70.27-22.42,140.53-33.36,210.8
		c-0.82,7.93-7.38,15.86-15.86,15.58c-14.76,0-29.53,0.28-44.56-0.27c-9.3-1.1-16.13-11.76-13.67-20.78
		c11.76-73,22.97-145.73,34.72-218.73C605.15,461.7,607.34,452.41,615.54,449.12z M1500.29,452.68
		c-40.74-7.66-82.29-13.13-123.58-9.02c-36.91,4.65-74.09,21.33-96.79,51.68c-31.44,39.92-42.11,93.51-35,143.27
		c3.83,23.78,14.22,47.85,33.63,62.61c18.04,13.95,42.38,15.86,64.25,12.3c30.62-6.02,56.59-25.7,77.92-47.57
		c1.09,9.29-1.09,18.59-0.55,27.61c0.55,8.47,8.2,16.4,16.68,15.85h27.89c8.2,0,15.04-7.65,15.59-15.58
		c11.76-74.09,23.51-147.92,35-221.73C1516.97,462.8,1509.59,453.77,1500.29,452.68L1500.29,452.68z M1423.47,581.46
		c-10.94,20.51-26.25,39.1-43.47,54.95c-9.84,8.2-22.42,16.68-35.81,13.95c-13.12-2.73-19.41-16.4-22.42-28.16
		c-6.83-30.62-0.55-63.98,16.68-90.5c7.66-12.31,19.96-21.6,34.18-25.43c19.96-4.92,41.01-2.46,60.43,3.01l1.09,1.1
		C1431.67,534.16,1427.02,557.67,1423.47,581.46L1423.47,581.46z M963.59,540.45c-0.28-27.34-7.66-56.05-26.79-76.56
		c-13.12-14.49-32.81-21.87-51.95-21.6c-31.72-1.09-61.52,14.49-84.76,35.27c-5.2,4.1-8.75,10.12-14.49,13.4
		c0-9.02,0.82-18.05,0.54-27.34c0.28-8.48-7.66-15.86-15.86-15.86H742.4c-8.75,0-15.86,7.66-16.4,16.13
		c-17.22,109.36-34.72,218.73-51.95,328.09c-2.46,10.11,6.29,20.51,16.68,20.23c15.31-0.27,30.9,1.09,45.93-1.1
		c12.03-3.28,11.76-17.22,13.67-27.34c4.37-24.06,7.38-48.12,10.12-72.46c53.86,10.39,116.47,3.28,156.66-37.46
		C949.92,638.05,965.23,588.56,963.59,540.45L963.59,540.45z M887.04,568.06c-1.64,25.15-10.66,50.58-28.16,68.9
		c-22.69,21.6-57.15,18.59-85.03,11.21c-0.54-0.82-1.37-2.46-1.64-3.28c4.37-23.79,6.56-47.85,12.03-71.36
		c15.31-25.15,33.9-50.58,60.42-64.52c9.84-4.65,23.24-3.55,30.35,5.47C887.04,529.51,888.13,549.74,887.04,568.06L887.04,568.06z"
		/>
</g>
<text transform="matrix(1 0 0 1 952.6555 290.4739)" class="st14 st15 st16">Buy now at</text>
</svg>
