<svg xmlns="http://www.w3.org/2000/svg" viewBox="0 0 1006 1006"><defs><style>.cls-1{fill:#231f20;}.cls-2{fill:none;stroke:#231f20;stroke-miterlimit:10;stroke-width:6px;}</style></defs><title>final_iconwhith_borderAsset 6SVG</title><g id="Layer_2" data-name="Layer 2"><g id="Layer_1-2" data-name="Layer 1"><path class="cls-1" d="M260.41,652.82C235.83,632.5,176.58,575,148.28,475.1,149.44,477.4,216.9,612.06,260.41,652.82Z"/><path class="cls-1" d="M503,24.5C238.73,24.5,24.5,238.73,24.5,503S238.73,981.5,503,981.5,981.5,767.27,981.5,503,767.27,24.5,503,24.5ZM735.88,273.86s20.26,75.43,9.81,162.78A338.88,338.88,0,0,0,673.86,490a745.52,745.52,0,0,0-66.92,74.5,395.88,395.88,0,0,0-11.45-177.26C656.42,308.32,735.88,273.86,735.88,273.86Zm-465.8,0s79.46,34.46,140.41,113.33A395.89,395.89,0,0,0,399,564.45,743.05,743.05,0,0,0,332.1,490a339.54,339.54,0,0,0-71.81-53.31C249.82,349.29,270.08,273.86,270.08,273.86ZM441,745.71a40.29,40.29,0,0,1-4.9,7.2c-36.82,43.92-140.06-1-237.32-92.23S89.44,416,89.44,416s130,3.91,225.36,97.31c74.81,73.42,128.8,150.69,132,202.2-35.44-33.3-117.5-74.19-126.15-78.47C385.2,676.14,423.77,721.93,441,745.71Zm77-15.19-.93.11-.66.06-.44-4.41c12.67-47.45-2.64-92.36-5.33-100.55C496,578.07,498.71,547,498.93,544.58c-8.65,39,1.78,80.48,1.78,80.48a190.08,190.08,0,0,1,4.35,48c-.1,2.36-.21,4.68-.44,7s-.43,4.51-.7,6.7c-.62,4.41-1.39,8.65-2.25,12.77a150.58,150.58,0,0,1-5,17.45s-.13.29-.29.78c-.11.33-.27.71-.44,1.14-.33,1-.76,2.05-1.22,3.15-.64,1.59-1.3,3.18-2,4.74l-1.92,4-1.76,0-.93-.06c-40.95-31.21-66.55-119.06-66.16-237.16,0-4.74.1-9.35.23-13.93C425.92,363.26,471.39,289,503,242.72c1.49-2.13,2.92-4.18,4.3-6.21a.77.77,0,0,1,1.37,0c7.72,11.38,75.18,115.85,75.18,240.57v0c.06.77.1,1.6.1,2.38.13,4.55.23,9.19.23,13.87C584.55,611.53,559,699.36,518,730.52Zm289.16-69.84c-97.18,91.2-200.48,136.15-237.3,92.23a41,41,0,0,1-4.84-7.2c17.16-23.78,55.75-69.57,120.36-108.64-8.69,4.28-90.77,45.17-126.2,78.47,3.19-51.51,57.18-128.78,132-202.2C786.52,419.94,916.58,416,916.58,416S904.46,569.48,807.15,660.68Zm-58.27-7.33c24.54-20.3,83.77-77.77,112.06-177.59C859.78,478.05,792.36,612.63,748.88,653.35Z"/><circle class="cls-2" cx="503" cy="503" r="500"/></g></g></svg>